<svg width="56" height="56" viewBox="0 0 56 56" fill="none" xmlns="http://www.w3.org/2000/svg">
<rect width="56" height="56" rx="28" fill="#FB5607"/>
<path d="M35.1898 26.9123C36.1484 26.9123 36.6277 27.3056 36.6277 28.0922C36.6277 28.4363 36.5048 28.719 36.259 28.9402C36.0132 29.1368 35.6568 29.2352 35.1898 29.2352H29.2905V34.4339C29.2905 34.8763 29.1799 35.2204 28.9587 35.4663C28.7375 35.7121 28.4179 35.835 28.0001 35.835C27.6068 35.835 27.2995 35.7121 27.0783 35.4663C26.8817 35.2204 26.7833 34.8763 26.7833 34.4339V29.2352H20.8472C20.3802 29.2352 20.0115 29.1368 19.7411 28.9402C19.4953 28.719 19.3724 28.4363 19.3724 28.0922C19.3724 27.3056 19.864 26.9123 20.8472 26.9123H26.7833V21.5661C26.7833 21.1237 26.8817 20.7796 27.0783 20.5338C27.2995 20.288 27.6068 20.1651 28.0001 20.1651C28.4179 20.1651 28.7375 20.288 28.9587 20.5338C29.1799 20.7796 29.2905 21.1237 29.2905 21.5661V26.9123H35.1898Z" fill="white"/>
</svg>
