<svg width="24" height="24" viewBox="0 0 24 24" fill="none" xmlns="http://www.w3.org/2000/svg">
<g clip-path="url(#clip0_200_2024)">
<path d="M18.2795 3.38477H6.02179C5.36497 3.38477 4.83252 3.91722 4.83252 4.57404V11.1926C4.83252 11.8494 5.36497 12.3819 6.02179 12.3819H18.2795C18.9363 12.3819 19.4688 11.8494 19.4688 11.1926V4.57404C19.4688 3.91722 18.9363 3.38477 18.2795 3.38477Z" stroke="#8338EC" stroke-width="1.39914" stroke-miterlimit="10"/>
<path d="M17.7229 3.38477H6.57841C5.61418 3.38477 4.83252 4.16643 4.83252 5.13065V20.9501C4.83252 21.9143 5.61418 22.696 6.57841 22.696H17.7229C18.6871 22.696 19.4688 21.9143 19.4688 20.9501V5.13065C19.4688 4.16643 18.6871 3.38477 17.7229 3.38477Z" stroke="#8338EC" stroke-width="1.39914" stroke-miterlimit="10"/>
<path d="M9.36133 15.31V3.9409C9.36133 2.48397 10.5445 1.30078 12.0015 1.30078C13.4584 1.30078 14.6416 2.48397 14.6416 3.9409V15.31" stroke="#8338EC" stroke-width="1.39914" stroke-miterlimit="10"/>
<path d="M19.4717 4.64062H21.3088C21.759 4.64062 22.124 5.00562 22.124 5.45578V8.95364C22.124 9.4038 21.759 9.76879 21.3088 9.76879H19.4717V4.64062Z" stroke="#8338EC" stroke-width="1.39914" stroke-miterlimit="10"/>
<path d="M19.4717 15.4689H21.1841C21.7012 15.4689 22.1209 15.8886 22.1209 16.4057V21.3209C22.1209 21.838 21.7012 22.2577 21.1841 22.2577H19.4717V15.4658V15.4689Z" stroke="#8338EC" stroke-width="1.39914" stroke-miterlimit="10"/>
<path d="M4.52832 9.76904H2.69118C2.24103 9.76904 1.87603 9.40405 1.87603 8.95389L1.87603 5.45603C1.87603 5.00587 2.24103 4.64088 2.69118 4.64088H4.52832L4.52832 9.76904Z" stroke="#8338EC" stroke-width="1.39914" stroke-miterlimit="10"/>
<path d="M4.52832 22.2578H2.80372C2.29273 22.2578 1.87603 21.8442 1.87603 21.3301L1.87603 16.5639C1.87603 16.0529 2.28969 15.6362 2.80372 15.6362H4.52832L4.52832 22.2548V22.2578Z" stroke="#8338EC" stroke-width="1.39914" stroke-miterlimit="10"/>
<path d="M7.5 17.5C7.5 16.9477 7.94772 16.5 8.5 16.5H15.5C16.0523 16.5 16.5 16.9477 16.5 17.5V22H7.5V17.5Z" fill="#FB5607"/>
</g>
<defs>
<clipPath id="clip0_200_2024">
<rect width="21.6472" height="22.7969" fill="white" transform="translate(1.17627 0.601562)"/>
</clipPath>
</defs>
</svg>
