<svg width="40" height="40" viewBox="0 0 40 40" fill="none" xmlns="http://www.w3.org/2000/svg">
<path d="M26.8865 11.379C26.5564 10.9034 26.2784 10.166 26.0091 9.60137C25.6073 8.65554 25.1686 7.97902 24.1967 7.83134C22.9805 7.77379 20.4318 7.8346 18.6107 7.81288C17.6856 7.80962 16.768 7.81505 15.9622 7.81288C15.5659 7.81614 15.3085 7.79442 14.9469 7.93341C14.3855 8.14734 13.9761 8.64034 13.7372 9.18764C13.4907 9.69693 13.2029 10.3767 12.9586 10.8719C12.7186 11.4029 12.3168 11.8688 11.7608 12.0653C11.3634 12.2076 10.9931 12.1815 10.3882 12.1858C9.27084 12.1858 7.62025 12.1858 6.69506 12.1858C6.19663 12.188 5.85348 12.1837 5.48644 12.339C4.8729 12.5985 4.39184 13.3032 4.43962 13.9526C4.47437 16.1342 4.38859 28.4332 4.46243 30.7679C4.48849 31.0459 4.78494 31.5639 5.08683 31.7876C5.32464 31.9896 5.69819 32.1622 5.85999 32.1709C8.14801 32.222 31.4527 32.1709 34.0024 32.1861C34.6486 32.1568 35.3935 31.5107 35.5303 30.8407C35.5998 30.5475 35.5531 30.2706 35.5672 29.9557C35.5661 29.4149 35.5672 28.898 35.5672 28.3377C35.5727 24.9703 35.5629 17.6719 35.5672 14.3913C35.564 13.9168 35.6096 13.5563 35.387 13.1556C34.8147 12.125 33.9503 12.1685 32.8915 12.1869C31.8491 12.1869 30.685 12.1869 29.6251 12.1869C28.5208 12.1826 27.5869 12.327 26.8984 11.3953L26.8876 11.3801L26.8865 11.379Z" stroke="#8338EC" stroke-width="3" stroke-miterlimit="10"/>
<path d="M7.68335 18.0378H32.3168" stroke="#8338EC" stroke-width="3" stroke-miterlimit="10"/>
<path d="M20.0029 29.6057C24.4631 29.6057 28.0788 25.99 28.0788 21.5298C28.0788 17.0696 24.4631 13.4539 20.0029 13.4539C15.5427 13.4539 11.927 17.0696 11.927 21.5298C11.927 25.99 15.5427 29.6057 20.0029 29.6057Z" fill="white" stroke="#8338EC" stroke-width="3" stroke-miterlimit="10"/>
<path d="M6.26025 11.2687C6.26025 10.7164 6.70797 10.2687 7.26025 10.2687H9.71849C10.2708 10.2687 10.7185 10.7164 10.7185 11.2687V12.0884H6.26025V11.2687Z" fill="#FB5607"/>
<path d="M20.0032 15.787C23.1746 15.7872 25.7454 18.3586 25.7454 21.5302C25.7451 24.7015 23.1745 27.2721 20.0032 27.2723C16.8317 27.2723 14.2602 24.7016 14.26 21.5302C14.26 18.3585 16.8315 15.787 20.0032 15.787Z" fill="#FB5607" stroke="white" stroke-miterlimit="10"/>
</svg>
