<svg width="20" height="20" viewBox="0 0 20 20" fill="none" xmlns="http://www.w3.org/2000/svg">
<path d="M0 0H12C16.4183 0 20 3.58172 20 8V20H8C3.58172 20 0 16.4183 0 12V0Z" fill="#FB5607"/>
<path d="M13.4639 6.69238C13.6967 6.71578 13.9024 6.82032 14.0664 6.98438L14.1338 7.05762C14.282 7.23616 14.3623 7.45426 14.3623 7.69434C14.3622 7.96812 14.2563 8.21175 14.0654 8.40234L14.0664 8.40332L9.47949 13.0029L9.47852 13.0039C9.29116 13.1911 9.04976 13.2997 8.77539 13.2998C8.53521 13.2998 8.32005 13.2166 8.14453 13.0703L8.07129 13.0039L5.92188 10.8535C5.72786 10.6595 5.62285 10.4091 5.63086 10.1299L5.63867 10.0303C5.66702 9.80138 5.76967 9.59754 5.93359 9.43359L6.00781 9.36621C6.18641 9.21794 6.40464 9.13711 6.64551 9.1377L6.74609 9.14258C6.94544 9.16243 7.12659 9.23979 7.2793 9.36621L7.35352 9.43359L7.35449 9.43555L8.77637 10.8662L12.6592 6.98438L12.7314 6.91699C12.9069 6.77059 13.1221 6.68757 13.3623 6.6875L13.4639 6.69238Z" fill="white" stroke="white"/>
</svg>
