<svg width="22" height="22" viewBox="0 0 22 22" fill="none" xmlns="http://www.w3.org/2000/svg">
<path d="M19.1836 12.188C19.4522 12.0296 19.7727 11.9835 20.0752 12.0591C20.3778 12.1348 20.6384 12.3269 20.8008 12.5933C20.9632 12.8596 21.0146 13.1792 20.9434 13.4829L20.9424 13.4858C20.5792 14.9379 19.9028 16.2917 18.9619 17.4526L18.7705 17.6821C17.7295 18.8927 16.4197 19.8436 14.9463 20.4585C13.4728 21.0734 11.8759 21.3356 10.2832 21.2241C8.79013 21.1196 7.3394 20.6894 6.03223 19.9653L5.77246 19.8169C4.76517 19.2198 3.87199 18.4532 3.125 17.5562V18.813C3.12499 19.1279 3.00004 19.4301 2.77734 19.6528C2.55465 19.8755 2.25244 20.0005 1.9375 20.0005C1.66192 20.0005 1.39588 19.9051 1.18457 19.7319L1.09766 19.6528C0.874964 19.4301 0.750008 19.1279 0.75 18.813V13.2505H6.3125C6.62744 13.2505 6.92964 13.3754 7.15234 13.5981C7.37503 13.8208 7.5 14.1231 7.5 14.438C7.49999 14.7529 7.37504 15.0551 7.15234 15.2778C6.92965 15.5005 6.62744 15.6255 6.3125 15.6255H4.62793C5.43713 16.7398 6.5257 17.6252 7.78809 18.189C9.19268 18.8162 10.7504 19.0189 12.2686 18.771C13.7866 18.5231 15.199 17.8359 16.3311 16.7944L16.5391 16.5952C17.5615 15.5831 18.2887 14.3088 18.6387 12.9097L18.6396 12.9058C18.7198 12.6045 18.9151 12.3464 19.1836 12.188ZM10.1289 0.787598C11.8979 0.636664 13.6755 0.948203 15.2881 1.69092C16.6762 2.33027 17.9007 3.2705 18.875 4.43994V3.18799C18.875 2.87305 19 2.57084 19.2227 2.34814C19.4454 2.12545 19.7476 2.00049 20.0625 2.00049C20.3774 2.00049 20.6796 2.12545 20.9023 2.34814C21.125 2.57084 21.25 2.87305 21.25 3.18799V8.75049H15.6875C15.3726 8.75049 15.0704 8.62552 14.8477 8.40283C14.625 8.18014 14.5 7.87792 14.5 7.56299C14.5 7.24805 14.625 6.94584 14.8477 6.72314C15.0704 6.50044 15.3726 6.37549 15.6875 6.37549H17.3721C16.6192 5.33824 15.6246 4.49909 14.4727 3.93311L14.2119 3.81104C12.8071 3.18346 11.249 2.98105 9.73047 3.229C8.21231 3.47699 6.8 4.16403 5.66797 5.20557C4.53576 6.2474 3.73348 7.59863 3.36035 9.09131C3.33327 9.20507 3.28919 9.31389 3.23047 9.41455L3.16699 9.51318C3.07465 9.64066 2.95763 9.74862 2.82324 9.83057C2.68891 9.91247 2.53932 9.96602 2.38379 9.98975C2.22831 10.0134 2.06957 10.0064 1.91699 9.96826C1.76435 9.93008 1.62022 9.8622 1.49414 9.76807C1.36803 9.67388 1.26161 9.55501 1.18164 9.41943C1.10177 9.28395 1.04975 9.13384 1.02832 8.97803C1.00688 8.82209 1.01719 8.66335 1.05762 8.51123C1.57634 6.44038 2.7283 4.58307 4.35352 3.19873L4.66309 2.94482C6.20826 1.72949 8.0728 0.984977 10.0342 0.799316L10.0381 0.79541L10.1289 0.787598Z" fill="#FB5607" stroke="#FB5607" stroke-width="0.5"/>
</svg>
