<svg width="25" height="24" viewBox="0 0 25 24" fill="none" xmlns="http://www.w3.org/2000/svg">
<rect x="0.5" width="24" height="24" rx="12" fill="#FB5607"/>
<path d="M12.5 13.2776L8.02852 17.749C7.86122 17.9163 7.64829 18 7.38973 18C7.13118 18 6.91825 17.9163 6.75095 17.749C6.58365 17.5817 6.5 17.3688 6.5 17.1103C6.5 16.8517 6.58365 16.6388 6.75095 16.4715L11.2224 12L6.75095 7.52852C6.58365 7.36122 6.5 7.14829 6.5 6.88973C6.5 6.63118 6.58365 6.41825 6.75095 6.25095C6.91825 6.08365 7.13118 6 7.38973 6C7.64829 6 7.86122 6.08365 8.02852 6.25095L12.5 10.7224L16.9715 6.25095C17.1388 6.08365 17.3517 6 17.6103 6C17.8688 6 18.0817 6.08365 18.249 6.25095C18.4163 6.41825 18.5 6.63118 18.5 6.88973C18.5 7.14829 18.4163 7.36122 18.249 7.52852L13.7776 12L18.249 16.4715C18.4163 16.6388 18.5 16.8517 18.5 17.1103C18.5 17.3688 18.4163 17.5817 18.249 17.749C18.0817 17.9163 17.8688 18 17.6103 18C17.3517 18 17.1388 17.9163 16.9715 17.749L12.5 13.2776Z" fill="white"/>
</svg>
