<svg width="32" height="32" viewBox="0 0 32 32" fill="none" xmlns="http://www.w3.org/2000/svg">
<path fill-rule="evenodd" clip-rule="evenodd" d="M20.5445 14.1811C20.5445 15.0168 20.3799 15.8442 20.0601 16.6163C19.7403 17.3883 19.2716 18.0898 18.6807 18.6807C18.0898 19.2716 17.3883 19.7403 16.6163 20.0601C15.8442 20.3799 15.0168 20.5445 14.1811 20.5445C13.3455 20.5445 12.518 20.3799 11.746 20.0601C10.9739 19.7403 10.2724 19.2716 9.68152 18.6807C9.09062 18.0898 8.6219 17.3883 8.30211 16.6163C7.98232 15.8442 7.81772 15.0168 7.81772 14.1811C7.81772 12.4934 8.48815 10.8749 9.68152 9.68152C10.8749 8.48815 12.4934 7.81772 14.1811 7.81772C15.8688 7.81772 17.4873 8.48815 18.6807 9.68152C19.8741 10.8749 20.5445 12.4934 20.5445 14.1811ZM19.2882 20.5736C17.6545 21.8788 15.583 22.5089 13.4992 22.3345C11.4154 22.1601 9.47748 21.1945 8.08342 19.6359C6.68936 18.0773 5.94498 16.0441 6.00317 13.9538C6.06136 11.8636 6.9177 9.87493 8.39631 8.39631C9.87493 6.9177 11.8636 6.06136 13.9538 6.00317C16.0441 5.94498 18.0773 6.68936 19.6359 8.08342C21.1945 9.47748 22.1601 11.4154 22.3345 13.4992C22.5089 15.583 21.8788 17.6545 20.5736 19.2882L25.7334 24.4462C25.8179 24.5307 25.885 24.631 25.9307 24.7415C25.9765 24.8519 26 24.9703 26 25.0898C26 25.2093 25.9765 25.3277 25.9307 25.4381C25.885 25.5485 25.8179 25.6489 25.7334 25.7334C25.6489 25.8179 25.5485 25.885 25.4381 25.9307C25.3277 25.9765 25.2093 26 25.0898 26C24.9703 26 24.8519 25.9765 24.7415 25.9307C24.631 25.885 24.5307 25.8179 24.4462 25.7334L19.2882 20.5736Z" fill="black"/>
</svg>
