<svg width="48" height="48" viewBox="0 0 48 48" fill="none" xmlns="http://www.w3.org/2000/svg">
<rect width="48" height="48" rx="4" fill="#FB5607"/>
<path d="M24 32H33M28.5 15.5C28.8978 15.1022 29.4374 14.8787 30 14.8787C30.2786 14.8787 30.5544 14.9336 30.8118 15.0402C31.0692 15.1468 31.303 15.303 31.5 15.5C31.697 15.697 31.8532 15.9308 31.9598 16.1882C32.0665 16.4456 32.1213 16.7214 32.1213 17C32.1213 17.2786 32.0665 17.5544 31.9598 17.8118C31.8532 18.0692 31.697 18.303 31.5 18.5L19 31L15 32L16 28L28.5 15.5Z" stroke="white" stroke-width="1.5" stroke-linecap="round" stroke-linejoin="round"/>
</svg>
