<svg width="24" height="24" viewBox="0 0 24 24" fill="none" xmlns="http://www.w3.org/2000/svg">
<path d="M3 12C3 11.8011 3.07902 11.6103 3.21967 11.4697C3.36032 11.329 3.55109 11.25 3.75 11.25L9 11.25V8.25C9 7.65326 9.23705 7.08097 9.65901 6.65901C10.081 6.23705 10.6533 6 11.25 6L18.4395 6L16.719 4.281C16.6493 4.21127 16.594 4.12848 16.5562 4.03738C16.5185 3.94627 16.4991 3.84862 16.4991 3.75C16.4991 3.65138 16.5185 3.55373 16.5562 3.46262C16.594 3.37151 16.6493 3.28873 16.719 3.219C16.7887 3.14927 16.8715 3.09395 16.9626 3.05621C17.0537 3.01848 17.1514 2.99905 17.25 2.99905C17.3486 2.99905 17.4463 3.01848 17.5374 3.05621C17.6285 3.09395 17.7113 3.14927 17.781 3.219L20.781 6.219C20.8508 6.28867 20.9063 6.37143 20.9441 6.46255C20.9819 6.55367 21.0013 6.65135 21.0013 6.75C21.0013 6.84865 20.9819 6.94633 20.9441 7.03745C20.9063 7.12857 20.8508 7.21133 20.781 7.281L17.781 10.281C17.7113 10.3507 17.6285 10.406 17.5374 10.4438C17.4463 10.4815 17.3486 10.5009 17.25 10.5009C17.1514 10.5009 17.0537 10.4815 16.9626 10.4438C16.8715 10.406 16.7887 10.3507 16.719 10.281C16.6493 10.2113 16.594 10.1285 16.5562 10.0374C16.5185 9.94627 16.4991 9.84862 16.4991 9.75C16.4991 9.65138 16.5185 9.55373 16.5562 9.46262C16.594 9.37151 16.6493 9.28873 16.719 9.219L18.4395 7.5L11.25 7.5C11.0511 7.5 10.8603 7.57902 10.7197 7.71967C10.579 7.86032 10.5 8.05109 10.5 8.25V15.75C10.5 15.9489 10.579 16.1397 10.7197 16.2803C10.8603 16.421 11.0511 16.5 11.25 16.5L18.4395 16.5L16.719 14.781C16.5782 14.6402 16.4991 14.4492 16.4991 14.25C16.4991 14.0508 16.5782 13.8598 16.719 13.719C16.8598 13.5782 17.0508 13.4991 17.25 13.4991C17.4492 13.4991 17.6402 13.5782 17.781 13.719L20.781 16.719C20.8508 16.7887 20.9063 16.8714 20.9441 16.9625C20.9819 17.0537 21.0013 17.1513 21.0013 17.25C21.0013 17.3486 20.9819 17.4463 20.9441 17.5374C20.9063 17.6286 20.8508 17.7113 20.781 17.781L17.781 20.781C17.7113 20.8507 17.6285 20.906 17.5374 20.9438C17.4463 20.9815 17.3486 21.0009 17.25 21.0009C17.1514 21.0009 17.0537 20.9815 16.9626 20.9438C16.8715 20.906 16.7887 20.8507 16.719 20.781C16.6493 20.7113 16.594 20.6285 16.5562 20.5374C16.5185 20.4463 16.4991 20.3486 16.4991 20.25C16.4991 20.1514 16.5185 20.0537 16.5562 19.9626C16.594 19.8715 16.6493 19.7887 16.719 19.719L18.4395 18L11.25 18C10.6533 18 10.081 17.7629 9.65901 17.341C9.23705 16.919 9 16.3467 9 15.75V12.75L3.75 12.75C3.55109 12.75 3.36032 12.671 3.21967 12.5303C3.07902 12.3897 3 12.1989 3 12Z" fill="#8338EC"/>
</svg>
