<svg width="24" height="24" viewBox="0 0 24 24" fill="none" xmlns="http://www.w3.org/2000/svg">
<path fill-rule="evenodd" clip-rule="evenodd" d="M11.7004 7.19315C11.5506 7.06829 11.3617 6.99994 11.1667 7C10.9457 7 10.7337 7.0878 10.5774 7.24408C10.4211 7.40036 10.3333 7.61232 10.3333 7.83333V12.8333L10.3433 12.965C10.3708 13.1386 10.4525 13.299 10.5767 13.4233L13.91 16.7567L14.0267 16.8517C14.187 16.9628 14.3812 17.0142 14.5755 16.9968C14.7698 16.9794 14.9519 16.8945 15.09 16.7567L15.185 16.64C15.2961 16.4797 15.3475 16.2854 15.3301 16.0911C15.3128 15.8968 15.2278 15.7148 15.09 15.5767L12 12.4883V7.83333L11.9867 7.68333C11.9516 7.49148 11.8503 7.31801 11.7004 7.19315Z" fill="#FB5607"/>
<path d="M12 2C13.9778 2 15.9112 2.58649 17.5557 3.6853C19.2002 4.78412 20.4819 6.3459 21.2388 8.17317C21.9957 10.0004 22.1937 12.0111 21.8079 13.9509C21.422 15.8907 20.4696 17.6725 19.0711 19.0711C17.6725 20.4696 15.8907 21.422 13.9509 21.8079C12.0111 22.1937 10.0004 21.9957 8.17317 21.2388C6.3459 20.4819 4.78412 19.2002 3.6853 17.5557C2.58649 15.9112 2 13.9778 2 12C2 11.779 2.0878 11.567 2.24408 11.4107C2.40036 11.2545 2.61232 11.1667 2.83333 11.1667C3.05435 11.1667 3.26631 11.2545 3.42259 11.4107C3.57887 11.567 3.66667 11.779 3.66667 12C3.66667 13.6482 4.15541 15.2593 5.07109 16.6298C5.98677 18.0002 7.28825 19.0683 8.81097 19.699C10.3337 20.3297 12.0092 20.4948 13.6258 20.1732C15.2423 19.8517 16.7271 19.058 17.8926 17.8926C19.058 16.7271 19.8517 15.2423 20.1732 13.6258C20.4948 12.0092 20.3297 10.3337 19.699 8.81097C19.0683 7.28825 18.0002 5.98677 16.6298 5.07109C15.2593 4.15541 13.6482 3.66667 12 3.66667C9.93333 3.66667 8.11167 4.36333 6.40667 6.06L7.59 7.24333C7.70685 7.35988 7.78645 7.5085 7.81873 7.67035C7.85101 7.8322 7.8345 7.99998 7.77131 8.15244C7.70811 8.30489 7.60107 8.43515 7.46376 8.5267C7.32644 8.61825 7.16503 8.66696 7 8.66667H3.66667C3.44565 8.66667 3.23369 8.57887 3.07741 8.42259C2.92113 8.26631 2.83333 8.05435 2.83333 7.83333V4.5C2.83304 4.33497 2.88175 4.17356 2.9733 4.03624C3.06485 3.89893 3.19511 3.79189 3.34756 3.72869C3.50002 3.6655 3.6678 3.64899 3.82965 3.68127C3.9915 3.71355 4.14012 3.79316 4.25667 3.91L5.23 4.88167C7.255 2.86833 9.49333 2 12 2Z" fill="#8338EC"/>
</svg>
