<svg width="32" height="32" viewBox="0 0 32 32" fill="none" xmlns="http://www.w3.org/2000/svg">
<path d="M17.1426 5.4129L24.9639 11.8356C25.4039 12.1956 25.6666 12.7502 25.6666 13.3422V25.0796C25.6666 26.1649 24.8159 26.9996 23.8226 26.9996H20.3333V20.6662C20.3333 19.6938 19.947 18.7611 19.2593 18.0735C18.5717 17.3859 17.6391 16.9996 16.6666 16.9996H15.3333C14.3608 16.9996 13.4282 17.3859 12.7405 18.0735C12.0529 18.7611 11.6666 19.6938 11.6666 20.6662V26.9996H8.17727C7.18393 26.9996 6.33327 26.1649 6.33327 25.0796V13.3436C6.33327 12.7502 6.59593 12.1969 7.03593 11.8369L14.8573 5.41156C15.1782 5.14458 15.5825 4.99839 15.9999 4.99839C16.4174 4.99839 16.8217 5.14591 17.1426 5.4129ZM23.8226 28.9982C25.9693 28.9982 27.6666 27.2182 27.6666 25.0782V13.3422C27.6681 12.759 27.5404 12.1827 27.2926 11.6547C27.0447 11.1268 26.6829 10.6603 26.2333 10.2889L18.4133 3.86623C17.7346 3.30544 16.8817 2.99866 16.0013 2.99866C15.1209 2.99866 14.268 3.30544 13.5893 3.86623L5.7666 10.2902C5.31692 10.6616 4.95515 11.1281 4.70731 11.6561C4.45947 12.184 4.33173 12.7603 4.33327 13.3436V25.0796C4.33327 27.2196 6.0306 28.9996 8.17727 28.9996L23.8226 28.9982Z" fill="black"/>
</svg>
