<svg width="48" height="48" viewBox="0 0 48 48" fill="none" xmlns="http://www.w3.org/2000/svg">
<path fill-rule="evenodd" clip-rule="evenodd" d="M19.7022 23.0353C20.9004 23.0353 22.0494 22.5593 22.8967 21.7121C23.7439 20.8649 24.2198 19.7158 24.2198 18.5176C24.2198 17.3195 23.7439 16.1704 22.8967 15.3232C22.0494 14.476 20.9004 14 19.7022 14C18.5041 14 17.355 14.476 16.5078 15.3232C15.6605 16.1704 15.1846 17.3195 15.1846 18.5176C15.1846 19.7158 15.6605 20.8649 16.5078 21.7121C17.355 22.5593 18.5041 23.0353 19.7022 23.0353Z" fill="black" fill-opacity="0.5"/>
<path d="M16.7591 25.479C16.9692 25.1959 17.2427 24.9659 17.5577 24.8074C17.8726 24.6489 18.2203 24.5664 18.5729 24.5664C18.9255 24.5664 19.2732 24.6489 19.5881 24.8074C19.9031 24.9659 20.1766 25.1959 20.3867 25.479L24.7011 31.2887C24.9506 31.6249 25.1018 32.0239 25.1378 32.4411C25.1737 32.8583 25.093 33.2772 24.9046 33.6512C24.7162 34.0251 24.4276 34.3394 24.0709 34.5588C23.7143 34.7782 23.3037 34.8942 22.885 34.8938H14.2608C13.8423 34.8938 13.432 34.7775 13.0757 34.5579C12.7194 34.3383 12.4311 34.0241 12.243 33.6502C12.0548 33.2763 11.9743 32.8575 12.0103 32.4405C12.0464 32.0235 12.1975 31.6248 12.447 31.2887L16.7591 25.479Z" fill="#808080"/>
<path fill-rule="evenodd" clip-rule="evenodd" d="M18.5732 28.7204L16.5041 31.5055H20.6423L18.5732 28.7204ZM20.387 25.479C20.1769 25.1959 19.9034 24.9659 19.5884 24.8074C19.2735 24.6489 18.9258 24.5664 18.5732 24.5664C18.2206 24.5664 17.8729 24.6489 17.558 24.8074C17.243 24.9659 16.9695 25.1959 16.7594 25.479L12.445 31.2887C12.1955 31.6249 12.0443 32.0239 12.0083 32.4411C11.9724 32.8583 12.0531 33.2772 12.2415 33.6512C12.4299 34.0251 12.7185 34.3394 13.0752 34.5588C13.4318 34.7782 13.8424 34.8942 14.2611 34.8938H22.8853C23.3038 34.8938 23.7141 34.7775 24.0704 34.5579C24.4267 34.3383 24.715 34.0241 24.9031 33.6502C25.0912 33.2763 25.1718 32.8575 25.1357 32.4405C25.0997 32.0235 24.9486 31.6248 24.6991 31.2887L20.387 25.479Z" fill="#808080"/>
<path d="M25.336 23.3135C25.548 23.0686 25.8102 22.8721 26.1049 22.7375C26.3995 22.6029 26.7197 22.5332 27.0436 22.5332C27.3676 22.5332 27.6877 22.6029 27.9824 22.7375C28.277 22.8721 28.5392 23.0686 28.7513 23.3135L35.5436 31.1561C35.8273 31.4834 36.0109 31.8853 36.0725 32.314C36.1342 32.7428 36.0713 33.1802 35.8913 33.5741C35.7114 33.9681 35.4219 34.302 35.0575 34.5361C34.6931 34.7702 34.269 34.8946 33.8359 34.8944H20.2514C19.8182 34.8946 19.3942 34.7702 19.0298 34.5361C18.6653 34.302 18.3759 33.9681 18.1959 33.5741C18.0159 33.1802 17.953 32.7428 18.0147 32.314C18.0764 31.8853 18.26 31.4834 18.5437 31.1561L25.336 23.3135Z" fill="#808080"/>
<path fill-rule="evenodd" clip-rule="evenodd" d="M27.0436 26.5165L22.7225 31.5062H31.3647L27.0436 26.5165ZM28.7513 23.3135C28.5392 23.0686 28.277 22.8721 27.9824 22.7375C27.6877 22.6029 27.3676 22.5332 27.0436 22.5332C26.7197 22.5332 26.3995 22.6029 26.1049 22.7375C25.8102 22.8721 25.548 23.0686 25.336 23.3135L18.5437 31.1561C18.26 31.4834 18.0764 31.8853 18.0147 32.314C17.953 32.7428 18.0159 33.1802 18.1959 33.5741C18.3759 33.9681 18.6653 34.302 19.0298 34.5361C19.3942 34.7702 19.8182 34.8946 20.2514 34.8944H33.8359C34.269 34.8946 34.6931 34.7702 35.0575 34.5361C35.4219 34.302 35.7114 33.9681 35.8913 33.5741C36.0713 33.1802 36.1342 32.7428 36.0725 32.314C36.0109 31.8853 35.8273 31.4834 35.5436 31.1561L28.7513 23.3135Z" fill="#808080"/>
<rect x="7.5" y="7.5" width="33" height="33" rx="4.5" stroke="black" stroke-opacity="0.5" stroke-width="3"/>
</svg>
