<svg width="24" height="24" viewBox="0 0 24 24" fill="none" xmlns="http://www.w3.org/2000/svg">
<path d="M4.875 3.75C4.46079 3.75 4.125 4.08579 4.125 4.5V15.375C4.125 15.7892 4.46079 16.125 4.875 16.125H7.5C7.91421 16.125 8.25 16.4608 8.25 16.875V19.5C8.25 19.9142 8.58579 20.25 9 20.25H19.875C20.2892 20.25 20.625 19.9142 20.625 19.5V8.625C20.625 8.21079 20.2892 7.875 19.875 7.875H17.25C16.8358 7.875 16.5 7.53921 16.5 7.125V4.5C16.5 4.08579 16.1642 3.75 15.75 3.75H4.875ZM5.5 5.875C5.5 5.46079 5.83579 5.125 6.25 5.125H14.375C14.7892 5.125 15.125 5.46079 15.125 5.875V7.95138C15.125 8.1503 15.046 8.34108 14.9053 8.48174L8.85604 14.5304C8.71539 14.671 8.52464 14.75 8.32574 14.75H6.25C5.83579 14.75 5.5 14.4142 5.5 14V5.875ZM9.28125 6.5C9.0914 6.5 8.9375 6.6539 8.9375 6.84375C8.9375 7.0336 8.7836 7.1875 8.59375 7.1875H7.5625C7.1828 7.1875 6.875 7.4953 6.875 7.875C6.875 8.2547 7.1828 8.5625 7.5625 8.5625H9.43015C9.87779 8.5625 10.236 8.95679 10.1033 9.38432C10.03 9.6205 9.93701 9.83444 9.82394 10.0251C9.67463 10.2768 9.35662 10.3602 9.09524 10.2285C9.03454 10.1979 8.97482 10.1653 8.91619 10.1307C8.76221 10.0391 8.63873 9.9457 8.54194 9.85158C8.26973 9.58687 7.9422 9.25 7.5625 9.25C7.1828 9.25 6.86473 9.56656 6.99349 9.92375C7.08971 10.1907 7.2402 10.4359 7.42888 10.655C7.63046 10.8891 7.53498 11.2917 7.22642 11.3065C7.03333 11.3157 6.875 11.4706 6.875 11.6639V12.0047C6.875 12.3818 7.18147 12.6916 7.55694 12.6567C8.35543 12.5824 9.05027 12.3749 9.62819 12.049C9.79535 11.9547 9.98799 11.9125 10.1781 11.939C10.2027 11.9424 10.2275 11.9458 10.2523 11.949C10.6631 12.0021 11 11.6642 11 11.25V10.9177C11 10.7824 11.0381 10.6503 11.1012 10.5307C11.3596 10.0416 11.5202 9.49447 11.6043 8.90843C11.6324 8.71311 11.7959 8.5625 11.9932 8.5625C12.2041 8.5625 12.375 8.39155 12.375 8.18068V7.875C12.375 7.4953 12.0672 7.1875 11.6875 7.1875H10.6562C10.4664 7.1875 10.3125 7.0336 10.3125 6.84375C10.3125 6.6539 10.1586 6.5 9.96875 6.5H9.28125ZM15.894 9.46964C16.0346 9.32901 16.2254 9.25 16.4243 9.25H18.5C18.9142 9.25 19.25 9.58579 19.25 10V18.125C19.25 18.5392 18.9142 18.875 18.5 18.875H10.375C9.96079 18.875 9.625 18.5392 9.625 18.125V16.0486C9.625 15.8497 9.70403 15.6589 9.8447 15.5183L15.894 9.46964ZM15.7692 12.4723C15.5644 11.8509 14.6851 11.8516 14.4801 12.473L13.1051 16.598C13.077 16.6689 13.0625 16.7444 13.0625 16.8207V16.8329C13.0625 17.2014 13.3611 17.5 13.7296 17.5H13.9014C14.1975 17.5 14.4375 17.26 14.4375 16.9639V16.9104C14.4375 16.9025 14.4385 16.8945 14.4404 16.8868C14.4512 16.8432 14.4904 16.8125 14.5354 16.8125H15.7146C15.7596 16.8125 15.7988 16.8432 15.8096 16.8868C15.8115 16.8945 15.8125 16.9025 15.8125 16.9104V16.9639C15.8125 17.26 16.0525 17.5 16.3486 17.5H16.5214C16.8893 17.5 17.1875 17.2018 17.1875 16.8339V16.8216C17.1875 16.7447 17.1728 16.6686 17.1442 16.5973L15.7692 12.4723ZM14.9909 15.2536C15.0328 15.1232 15.2172 15.1232 15.2591 15.2536C15.2883 15.3445 15.2205 15.4375 15.125 15.4375C15.0295 15.4375 14.9617 15.3445 14.9909 15.2536Z" fill="#FB5607"/>
</svg>
