<svg width="24" height="24" viewBox="0 0 24 24" fill="none" xmlns="http://www.w3.org/2000/svg">
<path fill-rule="evenodd" clip-rule="evenodd" d="M12.0013 8.8998C11.1451 8.8998 10.4511 9.59384 10.4511 10.45C10.4511 11.3061 11.1451 12.0002 12.0013 12.0002C12.8574 12.0002 13.5514 11.3061 13.5514 10.45C13.5514 9.59384 12.8574 8.8998 12.0013 8.8998ZM8.90088 10.45C8.90088 8.7377 10.289 7.34961 12.0013 7.34961C13.7135 7.34961 15.1016 8.7377 15.1016 10.45C15.1016 12.1623 13.7135 13.5504 12.0013 13.5504C10.289 13.5504 8.90088 12.1623 8.90088 10.45Z" fill="#FB5607"/>
<path fill-rule="evenodd" clip-rule="evenodd" d="M12.0009 4.24892C10.3564 4.24892 8.77921 4.90221 7.61635 6.06508C6.45348 7.22794 5.80019 8.80513 5.80019 10.4497C5.80019 12.851 7.36257 15.181 9.0757 16.9893C9.91641 17.8768 10.7598 18.6033 11.3938 19.1081C11.6298 19.296 11.8359 19.4525 12.0009 19.5745C12.1166 19.4891 12.2524 19.3866 12.4046 19.2683C12.9227 18.8654 13.6262 18.2812 14.3657 17.5584C15.8638 16.094 17.4263 14.1405 17.9865 12.0326L18.1088 11.6817H19.6838L19.4847 12.4308C18.8161 14.9465 17.0113 17.1401 15.4493 18.6669C14.6587 19.4397 13.9089 20.0622 13.3563 20.492C13.0796 20.7072 12.8513 20.8748 12.6908 20.9896C12.6106 21.047 12.5472 21.0912 12.5031 21.1217C12.481 21.1369 12.4638 21.1486 12.4516 21.1568L12.4373 21.1665L12.4331 21.1693L12.4317 21.1702L12.4313 21.1706C12.4313 21.1706 12.4309 21.1708 12.0009 20.5259C11.571 21.1708 11.5706 21.1705 11.5706 21.1705L11.5684 21.1691L11.5632 21.1656L11.5454 21.1536C11.5303 21.1433 11.5088 21.1286 11.4813 21.1095C11.4262 21.0714 11.3471 21.0159 11.2474 20.9438C11.048 20.7998 10.7657 20.5896 10.4281 20.3208C9.7542 19.7842 8.85359 19.0089 7.95034 18.0555C6.17554 16.1821 4.25 13.474 4.25 10.4497C4.25 8.394 5.06661 6.42251 6.5202 4.96893C7.97378 3.51535 9.94526 2.69873 12.0009 2.69873C14.0566 2.69873 16.0281 3.51535 17.4817 4.96893C18.6163 6.10351 19.3627 7.55358 19.6358 9.1129L19.7694 9.87638H18.2422L18.1088 9.38026C17.8904 8.13275 17.2932 6.9727 16.3855 6.06508C15.2227 4.90221 13.6455 4.24892 12.0009 4.24892ZM12.0009 20.5259L11.571 21.1708C11.8314 21.3444 12.1705 21.3444 12.4309 21.1708L12.0009 20.5259Z" fill="#8338EC"/>
</svg>
