<svg width="27" height="26" viewBox="0 0 27 26" fill="none" xmlns="http://www.w3.org/2000/svg">
<path d="M3.5 21V16.75L16.7 3.575C16.9 3.39167 17.121 3.25 17.363 3.15C17.605 3.05 17.859 3 18.125 3C18.391 3 18.6493 3.05 18.9 3.15C19.1507 3.25 19.3673 3.4 19.55 3.6L20.925 5C21.125 5.18333 21.271 5.4 21.363 5.65C21.455 5.9 21.5007 6.15 21.5 6.4C21.5 6.66667 21.4543 6.921 21.363 7.163C21.2717 7.405 21.1257 7.62567 20.925 7.825L7.75 21H3.5ZM18.1 7.8L19.5 6.4L18.1 5L16.7 6.4L18.1 7.8Z" fill="white"/>
<path d="M17.1701 15.4649C17.0586 15.6211 16.9988 15.8082 16.999 16.0001C16.9992 16.192 17.0593 16.379 17.1711 16.5349C17.2876 16.6909 17.4471 16.8094 17.6301 16.8759L18.6971 17.2229C18.9484 17.3062 19.1769 17.447 19.3642 17.6341C19.5516 17.8213 19.6926 18.0496 19.7761 18.3009L20.1291 19.3869C20.1944 19.5691 20.3153 19.7261 20.4747 19.8357C20.6341 19.9454 20.8239 20.0022 21.0174 19.9981C21.2108 19.994 21.3981 19.9292 21.5527 19.8129C21.7073 19.6966 21.8215 19.5347 21.8791 19.3499L22.2251 18.2809C22.3082 18.0294 22.4489 17.8007 22.6361 17.6132C22.8232 17.4257 23.0516 17.2845 23.3031 17.2009L24.3871 16.8479C24.5661 16.7839 24.7208 16.6659 24.8301 16.5103C24.9393 16.3547 24.9976 16.1691 24.9971 15.9789C24.9979 15.7861 24.9381 15.5979 24.8261 15.4409C24.7141 15.2838 24.5557 15.166 24.3731 15.1039L23.2831 14.7479C23.0391 14.6643 22.8172 14.5267 22.634 14.3452C22.4508 14.1637 22.311 13.9431 22.2251 13.6999L21.8741 12.6159C21.8101 12.4349 21.6912 12.2782 21.5339 12.1679C21.3767 12.0576 21.189 11.9991 20.9969 12.0005C20.8049 12.0019 20.618 12.0633 20.4625 12.1759C20.3069 12.2885 20.1904 12.4469 20.1291 12.6289L19.7821 13.6959C19.6979 13.9479 19.5562 14.1767 19.3682 14.3643C19.1802 14.552 18.9511 14.6932 18.6991 14.7769L17.6191 15.1289C17.4391 15.1919 17.2821 15.3099 17.1711 15.4659M13.1501 20.5359C13.0537 20.6715 13.002 20.8337 13.0021 20.9999C13.0038 21.1679 13.0576 21.3311 13.1561 21.4671C13.2547 21.6031 13.393 21.7051 13.5521 21.7589L14.3141 22.0069C14.4721 22.0599 14.6171 22.1499 14.7351 22.2669C14.8531 22.3839 14.9421 22.5289 14.9941 22.6869L15.2461 23.4589C15.3008 23.6186 15.4047 23.7569 15.5428 23.854C15.6809 23.951 15.8461 24.0019 16.0149 23.9994C16.1837 23.9968 16.3473 23.941 16.4824 23.8397C16.6175 23.7385 16.7172 23.5972 16.7671 23.4359L17.0161 22.6719C17.069 22.514 17.1577 22.3704 17.2753 22.2525C17.3929 22.1345 17.5363 22.0453 17.6941 21.9919L18.4681 21.7399C18.627 21.6857 18.7649 21.5829 18.8621 21.4459C18.9593 21.309 19.011 21.1449 19.0098 20.977C19.0086 20.809 18.9545 20.6457 18.8553 20.5102C18.7561 20.3747 18.6168 20.2739 18.4571 20.2219L17.6951 19.9749C17.5384 19.924 17.3956 19.8376 17.2779 19.7224C17.1601 19.6072 17.0705 19.4664 17.0161 19.3109L16.7631 18.5349C16.7222 18.4175 16.6546 18.3112 16.5654 18.2244C16.4763 18.1377 16.3682 18.0729 16.2497 18.0352C16.1312 17.9976 16.0055 17.9881 15.8827 18.0075C15.7598 18.0268 15.6432 18.0746 15.5421 18.1469C15.4021 18.2459 15.2971 18.3859 15.2421 18.5469L14.9951 19.3099C14.9416 19.4684 14.8521 19.6124 14.7336 19.7304C14.6151 19.8484 14.4708 19.9372 14.3121 19.9899L13.5381 20.2429C13.3816 20.2977 13.246 20.3998 13.1501 20.5349" fill="white"/>
</svg>
