<svg width="32" height="32" viewBox="0 0 32 32" fill="none" xmlns="http://www.w3.org/2000/svg">
<path d="M17.1722 9.35596L23.5375 11.0506M15.8095 14.4173L18.9908 15.2653M15.9682 23.9546L17.2402 24.2946C20.8402 25.2546 22.6402 25.7333 24.0588 24.9186C25.4762 24.1053 25.9588 22.3146 26.9228 18.736L28.2868 13.6733C29.2522 10.0933 29.7335 8.30396 28.9148 6.89329C28.0962 5.48263 26.2975 5.00396 22.6962 4.04529L21.4242 3.70529C17.8242 2.74529 16.0242 2.26663 14.6068 3.08129C13.1882 3.89463 12.7055 5.68529 11.7402 9.26396L10.3775 14.3266C9.41218 17.9066 8.92951 19.696 9.74951 21.1066C10.5682 22.516 12.3682 22.996 15.9682 23.9546Z" stroke="black" stroke-width="1.5" stroke-linecap="round" stroke-linejoin="round"/>
<path d="M15.9994 27.9279L14.7301 28.2746C11.1381 29.2519 9.34338 29.7413 7.92738 28.9106C6.51405 28.0813 6.03138 26.2573 5.07005 22.6066L3.70872 17.4439C2.74605 13.7946 2.26472 11.9693 3.08205 10.5319C3.78872 9.28794 5.33272 9.33328 7.33272 9.33328" stroke="black" stroke-width="1.5" stroke-linecap="round" stroke-linejoin="round"/>
</svg>
