<svg width="24" height="24" viewBox="0 0 24 24" fill="none" xmlns="http://www.w3.org/2000/svg">
<path d="M2.57153 8.22179C2.60794 8.0289 2.62962 7.83178 2.68329 7.64398C2.88617 6.93405 3.30625 6.37953 3.94247 6.01726C4.52712 5.68443 5.13409 5.39097 5.73201 5.08227C7.0558 4.3988 8.37938 3.71534 9.70443 3.03463C10.1689 2.79601 10.6241 2.53156 11.1065 2.33677C12.6515 1.71323 14.4086 2.65373 14.7508 4.29146C14.9859 5.4168 14.6424 6.36386 13.74 7.07591C13.4754 7.28468 13.1562 7.42336 12.8605 7.59168C10.931 8.68929 9.00129 9.78626 7.07137 10.8832C7.05369 10.8934 7.03538 10.9025 7.01139 10.9154C6.71927 10.5368 6.42989 10.1614 6.13146 9.77461C6.16534 9.75238 6.1927 9.73375 6.22048 9.71596C6.73358 9.3863 6.98593 8.81527 6.87459 8.23513C6.754 7.6065 6.32424 7.1515 5.71622 7.04669C5.11767 6.94358 4.62941 7.16039 4.2752 7.64906C3.92437 8.1335 3.91153 8.66409 4.20154 9.17203C4.39727 9.51482 4.65656 9.82204 4.90006 10.1356C5.96372 11.5053 7.0316 12.872 8.09884 14.2389C8.8607 15.215 9.62509 16.1892 10.3863 17.1659C10.7386 17.6179 10.9436 18.1305 10.9922 18.7047C10.996 18.75 11.0036 18.7951 11.0114 18.8561C11.1215 18.7875 11.2242 18.7244 11.326 18.6598C12.5734 17.8682 13.8206 17.0765 15.0676 16.2842C15.5445 15.9812 16.0243 15.6829 16.4951 15.371C16.9428 15.0746 17.1856 14.6573 17.1534 14.1066C17.1364 13.8172 17.016 13.5639 16.8325 13.3408C16.7144 13.197 16.598 13.052 16.469 12.8928C16.9857 12.8155 17.4613 12.6541 17.9136 12.4058C18.2047 12.7644 18.4225 13.1559 18.5185 13.6037C18.7778 14.814 18.2929 15.9389 17.2498 16.5948C16.2876 17.2 15.3302 17.8129 14.3705 18.4221C12.9011 19.3545 11.431 20.2859 9.96246 21.2196C9.6333 21.4288 9.30709 21.6448 8.92363 21.7405C8.72411 21.7903 8.51955 21.8191 8.31708 21.8574H7.9593C7.925 21.8506 7.89111 21.8411 7.8566 21.8375C7.14124 21.7646 6.52712 21.4716 6.03591 20.9465C5.11599 19.9626 4.98677 18.5398 5.70191 17.3962C5.92121 17.0456 6.20849 16.7604 6.56374 16.5296C6.8586 16.9107 7.14966 17.2868 7.44262 17.6656C7.41653 17.6833 7.40264 17.6937 7.38769 17.7026C6.91837 17.9891 6.67844 18.4064 6.67466 18.9609C6.67045 19.5667 7.08884 20.1631 7.64782 20.3446C8.27836 20.5493 8.94467 20.3283 9.31382 19.7922C9.6876 19.2493 9.66024 18.562 9.24689 18.0318C8.34108 16.8697 7.43757 15.7058 6.53091 14.544C5.47735 13.1938 4.42316 11.8441 3.3656 10.497C3.04486 10.0886 2.78157 9.65287 2.66245 9.14112C2.62457 8.97766 2.60142 8.81061 2.57153 8.64525C2.57153 8.50402 2.57153 8.36301 2.57153 8.22179ZM8.32613 8.54574C8.36865 8.52372 8.39958 8.50911 8.42905 8.49238C9.84018 7.68929 11.2515 6.88641 12.6614 6.08121C12.7704 6.01896 12.8784 5.94888 12.9718 5.86545C13.446 5.44221 13.5352 4.7272 13.1886 4.18051C12.8472 3.64187 12.1746 3.42548 11.5937 3.68189C11.3187 3.80321 11.0558 3.95227 10.7879 4.0901C9.55059 4.72698 8.31351 5.36429 7.07642 6.0016C7.05369 6.01324 7.03307 6.02933 7.01013 6.04437C7.87364 6.65266 8.3175 7.4746 8.32592 8.54574H8.32613Z" fill="#8338EC"/>
<path d="M21.9337 3.90256C21.856 4.2011 21.7897 4.50345 21.6984 4.79775C21.5105 5.40393 21.2785 5.99254 20.925 6.52356C20.8736 6.60063 20.7896 6.66542 20.7067 6.70988C20.3277 6.91356 19.9221 7.04335 19.4995 7.11979C19.4842 7.12254 19.4694 7.12953 19.4282 7.14329C19.8165 7.24217 20.1831 7.26758 20.5724 7.24556C20.5165 7.36391 20.4721 7.47359 20.415 7.57585C20.1768 8.0027 19.9379 8.42933 19.6908 8.85089C19.6496 8.92118 19.5755 8.98449 19.5018 9.02069C19.0087 9.26397 18.4841 9.3927 17.9375 9.43441C17.9215 9.43568 17.9055 9.43717 17.8885 9.45029C18.281 9.63048 18.6893 9.71496 19.1441 9.66075C19.0445 9.78737 18.957 9.90276 18.8652 10.0148C18.491 10.4715 18.0764 10.885 17.5801 11.2083C17.0342 11.5638 16.4476 11.7747 15.7841 11.7101C15.7498 11.7067 15.6971 11.7486 15.6755 11.7836C15.3751 12.2716 15.0771 12.7611 14.7823 13.2523C14.6863 13.4122 14.6028 13.5792 14.5089 13.7404C14.4897 13.7732 14.4546 13.807 14.4197 13.8183C14.0939 13.9237 13.7666 14.0243 13.4111 14.135C14.3675 12.2896 15.4345 10.546 16.7598 8.96924C15.9491 9.53054 15.2325 10.2 14.5348 10.9042C14.3906 10.6239 14.3075 10.3317 14.2711 10.0264C14.1698 9.17462 14.4596 8.43653 14.946 7.76514C15.1571 7.4738 15.4021 7.20766 15.65 6.9377C15.6624 7.36307 15.7862 7.73846 16.0156 8.0948C16.0238 7.91081 16.0284 7.74016 16.0398 7.57014C16.0678 7.1488 16.1648 6.74355 16.3296 6.35523C16.343 6.32369 16.3601 6.28917 16.3853 6.268C16.9113 5.82718 17.4616 5.42235 18.072 5.10561C18.084 5.09947 18.0964 5.09396 18.1275 5.07893C18.068 5.44183 18.097 5.78293 18.2233 6.10412C18.3151 5.82146 18.4024 5.53753 18.5007 5.25742C18.5411 5.14181 18.6019 5.03298 18.6589 4.92394C18.717 4.81279 18.8021 4.72958 18.9134 4.66606C19.8247 4.1452 20.801 3.87144 21.851 3.87207C21.8786 3.87207 21.9061 3.87842 21.9337 3.88181V3.90298V3.90256Z" fill="#FB5607"/>
<path d="M12.7857 10.1716C13.0124 10.4661 13.2351 10.7554 13.4662 11.0554C12.0291 11.9025 10.5986 12.7456 9.15784 13.5949C8.94149 13.2972 8.72745 13.0027 8.50415 12.6954C9.93128 11.8542 11.3521 11.0169 12.786 10.1716H12.7857Z" fill="#8338EC"/>
<path d="M10.5188 15.4016C10.3051 15.1071 10.0913 14.8124 9.87012 14.5075C10.846 13.9324 11.8158 13.3608 12.7856 12.7893C12.7909 12.7942 12.7961 12.799 12.8014 12.8039C12.75 12.9058 12.6991 13.0076 12.6476 13.1092C12.4078 13.5827 12.1688 14.0563 11.9265 14.5285C11.9055 14.5695 11.8701 14.6106 11.8312 14.6339C11.4071 14.8873 10.9809 15.1372 10.5552 15.3876C10.5465 15.3927 10.5364 15.3948 10.5188 15.4014V15.4016Z" fill="#8338EC"/>
</svg>
