<svg width="32" height="32" viewBox="0 0 32 32" fill="none" xmlns="http://www.w3.org/2000/svg">
<rect width="32" height="32" rx="8" fill="#FB5607"/>
<path d="M6.44615 14.6443C6.31281 14.6443 6.20615 14.6087 6.12615 14.5376C6.04615 14.4665 6.00615 14.3687 6.00615 14.2443V10.5976H4.71948C4.59059 10.5976 4.48837 10.5687 4.41281 10.511C4.3417 10.4487 4.30615 10.3643 4.30615 10.2576C4.30615 10.1465 4.3417 10.0621 4.41281 10.0043C4.48392 9.94208 4.58615 9.91097 4.71948 9.91097H8.17948C8.31281 9.91097 8.41504 9.94208 8.48615 10.0043C8.55726 10.0621 8.59281 10.1465 8.59281 10.2576C8.59281 10.3643 8.55504 10.4487 8.47948 10.511C8.40837 10.5687 8.30837 10.5976 8.17948 10.5976H6.89281V14.2443C6.89281 14.3643 6.85059 14.4621 6.76615 14.5376C6.68615 14.6087 6.57948 14.6443 6.44615 14.6443ZM8.37411 14.6443C8.23634 14.6443 8.12967 14.6087 8.05411 14.5376C7.97856 14.4665 7.94078 14.3687 7.94078 14.2443V11.6443C7.94078 11.5154 7.97634 11.4176 8.04745 11.351C8.123 11.2799 8.22745 11.2443 8.36078 11.2443C8.49411 11.2443 8.59856 11.2799 8.67411 11.351C8.74967 11.4221 8.78745 11.5199 8.78745 11.6443V11.8643C8.92523 11.6865 9.08523 11.551 9.26745 11.4576C9.45411 11.3599 9.65411 11.311 9.86745 11.311H10.0141C10.1563 11.311 10.2652 11.3421 10.3408 11.4043C10.4208 11.4621 10.4608 11.5465 10.4608 11.6576C10.4608 11.7687 10.4208 11.8554 10.3408 11.9176C10.2652 11.9754 10.1563 12.0043 10.0141 12.0043H9.78745C9.48967 12.0043 9.25189 12.0999 9.07411 12.291C8.90078 12.4776 8.81411 12.7354 8.81411 13.0643V14.2443C8.81411 14.3687 8.77411 14.4665 8.69411 14.5376C8.61411 14.6087 8.50745 14.6443 8.37411 14.6443ZM11.5775 14.6443C11.3019 14.6443 11.0575 14.5976 10.8442 14.5043C10.6353 14.411 10.4708 14.2821 10.3508 14.1176C10.2353 13.9487 10.1775 13.7554 10.1775 13.5376C10.1775 13.2087 10.3131 12.9465 10.5842 12.751C10.8597 12.5554 11.2308 12.4576 11.6975 12.4576C12.1019 12.4576 12.4264 12.5443 12.6708 12.7176V12.5576C12.6708 12.3487 12.6064 12.1887 12.4775 12.0776C12.3486 11.9665 12.1619 11.911 11.9175 11.911C11.5531 11.911 11.2397 11.9887 10.9775 12.1443C10.8664 12.2065 10.7708 12.2376 10.6908 12.2376C10.5931 12.2376 10.5064 12.1932 10.4308 12.1043C10.3819 12.0421 10.3575 11.9776 10.3575 11.911C10.3575 11.7999 10.4153 11.7021 10.5308 11.6176C10.6908 11.5021 10.8931 11.411 11.1375 11.3443C11.3819 11.2776 11.6397 11.2443 11.9108 11.2443C12.4264 11.2443 12.8308 11.3621 13.1242 11.5976C13.4219 11.8287 13.5708 12.1487 13.5708 12.5576V14.271C13.5708 14.3865 13.5308 14.4776 13.4508 14.5443C13.3753 14.611 13.2708 14.6443 13.1375 14.6443C12.9997 14.6443 12.8931 14.6132 12.8175 14.551C12.7419 14.4887 12.7042 14.3999 12.7042 14.2843V14.211C12.4508 14.4999 12.0753 14.6443 11.5775 14.6443ZM11.7842 14.031C12.0642 14.031 12.2819 13.9887 12.4375 13.9043C12.5975 13.8154 12.6775 13.6932 12.6775 13.5376C12.6775 13.391 12.5975 13.2732 12.4375 13.1843C12.2775 13.0954 12.0642 13.051 11.7975 13.051C11.5575 13.051 11.3708 13.0932 11.2375 13.1776C11.1086 13.2621 11.0442 13.3821 11.0442 13.5376C11.0442 13.6932 11.1086 13.8154 11.2375 13.9043C11.3664 13.9887 11.5486 14.031 11.7842 14.031Z" fill="white"/>
<path d="M20.0388 14.6443C19.6566 14.6443 19.3232 14.5754 19.0388 14.4376C18.7543 14.2999 18.5343 14.1065 18.3788 13.8576C18.2277 13.6043 18.1521 13.3087 18.1521 12.971C18.1521 12.4243 18.3099 11.9999 18.6254 11.6976C18.9454 11.3954 19.3943 11.2443 19.9721 11.2443C20.3277 11.2443 20.641 11.2999 20.9121 11.411C21.1877 11.5221 21.401 11.6776 21.5521 11.8776C21.7077 12.0732 21.7854 12.2976 21.7854 12.551C21.7854 12.7643 21.7166 12.9287 21.5788 13.0443C21.4454 13.1599 21.2543 13.2176 21.0054 13.2176H18.9988C18.9988 13.4665 19.0854 13.6554 19.2588 13.7843C19.4366 13.9087 19.6966 13.971 20.0388 13.971C20.3988 13.971 20.7054 13.891 20.9588 13.731C21.101 13.6421 21.2121 13.5976 21.2921 13.5976C21.3677 13.5976 21.441 13.6332 21.5121 13.7043C21.5877 13.7799 21.6254 13.8621 21.6254 13.951C21.6254 14.0576 21.581 14.1421 21.4921 14.2043C21.3054 14.3465 21.0877 14.4554 20.8388 14.531C20.5899 14.6065 20.3232 14.6443 20.0388 14.6443ZM20.7388 12.6043C20.8143 12.6043 20.8677 12.591 20.8988 12.5643C20.9299 12.5332 20.9454 12.4843 20.9454 12.4176C20.9454 12.2621 20.8566 12.1399 20.6788 12.051C20.5054 11.9621 20.2699 11.9176 19.9721 11.9176C19.6743 11.9176 19.4388 11.9799 19.2654 12.1043C19.0966 12.2287 19.0121 12.3954 19.0121 12.6043H20.7388ZM22.5667 14.6443C22.4289 14.6443 22.3222 14.6087 22.2467 14.5376C22.1711 14.4665 22.1334 14.3687 22.1334 14.2443V9.91764C22.1334 9.79319 22.1711 9.69541 22.2467 9.6243C22.3222 9.55319 22.4289 9.51764 22.5667 9.51764C22.7 9.51764 22.8067 9.55319 22.8867 9.6243C22.9667 9.69541 23.0067 9.79319 23.0067 9.91764V14.2443C23.0067 14.3687 22.9667 14.4665 22.8867 14.5376C22.8067 14.6087 22.7 14.6443 22.5667 14.6443Z" fill="white"/>
<path d="M18.0391 11.1555C18.0391 10.89 17.9857 10.627 17.882 10.3817C17.7783 10.1363 17.6263 9.91338 17.4347 9.7256C17.2431 9.53782 17.0156 9.38886 16.7653 9.28723C16.5149 9.18561 16.2466 9.1333 15.9756 9.1333C15.7046 9.1333 15.4363 9.18561 15.1859 9.28723C14.9356 9.38886 14.7081 9.53782 14.5165 9.7256C14.3249 9.91338 14.1729 10.1363 14.0692 10.3817C13.9655 10.627 13.9121 10.89 13.9121 11.1555C13.9121 11.5562 14.2378 12.2432 14.2378 12.2432H14.2355C14.2355 12.2432 15.5614 14.9111 15.9756 14.9111C16.3898 14.9111 17.7157 12.2432 17.7157 12.2432H17.7137C17.7157 12.2432 18.0391 11.5411 18.0391 11.1555ZM15.9756 12.0222C15.7411 12.0222 15.5161 11.9309 15.3503 11.7683C15.1844 11.6058 15.0912 11.3854 15.0912 11.1555C15.0912 10.9257 15.1844 10.7052 15.3503 10.5427C15.5161 10.3802 15.7411 10.2889 15.9756 10.2889C16.2101 10.2889 16.4351 10.3802 16.6009 10.5427C16.7668 10.7052 16.86 10.9257 16.86 11.1555C16.86 11.3854 16.7668 11.6058 16.6009 11.7683C16.4351 11.9309 16.2101 12.0222 15.9756 12.0222Z" fill="white"/>
<path d="M8.42945 20.3338C8.29168 20.3338 8.18501 20.2982 8.10945 20.2271C8.0339 20.156 7.99612 20.0582 7.99612 19.9338V15.6071C7.99612 15.4826 8.0339 15.3849 8.10945 15.3138C8.18501 15.2426 8.29168 15.2071 8.42945 15.2071C8.56279 15.2071 8.66945 15.2426 8.74945 15.3138C8.82945 15.3849 8.86945 15.4826 8.86945 15.6071L8.87612 17.4538C9.03168 17.2849 9.21834 17.156 9.43612 17.0671C9.6539 16.9782 9.88501 16.9338 10.1295 16.9338C10.6806 16.9338 11.1117 17.0849 11.4228 17.3871C11.7339 17.6849 11.8895 18.1004 11.8895 18.6338C11.8895 19.1671 11.7317 19.5849 11.4161 19.8871C11.105 20.1849 10.6695 20.3338 10.1095 20.3338C9.85612 20.3338 9.6339 20.2938 9.44279 20.2138C9.25168 20.1293 9.06056 19.9915 8.86945 19.8004V19.9338C8.86945 20.0582 8.82945 20.156 8.74945 20.2271C8.66945 20.2982 8.56279 20.3338 8.42945 20.3338ZM9.97612 19.6404C10.3006 19.6404 10.5539 19.5515 10.7361 19.3738C10.9183 19.196 11.0095 18.9493 11.0095 18.6338C11.0095 18.3182 10.9183 18.0715 10.7361 17.8938C10.5539 17.716 10.3006 17.6271 9.97612 17.6271C9.62945 17.6271 9.35834 17.716 9.16279 17.8938C8.96723 18.0715 8.86945 18.3182 8.86945 18.6338C8.86945 18.9493 8.96723 19.196 9.16279 19.3738C9.35834 19.5515 9.62945 19.6404 9.97612 19.6404ZM13.5229 20.3338C13.0651 20.3338 12.7073 20.2026 12.4496 19.9404C12.1962 19.6738 12.0696 19.3049 12.0696 18.8338V17.3338C12.0696 17.2093 12.1096 17.1115 12.1896 17.0404C12.2696 16.9693 12.3762 16.9338 12.5096 16.9338C12.6473 16.9338 12.754 16.9693 12.8296 17.0404C12.9051 17.1115 12.9429 17.2093 12.9429 17.3338V18.8338C12.9429 19.0871 13.0096 19.2849 13.1429 19.4271C13.2807 19.5693 13.4718 19.6404 13.7162 19.6404C14.0318 19.6404 14.2762 19.5404 14.4496 19.3404C14.6273 19.1404 14.7162 18.8649 14.7162 18.5138V17.3338C14.7162 17.2093 14.7562 17.1115 14.8362 17.0404C14.9162 16.9693 15.0229 16.9338 15.1562 16.9338C15.294 16.9338 15.4007 16.9693 15.4762 17.0404C15.5518 17.1115 15.5896 17.2093 15.5896 17.3338V19.9338C15.5896 20.0626 15.5518 20.1626 15.4762 20.2338C15.4051 20.3004 15.3029 20.3338 15.1696 20.3338C15.0362 20.3338 14.9318 20.2982 14.8562 20.2271C14.7807 20.156 14.7429 20.0582 14.7429 19.9338V19.7404C14.5784 19.9449 14.3962 20.096 14.1962 20.1938C14.0007 20.2871 13.7762 20.3338 13.5229 20.3338ZM17.5845 20.3338C17.2378 20.3338 16.9289 20.2671 16.6578 20.1338C16.3911 19.996 16.1822 19.7982 16.0311 19.5404C15.88 19.2826 15.8045 18.9804 15.8045 18.6338C15.8045 18.2871 15.8756 17.9871 16.0178 17.7338C16.1645 17.476 16.3733 17.2782 16.6445 17.1404C16.9156 17.0026 17.2356 16.9338 17.6045 16.9338C17.8756 16.9338 18.1045 16.9782 18.2911 17.0671C18.4778 17.1515 18.6533 17.2804 18.8178 17.4538L18.8245 15.6071C18.8245 15.4826 18.8645 15.3849 18.9445 15.3138C19.0245 15.2426 19.1311 15.2071 19.2645 15.2071C19.3978 15.2071 19.5022 15.2426 19.5778 15.3138C19.6578 15.3804 19.6978 15.4782 19.6978 15.6071V19.9338C19.6978 20.0626 19.6578 20.1626 19.5778 20.2338C19.5022 20.3004 19.3978 20.3338 19.2645 20.3338C19.1311 20.3338 19.0245 20.2982 18.9445 20.2271C18.8645 20.156 18.8245 20.0582 18.8245 19.9338V19.8004C18.5267 20.156 18.1133 20.3338 17.5845 20.3338ZM17.7178 19.6404C18.0645 19.6404 18.3356 19.5515 18.5311 19.3738C18.7267 19.196 18.8245 18.9493 18.8245 18.6338C18.8245 18.3182 18.7267 18.0715 18.5311 17.8938C18.3356 17.716 18.0645 17.6271 17.7178 17.6271C17.3933 17.6271 17.14 17.716 16.9578 17.8938C16.7756 18.0715 16.6845 18.3182 16.6845 18.6338C16.6845 18.9493 16.7756 19.196 16.9578 19.3738C17.14 19.5515 17.3933 19.6404 17.7178 19.6404ZM21.6912 20.3338C21.3446 20.3338 21.0357 20.2671 20.7646 20.1338C20.4979 19.996 20.289 19.7982 20.1379 19.5404C19.9868 19.2826 19.9112 18.9804 19.9112 18.6338C19.9112 18.2871 19.9823 17.9871 20.1246 17.7338C20.2712 17.476 20.4801 17.2782 20.7512 17.1404C21.0223 17.0026 21.3423 16.9338 21.7112 16.9338C21.9823 16.9338 22.2112 16.9782 22.3979 17.0671C22.5846 17.1515 22.7601 17.2804 22.9246 17.4538L22.9312 15.6071C22.9312 15.4826 22.9712 15.3849 23.0512 15.3138C23.1312 15.2426 23.2379 15.2071 23.3712 15.2071C23.5046 15.2071 23.609 15.2426 23.6846 15.3138C23.7646 15.3804 23.8046 15.4782 23.8046 15.6071V19.9338C23.8046 20.0626 23.7646 20.1626 23.6846 20.2338C23.609 20.3004 23.5046 20.3338 23.3712 20.3338C23.2379 20.3338 23.1312 20.2982 23.0512 20.2271C22.9712 20.156 22.9312 20.0582 22.9312 19.9338V19.8004C22.6334 20.156 22.2201 20.3338 21.6912 20.3338ZM21.8246 19.6404C22.1712 19.6404 22.4423 19.5515 22.6379 19.3738C22.8334 19.196 22.9312 18.9493 22.9312 18.6338C22.9312 18.3182 22.8334 18.0715 22.6379 17.8938C22.4423 17.716 22.1712 17.6271 21.8246 17.6271C21.5001 17.6271 21.2468 17.716 21.0646 17.8938C20.8823 18.0715 20.7912 18.3182 20.7912 18.6338C20.7912 18.9493 20.8823 19.196 21.0646 19.3738C21.2468 19.5515 21.5001 19.6404 21.8246 19.6404ZM25.738 21.9338C25.4136 21.9338 25.118 21.8826 24.8513 21.7804C24.5891 21.6826 24.3869 21.5449 24.2447 21.3671C24.1869 21.2915 24.158 21.2138 24.158 21.1338C24.158 21.0271 24.2091 20.9293 24.3113 20.8404C24.378 20.7871 24.4513 20.7604 24.5313 20.7604C24.6513 20.7604 24.7669 20.8204 24.878 20.9404C25.0691 21.1449 25.3491 21.2471 25.718 21.2471C26.0336 21.2471 26.2713 21.1626 26.4313 20.9938C26.5958 20.8293 26.678 20.5871 26.678 20.2671V19.9871C26.5713 20.0893 26.4336 20.1738 26.2647 20.2404C26.0958 20.3026 25.9358 20.3338 25.7847 20.3338C25.2291 20.3338 24.7958 20.1871 24.4847 19.8938C24.1736 19.596 24.018 19.1826 24.018 18.6538V17.3071C24.018 17.2004 24.0602 17.1115 24.1447 17.0404C24.2291 16.9693 24.3336 16.9338 24.458 16.9338C24.578 16.9338 24.6802 16.9715 24.7647 17.0471C24.8491 17.1182 24.8913 17.2049 24.8913 17.3071V18.6538C24.8913 18.9738 24.9691 19.2226 25.1247 19.4004C25.2847 19.5782 25.5047 19.6671 25.7847 19.6671C26.0558 19.6671 26.2669 19.5782 26.418 19.4004C26.5691 19.2226 26.6447 18.9738 26.6447 18.6538V17.3804C26.6447 17.2382 26.6824 17.1293 26.758 17.0538C26.838 16.9738 26.9469 16.9338 27.0847 16.9338C27.2224 16.9338 27.3291 16.9738 27.4047 17.0538C27.4802 17.1293 27.518 17.2382 27.518 17.3804V20.1538C27.518 20.7138 27.3602 21.1493 27.0447 21.4604C26.7336 21.776 26.298 21.9338 25.738 21.9338Z" fill="white"/>
<path d="M17.0215 21.5776C17.0215 23.3554 22.3548 23.3554 22.3548 21.5776" stroke="white" stroke-width="0.666667" stroke-linecap="round"/>
<line x1="18.8887" y1="18.9004" x2="20.022" y2="18.9004" stroke="white" stroke-width="0.733333"/>
</svg>
