<svg width="56" height="56" viewBox="0 0 56 56" fill="none" xmlns="http://www.w3.org/2000/svg">
<path d="M35.2223 21.0392C35.2223 20.1097 35.0355 19.1894 34.6725 18.3307C34.3096 17.4719 33.7776 16.6917 33.1069 16.0345C32.4363 15.3772 31.6401 14.8559 30.7639 14.5002C29.8876 14.1445 28.9485 13.9614 28.0001 13.9614C27.0516 13.9614 26.1125 14.1445 25.2362 14.5002C24.36 14.8559 23.5638 15.3772 22.8932 16.0345C22.2225 16.6917 21.6905 17.4719 21.3276 18.3307C20.9646 19.1894 20.7778 20.1097 20.7778 21.0392C20.7778 22.4416 21.9179 24.846 21.9179 24.846H21.9097C21.9097 24.846 26.5502 34.1836 28.0001 34.1836C29.4499 34.1836 34.0905 24.846 34.0905 24.846H34.0832C34.0905 24.846 35.2224 22.3889 35.2223 21.0392ZM28.0001 24.0725C27.1791 24.0725 26.3919 23.753 25.8114 23.1841C25.2309 22.6152 24.9048 21.8437 24.9048 21.0392C24.9048 20.2347 25.2309 19.4632 25.8114 18.8943C26.3919 18.3255 27.1791 18.0059 28.0001 18.0059C28.821 18.0059 29.6082 18.3255 30.1887 18.8943C30.7692 19.4632 31.0953 20.2347 31.0953 21.0392C31.0953 21.8437 30.7692 22.6152 30.1887 23.1841C29.6082 23.753 28.821 24.0725 28.0001 24.0725Z" fill="#FB5607"/>
<path d="M18.6667 37.4503C18.6667 43.6725 37.3334 43.6725 37.3334 37.4503" stroke="#FB5607" stroke-width="2.33333" stroke-linecap="round"/>
</svg>
