<svg width="512" height="512" viewBox="0 0 512 512" fill="none" xmlns="http://www.w3.org/2000/svg">
<rect width="512" height="512" fill="#FB5607"/>
<path d="M103.147 241.312C101.013 241.312 99.3066 240.743 98.0266 239.605C96.7466 238.467 96.1066 236.903 96.1066 234.912V176.565H75.52C73.4577 176.565 71.8222 176.103 70.6133 175.178C69.4755 174.183 68.9066 172.832 68.9066 171.125C68.9066 169.347 69.4755 167.996 70.6133 167.072C71.7511 166.076 73.3866 165.578 75.52 165.578H130.88C133.013 165.578 134.649 166.076 135.787 167.072C136.924 167.996 137.493 169.347 137.493 171.125C137.493 172.832 136.889 174.183 135.68 175.178C134.542 176.103 132.942 176.565 130.88 176.565H110.293V234.912C110.293 236.832 109.618 238.396 108.267 239.605C106.987 240.743 105.28 241.312 103.147 241.312ZM133.994 241.312C131.79 241.312 130.083 240.743 128.874 239.605C127.665 238.467 127.061 236.903 127.061 234.912V193.312C127.061 191.25 127.63 189.685 128.767 188.618C129.976 187.481 131.647 186.912 133.781 186.912C135.914 186.912 137.585 187.481 138.794 188.618C140.003 189.756 140.607 191.321 140.607 193.312V196.832C142.812 193.987 145.372 191.818 148.287 190.325C151.274 188.761 154.474 187.978 157.887 187.978H160.234C162.51 187.978 164.252 188.476 165.461 189.472C166.741 190.396 167.381 191.747 167.381 193.525C167.381 195.303 166.741 196.69 165.461 197.685C164.252 198.61 162.51 199.072 160.234 199.072H156.607C151.843 199.072 148.039 200.601 145.194 203.658C142.421 206.645 141.034 210.77 141.034 216.032V234.912C141.034 236.903 140.394 238.467 139.114 239.605C137.834 240.743 136.127 241.312 133.994 241.312ZM185.248 241.312C180.839 241.312 176.928 240.565 173.515 239.072C170.173 237.578 167.542 235.516 165.622 232.885C163.773 230.183 162.848 227.09 162.848 223.605C162.848 218.343 165.017 214.147 169.355 211.018C173.764 207.89 179.702 206.325 187.168 206.325C193.639 206.325 198.831 207.712 202.742 210.485V207.925C202.742 204.583 201.711 202.023 199.648 200.245C197.586 198.467 194.599 197.578 190.688 197.578C184.857 197.578 179.844 198.823 175.648 201.312C173.871 202.307 172.342 202.805 171.062 202.805C169.497 202.805 168.111 202.094 166.902 200.672C166.119 199.676 165.728 198.645 165.728 197.578C165.728 195.801 166.653 194.236 168.502 192.885C171.062 191.036 174.297 189.578 178.208 188.512C182.119 187.445 186.244 186.912 190.582 186.912C198.831 186.912 205.302 188.796 209.995 192.565C214.759 196.263 217.142 201.383 217.142 207.925V235.338C217.142 237.187 216.502 238.645 215.222 239.712C214.013 240.778 212.342 241.312 210.208 241.312C208.004 241.312 206.297 240.814 205.088 239.818C203.879 238.823 203.275 237.401 203.275 235.552V234.378C199.222 239.001 193.213 241.312 185.248 241.312ZM188.555 231.498C193.035 231.498 196.519 230.823 199.008 229.472C201.568 228.05 202.848 226.094 202.848 223.605C202.848 221.258 201.568 219.374 199.008 217.952C196.448 216.53 193.035 215.818 188.768 215.818C184.928 215.818 181.942 216.494 179.808 217.845C177.746 219.196 176.715 221.116 176.715 223.605C176.715 226.094 177.746 228.05 179.808 229.472C181.871 230.823 184.786 231.498 188.555 231.498Z" fill="white"/>
<path d="M320.605 241.312C314.489 241.312 309.156 240.21 304.605 238.005C300.054 235.801 296.534 232.707 294.045 228.725C291.627 224.672 290.418 219.943 290.418 214.538C290.418 205.792 292.943 199.001 297.991 194.165C303.111 189.33 310.294 186.912 319.538 186.912C325.227 186.912 330.24 187.801 334.578 189.578C338.987 191.356 342.4 193.845 344.818 197.045C347.307 200.174 348.551 203.765 348.551 207.818C348.551 211.232 347.449 213.863 345.245 215.712C343.111 217.561 340.054 218.485 336.071 218.485H303.965C303.965 222.467 305.351 225.49 308.125 227.552C310.969 229.543 315.129 230.538 320.605 230.538C326.365 230.538 331.271 229.258 335.325 226.698C337.6 225.276 339.378 224.565 340.658 224.565C341.867 224.565 343.04 225.134 344.178 226.272C345.387 227.481 345.991 228.796 345.991 230.218C345.991 231.925 345.28 233.276 343.858 234.272C340.871 236.547 337.387 238.29 333.405 239.498C329.423 240.707 325.156 241.312 320.605 241.312ZM331.805 208.672C333.014 208.672 333.867 208.458 334.365 208.032C334.863 207.534 335.111 206.752 335.111 205.685C335.111 203.196 333.689 201.241 330.845 199.818C328.071 198.396 324.303 197.685 319.538 197.685C314.774 197.685 311.005 198.681 308.231 200.672C305.529 202.663 304.178 205.33 304.178 208.672H331.805ZM361.051 241.312C358.847 241.312 357.14 240.743 355.931 239.605C354.723 238.467 354.118 236.903 354.118 234.912V165.685C354.118 163.694 354.723 162.13 355.931 160.992C357.14 159.854 358.847 159.285 361.051 159.285C363.185 159.285 364.891 159.854 366.171 160.992C367.451 162.13 368.091 163.694 368.091 165.685V234.912C368.091 236.903 367.451 238.467 366.171 239.605C364.891 240.743 363.185 241.312 361.051 241.312Z" fill="white"/>
<path d="M288.61 178.489C288.61 174.24 287.756 170.033 286.097 166.107C284.437 162.182 282.006 158.615 278.94 155.611C275.874 152.606 272.234 150.223 268.229 148.597C264.223 146.971 259.93 146.134 255.594 146.134C251.258 146.134 246.965 146.971 242.959 148.597C238.954 150.223 235.314 152.606 232.248 155.611C229.182 158.615 226.751 162.182 225.091 166.107C223.432 170.033 222.578 174.24 222.578 178.489C222.578 184.9 227.79 195.892 227.79 195.892H227.752C227.752 195.892 248.966 238.578 255.594 238.578C262.222 238.578 283.436 195.892 283.436 195.892H283.403C283.436 195.892 288.61 184.659 288.61 178.489ZM255.594 192.356C251.841 192.356 248.242 190.895 245.589 188.295C242.935 185.694 241.444 182.167 241.444 178.489C241.444 174.812 242.935 171.285 245.589 168.684C248.242 166.084 251.841 164.623 255.594 164.623C259.347 164.623 262.946 166.084 265.599 168.684C268.253 171.285 269.744 174.812 269.744 178.489C269.744 182.167 268.253 185.694 265.599 188.295C262.946 190.895 259.347 192.356 255.594 192.356Z" fill="white"/>
<path d="M134.862 332.333C132.658 332.333 130.951 331.764 129.742 330.627C128.533 329.489 127.929 327.924 127.929 325.933V256.707C127.929 254.715 128.533 253.151 129.742 252.013C130.951 250.875 132.658 250.307 134.862 250.307C136.995 250.307 138.702 250.875 139.982 252.013C141.262 253.151 141.902 254.715 141.902 256.707L142.009 286.253C144.498 283.551 147.484 281.489 150.969 280.067C154.453 278.644 158.151 277.933 162.062 277.933C170.88 277.933 177.778 280.351 182.755 285.187C187.733 289.951 190.222 296.6 190.222 305.133C190.222 313.667 187.698 320.351 182.649 325.187C177.671 329.951 170.702 332.333 161.742 332.333C157.689 332.333 154.133 331.693 151.075 330.413C148.018 329.062 144.96 326.858 141.902 323.8V325.933C141.902 327.924 141.262 329.489 139.982 330.627C138.702 331.764 136.995 332.333 134.862 332.333ZM159.609 321.24C164.8 321.24 168.853 319.818 171.769 316.973C174.684 314.129 176.142 310.182 176.142 305.133C176.142 300.084 174.684 296.138 171.769 293.293C168.853 290.449 164.8 289.027 159.609 289.027C154.062 289.027 149.724 290.449 146.595 293.293C143.466 296.138 141.902 300.084 141.902 305.133C141.902 310.182 143.466 314.129 146.595 316.973C149.724 319.818 154.062 321.24 159.609 321.24ZM216.357 332.333C209.033 332.333 203.308 330.235 199.184 326.04C195.13 321.773 193.104 315.871 193.104 308.333V284.333C193.104 282.342 193.744 280.778 195.024 279.64C196.304 278.502 198.01 277.933 200.144 277.933C202.348 277.933 204.055 278.502 205.264 279.64C206.473 280.778 207.077 282.342 207.077 284.333V308.333C207.077 312.387 208.144 315.551 210.277 317.827C212.481 320.102 215.539 321.24 219.45 321.24C224.499 321.24 228.41 319.64 231.184 316.44C234.028 313.24 235.45 308.831 235.45 303.213V284.333C235.45 282.342 236.09 280.778 237.37 279.64C238.65 278.502 240.357 277.933 242.49 277.933C244.695 277.933 246.401 278.502 247.61 279.64C248.819 280.778 249.424 282.342 249.424 284.333V325.933C249.424 327.995 248.819 329.595 247.61 330.733C246.473 331.8 244.837 332.333 242.704 332.333C240.57 332.333 238.899 331.764 237.69 330.627C236.481 329.489 235.877 327.924 235.877 325.933V322.84C233.246 326.111 230.33 328.529 227.13 330.093C224.001 331.587 220.41 332.333 216.357 332.333ZM281.342 332.333C275.795 332.333 270.853 331.267 266.515 329.133C262.249 326.929 258.906 323.764 256.489 319.64C254.071 315.515 252.862 310.68 252.862 305.133C252.862 299.587 254 294.787 256.275 290.733C258.622 286.609 261.964 283.444 266.302 281.24C270.64 279.035 275.76 277.933 281.662 277.933C286 277.933 289.662 278.644 292.649 280.067C295.635 281.418 298.444 283.48 301.075 286.253L301.182 256.707C301.182 254.715 301.822 253.151 303.102 252.013C304.382 250.875 306.089 250.307 308.222 250.307C310.355 250.307 312.026 250.875 313.235 252.013C314.515 253.08 315.155 254.644 315.155 256.707V325.933C315.155 327.995 314.515 329.595 313.235 330.733C312.026 331.8 310.355 332.333 308.222 332.333C306.089 332.333 304.382 331.764 303.102 330.627C301.822 329.489 301.182 327.924 301.182 325.933V323.8C296.418 329.489 289.804 332.333 281.342 332.333ZM283.475 321.24C289.022 321.24 293.36 319.818 296.489 316.973C299.618 314.129 301.182 310.182 301.182 305.133C301.182 300.084 299.618 296.138 296.489 293.293C293.36 290.449 289.022 289.027 283.475 289.027C278.284 289.027 274.231 290.449 271.315 293.293C268.4 296.138 266.942 300.084 266.942 305.133C266.942 310.182 268.4 314.129 271.315 316.973C274.231 319.818 278.284 321.24 283.475 321.24ZM347.05 332.333C341.504 332.333 336.561 331.267 332.224 329.133C327.957 326.929 324.615 323.764 322.197 319.64C319.779 315.515 318.57 310.68 318.57 305.133C318.57 299.587 319.708 294.787 321.984 290.733C324.33 286.609 327.673 283.444 332.01 281.24C336.348 279.035 341.468 277.933 347.37 277.933C351.708 277.933 355.37 278.644 358.357 280.067C361.344 281.418 364.153 283.48 366.784 286.253L366.89 256.707C366.89 254.715 367.53 253.151 368.81 252.013C370.09 250.875 371.797 250.307 373.93 250.307C376.064 250.307 377.735 250.875 378.944 252.013C380.224 253.08 380.864 254.644 380.864 256.707V325.933C380.864 327.995 380.224 329.595 378.944 330.733C377.735 331.8 376.064 332.333 373.93 332.333C371.797 332.333 370.09 331.764 368.81 330.627C367.53 329.489 366.89 327.924 366.89 325.933V323.8C362.126 329.489 355.513 332.333 347.05 332.333ZM349.184 321.24C354.73 321.24 359.068 319.818 362.197 316.973C365.326 314.129 366.89 310.182 366.89 305.133C366.89 300.084 365.326 296.138 362.197 293.293C359.068 290.449 354.73 289.027 349.184 289.027C343.993 289.027 339.939 290.449 337.024 293.293C334.108 296.138 332.65 300.084 332.65 305.133C332.65 310.182 334.108 314.129 337.024 316.973C339.939 319.818 343.993 321.24 349.184 321.24ZM411.799 357.933C406.608 357.933 401.879 357.115 397.612 355.48C393.416 353.915 390.181 351.711 387.905 348.867C386.981 347.658 386.519 346.413 386.519 345.133C386.519 343.427 387.336 341.862 388.972 340.44C390.039 339.587 391.212 339.16 392.492 339.16C394.412 339.16 396.261 340.12 398.039 342.04C401.096 345.311 405.576 346.947 411.479 346.947C416.528 346.947 420.332 345.595 422.892 342.893C425.523 340.262 426.839 336.387 426.839 331.267V326.787C425.132 328.422 422.928 329.773 420.225 330.84C417.523 331.835 414.963 332.333 412.545 332.333C403.656 332.333 396.723 329.987 391.745 325.293C386.768 320.529 384.279 313.915 384.279 305.453V283.907C384.279 282.2 384.954 280.778 386.305 279.64C387.656 278.502 389.328 277.933 391.319 277.933C393.239 277.933 394.874 278.538 396.225 279.747C397.576 280.884 398.252 282.271 398.252 283.907V305.453C398.252 310.573 399.496 314.555 401.985 317.4C404.545 320.244 408.065 321.667 412.545 321.667C416.883 321.667 420.261 320.244 422.679 317.4C425.096 314.555 426.305 310.573 426.305 305.453V285.08C426.305 282.804 426.91 281.062 428.119 279.853C429.399 278.573 431.141 277.933 433.345 277.933C435.55 277.933 437.256 278.573 438.465 279.853C439.674 281.062 440.279 282.804 440.279 285.08V329.453C440.279 338.413 437.754 345.382 432.705 350.36C427.728 355.409 420.759 357.933 411.799 357.933Z" fill="white"/>
<path d="M272.354 345.245C272.354 373.69 357.688 373.69 357.688 345.245" stroke="white" stroke-width="10.6667" stroke-linecap="round"/>
<line x1="302.222" y1="302.4" x2="320.355" y2="302.4" stroke="white" stroke-width="11.7333"/>
</svg>
