<svg width="180" height="252" viewBox="0 0 180 252" fill="none" xmlns="http://www.w3.org/2000/svg">
<path d="M151.905 61.3337C151.905 53.3668 150.304 45.478 147.193 38.1175C144.082 30.7571 139.522 24.0693 133.773 18.4358C128.025 12.8024 121.201 8.33375 113.69 5.28497C106.179 2.23618 98.1294 0.666992 90 0.666992C81.8705 0.666992 73.8207 2.23618 66.31 5.28497C58.7994 8.33375 51.9751 12.8024 46.2267 18.4358C40.4783 24.0693 35.9184 30.7571 32.8074 38.1175C29.6964 45.478 28.0952 53.3668 28.0952 61.3337C28.0952 73.3543 37.8673 93.9637 37.8673 93.9637H37.7966C37.7966 93.9637 77.5727 174 90 174C102.427 174 142.203 93.9637 142.203 93.9637H142.141C142.203 93.9637 151.906 72.9021 151.905 61.3337ZM90 87.3337C82.9636 87.3337 76.2154 84.5944 71.24 79.7184C66.2645 74.8425 63.4694 68.2293 63.4694 61.3337C63.4694 54.438 66.2645 47.8248 71.24 42.9489C76.2154 38.0729 82.9636 35.3337 90 35.3337C97.0363 35.3337 103.784 38.0729 108.76 42.9489C113.735 47.8248 116.531 54.438 116.531 61.3337C116.531 68.2293 113.735 74.8425 108.76 79.7184C103.784 84.5944 97.0363 87.3337 90 87.3337Z" fill="#FB5607"/>
<path d="M10 202C10 255.333 170 255.333 170 202" stroke="#FB5607" stroke-width="20" stroke-linecap="round"/>
</svg>