<svg width="36" height="36" viewBox="0 0 36 36" fill="none" xmlns="http://www.w3.org/2000/svg">
<g clip-path="url(#clip0_1428_2675)">
<mask id="mask0_1428_2675" style="mask-type:luminance" maskUnits="userSpaceOnUse" x="0" y="0" width="36" height="36">
<path d="M0 0H36V36H0V0Z" fill="white"/>
</mask>
<g mask="url(#mask0_1428_2675)">
<path d="M17.9989 33.7477C28.4996 33.7477 33.7477 26.6963 33.7477 17.9978C33.7477 9.3015 28.4996 2.25 17.9978 2.25C7.49813 2.25 2.25 9.3015 2.25 17.9989C2.25 26.6962 7.497 33.7477 17.9989 33.7477Z" fill="url(#paint0_radial_1428_2675)"/>
<path d="M17.9989 33.7477C28.4996 33.7477 33.7477 26.6963 33.7477 17.9978C33.7477 9.3015 28.4996 2.25 17.9978 2.25C7.49813 2.25 2.25 9.3015 2.25 17.9989C2.25 26.6962 7.497 33.7477 17.9989 33.7477Z" fill="url(#paint1_radial_1428_2675)"/>
<path d="M17.9989 33.7477C28.4996 33.7477 33.7477 26.6963 33.7477 17.9978C33.7477 9.3015 28.4996 2.25 17.9978 2.25C7.49813 2.25 2.25 9.3015 2.25 17.9989C2.25 26.6962 7.497 33.7477 17.9989 33.7477Z" fill="url(#paint2_radial_1428_2675)" fill-opacity="0.6"/>
<path d="M17.9989 33.7477C28.4996 33.7477 33.7477 26.6963 33.7477 17.9978C33.7477 9.3015 28.4996 2.25 17.9978 2.25C7.49813 2.25 2.25 9.3015 2.25 17.9989C2.25 26.6962 7.497 33.7477 17.9989 33.7477Z" fill="url(#paint3_radial_1428_2675)"/>
<path d="M17.9989 33.7477C28.4996 33.7477 33.7477 26.6963 33.7477 17.9978C33.7477 9.3015 28.4996 2.25 17.9978 2.25C7.49813 2.25 2.25 9.3015 2.25 17.9989C2.25 26.6962 7.497 33.7477 17.9989 33.7477Z" fill="url(#paint4_radial_1428_2675)"/>
<path d="M17.9989 33.7477C28.4996 33.7477 33.7477 26.6963 33.7477 17.9978C33.7477 9.3015 28.4996 2.25 17.9978 2.25C7.49813 2.25 2.25 9.3015 2.25 17.9989C2.25 26.6962 7.497 33.7477 17.9989 33.7477Z" fill="url(#paint5_radial_1428_2675)"/>
<path d="M17.9989 33.7477C28.4996 33.7477 33.7477 26.6963 33.7477 17.9978C33.7477 9.3015 28.4996 2.25 17.9978 2.25C7.49813 2.25 2.25 9.3015 2.25 17.9989C2.25 26.6962 7.497 33.7477 17.9989 33.7477Z" fill="url(#paint6_radial_1428_2675)"/>
<path d="M17.9989 33.7477C28.4996 33.7477 33.7477 26.6963 33.7477 17.9978C33.7477 9.3015 28.4996 2.25 17.9978 2.25C7.49813 2.25 2.25 9.3015 2.25 17.9989C2.25 26.6962 7.497 33.7477 17.9989 33.7477Z" fill="url(#paint7_radial_1428_2675)"/>
<path d="M17.9989 33.7477C28.4996 33.7477 33.7477 26.6963 33.7477 17.9978C33.7477 9.3015 28.4996 2.25 17.9978 2.25C7.49813 2.25 2.25 9.3015 2.25 17.9989C2.25 26.6962 7.497 33.7477 17.9989 33.7477Z" fill="url(#paint8_radial_1428_2675)"/>
<path d="M17.9989 33.7477C28.4996 33.7477 33.7477 26.6963 33.7477 17.9978C33.7477 9.3015 28.4996 2.25 17.9978 2.25C7.49813 2.25 2.25 9.3015 2.25 17.9989C2.25 26.6962 7.497 33.7477 17.9989 33.7477Z" fill="url(#paint9_radial_1428_2675)"/>
<path d="M17.9989 33.7477C28.4996 33.7477 33.7477 26.6963 33.7477 17.9978C33.7477 9.3015 28.4996 2.25 17.9978 2.25C7.49813 2.25 2.25 9.3015 2.25 17.9989C2.25 26.6962 7.497 33.7477 17.9989 33.7477Z" fill="url(#paint10_radial_1428_2675)"/>
<path d="M17.9989 33.7477C28.4996 33.7477 33.7477 26.6963 33.7477 17.9978C33.7477 9.3015 28.4996 2.25 17.9978 2.25C7.49813 2.25 2.25 9.3015 2.25 17.9989C2.25 26.6962 7.497 33.7477 17.9989 33.7477Z" fill="url(#paint11_radial_1428_2675)"/>
<path d="M17.9989 33.7477C28.4996 33.7477 33.7477 26.6963 33.7477 17.9978C33.7477 9.3015 28.4996 2.25 17.9978 2.25C7.49813 2.25 2.25 9.3015 2.25 17.9989C2.25 26.6962 7.497 33.7477 17.9989 33.7477Z" fill="url(#paint12_radial_1428_2675)"/>
<path d="M17.9989 33.7477C28.4996 33.7477 33.7477 26.6963 33.7477 17.9978C33.7477 9.3015 28.4996 2.25 17.9978 2.25C7.49813 2.25 2.25 9.3015 2.25 17.9989C2.25 26.6962 7.497 33.7477 17.9989 33.7477Z" fill="url(#paint13_radial_1428_2675)"/>
<path fill-rule="evenodd" clip-rule="evenodd" d="M16.182 25.2C15.3113 26.217 14.0344 27.5625 11.8125 27.5625C9.59851 27.5625 7.75351 26.2193 7.07963 25.5454C6.97218 25.4416 6.88648 25.3175 6.82752 25.1802C6.76856 25.043 6.73752 24.8953 6.73623 24.746C6.73493 24.5966 6.76339 24.4484 6.81996 24.3102C6.87652 24.1719 6.96006 24.0463 7.06569 23.9407C7.17132 23.8351 7.29693 23.7515 7.43518 23.6949C7.57344 23.6384 7.72158 23.6099 7.87096 23.6112C8.02034 23.6125 8.16796 23.6436 8.30521 23.7025C8.44247 23.7615 8.5666 23.8472 8.67038 23.9546C9.12038 24.4046 10.4265 25.3125 11.8125 25.3125C12.9656 25.3125 13.6575 24.6893 14.4743 23.7375L14.6925 23.4788C15.0221 23.085 15.4091 22.626 15.8175 22.2683C16.3575 21.7958 17.0674 21.375 18 21.375C19.4423 21.375 20.4053 22.0838 21.1095 22.6013L21.2636 22.7149C21.987 23.2414 22.5866 23.625 23.625 23.625C25.4981 23.625 26.46 22.689 26.6265 22.4381C26.7921 22.1899 27.0495 22.0176 27.3422 21.9591C27.6348 21.9007 27.9386 21.9609 28.1869 22.1265C28.4351 22.2921 28.6074 22.5495 28.6659 22.8421C28.7243 23.1348 28.6641 23.4386 28.4985 23.6869C27.9158 24.561 26.2519 25.875 23.625 25.875C21.8509 25.875 20.763 25.1336 19.9395 24.5351L19.9024 24.5081C19.0969 23.922 18.6896 23.625 18 23.625C17.8076 23.625 17.604 23.6959 17.2991 23.9625C17.0325 24.1954 16.7895 24.4834 16.4723 24.8591L16.182 25.2Z" fill="#402A32"/>
<path fill-rule="evenodd" clip-rule="evenodd" d="M16.182 25.2C15.3113 26.217 14.0344 27.5625 11.8125 27.5625C9.59851 27.5625 7.75351 26.2193 7.07963 25.5454C6.97218 25.4416 6.88648 25.3175 6.82752 25.1802C6.76856 25.043 6.73752 24.8953 6.73623 24.746C6.73493 24.5966 6.76339 24.4484 6.81996 24.3102C6.87652 24.1719 6.96006 24.0463 7.06569 23.9407C7.17132 23.8351 7.29693 23.7515 7.43518 23.6949C7.57344 23.6384 7.72158 23.6099 7.87096 23.6112C8.02034 23.6125 8.16796 23.6436 8.30521 23.7025C8.44247 23.7615 8.5666 23.8472 8.67038 23.9546C9.12038 24.4046 10.4265 25.3125 11.8125 25.3125C12.9656 25.3125 13.6575 24.6893 14.4743 23.7375L14.6925 23.4788C15.0221 23.085 15.4091 22.626 15.8175 22.2683C16.3575 21.7958 17.0674 21.375 18 21.375C19.4423 21.375 20.4053 22.0838 21.1095 22.6013L21.2636 22.7149C21.987 23.2414 22.5866 23.625 23.625 23.625C25.4981 23.625 26.46 22.689 26.6265 22.4381C26.7921 22.1899 27.0495 22.0176 27.3422 21.9591C27.6348 21.9007 27.9386 21.9609 28.1869 22.1265C28.4351 22.2921 28.6074 22.5495 28.6659 22.8421C28.7243 23.1348 28.6641 23.4386 28.4985 23.6869C27.9158 24.561 26.2519 25.875 23.625 25.875C21.8509 25.875 20.763 25.1336 19.9395 24.5351L19.9024 24.5081C19.0969 23.922 18.6896 23.625 18 23.625C17.8076 23.625 17.604 23.6959 17.2991 23.9625C17.0325 24.1954 16.7895 24.4834 16.4723 24.8591L16.182 25.2Z" fill="url(#paint14_radial_1428_2675)"/>
<path fill-rule="evenodd" clip-rule="evenodd" d="M16.182 25.2C15.3113 26.217 14.0344 27.5625 11.8125 27.5625C9.59851 27.5625 7.75351 26.2193 7.07963 25.5454C6.97218 25.4416 6.88648 25.3175 6.82752 25.1802C6.76856 25.043 6.73752 24.8953 6.73623 24.746C6.73493 24.5966 6.76339 24.4484 6.81996 24.3102C6.87652 24.1719 6.96006 24.0463 7.06569 23.9407C7.17132 23.8351 7.29693 23.7515 7.43518 23.6949C7.57344 23.6384 7.72158 23.6099 7.87096 23.6112C8.02034 23.6125 8.16796 23.6436 8.30521 23.7025C8.44247 23.7615 8.5666 23.8472 8.67038 23.9546C9.12038 24.4046 10.4265 25.3125 11.8125 25.3125C12.9656 25.3125 13.6575 24.6893 14.4743 23.7375L14.6925 23.4788C15.0221 23.085 15.4091 22.626 15.8175 22.2683C16.3575 21.7958 17.0674 21.375 18 21.375C19.4423 21.375 20.4053 22.0838 21.1095 22.6013L21.2636 22.7149C21.987 23.2414 22.5866 23.625 23.625 23.625C25.4981 23.625 26.46 22.689 26.6265 22.4381C26.7921 22.1899 27.0495 22.0176 27.3422 21.9591C27.6348 21.9007 27.9386 21.9609 28.1869 22.1265C28.4351 22.2921 28.6074 22.5495 28.6659 22.8421C28.7243 23.1348 28.6641 23.4386 28.4985 23.6869C27.9158 24.561 26.2519 25.875 23.625 25.875C21.8509 25.875 20.763 25.1336 19.9395 24.5351L19.9024 24.5081C19.0969 23.922 18.6896 23.625 18 23.625C17.8076 23.625 17.604 23.6959 17.2991 23.9625C17.0325 24.1954 16.7895 24.4834 16.4723 24.8591L16.182 25.2Z" fill="url(#paint15_radial_1428_2675)"/>
<path fill-rule="evenodd" clip-rule="evenodd" d="M16.182 25.2C15.3113 26.217 14.0344 27.5625 11.8125 27.5625C9.59851 27.5625 7.75351 26.2193 7.07963 25.5454C6.97218 25.4416 6.88648 25.3175 6.82752 25.1802C6.76856 25.043 6.73752 24.8953 6.73623 24.746C6.73493 24.5966 6.76339 24.4484 6.81996 24.3102C6.87652 24.1719 6.96006 24.0463 7.06569 23.9407C7.17132 23.8351 7.29693 23.7515 7.43518 23.6949C7.57344 23.6384 7.72158 23.6099 7.87096 23.6112C8.02034 23.6125 8.16796 23.6436 8.30521 23.7025C8.44247 23.7615 8.5666 23.8472 8.67038 23.9546C9.12038 24.4046 10.4265 25.3125 11.8125 25.3125C12.9656 25.3125 13.6575 24.6893 14.4743 23.7375L14.6925 23.4788C15.0221 23.085 15.4091 22.626 15.8175 22.2683C16.3575 21.7958 17.0674 21.375 18 21.375C19.4423 21.375 20.4053 22.0838 21.1095 22.6013L21.2636 22.7149C21.987 23.2414 22.5866 23.625 23.625 23.625C25.4981 23.625 26.46 22.689 26.6265 22.4381C26.7921 22.1899 27.0495 22.0176 27.3422 21.9591C27.6348 21.9007 27.9386 21.9609 28.1869 22.1265C28.4351 22.2921 28.6074 22.5495 28.6659 22.8421C28.7243 23.1348 28.6641 23.4386 28.4985 23.6869C27.9158 24.561 26.2519 25.875 23.625 25.875C21.8509 25.875 20.763 25.1336 19.9395 24.5351L19.9024 24.5081C19.0969 23.922 18.6896 23.625 18 23.625C17.8076 23.625 17.604 23.6959 17.2991 23.9625C17.0325 24.1954 16.7895 24.4834 16.4723 24.8591L16.182 25.2Z" fill="url(#paint16_radial_1428_2675)"/>
<path fill-rule="evenodd" clip-rule="evenodd" d="M16.182 25.2C15.3113 26.217 14.0344 27.5625 11.8125 27.5625C9.59851 27.5625 7.75351 26.2193 7.07963 25.5454C6.97218 25.4416 6.88648 25.3175 6.82752 25.1802C6.76856 25.043 6.73752 24.8953 6.73623 24.746C6.73493 24.5966 6.76339 24.4484 6.81996 24.3102C6.87652 24.1719 6.96006 24.0463 7.06569 23.9407C7.17132 23.8351 7.29693 23.7515 7.43518 23.6949C7.57344 23.6384 7.72158 23.6099 7.87096 23.6112C8.02034 23.6125 8.16796 23.6436 8.30521 23.7025C8.44247 23.7615 8.5666 23.8472 8.67038 23.9546C9.12038 24.4046 10.4265 25.3125 11.8125 25.3125C12.9656 25.3125 13.6575 24.6893 14.4743 23.7375L14.6925 23.4788C15.0221 23.085 15.4091 22.626 15.8175 22.2683C16.3575 21.7958 17.0674 21.375 18 21.375C19.4423 21.375 20.4053 22.0838 21.1095 22.6013L21.2636 22.7149C21.987 23.2414 22.5866 23.625 23.625 23.625C25.4981 23.625 26.46 22.689 26.6265 22.4381C26.7921 22.1899 27.0495 22.0176 27.3422 21.9591C27.6348 21.9007 27.9386 21.9609 28.1869 22.1265C28.4351 22.2921 28.6074 22.5495 28.6659 22.8421C28.7243 23.1348 28.6641 23.4386 28.4985 23.6869C27.9158 24.561 26.2519 25.875 23.625 25.875C21.8509 25.875 20.763 25.1336 19.9395 24.5351L19.9024 24.5081C19.0969 23.922 18.6896 23.625 18 23.625C17.8076 23.625 17.604 23.6959 17.2991 23.9625C17.0325 24.1954 16.7895 24.4834 16.4723 24.8591L16.182 25.2Z" fill="url(#paint17_radial_1428_2675)"/>
<path fill-rule="evenodd" clip-rule="evenodd" d="M16.182 25.2C15.3113 26.217 14.0344 27.5625 11.8125 27.5625C9.59851 27.5625 7.75351 26.2193 7.07963 25.5454C6.97218 25.4416 6.88648 25.3175 6.82752 25.1802C6.76856 25.043 6.73752 24.8953 6.73623 24.746C6.73493 24.5966 6.76339 24.4484 6.81996 24.3102C6.87652 24.1719 6.96006 24.0463 7.06569 23.9407C7.17132 23.8351 7.29693 23.7515 7.43518 23.6949C7.57344 23.6384 7.72158 23.6099 7.87096 23.6112C8.02034 23.6125 8.16796 23.6436 8.30521 23.7025C8.44247 23.7615 8.5666 23.8472 8.67038 23.9546C9.12038 24.4046 10.4265 25.3125 11.8125 25.3125C12.9656 25.3125 13.6575 24.6893 14.4743 23.7375L14.6925 23.4788C15.0221 23.085 15.4091 22.626 15.8175 22.2683C16.3575 21.7958 17.0674 21.375 18 21.375C19.4423 21.375 20.4053 22.0838 21.1095 22.6013L21.2636 22.7149C21.987 23.2414 22.5866 23.625 23.625 23.625C25.4981 23.625 26.46 22.689 26.6265 22.4381C26.7921 22.1899 27.0495 22.0176 27.3422 21.9591C27.6348 21.9007 27.9386 21.9609 28.1869 22.1265C28.4351 22.2921 28.6074 22.5495 28.6659 22.8421C28.7243 23.1348 28.6641 23.4386 28.4985 23.6869C27.9158 24.561 26.2519 25.875 23.625 25.875C21.8509 25.875 20.763 25.1336 19.9395 24.5351L19.9024 24.5081C19.0969 23.922 18.6896 23.625 18 23.625C17.8076 23.625 17.604 23.6959 17.2991 23.9625C17.0325 24.1954 16.7895 24.4834 16.4723 24.8591L16.182 25.2Z" fill="url(#paint18_radial_1428_2675)"/>
<path fill-rule="evenodd" clip-rule="evenodd" d="M16.182 25.2C15.3113 26.217 14.0344 27.5625 11.8125 27.5625C9.59851 27.5625 7.75351 26.2193 7.07963 25.5454C6.97218 25.4416 6.88648 25.3175 6.82752 25.1802C6.76856 25.043 6.73752 24.8953 6.73623 24.746C6.73493 24.5966 6.76339 24.4484 6.81996 24.3102C6.87652 24.1719 6.96006 24.0463 7.06569 23.9407C7.17132 23.8351 7.29693 23.7515 7.43518 23.6949C7.57344 23.6384 7.72158 23.6099 7.87096 23.6112C8.02034 23.6125 8.16796 23.6436 8.30521 23.7025C8.44247 23.7615 8.5666 23.8472 8.67038 23.9546C9.12038 24.4046 10.4265 25.3125 11.8125 25.3125C12.9656 25.3125 13.6575 24.6893 14.4743 23.7375L14.6925 23.4788C15.0221 23.085 15.4091 22.626 15.8175 22.2683C16.3575 21.7958 17.0674 21.375 18 21.375C19.4423 21.375 20.4053 22.0838 21.1095 22.6013L21.2636 22.7149C21.987 23.2414 22.5866 23.625 23.625 23.625C25.4981 23.625 26.46 22.689 26.6265 22.4381C26.7921 22.1899 27.0495 22.0176 27.3422 21.9591C27.6348 21.9007 27.9386 21.9609 28.1869 22.1265C28.4351 22.2921 28.6074 22.5495 28.6659 22.8421C28.7243 23.1348 28.6641 23.4386 28.4985 23.6869C27.9158 24.561 26.2519 25.875 23.625 25.875C21.8509 25.875 20.763 25.1336 19.9395 24.5351L19.9024 24.5081C19.0969 23.922 18.6896 23.625 18 23.625C17.8076 23.625 17.604 23.6959 17.2991 23.9625C17.0325 24.1954 16.7895 24.4834 16.4723 24.8591L16.182 25.2Z" fill="url(#paint19_radial_1428_2675)"/>
<path fill-rule="evenodd" clip-rule="evenodd" d="M16.182 25.2C15.3113 26.217 14.0344 27.5625 11.8125 27.5625C9.59851 27.5625 7.75351 26.2193 7.07963 25.5454C6.97218 25.4416 6.88648 25.3175 6.82752 25.1802C6.76856 25.043 6.73752 24.8953 6.73623 24.746C6.73493 24.5966 6.76339 24.4484 6.81996 24.3102C6.87652 24.1719 6.96006 24.0463 7.06569 23.9407C7.17132 23.8351 7.29693 23.7515 7.43518 23.6949C7.57344 23.6384 7.72158 23.6099 7.87096 23.6112C8.02034 23.6125 8.16796 23.6436 8.30521 23.7025C8.44247 23.7615 8.5666 23.8472 8.67038 23.9546C9.12038 24.4046 10.4265 25.3125 11.8125 25.3125C12.9656 25.3125 13.6575 24.6893 14.4743 23.7375L14.6925 23.4788C15.0221 23.085 15.4091 22.626 15.8175 22.2683C16.3575 21.7958 17.0674 21.375 18 21.375C19.4423 21.375 20.4053 22.0838 21.1095 22.6013L21.2636 22.7149C21.987 23.2414 22.5866 23.625 23.625 23.625C25.4981 23.625 26.46 22.689 26.6265 22.4381C26.7921 22.1899 27.0495 22.0176 27.3422 21.9591C27.6348 21.9007 27.9386 21.9609 28.1869 22.1265C28.4351 22.2921 28.6074 22.5495 28.6659 22.8421C28.7243 23.1348 28.6641 23.4386 28.4985 23.6869C27.9158 24.561 26.2519 25.875 23.625 25.875C21.8509 25.875 20.763 25.1336 19.9395 24.5351L19.9024 24.5081C19.0969 23.922 18.6896 23.625 18 23.625C17.8076 23.625 17.604 23.6959 17.2991 23.9625C17.0325 24.1954 16.7895 24.4834 16.4723 24.8591L16.182 25.2Z" fill="url(#paint20_radial_1428_2675)"/>
<path fill-rule="evenodd" clip-rule="evenodd" d="M12.375 19.125C12.8758 19.1252 13.3703 19.0139 13.8227 18.7993C14.2751 18.5847 14.6741 18.272 14.9908 17.8841C15.3074 17.4962 15.5338 17.0426 15.6534 16.5564C15.773 16.0701 15.783 15.5633 15.6825 15.0728L9.43875 17.4139C9.73309 17.9333 10.16 18.3654 10.6758 18.666C11.1916 18.9666 11.778 19.125 12.375 19.125Z" fill="url(#paint21_linear_1428_2675)"/>
<path fill-rule="evenodd" clip-rule="evenodd" d="M23.625 19.125C24.2104 19.1251 24.7857 18.9729 25.2945 18.6834C25.8033 18.394 26.228 17.9771 26.527 17.4739C26.826 16.9706 26.989 16.3983 26.9999 15.813C27.0109 15.2277 26.8694 14.6497 26.5894 14.1356L23.1851 13.1906C22.6714 13.0469 22.1358 12.9981 21.6045 13.0466C21.0367 13.471 20.617 14.0633 20.4048 14.7396C20.1926 15.416 20.1987 16.1419 20.4223 16.8146C20.6459 17.4872 21.0756 18.0724 21.6505 18.4871C22.2253 18.9018 22.9162 19.125 23.625 19.125Z" fill="url(#paint22_linear_1428_2675)"/>
<path d="M22.0072 7.87039C24.0581 7.61389 25.29 8.37439 26.0235 9.17089C26.4603 9.64816 26.797 10.2082 27.0135 10.8179L27.0214 10.8404V10.8438C27.0418 10.9148 27.0759 10.9812 27.122 11.039C27.168 11.0969 27.225 11.1451 27.2896 11.1809C27.3543 11.2168 27.4254 11.2395 27.4988 11.2479C27.5723 11.2562 27.6467 11.25 27.7177 11.2296C27.7888 11.2093 27.8552 11.1751 27.913 11.129C27.9709 11.083 28.0191 11.026 28.0549 10.9614C28.0907 10.8967 28.1135 10.8256 28.1218 10.7522C28.1302 10.6787 28.124 10.6043 28.1036 10.5333V10.5299L28.1014 10.5254L28.098 10.5119L28.0834 10.4691L28.0327 10.3229C27.7642 9.61506 27.3633 8.96486 26.8515 8.40701C25.8975 7.37539 24.3169 6.44839 21.8677 6.75439C21.7225 6.77605 21.5914 6.85368 21.5026 6.97067C21.4138 7.08767 21.3743 7.23476 21.3925 7.38051C21.4108 7.52625 21.4853 7.65909 21.6001 7.75063C21.715 7.84217 21.8611 7.88515 22.0072 7.87039Z" fill="url(#paint23_radial_1428_2675)"/>
<path d="M22.0072 7.87039C24.0581 7.61389 25.29 8.37439 26.0235 9.17089C26.4603 9.64816 26.797 10.2082 27.0135 10.8179L27.0214 10.8404V10.8438C27.0418 10.9148 27.0759 10.9812 27.122 11.039C27.168 11.0969 27.225 11.1451 27.2896 11.1809C27.3543 11.2168 27.4254 11.2395 27.4988 11.2479C27.5723 11.2562 27.6467 11.25 27.7177 11.2296C27.7888 11.2093 27.8552 11.1751 27.913 11.129C27.9709 11.083 28.0191 11.026 28.0549 10.9614C28.0907 10.8967 28.1135 10.8256 28.1218 10.7522C28.1302 10.6787 28.124 10.6043 28.1036 10.5333V10.5299L28.1014 10.5254L28.098 10.5119L28.0834 10.4691L28.0327 10.3229C27.7642 9.61506 27.3633 8.96486 26.8515 8.40701C25.8975 7.37539 24.3169 6.44839 21.8677 6.75439C21.7225 6.77605 21.5914 6.85368 21.5026 6.97067C21.4138 7.08767 21.3743 7.23476 21.3925 7.38051C21.4108 7.52625 21.4853 7.65909 21.6001 7.75063C21.715 7.84217 21.8611 7.88515 22.0072 7.87039Z" fill="url(#paint24_radial_1428_2675)"/>
<path d="M14.6081 10.8236C14.628 10.7513 14.6331 10.6757 14.6233 10.6014C14.6136 10.5271 14.589 10.4555 14.5512 10.3908C14.5133 10.3261 14.4629 10.2696 14.4029 10.2246C14.3429 10.1797 14.2745 10.1472 14.2018 10.129C14.1291 10.1109 14.0535 10.1075 13.9794 10.119C13.9053 10.1305 13.8343 10.1566 13.7705 10.196C13.7066 10.2353 13.6513 10.287 13.6078 10.3481C13.5642 10.4091 13.5333 10.4782 13.5169 10.5513C13.1119 12.1736 12.2074 12.9689 11.2669 13.3436C10.2938 13.7306 9.23625 13.6822 8.57363 13.5168C8.43028 13.4846 8.28 13.5097 8.15493 13.5868C8.02987 13.6639 7.93993 13.7869 7.90436 13.9294C7.8688 14.072 7.89042 14.2228 7.96462 14.3496C8.03881 14.4764 8.15968 14.5692 8.30138 14.6081C9.13838 14.8173 10.4445 14.8814 11.6831 14.3887C12.9544 13.8824 14.1131 12.8024 14.6081 10.8236Z" fill="url(#paint25_radial_1428_2675)"/>
<path d="M28.3928 14.7487C28.6178 15.0142 28.6954 15.3708 28.6639 15.7184C28.3871 18.7953 25.7243 20.7821 23.0625 20.2499C20.475 19.7324 18.8404 17.3114 19.0327 14.7374C19.0665 14.2942 19.2825 13.8779 19.6549 13.6372C22.0343 12.0959 26.8684 12.9487 28.3928 14.7487ZM7.875 16.8749C8.06288 18.1878 9.1935 20.2499 12.375 20.2499C17.4375 20.2499 16.875 13.4999 16.875 13.4999L7.875 16.8749Z" fill="white"/>
<path fill-rule="evenodd" clip-rule="evenodd" d="M23.625 16.875C24.0593 16.875 24.4843 16.7493 24.8488 16.513C25.2132 16.2768 25.5015 15.9402 25.6788 15.5437C25.8562 15.1473 25.915 14.708 25.8482 14.2789C25.7814 13.8497 25.5918 13.4491 25.3024 13.1253C24.2964 12.8774 23.2578 12.789 22.2244 12.8632C21.8587 13.1537 21.5925 13.5507 21.4627 13.9993C21.3328 14.4479 21.3457 14.9257 21.4997 15.3666C21.6536 15.8075 21.9409 16.1896 22.3217 16.4598C22.7025 16.7301 23.158 16.8752 23.625 16.875ZM12.375 18C12.7836 17.9999 13.1844 17.8886 13.5345 17.678C13.8846 17.4674 14.1707 17.1654 14.3622 16.8045C14.5537 16.4436 14.6433 16.0374 14.6214 15.6295C14.5995 15.2215 14.467 14.8272 14.238 14.4888L10.1419 16.0256C10.2091 16.5705 10.4733 17.072 10.8846 17.4356C11.2959 17.7993 11.826 18 12.375 18Z" fill="#402A32"/>
</g>
</g>
<defs>
<radialGradient id="paint0_radial_1428_2675" cx="0" cy="0" r="1" gradientUnits="userSpaceOnUse" gradientTransform="translate(28.6862 10.1257) rotate(131.878) scale(43.8173)">
<stop stop-color="#FFF478"/>
<stop offset="0.475" stop-color="#FFB02E"/>
<stop offset="1" stop-color="#F70A8D"/>
</radialGradient>
<radialGradient id="paint1_radial_1428_2675" cx="0" cy="0" r="1" gradientUnits="userSpaceOnUse" gradientTransform="translate(17.9992 14.0622) rotate(101.31) scale(20.0774 25.7154)">
<stop offset="0.788" stop-color="#F59639" stop-opacity="0"/>
<stop offset="0.973" stop-color="#FF7DCE"/>
</radialGradient>
<radialGradient id="paint2_radial_1428_2675" cx="0" cy="0" r="1" gradientUnits="userSpaceOnUse" gradientTransform="translate(20.25 15.75) rotate(135) scale(46.1387)">
<stop offset="0.315" stop-opacity="0"/>
<stop offset="1"/>
</radialGradient>
<radialGradient id="paint3_radial_1428_2675" cx="0" cy="0" r="1" gradientUnits="userSpaceOnUse" gradientTransform="translate(17.3978 19.1244) rotate(76.632) scale(31.799)">
<stop offset="0.508" stop-color="#D1671A" stop-opacity="0"/>
<stop offset="0.784" stop-color="#B2753D"/>
</radialGradient>
<radialGradient id="paint4_radial_1428_2675" cx="0" cy="0" r="1" gradientUnits="userSpaceOnUse" gradientTransform="translate(18.5625 18.5625) rotate(55.713) scale(14.9777 10.8566)">
<stop stop-color="#FFB849"/>
<stop offset="1" stop-color="#FFB847" stop-opacity="0"/>
</radialGradient>
<radialGradient id="paint5_radial_1428_2675" cx="0" cy="0" r="1" gradientUnits="userSpaceOnUse" gradientTransform="translate(23.0625 20.25) rotate(9.86582) scale(13.1317)">
<stop stop-color="#FFA64B"/>
<stop offset="0.9" stop-color="#FFAE46" stop-opacity="0"/>
</radialGradient>
<radialGradient id="paint6_radial_1428_2675" cx="0" cy="0" r="1" gradientUnits="userSpaceOnUse" gradientTransform="translate(19.6876 16.8753) rotate(43.971) scale(66.4345)">
<stop offset="0.185" stop-opacity="0"/>
<stop offset="1" stop-opacity="0.4"/>
</radialGradient>
<radialGradient id="paint7_radial_1428_2675" cx="0" cy="0" r="1" gradientUnits="userSpaceOnUse" gradientTransform="translate(10.354 16.0846) rotate(-54.858) scale(7.87691)">
<stop offset="0.135" stop-color="#C68F11"/>
<stop offset="1" stop-color="#D59A13" stop-opacity="0"/>
</radialGradient>
<radialGradient id="paint8_radial_1428_2675" cx="0" cy="0" r="1" gradientUnits="userSpaceOnUse" gradientTransform="translate(10.674 19.3388) rotate(17.2878) scale(4.91691 2.18344)">
<stop offset="0.313" stop-color="#D67B36"/>
<stop offset="1" stop-color="#F79A38" stop-opacity="0"/>
</radialGradient>
<radialGradient id="paint9_radial_1428_2675" cx="0" cy="0" r="1" gradientUnits="userSpaceOnUse" gradientTransform="translate(23.2983 16.8239) rotate(57.216) scale(5.98189)">
<stop offset="0.45" stop-color="#D67B36"/>
<stop offset="0.807" stop-color="#F79A38" stop-opacity="0"/>
</radialGradient>
<radialGradient id="paint10_radial_1428_2675" cx="0" cy="0" r="1" gradientUnits="userSpaceOnUse" gradientTransform="translate(26.7468 11.0518) rotate(48.991) scale(1.53152 0.918247)">
<stop stop-color="#E7982E"/>
<stop offset="1" stop-color="#E39632" stop-opacity="0"/>
</radialGradient>
<radialGradient id="paint11_radial_1428_2675" cx="0" cy="0" r="1" gradientUnits="userSpaceOnUse" gradientTransform="translate(26.1102 9.85454) rotate(44.132) scale(2.57571 1.2852)">
<stop stop-color="#E7982E"/>
<stop offset="1" stop-color="#E39632" stop-opacity="0"/>
</radialGradient>
<radialGradient id="paint12_radial_1428_2675" cx="0" cy="0" r="1" gradientUnits="userSpaceOnUse" gradientTransform="translate(24.2066 8.75025) rotate(32.0159) scale(3.53241 1.28992)">
<stop stop-color="#E2981B"/>
<stop offset="1" stop-color="#EAA239" stop-opacity="0"/>
</radialGradient>
<radialGradient id="paint13_radial_1428_2675" cx="0" cy="0" r="1" gradientUnits="userSpaceOnUse" gradientTransform="translate(22.5039 8.40887) rotate(4.192) scale(3.68127 1.89542)">
<stop stop-color="#E2981B"/>
<stop offset="1" stop-color="#FFDC64" stop-opacity="0"/>
</radialGradient>
<radialGradient id="paint14_radial_1428_2675" cx="0" cy="0" r="1" gradientUnits="userSpaceOnUse" gradientTransform="translate(23.7661 20.0307) rotate(-114.874) scale(6.09809)">
<stop offset="0.61" stop-color="#2F1F2A"/>
<stop offset="0.732" stop-color="#51394C"/>
<stop offset="0.795" stop-color="#51394C"/>
<stop offset="0.911" stop-color="#442E3E"/>
</radialGradient>
<radialGradient id="paint15_radial_1428_2675" cx="0" cy="0" r="1" gradientUnits="userSpaceOnUse" gradientTransform="translate(18.6581 27.4365) rotate(-103.686) scale(7.00752 5.20896)">
<stop offset="0.516" stop-color="#2F1F2A"/>
<stop offset="0.732" stop-color="#51394C"/>
<stop offset="0.791" stop-color="#51394C"/>
<stop offset="0.894" stop-color="#533B4E" stop-opacity="0"/>
</radialGradient>
<radialGradient id="paint16_radial_1428_2675" cx="0" cy="0" r="1" gradientUnits="userSpaceOnUse" gradientTransform="translate(12.3011 22.1559) rotate(-25.534) scale(6.67577 4.96235)">
<stop offset="0.516" stop-color="#2F1F2A"/>
<stop offset="0.732" stop-color="#51394C"/>
<stop offset="0.791" stop-color="#51394C"/>
<stop offset="0.894" stop-color="#533B4E" stop-opacity="0"/>
</radialGradient>
<radialGradient id="paint17_radial_1428_2675" cx="0" cy="0" r="1" gradientUnits="userSpaceOnUse" gradientTransform="translate(14.9288 27.0922) rotate(-41.186) scale(2.73217 1.37838)">
<stop offset="0.474" stop-color="#392734"/>
<stop offset="0.957" stop-color="#392734" stop-opacity="0"/>
</radialGradient>
<radialGradient id="paint18_radial_1428_2675" cx="0" cy="0" r="1" gradientUnits="userSpaceOnUse" gradientTransform="translate(21.3908 27.1046) rotate(-73.4189) scale(3.01774 6.54927)">
<stop offset="0.652" stop-color="#452F3F"/>
<stop offset="0.756" stop-color="#452F3F" stop-opacity="0"/>
</radialGradient>
<radialGradient id="paint19_radial_1428_2675" cx="0" cy="0" r="1" gradientUnits="userSpaceOnUse" gradientTransform="translate(20.07 21.1534) rotate(-173.895) scale(3.07667 1.55219)">
<stop offset="0.356" stop-color="#392734"/>
<stop offset="0.634" stop-color="#392734" stop-opacity="0"/>
</radialGradient>
<radialGradient id="paint20_radial_1428_2675" cx="0" cy="0" r="1" gradientUnits="userSpaceOnUse" gradientTransform="translate(16.3871 21.1383) rotate(-108.898) scale(1.91936 4.7742)">
<stop offset="0.356" stop-color="#392734"/>
<stop offset="0.634" stop-color="#392734" stop-opacity="0"/>
</radialGradient>
<linearGradient id="paint21_linear_1428_2675" x1="12.7913" y1="14.3966" x2="11.6786" y2="18.9495" gradientUnits="userSpaceOnUse">
<stop stop-color="#553B3E"/>
<stop offset="1" stop-color="#3D2432"/>
</linearGradient>
<linearGradient id="paint22_linear_1428_2675" x1="23.8365" y1="12.0105" x2="21.6011" y2="18.5017" gradientUnits="userSpaceOnUse">
<stop stop-color="#553B3E"/>
<stop offset="1" stop-color="#3D2432"/>
</linearGradient>
<radialGradient id="paint23_radial_1428_2675" cx="0" cy="0" r="1" gradientUnits="userSpaceOnUse" gradientTransform="translate(23.9884 11.2499) rotate(-39.8653) scale(4.60869 6.14861)">
<stop offset="0.61" stop-color="#2F1F2A"/>
<stop offset="0.732" stop-color="#51394C"/>
<stop offset="0.795" stop-color="#51394C"/>
<stop offset="0.851" stop-color="#50394C"/>
<stop offset="0.911" stop-color="#442E3E"/>
</radialGradient>
<radialGradient id="paint24_radial_1428_2675" cx="0" cy="0" r="1" gradientUnits="userSpaceOnUse" gradientTransform="translate(24.3596 10.1654) rotate(-55.815) scale(4.50513 4.07433)">
<stop offset="0.646" stop-color="#362530" stop-opacity="0"/>
<stop offset="1" stop-color="#342330"/>
</radialGradient>
<radialGradient id="paint25_radial_1428_2675" cx="0" cy="0" r="1" gradientUnits="userSpaceOnUse" gradientTransform="translate(10.485 11.0834) rotate(58.816) scale(3.9893 5.07794)">
<stop offset="0.688" stop-color="#4A2F37"/>
<stop offset="0.776" stop-color="#563E48"/>
<stop offset="0.819" stop-color="#5C4156"/>
<stop offset="0.898" stop-color="#4D3635"/>
</radialGradient>
<clipPath id="clip0_1428_2675">
<rect width="36" height="36" fill="white"/>
</clipPath>
</defs>
</svg>
