<svg width="37" height="36" viewBox="0 0 37 36" fill="none" xmlns="http://www.w3.org/2000/svg">
<g clip-path="url(#clip0_1428_2834)">
<mask id="mask0_1428_2834" style="mask-type:luminance" maskUnits="userSpaceOnUse" x="0" y="0" width="37" height="36">
<path d="M0.5 0H36.5V36H0.5V0Z" fill="white"/>
</mask>
<g mask="url(#mask0_1428_2834)">
<path d="M18.4989 33.7477C28.9996 33.7477 34.2477 26.6963 34.2477 17.9978C34.2477 9.3015 28.9996 2.25 18.4978 2.25C7.99813 2.25 2.75 9.3015 2.75 17.9989C2.75 26.6962 7.997 33.7477 18.4989 33.7477Z" fill="url(#paint0_radial_1428_2834)"/>
<path d="M18.4989 33.7477C28.9996 33.7477 34.2477 26.6963 34.2477 17.9978C34.2477 9.3015 28.9996 2.25 18.4978 2.25C7.99813 2.25 2.75 9.3015 2.75 17.9989C2.75 26.6962 7.997 33.7477 18.4989 33.7477Z" fill="url(#paint1_radial_1428_2834)"/>
<path d="M18.4989 33.7477C28.9996 33.7477 34.2477 26.6963 34.2477 17.9978C34.2477 9.3015 28.9996 2.25 18.4978 2.25C7.99813 2.25 2.75 9.3015 2.75 17.9989C2.75 26.6962 7.997 33.7477 18.4989 33.7477Z" fill="url(#paint2_radial_1428_2834)"/>
<path d="M18.4989 33.7477C28.9996 33.7477 34.2477 26.6963 34.2477 17.9978C34.2477 9.3015 28.9996 2.25 18.4978 2.25C7.99813 2.25 2.75 9.3015 2.75 17.9989C2.75 26.6962 7.997 33.7477 18.4989 33.7477Z" fill="url(#paint3_radial_1428_2834)" fill-opacity="0.6"/>
<path d="M18.4989 33.7477C28.9996 33.7477 34.2477 26.6963 34.2477 17.9978C34.2477 9.3015 28.9996 2.25 18.4978 2.25C7.99813 2.25 2.75 9.3015 2.75 17.9989C2.75 26.6962 7.997 33.7477 18.4989 33.7477Z" fill="url(#paint4_radial_1428_2834)"/>
<path d="M18.4989 33.7477C28.9996 33.7477 34.2477 26.6963 34.2477 17.9978C34.2477 9.3015 28.9996 2.25 18.4978 2.25C7.99813 2.25 2.75 9.3015 2.75 17.9989C2.75 26.6962 7.997 33.7477 18.4989 33.7477Z" fill="url(#paint5_radial_1428_2834)"/>
<path d="M18.4989 33.7477C28.9996 33.7477 34.2477 26.6963 34.2477 17.9978C34.2477 9.3015 28.9996 2.25 18.4978 2.25C7.99813 2.25 2.75 9.3015 2.75 17.9989C2.75 26.6962 7.997 33.7477 18.4989 33.7477Z" fill="url(#paint6_radial_1428_2834)"/>
<path d="M18.4989 33.7477C28.9996 33.7477 34.2477 26.6963 34.2477 17.9978C34.2477 9.3015 28.9996 2.25 18.4978 2.25C7.99813 2.25 2.75 9.3015 2.75 17.9989C2.75 26.6962 7.997 33.7477 18.4989 33.7477Z" fill="url(#paint7_radial_1428_2834)"/>
<path d="M8.375 15.75C8.375 15.75 9.5 16.875 11.75 16.875C14 16.875 15.125 15.75 15.125 15.75" stroke="url(#paint8_linear_1428_2834)" stroke-width="2.25" stroke-linecap="round" stroke-linejoin="round"/>
<path d="M21.875 15.75C21.875 15.75 23 16.875 25.25 16.875C27.5 16.875 28.625 15.75 28.625 15.75" stroke="url(#paint9_linear_1428_2834)" stroke-width="2.25" stroke-linecap="round" stroke-linejoin="round"/>
<path d="M18.4662 25.7849C19.063 25.7849 19.6353 25.5479 20.0572 25.1259C20.4792 24.7039 20.7162 24.1316 20.7162 23.5349C20.7162 22.9382 20.4792 22.3659 20.0572 21.9439C19.6353 21.522 19.063 21.2849 18.4662 21.2849C17.8695 21.2849 17.2972 21.522 16.8753 21.9439C16.4533 22.3659 16.2162 22.9382 16.2162 23.5349C16.2162 24.1316 16.4533 24.7039 16.8753 25.1259C17.2972 25.5479 17.8695 25.7849 18.4662 25.7849Z" fill="url(#paint10_radial_1428_2834)"/>
<g filter="url(#filter0_f_1428_2834)">
<path fill-rule="evenodd" clip-rule="evenodd" d="M16.88 24.1538C16.88 24.1538 16.1937 27.0675 14 28.125C13.5002 28.1252 13.0147 28.2918 12.6201 28.5984C12.2255 28.9051 11.9442 29.3345 11.8206 29.8187C11.697 30.303 11.7382 30.8146 11.9377 31.2729C12.1371 31.7311 12.4834 32.11 12.922 32.3496C13.3606 32.5892 13.8665 32.676 14.3599 32.5962C14.8533 32.5164 15.306 32.2746 15.6468 31.909C15.9875 31.5434 16.1968 31.0747 16.2417 30.577C16.2865 30.0792 16.1644 29.5807 15.8945 29.16H19.5687C19.5687 29.16 21.11 28.305 20.75 28.125C18.5 26.9775 17.8137 24.1538 17.8137 24.1538C17.7599 24.0805 17.6896 24.021 17.6085 23.9799C17.5274 23.9389 17.4378 23.9175 17.3469 23.9175C17.256 23.9175 17.1663 23.9389 17.0852 23.9799C17.0041 24.021 16.9338 24.0805 16.88 24.1538Z" fill="#E4694E"/>
</g>
<path d="M15.125 28.125C17.3188 27.0675 18.005 24.1537 18.005 24.1537C18.2413 23.8387 18.7025 23.8387 18.9387 24.1537C18.9387 24.1537 19.625 26.9775 21.875 28.125C22.235 28.305 20.6938 29.16 20.6938 29.16H16.2163L15.125 28.125Z" fill="url(#paint11_linear_1428_2834)"/>
<path d="M23.8438 30.375C23.8438 30.8971 23.6363 31.3979 23.2671 31.7671C22.8979 32.1363 22.3971 32.3438 21.875 32.3438C21.3529 32.3438 20.8521 32.1363 20.4829 31.7671C20.1137 31.3979 19.9062 30.8971 19.9062 30.375C19.9062 29.8529 20.1137 29.3521 20.4829 28.9829C20.8521 28.6137 21.3529 28.4062 21.875 28.4062C22.3971 28.4062 22.8979 28.6137 23.2671 28.9829C23.6363 29.3521 23.8438 29.8529 23.8438 30.375Z" fill="url(#paint12_radial_1428_2834)" stroke="url(#paint13_radial_1428_2834)" stroke-width="0.5625"/>
<path d="M17.0938 30.375C17.0938 30.8971 16.8863 31.3979 16.5171 31.7671C16.1479 32.1363 15.6471 32.3438 15.125 32.3438C14.6029 32.3438 14.1021 32.1363 13.7329 31.7671C13.3637 31.3979 13.1562 30.8971 13.1563 30.375C13.1562 29.8529 13.3637 29.3521 13.7329 28.9829C14.1021 28.6137 14.6029 28.4062 15.125 28.4062C15.6471 28.4062 16.1479 28.6137 16.5171 28.9829C16.8863 29.3521 17.0938 29.8529 17.0938 30.375Z" fill="url(#paint14_radial_1428_2834)" stroke="url(#paint15_radial_1428_2834)" stroke-width="0.5625"/>
<path d="M18.5 34.875C19.3951 34.875 20.2536 34.5194 20.8865 33.8865C21.5194 33.2536 21.875 32.3951 21.875 31.5C21.875 30.6049 21.5194 29.7464 20.8865 29.1135C20.2536 28.4806 19.3951 28.125 18.5 28.125C17.6049 28.125 16.7464 28.4806 16.1135 29.1135C15.4806 29.7464 15.125 30.6049 15.125 31.5C15.125 32.3951 15.4806 33.2536 16.1135 33.8865C16.7464 34.5194 17.6049 34.875 18.5 34.875Z" fill="url(#paint16_radial_1428_2834)"/>
<g filter="url(#filter1_f_1428_2834)">
<path d="M21.3125 31.5C21.3125 32.2459 21.0162 32.9613 20.4887 33.4887C19.9613 34.0162 19.2459 34.3125 18.5 34.3125C17.7541 34.3125 17.0387 34.0162 16.5113 33.4887C15.9838 32.9613 15.6875 32.2459 15.6875 31.5C15.6875 30.7541 15.9838 30.0387 16.5113 29.5113C17.0387 28.9838 17.7541 28.6875 18.5 28.6875C19.2459 28.6875 19.9613 28.9838 20.4887 29.5113C21.0162 30.0387 21.3125 30.7541 21.3125 31.5Z" stroke="url(#paint17_radial_1428_2834)" stroke-width="1.125"/>
</g>
<g filter="url(#filter2_f_1428_2834)">
<path d="M19.625 31.5C20.2463 31.5 20.75 30.9963 20.75 30.375C20.75 29.7537 20.2463 29.25 19.625 29.25C19.0037 29.25 18.5 29.7537 18.5 30.375C18.5 30.9963 19.0037 31.5 19.625 31.5Z" fill="white"/>
</g>
<path d="M7.8125 10.6875C8.18713 9.5625 9.6125 7.3125 12.3125 7.3125" stroke="url(#paint18_linear_1428_2834)" stroke-width="1.125" stroke-linecap="round" stroke-linejoin="round"/>
<path d="M29.1875 10.6875C28.8129 9.5625 27.3875 7.3125 24.6875 7.3125" stroke="url(#paint19_linear_1428_2834)" stroke-width="1.125" stroke-linecap="round" stroke-linejoin="round"/>
</g>
</g>
<defs>
<filter id="filter0_f_1428_2834" x="9.50075" y="21.6675" width="13.5538" height="13.2075" filterUnits="userSpaceOnUse" color-interpolation-filters="sRGB">
<feFlood flood-opacity="0" result="BackgroundImageFix"/>
<feBlend mode="normal" in="SourceGraphic" in2="BackgroundImageFix" result="shape"/>
<feGaussianBlur stdDeviation="1.125" result="effect1_foregroundBlur_1428_2834"/>
</filter>
<filter id="filter1_f_1428_2834" x="14" y="27" width="9" height="9" filterUnits="userSpaceOnUse" color-interpolation-filters="sRGB">
<feFlood flood-opacity="0" result="BackgroundImageFix"/>
<feBlend mode="normal" in="SourceGraphic" in2="BackgroundImageFix" result="shape"/>
<feGaussianBlur stdDeviation="0.5625" result="effect1_foregroundBlur_1428_2834"/>
</filter>
<filter id="filter2_f_1428_2834" x="16.25" y="27" width="6.75" height="6.75" filterUnits="userSpaceOnUse" color-interpolation-filters="sRGB">
<feFlood flood-opacity="0" result="BackgroundImageFix"/>
<feBlend mode="normal" in="SourceGraphic" in2="BackgroundImageFix" result="shape"/>
<feGaussianBlur stdDeviation="1.125" result="effect1_foregroundBlur_1428_2834"/>
</filter>
<radialGradient id="paint0_radial_1428_2834" cx="0" cy="0" r="1" gradientUnits="userSpaceOnUse" gradientTransform="translate(29.1877 10.1245) rotate(132.839) scale(42.1912)">
<stop stop-color="#FFF478"/>
<stop offset="0.475" stop-color="#FFB02E"/>
<stop offset="1" stop-color="#F70A8D"/>
</radialGradient>
<radialGradient id="paint1_radial_1428_2834" cx="0" cy="0" r="1" gradientUnits="userSpaceOnUse" gradientTransform="translate(29.1862 10.1257) rotate(131.878) scale(43.8173)">
<stop stop-color="#FFF478"/>
<stop offset="0.475" stop-color="#FFB02E"/>
<stop offset="1" stop-color="#F70A8D"/>
</radialGradient>
<radialGradient id="paint2_radial_1428_2834" cx="0" cy="0" r="1" gradientUnits="userSpaceOnUse" gradientTransform="translate(18.4992 14.0622) rotate(101.31) scale(20.0774 25.7154)">
<stop offset="0.788" stop-color="#F59639" stop-opacity="0"/>
<stop offset="0.973" stop-color="#FF7DCE"/>
</radialGradient>
<radialGradient id="paint3_radial_1428_2834" cx="0" cy="0" r="1" gradientUnits="userSpaceOnUse" gradientTransform="translate(20.75 15.75) rotate(135) scale(46.1387)">
<stop offset="0.315" stop-opacity="0"/>
<stop offset="1"/>
</radialGradient>
<radialGradient id="paint4_radial_1428_2834" cx="0" cy="0" r="1" gradientUnits="userSpaceOnUse" gradientTransform="translate(18.4999 19.1259) rotate(77.692) scale(31.6653)">
<stop offset="0.508" stop-color="#7D6133" stop-opacity="0"/>
<stop offset="1" stop-color="#715B32"/>
</radialGradient>
<radialGradient id="paint5_radial_1428_2834" cx="0" cy="0" r="1" gradientUnits="userSpaceOnUse" gradientTransform="translate(19.0625 18.5625) rotate(55.713) scale(14.9777 10.8566)">
<stop stop-color="#FFB849"/>
<stop offset="1" stop-color="#FFB847" stop-opacity="0"/>
</radialGradient>
<radialGradient id="paint6_radial_1428_2834" cx="0" cy="0" r="1" gradientUnits="userSpaceOnUse" gradientTransform="translate(23.5625 20.25) rotate(9.86582) scale(13.1317)">
<stop stop-color="#FFA64B"/>
<stop offset="0.9" stop-color="#FFAE46" stop-opacity="0"/>
</radialGradient>
<radialGradient id="paint7_radial_1428_2834" cx="0" cy="0" r="1" gradientUnits="userSpaceOnUse" gradientTransform="translate(20.1876 16.8753) rotate(43.971) scale(66.4345)">
<stop offset="0.185" stop-opacity="0"/>
<stop offset="1" stop-opacity="0.4"/>
</radialGradient>
<linearGradient id="paint8_linear_1428_2834" x1="13.1" y1="15.4687" x2="12.8356" y2="17.0561" gradientUnits="userSpaceOnUse">
<stop stop-color="#52383E"/>
<stop offset="1" stop-color="#432A35"/>
</linearGradient>
<linearGradient id="paint9_linear_1428_2834" x1="26.6" y1="15.4687" x2="26.3356" y2="17.0561" gradientUnits="userSpaceOnUse">
<stop stop-color="#52383E"/>
<stop offset="1" stop-color="#432A35"/>
</linearGradient>
<radialGradient id="paint10_radial_1428_2834" cx="0" cy="0" r="1" gradientUnits="userSpaceOnUse" gradientTransform="translate(18.4662 26.7862) rotate(-90) scale(5.5 5.5)">
<stop stop-color="#F70A8D"/>
<stop offset="1" stop-color="#89029C"/>
</radialGradient>
<linearGradient id="paint11_linear_1428_2834" x1="20.1875" y1="27.5625" x2="16.8125" y2="27.5625" gradientUnits="userSpaceOnUse">
<stop stop-color="#FAEEF9"/>
<stop offset="1" stop-color="#DCBAD5"/>
</linearGradient>
<radialGradient id="paint12_radial_1428_2834" cx="0" cy="0" r="1" gradientUnits="userSpaceOnUse" gradientTransform="translate(22.6254 29.25) rotate(119.055) scale(3.86087)">
<stop stop-color="#ECE1F5"/>
<stop offset="0.624" stop-color="#EAC6FF"/>
<stop offset="1" stop-color="#F595FF"/>
</radialGradient>
<radialGradient id="paint13_radial_1428_2834" cx="0" cy="0" r="1" gradientUnits="userSpaceOnUse" gradientTransform="translate(23.7504 29.25) rotate(153.435) scale(2.51558 1.6784)">
<stop stop-color="#FEF7FF"/>
<stop offset="1" stop-color="white" stop-opacity="0"/>
</radialGradient>
<radialGradient id="paint14_radial_1428_2834" cx="0" cy="0" r="1" gradientUnits="userSpaceOnUse" gradientTransform="translate(15.8754 29.25) rotate(119.055) scale(3.86087)">
<stop stop-color="#ECE1F5"/>
<stop offset="0.624" stop-color="#EAC6FF"/>
<stop offset="1" stop-color="#F595FF"/>
</radialGradient>
<radialGradient id="paint15_radial_1428_2834" cx="0" cy="0" r="1" gradientUnits="userSpaceOnUse" gradientTransform="translate(17.0004 29.25) rotate(153.435) scale(2.51558 1.6784)">
<stop stop-color="#FEF7FF"/>
<stop offset="1" stop-color="white" stop-opacity="0"/>
</radialGradient>
<radialGradient id="paint16_radial_1428_2834" cx="0" cy="0" r="1" gradientUnits="userSpaceOnUse" gradientTransform="translate(19.6251 29.8116) rotate(119.055) scale(5.79129)">
<stop stop-color="#ECE1F5"/>
<stop offset="0.624" stop-color="#EAC6FF"/>
<stop offset="1" stop-color="#F595FF"/>
</radialGradient>
<radialGradient id="paint17_radial_1428_2834" cx="0" cy="0" r="1" gradientUnits="userSpaceOnUse" gradientTransform="translate(15.6875 30.375) rotate(37.875) scale(6.41349 4.27913)">
<stop stop-color="#CCB5C6"/>
<stop offset="1" stop-color="#C6AABE" stop-opacity="0"/>
</radialGradient>
<linearGradient id="paint18_linear_1428_2834" x1="8.18712" y1="11.7" x2="8.18712" y2="9.675" gradientUnits="userSpaceOnUse">
<stop offset="0.03" stop-color="#524049"/>
<stop offset="1" stop-color="#4A2C42"/>
</linearGradient>
<linearGradient id="paint19_linear_1428_2834" x1="28.8129" y1="11.7" x2="28.8129" y2="9.675" gradientUnits="userSpaceOnUse">
<stop offset="0.03" stop-color="#524049"/>
<stop offset="1" stop-color="#4A2C42"/>
</linearGradient>
<clipPath id="clip0_1428_2834">
<rect width="36" height="36" fill="white" transform="translate(0.5)"/>
</clipPath>
</defs>
</svg>
