<svg width="36" height="36" viewBox="0 0 36 36" fill="none" xmlns="http://www.w3.org/2000/svg">
<g clip-path="url(#clip0_1428_2933)">
<mask id="mask0_1428_2933" style="mask-type:luminance" maskUnits="userSpaceOnUse" x="0" y="0" width="36" height="36">
<path d="M0 0H36V36H0V0Z" fill="white"/>
</mask>
<g mask="url(#mask0_1428_2933)">
<path d="M17.9989 33.7477C28.4996 33.7477 33.7477 26.6963 33.7477 17.9978C33.7477 9.3015 28.4996 2.25 17.9978 2.25C7.49813 2.25 2.25 9.3015 2.25 17.9989C2.25 26.6962 7.497 33.7477 17.9989 33.7477Z" fill="url(#paint0_radial_1428_2933)"/>
<path d="M17.9989 33.7477C28.4996 33.7477 33.7477 26.6963 33.7477 17.9978C33.7477 9.3015 28.4996 2.25 17.9978 2.25C7.49813 2.25 2.25 9.3015 2.25 17.9989C2.25 26.6962 7.497 33.7477 17.9989 33.7477Z" fill="url(#paint1_radial_1428_2933)"/>
<path d="M17.9989 33.7477C28.4996 33.7477 33.7477 26.6963 33.7477 17.9978C33.7477 9.3015 28.4996 2.25 17.9978 2.25C7.49813 2.25 2.25 9.3015 2.25 17.9989C2.25 26.6962 7.497 33.7477 17.9989 33.7477Z" fill="url(#paint2_radial_1428_2933)"/>
<path d="M17.9989 33.7477C28.4996 33.7477 33.7477 26.6963 33.7477 17.9978C33.7477 9.3015 28.4996 2.25 17.9978 2.25C7.49813 2.25 2.25 9.3015 2.25 17.9989C2.25 26.6962 7.497 33.7477 17.9989 33.7477Z" fill="url(#paint3_radial_1428_2933)" fill-opacity="0.6"/>
<path d="M17.9989 33.7477C28.4996 33.7477 33.7477 26.6963 33.7477 17.9978C33.7477 9.3015 28.4996 2.25 17.9978 2.25C7.49813 2.25 2.25 9.3015 2.25 17.9989C2.25 26.6962 7.497 33.7477 17.9989 33.7477Z" fill="url(#paint4_radial_1428_2933)"/>
<path d="M17.9989 33.7477C28.4996 33.7477 33.7477 26.6963 33.7477 17.9978C33.7477 9.3015 28.4996 2.25 17.9978 2.25C7.49813 2.25 2.25 9.3015 2.25 17.9989C2.25 26.6962 7.497 33.7477 17.9989 33.7477Z" fill="url(#paint5_radial_1428_2933)"/>
<path d="M17.9989 33.7477C28.4996 33.7477 33.7477 26.6963 33.7477 17.9978C33.7477 9.3015 28.4996 2.25 17.9978 2.25C7.49813 2.25 2.25 9.3015 2.25 17.9989C2.25 26.6962 7.497 33.7477 17.9989 33.7477Z" fill="url(#paint6_radial_1428_2933)"/>
<path d="M17.9989 33.7477C28.4996 33.7477 33.7477 26.6963 33.7477 17.9978C33.7477 9.3015 28.4996 2.25 17.9978 2.25C7.49813 2.25 2.25 9.3015 2.25 17.9989C2.25 26.6962 7.497 33.7477 17.9989 33.7477Z" fill="url(#paint7_radial_1428_2933)"/>
<path fill-rule="evenodd" clip-rule="evenodd" d="M16.875 18.5625C16.875 19.2273 16.7441 19.8856 16.4896 20.4998C16.2352 21.114 15.8623 21.6721 15.3922 22.1422C14.9221 22.6123 14.364 22.9852 13.7498 23.2396C13.1356 23.4941 12.4773 23.625 11.8125 23.625C11.1477 23.625 10.4894 23.4941 9.87516 23.2396C9.26095 22.9852 8.70287 22.6123 8.23277 22.1422C7.76268 21.6721 7.38977 21.114 7.13536 20.4998C6.88095 19.8856 6.75 19.2273 6.75 18.5625C6.75 17.2198 7.28337 15.9322 8.23277 14.9828C9.18217 14.0334 10.4698 13.5 11.8125 13.5C13.1552 13.5 14.4428 14.0334 15.3922 14.9828C16.3416 15.9322 16.875 17.2198 16.875 18.5625ZM29.205 18.54C29.205 19.8767 28.674 21.1586 27.7288 22.1038C26.7836 23.049 25.5017 23.58 24.165 23.58C22.8283 23.58 21.5464 23.049 20.6012 22.1038C19.656 21.1586 19.125 19.8767 19.125 18.54C19.125 17.2033 19.656 15.9214 20.6012 14.9762C21.5464 14.031 22.8283 13.5 24.165 13.5C25.5017 13.5 26.7836 14.031 27.7288 14.9762C28.674 15.9214 29.205 17.2033 29.205 18.54Z" fill="white"/>
<path d="M7.875 17.865C7.875 15.4575 9.8325 13.5 12.24 13.5C14.6475 13.5 16.605 15.4575 16.605 17.865C16.605 20.2725 14.6475 22.23 12.24 22.23C9.8325 22.23 7.875 20.2725 7.875 17.865Z" fill="url(#paint8_linear_1428_2933)"/>
<path d="M19.125 17.865C19.125 15.4575 21.0825 13.5 23.49 13.5C25.8975 13.5 27.855 15.4575 27.855 17.865C27.855 20.2725 25.8975 22.23 23.49 22.23C21.0825 22.23 19.125 20.2725 19.125 17.865Z" fill="url(#paint9_linear_1428_2933)"/>
<path d="M15.5745 15.831C15.9885 16.7254 15.6465 17.6625 14.8084 17.9291C13.9703 18.1957 12.9645 17.6884 12.5505 16.7929C12.1365 15.8996 12.4785 14.9625 13.3166 14.6959C14.1548 14.4292 15.1605 14.9445 15.5745 15.831Z" fill="url(#paint10_linear_1428_2933)"/>
<path d="M26.8245 15.8309C27.2385 16.7253 26.8965 17.6624 26.0584 17.929C25.2202 18.1957 24.2145 17.6883 23.8005 16.7928C23.3865 15.8995 23.7285 14.9624 24.5666 14.6958C25.3957 14.428 26.4105 14.9444 26.8245 15.8309Z" fill="url(#paint11_linear_1428_2933)"/>
<path d="M11.8125 8.4375C11.8125 8.4375 11.25 11.8125 7.3125 11.8125" stroke="url(#paint12_linear_1428_2933)" stroke-width="1.40625" stroke-linecap="round" stroke-linejoin="round"/>
<path d="M11.8125 8.4375C11.8125 8.4375 11.25 11.8125 7.3125 11.8125" stroke="url(#paint13_radial_1428_2933)" stroke-width="1.40625" stroke-linecap="round" stroke-linejoin="round"/>
<path d="M24.1875 8.4375C24.1875 8.4375 24.75 11.8125 28.6875 11.8125" stroke="url(#paint14_radial_1428_2933)" stroke-width="1.40625" stroke-linecap="round" stroke-linejoin="round"/>
<path d="M15.75 28.125C15.75 28.125 16.3125 27 18 27C19.6875 27 20.25 28.125 20.25 28.125" stroke="url(#paint15_linear_1428_2933)" stroke-width="2.25" stroke-linecap="round"/>
</g>
</g>
<defs>
<radialGradient id="paint0_radial_1428_2933" cx="0" cy="0" r="1" gradientUnits="userSpaceOnUse" gradientTransform="translate(28.6877 10.1245) rotate(132.839) scale(42.1912)">
<stop stop-color="#FFF478"/>
<stop offset="0.475" stop-color="#FFB02E"/>
<stop offset="1" stop-color="#F70A8D"/>
</radialGradient>
<radialGradient id="paint1_radial_1428_2933" cx="0" cy="0" r="1" gradientUnits="userSpaceOnUse" gradientTransform="translate(28.6862 10.1257) rotate(131.878) scale(43.8173)">
<stop stop-color="#FFF478"/>
<stop offset="0.475" stop-color="#FFB02E"/>
<stop offset="1" stop-color="#F70A8D"/>
</radialGradient>
<radialGradient id="paint2_radial_1428_2933" cx="0" cy="0" r="1" gradientUnits="userSpaceOnUse" gradientTransform="translate(17.9992 14.0622) rotate(101.31) scale(20.0774 25.7154)">
<stop offset="0.788" stop-color="#F59639" stop-opacity="0"/>
<stop offset="0.973" stop-color="#FF7DCE"/>
</radialGradient>
<radialGradient id="paint3_radial_1428_2933" cx="0" cy="0" r="1" gradientUnits="userSpaceOnUse" gradientTransform="translate(20.25 15.75) rotate(135) scale(46.1387)">
<stop offset="0.315" stop-opacity="0"/>
<stop offset="1"/>
</radialGradient>
<radialGradient id="paint4_radial_1428_2933" cx="0" cy="0" r="1" gradientUnits="userSpaceOnUse" gradientTransform="translate(17.9999 19.1259) rotate(77.692) scale(31.6653)">
<stop offset="0.508" stop-color="#7D6133" stop-opacity="0"/>
<stop offset="1" stop-color="#715B32"/>
</radialGradient>
<radialGradient id="paint5_radial_1428_2933" cx="0" cy="0" r="1" gradientUnits="userSpaceOnUse" gradientTransform="translate(18.5625 18.5625) rotate(55.713) scale(14.9777 10.8566)">
<stop stop-color="#FFB849"/>
<stop offset="1" stop-color="#FFB847" stop-opacity="0"/>
</radialGradient>
<radialGradient id="paint6_radial_1428_2933" cx="0" cy="0" r="1" gradientUnits="userSpaceOnUse" gradientTransform="translate(23.0625 20.25) rotate(9.86582) scale(13.1317)">
<stop stop-color="#FFA64B"/>
<stop offset="0.9" stop-color="#FFAE46" stop-opacity="0"/>
</radialGradient>
<radialGradient id="paint7_radial_1428_2933" cx="0" cy="0" r="1" gradientUnits="userSpaceOnUse" gradientTransform="translate(19.6876 16.8753) rotate(43.971) scale(66.4345)">
<stop offset="0.185" stop-opacity="0"/>
<stop offset="1" stop-opacity="0.4"/>
</radialGradient>
<linearGradient id="paint8_linear_1428_2933" x1="13.9185" y1="13.5" x2="12.24" y2="22.23" gradientUnits="userSpaceOnUse">
<stop stop-color="#553B3E"/>
<stop offset="1" stop-color="#3D2432"/>
</linearGradient>
<linearGradient id="paint9_linear_1428_2933" x1="25.1685" y1="13.5" x2="23.49" y2="22.23" gradientUnits="userSpaceOnUse">
<stop stop-color="#553B3E"/>
<stop offset="1" stop-color="#3D2432"/>
</linearGradient>
<linearGradient id="paint10_linear_1428_2933" x1="13.2559" y1="14.5665" x2="14.2076" y2="17.5477" gradientUnits="userSpaceOnUse">
<stop offset="0.006" stop-color="white"/>
<stop offset="1" stop-color="white" stop-opacity="0"/>
</linearGradient>
<linearGradient id="paint11_linear_1428_2933" x1="24.5002" y1="14.5664" x2="25.452" y2="17.5477" gradientUnits="userSpaceOnUse">
<stop offset="0.006" stop-color="white"/>
<stop offset="1" stop-color="white" stop-opacity="0"/>
</linearGradient>
<linearGradient id="paint12_linear_1428_2933" x1="10.6875" y1="7.875" x2="10.6875" y2="9.5625" gradientUnits="userSpaceOnUse">
<stop offset="0.03" stop-color="#524049"/>
<stop offset="1" stop-color="#4A2C42"/>
</linearGradient>
<radialGradient id="paint13_radial_1428_2933" cx="0" cy="0" r="1" gradientUnits="userSpaceOnUse" gradientTransform="translate(7.875 7.875) rotate(54.4623) scale(4.83881)">
<stop offset="0.542" stop-color="#493032"/>
<stop offset="0.807" stop-color="#5E445A"/>
<stop offset="0.955" stop-color="#4A2C42"/>
</radialGradient>
<radialGradient id="paint14_radial_1428_2933" cx="0" cy="0" r="1" gradientUnits="userSpaceOnUse" gradientTransform="translate(28.1256 7.87543) rotate(125.538) scale(4.83881)">
<stop stop-color="#C2B4B5"/>
<stop offset="0.887" stop-color="#462B45"/>
<stop offset="1" stop-color="#4A2C42"/>
</radialGradient>
<linearGradient id="paint15_linear_1428_2933" x1="18" y1="24.75" x2="18" y2="27" gradientUnits="userSpaceOnUse">
<stop stop-color="#4F3C43"/>
<stop offset="1" stop-color="#512756"/>
</linearGradient>
<clipPath id="clip0_1428_2933">
<rect width="36" height="36" fill="white"/>
</clipPath>
</defs>
</svg>
