<svg width="36" height="36" viewBox="0 0 36 36" fill="none" xmlns="http://www.w3.org/2000/svg">
<path d="M20.223 33.795C29.142 33.795 33.5993 27.8066 33.5993 20.4187C33.5993 13.032 29.142 7.04248 20.223 7.04248C11.3051 7.04248 6.84676 13.032 6.84676 20.4187C6.84676 27.8055 11.3051 33.795 20.223 33.795Z" fill="url(#paint0_radial_1428_2863)"/>
<path d="M20.223 33.795C29.142 33.795 33.5993 27.8066 33.5993 20.4187C33.5993 13.032 29.142 7.04248 20.223 7.04248C11.3051 7.04248 6.84676 13.032 6.84676 20.4187C6.84676 27.8055 11.3051 33.795 20.223 33.795Z" fill="url(#paint1_radial_1428_2863)"/>
<path d="M20.223 33.795C29.142 33.795 33.5993 27.8066 33.5993 20.4187C33.5993 13.032 29.142 7.04248 20.223 7.04248C11.3051 7.04248 6.84676 13.032 6.84676 20.4187C6.84676 27.8055 11.3051 33.795 20.223 33.795Z" fill="url(#paint2_radial_1428_2863)"/>
<path d="M20.223 33.795C29.142 33.795 33.5993 27.8066 33.5993 20.4187C33.5993 13.032 29.142 7.04248 20.223 7.04248C11.3051 7.04248 6.84676 13.032 6.84676 20.4187C6.84676 27.8055 11.3051 33.795 20.223 33.795Z" fill="url(#paint3_radial_1428_2863)" fill-opacity="0.6"/>
<path d="M20.223 33.795C29.142 33.795 33.5993 27.8066 33.5993 20.4187C33.5993 13.032 29.142 7.04248 20.223 7.04248C11.3051 7.04248 6.84676 13.032 6.84676 20.4187C6.84676 27.8055 11.3051 33.795 20.223 33.795Z" fill="url(#paint4_radial_1428_2863)"/>
<path d="M20.223 33.795C29.142 33.795 33.5993 27.8066 33.5993 20.4187C33.5993 13.032 29.142 7.04248 20.223 7.04248C11.3051 7.04248 6.84676 13.032 6.84676 20.4187C6.84676 27.8055 11.3051 33.795 20.223 33.795Z" fill="url(#paint5_radial_1428_2863)"/>
<path d="M20.223 33.795C29.142 33.795 33.5993 27.8066 33.5993 20.4187C33.5993 13.032 29.142 7.04248 20.223 7.04248C11.3051 7.04248 6.84676 13.032 6.84676 20.4187C6.84676 27.8055 11.3051 33.795 20.223 33.795Z" fill="url(#paint6_radial_1428_2863)"/>
<path d="M20.223 33.795C29.142 33.795 33.5993 27.8066 33.5993 20.4187C33.5993 13.032 29.142 7.04248 20.223 7.04248C11.3051 7.04248 6.84676 13.032 6.84676 20.4187C6.84676 27.8055 11.3051 33.795 20.223 33.795Z" fill="url(#paint7_radial_1428_2863)"/>
<path d="M21.4852 16.507C21.4763 17.043 21.5741 17.5754 21.7731 18.0731C21.972 18.5709 22.268 19.0241 22.6439 19.4063C23.0197 19.7885 23.4679 20.092 23.9623 20.2992C24.4567 20.5064 24.9874 20.6131 25.5234 20.6131C26.0595 20.6131 26.5902 20.5064 27.0846 20.2992C27.5789 20.092 28.0271 19.7885 28.403 19.4063C28.7789 19.0241 29.0749 18.5709 29.2738 18.0731C29.4727 17.5754 29.5706 17.043 29.5616 16.507C29.5439 15.4477 29.1107 14.4377 28.3553 13.6948C27.5999 12.952 26.5829 12.5356 25.5234 12.5356C24.464 12.5356 23.4469 12.952 22.6915 13.6948C21.9362 14.4377 21.5029 15.4477 21.4852 16.507ZM18.9619 16.507C18.9708 17.043 18.873 17.5754 18.6741 18.0731C18.4751 18.5709 18.1791 19.0241 17.8032 19.4063C17.4274 19.7885 16.9792 20.092 16.4848 20.2992C15.9904 20.5064 15.4597 20.6131 14.9237 20.6131C14.3876 20.6131 13.8569 20.5064 13.3626 20.2992C12.8682 20.092 12.42 19.7885 12.0441 19.4063C11.6683 19.0241 11.3722 18.5709 11.1733 18.0731C10.9744 17.5754 10.8765 17.043 10.8855 16.507C10.9032 15.4477 11.3364 14.4377 12.0918 13.6948C12.8472 12.952 13.8642 12.5356 14.9237 12.5356C15.9832 12.5356 17.0002 12.952 17.7556 13.6948C18.511 14.4377 18.9442 15.4477 18.9619 16.507Z" fill="white"/>
<path d="M22.0928 16.507C22.0928 17.2631 22.3931 17.9882 22.9277 18.5228C23.4623 19.0574 24.1874 19.3578 24.9435 19.3578C25.6996 19.3578 26.4247 19.0574 26.9593 18.5228C27.4939 17.9882 27.7943 17.2631 27.7943 16.507C27.7943 15.7509 27.4939 15.0258 26.9593 14.4912C26.4247 13.9566 25.6996 13.6563 24.9435 13.6562C24.1874 13.6563 23.4623 13.9566 22.9277 14.4912C22.3931 15.0258 22.0928 15.7509 22.0928 16.507ZM18.3544 16.507C18.3544 17.2631 18.054 17.9882 17.5194 18.5228C16.9848 19.0574 16.2597 19.3578 15.5036 19.3578C14.7476 19.3578 14.0225 19.0574 13.4878 18.5228C12.9532 17.9882 12.6529 17.2631 12.6529 16.507C12.6529 15.7509 12.9532 15.0258 13.4878 14.4912C14.0225 13.9566 14.7476 13.6563 15.5036 13.6562C16.2597 13.6563 16.9848 13.9566 17.5194 14.4912C18.054 15.0258 18.3544 15.7509 18.3544 16.507Z" fill="#402931"/>
<g filter="url(#filter0_i_1428_2863)">
<path d="M15.741 23.0963C16.2574 23.7646 17.8639 25.0999 20.1645 25.0999C22.4651 25.0999 24.1504 23.7646 24.7061 23.0974" stroke="#4D264E" stroke-width="1.8" stroke-linecap="round"/>
</g>
<path d="M15.741 23.0963C16.2574 23.7646 17.8639 25.0999 20.1645 25.0999C22.4651 25.0999 24.1504 23.7646 24.7061 23.0974" stroke="url(#paint8_radial_1428_2863)" stroke-width="1.8" stroke-linecap="round"/>
<path d="M15.741 23.0963C16.2574 23.7646 17.8639 25.0999 20.1645 25.0999C22.4651 25.0999 24.1504 23.7646 24.7061 23.0974" stroke="url(#paint9_radial_1428_2863)" stroke-width="1.8" stroke-linecap="round"/>
<g filter="url(#filter1_f_1428_2863)">
<path d="M15.741 22.9386C16.2574 23.6057 17.8639 24.9411 20.1645 24.9411C22.4651 24.9411 24.1504 23.6057 24.7061 22.9386" stroke="url(#paint10_linear_1428_2863)" stroke-width="0.5625" stroke-linecap="round"/>
</g>
<path d="M4.64287 14.7465C3.5595 14.3809 3.00825 13.7002 2.82825 13.3492L8.47575 7.29336L15.9986 5.72961L16.9301 9.01686L12.9049 12.3739C11.7799 12.852 8.85037 14.0141 7.52512 14.5361C7.0155 14.7589 5.72512 15.1121 4.64287 14.7465Z" fill="url(#paint11_linear_1428_2863)"/>
<path d="M4.64287 14.7465C3.5595 14.3809 3.00825 13.7002 2.82825 13.3492L8.47575 7.29336L15.9986 5.72961L16.9301 9.01686L12.9049 12.3739C11.7799 12.852 8.85037 14.0141 7.52512 14.5361C7.0155 14.7589 5.72512 15.1121 4.64287 14.7465Z" fill="url(#paint12_radial_1428_2863)"/>
<path d="M4.64287 14.7465C3.5595 14.3809 3.00825 13.7002 2.82825 13.3492L8.47575 7.29336L15.9986 5.72961L16.9301 9.01686L12.9049 12.3739C11.7799 12.852 8.85037 14.0141 7.52512 14.5361C7.0155 14.7589 5.72512 15.1121 4.64287 14.7465Z" fill="url(#paint13_radial_1428_2863)"/>
<path d="M4.64287 14.7465C3.5595 14.3809 3.00825 13.7002 2.82825 13.3492L8.47575 7.29336L15.9986 5.72961L16.9301 9.01686L12.9049 12.3739C11.7799 12.852 8.85037 14.0141 7.52512 14.5361C7.0155 14.7589 5.72512 15.1121 4.64287 14.7465Z" fill="url(#paint14_radial_1428_2863)"/>
<path d="M4.64287 14.7465C3.5595 14.3809 3.00825 13.7002 2.82825 13.3492L8.47575 7.29336L15.9986 5.72961L16.9301 9.01686L12.9049 12.3739C11.7799 12.852 8.85037 14.0141 7.52512 14.5361C7.0155 14.7589 5.72512 15.1121 4.64287 14.7465Z" fill="url(#paint15_radial_1428_2863)"/>
<g filter="url(#filter2_ii_1428_2863)">
<path d="M12.6675 12.4357C14.1874 11.9789 16.227 11.2139 17.9662 10.5018C19.7775 9.86391 19.8787 8.53191 19.5187 7.72866C19.143 6.88829 18.0832 6.40116 16.9414 6.87141C16.0414 7.24041 15.6904 8.12016 15.7691 9.19229L12.6675 12.4357Z" fill="#FFC744"/>
</g>
<path d="M12.6675 12.4357C14.1874 11.9789 16.227 11.2139 17.9662 10.5018C19.7775 9.86391 19.8787 8.53191 19.5187 7.72866C19.143 6.88829 18.0832 6.40116 16.9414 6.87141C16.0414 7.24041 15.6904 8.12016 15.7691 9.19229L12.6675 12.4357Z" fill="url(#paint16_linear_1428_2863)"/>
<path d="M12.6675 12.4357C14.1874 11.9789 16.227 11.2139 17.9662 10.5018C19.7775 9.86391 19.8787 8.53191 19.5187 7.72866C19.143 6.88829 18.0832 6.40116 16.9414 6.87141C16.0414 7.24041 15.6904 8.12016 15.7691 9.19229L12.6675 12.4357Z" fill="url(#paint17_radial_1428_2863)"/>
<path d="M15.12 9.92253C16.3001 9.21828 19.0395 7.58478 20.1465 7.03916C21.816 6.09191 21.636 4.87578 21.1399 4.14791C20.6224 3.38741 19.4917 3.09603 18.4511 3.75978C17.6299 4.28291 14.0636 6.39003 13.23 6.87266L15.12 9.92253Z" fill="url(#paint18_linear_1428_2863)"/>
<path d="M15.12 9.92253C16.3001 9.21828 19.0395 7.58478 20.1465 7.03916C21.816 6.09191 21.636 4.87578 21.1399 4.14791C20.6224 3.38741 19.4917 3.09603 18.4511 3.75978C17.6299 4.28291 14.0636 6.39003 13.23 6.87266L15.12 9.92253Z" fill="url(#paint19_radial_1428_2863)"/>
<path d="M15.12 9.92253C16.3001 9.21828 19.0395 7.58478 20.1465 7.03916C21.816 6.09191 21.636 4.87578 21.1399 4.14791C20.6224 3.38741 19.4917 3.09603 18.4511 3.75978C17.6299 4.28291 14.0636 6.39003 13.23 6.87266L15.12 9.92253Z" fill="url(#paint20_linear_1428_2863)"/>
<path d="M15.12 9.92253C16.3001 9.21828 19.0395 7.58478 20.1465 7.03916C21.816 6.09191 21.636 4.87578 21.1399 4.14791C20.6224 3.38741 19.4917 3.09603 18.4511 3.75978C17.6299 4.28291 14.0636 6.39003 13.23 6.87266L15.12 9.92253Z" fill="url(#paint21_radial_1428_2863)"/>
<path d="M15.12 9.92253C16.3001 9.21828 19.0395 7.58478 20.1465 7.03916C21.816 6.09191 21.636 4.87578 21.1399 4.14791C20.6224 3.38741 19.4917 3.09603 18.4511 3.75978C17.6299 4.28291 14.0636 6.39003 13.23 6.87266L15.12 9.92253Z" fill="url(#paint22_linear_1428_2863)"/>
<path d="M15.12 9.92253C16.3001 9.21828 19.0395 7.58478 20.1465 7.03916C21.816 6.09191 21.636 4.87578 21.1399 4.14791C20.6224 3.38741 19.4917 3.09603 18.4511 3.75978C17.6299 4.28291 14.0636 6.39003 13.23 6.87266L15.12 9.92253Z" fill="url(#paint23_radial_1428_2863)"/>
<path d="M14.4517 8.84017C15.633 8.13705 18.3184 6.42142 19.1272 5.9298C20.7967 4.98255 20.6741 3.73042 20.178 3.00367C19.6594 2.24317 18.5512 1.89217 17.5106 2.5548C16.6894 3.07792 13.3087 5.16705 12.474 5.64967L14.4517 8.84017Z" fill="url(#paint24_linear_1428_2863)"/>
<path d="M14.4517 8.84017C15.633 8.13705 18.3184 6.42142 19.1272 5.9298C20.7967 4.98255 20.6741 3.73042 20.178 3.00367C19.6594 2.24317 18.5512 1.89217 17.5106 2.5548C16.6894 3.07792 13.3087 5.16705 12.474 5.64967L14.4517 8.84017Z" fill="url(#paint25_radial_1428_2863)"/>
<path d="M14.4517 8.84017C15.633 8.13705 18.3184 6.42142 19.1272 5.9298C20.7967 4.98255 20.6741 3.73042 20.178 3.00367C19.6594 2.24317 18.5512 1.89217 17.5106 2.5548C16.6894 3.07792 13.3087 5.16705 12.474 5.64967L14.4517 8.84017Z" fill="url(#paint26_linear_1428_2863)"/>
<path d="M14.4517 8.84017C15.633 8.13705 18.3184 6.42142 19.1272 5.9298C20.7967 4.98255 20.6741 3.73042 20.178 3.00367C19.6594 2.24317 18.5512 1.89217 17.5106 2.5548C16.6894 3.07792 13.3087 5.16705 12.474 5.64967L14.4517 8.84017Z" fill="url(#paint27_radial_1428_2863)"/>
<path d="M14.4517 8.84017C15.633 8.13705 18.3184 6.42142 19.1272 5.9298C20.7967 4.98255 20.6741 3.73042 20.178 3.00367C19.6594 2.24317 18.5512 1.89217 17.5106 2.5548C16.6894 3.07792 13.3087 5.16705 12.474 5.64967L14.4517 8.84017Z" fill="url(#paint28_linear_1428_2863)"/>
<path d="M14.4517 8.84017C15.633 8.13705 18.3184 6.42142 19.1272 5.9298C20.7967 4.98255 20.6741 3.73042 20.178 3.00367C19.6594 2.24317 18.5512 1.89217 17.5106 2.5548C16.6894 3.07792 13.3087 5.16705 12.474 5.64967L14.4517 8.84017Z" fill="url(#paint29_radial_1428_2863)"/>
<path d="M11.232 8.09441C11.3863 8.34556 11.6339 8.5253 11.9204 8.59426C12.207 8.66321 12.5092 8.61575 12.7609 8.46228C13.8971 7.77041 15.264 6.92103 15.8839 6.54528C17.5545 5.59803 17.4308 4.34591 16.9346 3.61916C16.416 2.85866 15.309 2.50653 14.2673 3.17028C13.4471 3.69341 10.6718 5.36066 9.83701 5.84328L11.232 8.09441Z" fill="#FFC52F"/>
<path d="M11.232 8.09441C11.3863 8.34556 11.6339 8.5253 11.9204 8.59426C12.207 8.66321 12.5092 8.61575 12.7609 8.46228C13.8971 7.77041 15.264 6.92103 15.8839 6.54528C17.5545 5.59803 17.4308 4.34591 16.9346 3.61916C16.416 2.85866 15.309 2.50653 14.2673 3.17028C13.4471 3.69341 10.6718 5.36066 9.83701 5.84328L11.232 8.09441Z" fill="url(#paint30_radial_1428_2863)"/>
<path d="M11.232 8.09441C11.3863 8.34556 11.6339 8.5253 11.9204 8.59426C12.207 8.66321 12.5092 8.61575 12.7609 8.46228C13.8971 7.77041 15.264 6.92103 15.8839 6.54528C17.5545 5.59803 17.4308 4.34591 16.9346 3.61916C16.416 2.85866 15.309 2.50653 14.2673 3.17028C13.4471 3.69341 10.6718 5.36066 9.83701 5.84328L11.232 8.09441Z" fill="url(#paint31_linear_1428_2863)"/>
<path d="M11.232 8.09441C11.3863 8.34556 11.6339 8.5253 11.9204 8.59426C12.207 8.66321 12.5092 8.61575 12.7609 8.46228C13.8971 7.77041 15.264 6.92103 15.8839 6.54528C17.5545 5.59803 17.4308 4.34591 16.9346 3.61916C16.416 2.85866 15.309 2.50653 14.2673 3.17028C13.4471 3.69341 10.6718 5.36066 9.83701 5.84328L11.232 8.09441Z" fill="url(#paint32_radial_1428_2863)"/>
<path d="M11.232 8.09441C11.3863 8.34556 11.6339 8.5253 11.9204 8.59426C12.207 8.66321 12.5092 8.61575 12.7609 8.46228C13.8971 7.77041 15.264 6.92103 15.8839 6.54528C17.5545 5.59803 17.4308 4.34591 16.9346 3.61916C16.416 2.85866 15.309 2.50653 14.2673 3.17028C13.4471 3.69341 10.6718 5.36066 9.83701 5.84328L11.232 8.09441Z" fill="url(#paint33_radial_1428_2863)"/>
<path d="M11.232 8.09441C11.3863 8.34556 11.6339 8.5253 11.9204 8.59426C12.207 8.66321 12.5092 8.61575 12.7609 8.46228C13.8971 7.77041 15.264 6.92103 15.8839 6.54528C17.5545 5.59803 17.4308 4.34591 16.9346 3.61916C16.416 2.85866 15.309 2.50653 14.2673 3.17028C13.4471 3.69341 10.6718 5.36066 9.83701 5.84328L11.232 8.09441Z" fill="url(#paint34_linear_1428_2863)"/>
<path d="M11.232 8.09441C11.3863 8.34556 11.6339 8.5253 11.9204 8.59426C12.207 8.66321 12.5092 8.61575 12.7609 8.46228C13.8971 7.77041 15.264 6.92103 15.8839 6.54528C17.5545 5.59803 17.4308 4.34591 16.9346 3.61916C16.416 2.85866 15.309 2.50653 14.2673 3.17028C13.4471 3.69341 10.6718 5.36066 9.83701 5.84328L11.232 8.09441Z" fill="url(#paint35_radial_1428_2863)"/>
<g filter="url(#filter3_i_1428_2863)">
<path d="M12.4481 7.76806C10.0564 9.21931 5.19075 12.0824 2.9115 13.4999C2.40187 12.8317 2.05312 11.3456 2.97337 9.98431C4.51125 7.70731 6.36525 6.92431 7.45537 6.43269C8.59514 5.77754 9.72041 5.0975 10.8304 4.39306C11.8721 3.72931 12.9791 4.08144 13.4977 4.84194C13.9939 5.56869 14.1435 6.84444 12.4481 7.76806Z" fill="url(#paint36_linear_1428_2863)"/>
<path d="M12.4481 7.76806C10.0564 9.21931 5.19075 12.0824 2.9115 13.4999C2.40187 12.8317 2.05312 11.3456 2.97337 9.98431C4.51125 7.70731 6.36525 6.92431 7.45537 6.43269C8.59514 5.77754 9.72041 5.0975 10.8304 4.39306C11.8721 3.72931 12.9791 4.08144 13.4977 4.84194C13.9939 5.56869 14.1435 6.84444 12.4481 7.76806Z" fill="url(#paint37_radial_1428_2863)"/>
<path d="M12.4481 7.76806C10.0564 9.21931 5.19075 12.0824 2.9115 13.4999C2.40187 12.8317 2.05312 11.3456 2.97337 9.98431C4.51125 7.70731 6.36525 6.92431 7.45537 6.43269C8.59514 5.77754 9.72041 5.0975 10.8304 4.39306C11.8721 3.72931 12.9791 4.08144 13.4977 4.84194C13.9939 5.56869 14.1435 6.84444 12.4481 7.76806Z" fill="url(#paint38_radial_1428_2863)"/>
<path d="M12.4481 7.76806C10.0564 9.21931 5.19075 12.0824 2.9115 13.4999C2.40187 12.8317 2.05312 11.3456 2.97337 9.98431C4.51125 7.70731 6.36525 6.92431 7.45537 6.43269C8.59514 5.77754 9.72041 5.0975 10.8304 4.39306C11.8721 3.72931 12.9791 4.08144 13.4977 4.84194C13.9939 5.56869 14.1435 6.84444 12.4481 7.76806Z" fill="url(#paint39_radial_1428_2863)"/>
</g>
<defs>
<filter id="filter0_i_1428_2863" x="14.841" y="22.1963" width="11.0464" height="4.47859" filterUnits="userSpaceOnUse" color-interpolation-filters="sRGB">
<feFlood flood-opacity="0" result="BackgroundImageFix"/>
<feBlend mode="normal" in="SourceGraphic" in2="BackgroundImageFix" result="shape"/>
<feColorMatrix in="SourceAlpha" type="matrix" values="0 0 0 0 0 0 0 0 0 0 0 0 0 0 0 0 0 0 127 0" result="hardAlpha"/>
<feOffset dx="0.28125" dy="0.675"/>
<feGaussianBlur stdDeviation="0.421875"/>
<feComposite in2="hardAlpha" operator="arithmetic" k2="-1" k3="1"/>
<feColorMatrix type="matrix" values="0 0 0 0 0.32549 0 0 0 0 0.203922 0 0 0 0 0.14902 0 0 0 1 0"/>
<feBlend mode="normal" in2="shape" result="effect1_innerShadow_1428_2863"/>
</filter>
<filter id="filter1_f_1428_2863" x="14.8972" y="22.0948" width="10.6526" height="3.68994" filterUnits="userSpaceOnUse" color-interpolation-filters="sRGB">
<feFlood flood-opacity="0" result="BackgroundImageFix"/>
<feBlend mode="normal" in="SourceGraphic" in2="BackgroundImageFix" result="shape"/>
<feGaussianBlur stdDeviation="0.28125" result="effect1_foregroundBlur_1428_2863"/>
</filter>
<filter id="filter2_ii_1428_2863" x="12.6675" y="6.35049" width="7.24276" height="6.08518" filterUnits="userSpaceOnUse" color-interpolation-filters="sRGB">
<feFlood flood-opacity="0" result="BackgroundImageFix"/>
<feBlend mode="normal" in="SourceGraphic" in2="BackgroundImageFix" result="shape"/>
<feColorMatrix in="SourceAlpha" type="matrix" values="0 0 0 0 0 0 0 0 0 0 0 0 0 0 0 0 0 0 127 0" result="hardAlpha"/>
<feOffset dx="0.1125" dy="-0.3375"/>
<feGaussianBlur stdDeviation="0.28125"/>
<feComposite in2="hardAlpha" operator="arithmetic" k2="-1" k3="1"/>
<feColorMatrix type="matrix" values="0 0 0 0 0.960784 0 0 0 0 0.635294 0 0 0 0 0.203922 0 0 0 1 0"/>
<feBlend mode="normal" in2="shape" result="effect1_innerShadow_1428_2863"/>
<feColorMatrix in="SourceAlpha" type="matrix" values="0 0 0 0 0 0 0 0 0 0 0 0 0 0 0 0 0 0 127 0" result="hardAlpha"/>
<feOffset dx="0.225" dy="-0.1125"/>
<feGaussianBlur stdDeviation="0.1125"/>
<feComposite in2="hardAlpha" operator="arithmetic" k2="-1" k3="1"/>
<feColorMatrix type="matrix" values="0 0 0 0 0.811765 0 0 0 0 0.541176 0 0 0 0 0.258824 0 0 0 1 0"/>
<feBlend mode="normal" in2="effect1_innerShadow_1428_2863" result="effect2_innerShadow_1428_2863"/>
</filter>
<filter id="filter3_i_1428_2863" x="2.40097" y="4.04272" width="11.7115" height="9.6259" filterUnits="userSpaceOnUse" color-interpolation-filters="sRGB">
<feFlood flood-opacity="0" result="BackgroundImageFix"/>
<feBlend mode="normal" in="SourceGraphic" in2="BackgroundImageFix" result="shape"/>
<feColorMatrix in="SourceAlpha" type="matrix" values="0 0 0 0 0 0 0 0 0 0 0 0 0 0 0 0 0 0 127 0" result="hardAlpha"/>
<feOffset dx="0.28125" dy="0.16875"/>
<feGaussianBlur stdDeviation="0.28125"/>
<feComposite in2="hardAlpha" operator="arithmetic" k2="-1" k3="1"/>
<feColorMatrix type="matrix" values="0 0 0 0 0.780392 0 0 0 0 0.654902 0 0 0 0 0.345098 0 0 0 1 0"/>
<feBlend mode="normal" in2="shape" result="effect1_innerShadow_1428_2863"/>
</filter>
<radialGradient id="paint0_radial_1428_2863" cx="0" cy="0" r="1" gradientUnits="userSpaceOnUse" gradientTransform="translate(29.3012 13.7312) rotate(132.839) scale(35.8337)">
<stop stop-color="#FFF478"/>
<stop offset="0.475" stop-color="#FFB02E"/>
<stop offset="1" stop-color="#F70A8D"/>
</radialGradient>
<radialGradient id="paint1_radial_1428_2863" cx="0" cy="0" r="1" gradientUnits="userSpaceOnUse" gradientTransform="translate(29.3019 13.732) rotate(131.878) scale(37.2147)">
<stop stop-color="#FFF478"/>
<stop offset="0.475" stop-color="#FFB02E"/>
<stop offset="1" stop-color="#F70A8D"/>
</radialGradient>
<radialGradient id="paint2_radial_1428_2863" cx="0" cy="0" r="1" gradientUnits="userSpaceOnUse" gradientTransform="translate(20.2241 17.0764) rotate(101.31) scale(17.0521 21.8404)">
<stop offset="0.788" stop-color="#F59639" stop-opacity="0"/>
<stop offset="0.973" stop-color="#FF7DCE"/>
</radialGradient>
<radialGradient id="paint3_radial_1428_2863" cx="0" cy="0" r="1" gradientUnits="userSpaceOnUse" gradientTransform="translate(22.1342 18.509) rotate(135) scale(39.1863)">
<stop offset="0.315" stop-opacity="0"/>
<stop offset="1"/>
</radialGradient>
<radialGradient id="paint4_radial_1428_2863" cx="0" cy="0" r="1" gradientUnits="userSpaceOnUse" gradientTransform="translate(20.2249 21.3761) rotate(77.692) scale(26.8938 26.8938)">
<stop offset="0.508" stop-color="#7D6133" stop-opacity="0"/>
<stop offset="1" stop-color="#715B32"/>
</radialGradient>
<radialGradient id="paint5_radial_1428_2863" cx="0" cy="0" r="1" gradientUnits="userSpaceOnUse" gradientTransform="translate(20.7023 20.898) rotate(55.7131) scale(12.7208 9.22069)">
<stop stop-color="#FFB849"/>
<stop offset="1" stop-color="#FFB847" stop-opacity="0"/>
</radialGradient>
<radialGradient id="paint6_radial_1428_2863" cx="0" cy="0" r="1" gradientUnits="userSpaceOnUse" gradientTransform="translate(24.5247 22.3314) rotate(9.866) scale(11.153)">
<stop stop-color="#FFA64B"/>
<stop offset="0.9" stop-color="#FFAE46" stop-opacity="0"/>
</radialGradient>
<radialGradient id="paint7_radial_1428_2863" cx="0" cy="0" r="1" gradientUnits="userSpaceOnUse" gradientTransform="translate(21.6579 19.4649) rotate(43.971) scale(56.4239)">
<stop offset="0.185" stop-opacity="0"/>
<stop offset="1" stop-opacity="0.4"/>
</radialGradient>
<radialGradient id="paint8_radial_1428_2863" cx="0" cy="0" r="1" gradientUnits="userSpaceOnUse" gradientTransform="translate(25.3024 22.5338) rotate(138.731) scale(1.14595 1.03325)">
<stop stop-color="#5F4E50"/>
<stop offset="1" stop-color="#5F4E50" stop-opacity="0"/>
</radialGradient>
<radialGradient id="paint9_radial_1428_2863" cx="0" cy="0" r="1" gradientUnits="userSpaceOnUse" gradientTransform="translate(16.3552 22.3763) rotate(49.7428) scale(2.85617 0.998105)">
<stop stop-color="#57434C"/>
<stop offset="1" stop-color="#57434C" stop-opacity="0"/>
</radialGradient>
<linearGradient id="paint10_linear_1428_2863" x1="17.0055" y1="23.2716" x2="20.4334" y2="24.9422" gradientUnits="userSpaceOnUse">
<stop stop-color="#56404E"/>
<stop offset="1" stop-color="#56404E" stop-opacity="0"/>
</linearGradient>
<linearGradient id="paint11_linear_1428_2863" x1="9.87862" y1="10.0181" x2="4.55512" y2="13.0421" gradientUnits="userSpaceOnUse">
<stop stop-color="#FFB438"/>
<stop offset="1" stop-color="#F1A530"/>
</linearGradient>
<radialGradient id="paint12_radial_1428_2863" cx="0" cy="0" r="1" gradientUnits="userSpaceOnUse" gradientTransform="translate(5.18737 15.327) rotate(-40.1355) scale(4.69043 3.73667)">
<stop stop-color="#EE9654"/>
<stop offset="1" stop-color="#EE9654" stop-opacity="0"/>
</radialGradient>
<radialGradient id="paint13_radial_1428_2863" cx="0" cy="0" r="1" gradientUnits="userSpaceOnUse" gradientTransform="translate(8.5091 8.81231) rotate(130.301) scale(7.45275 11.4543)">
<stop offset="0.769" stop-color="#F3A731" stop-opacity="0"/>
<stop offset="1" stop-color="#D1A64E"/>
</radialGradient>
<radialGradient id="paint14_radial_1428_2863" cx="0" cy="0" r="1" gradientUnits="userSpaceOnUse" gradientTransform="translate(11.2815 8.36661) rotate(12.1714) scale(3.74125 1.99504)">
<stop stop-color="#FFB639"/>
<stop offset="1" stop-color="#FFB639" stop-opacity="0"/>
</radialGradient>
<radialGradient id="paint15_radial_1428_2863" cx="0" cy="0" r="1" gradientUnits="userSpaceOnUse" gradientTransform="translate(8.42175 14.5541) rotate(-42.6102) scale(6.25763 3.57446)">
<stop stop-color="#F7A23E"/>
<stop offset="1" stop-color="#F7A23E" stop-opacity="0"/>
</radialGradient>
<linearGradient id="paint16_linear_1428_2863" x1="13.8004" y1="11.1442" x2="16.0504" y2="11.7067" gradientUnits="userSpaceOnUse">
<stop offset="0.316" stop-color="#FFB032"/>
<stop offset="1" stop-color="#FFC946" stop-opacity="0"/>
</linearGradient>
<radialGradient id="paint17_radial_1428_2863" cx="0" cy="0" r="1" gradientUnits="userSpaceOnUse" gradientTransform="translate(19.4614 7.62741) rotate(122.005) scale(2.98497 2.85091)">
<stop stop-color="#FFE667"/>
<stop offset="1" stop-color="#FFC744" stop-opacity="0"/>
</radialGradient>
<linearGradient id="paint18_linear_1428_2863" x1="20.6752" y1="4.33691" x2="13.428" y2="9.24416" gradientUnits="userSpaceOnUse">
<stop stop-color="#FFBC32"/>
<stop offset="1" stop-color="#F0A42F"/>
</linearGradient>
<radialGradient id="paint19_radial_1428_2863" cx="0" cy="0" r="1" gradientUnits="userSpaceOnUse" gradientTransform="translate(20.9902 4.81503) rotate(153.783) scale(2.58638 2.77047)">
<stop stop-color="#FFF064"/>
<stop offset="1" stop-color="#FEBA32" stop-opacity="0"/>
</radialGradient>
<linearGradient id="paint20_linear_1428_2863" x1="17.829" y1="3.95328" x2="19.3039" y2="5.36628" gradientUnits="userSpaceOnUse">
<stop stop-color="#C7A357"/>
<stop offset="0.851" stop-color="#FFC42D" stop-opacity="0"/>
</linearGradient>
<radialGradient id="paint21_radial_1428_2863" cx="0" cy="0" r="1" gradientUnits="userSpaceOnUse" gradientTransform="translate(15.48 9.73128) rotate(-48.4016) scale(5.09037 6.57899)">
<stop offset="0.302" stop-color="#FDA04C"/>
<stop offset="1" stop-color="#FDA04C" stop-opacity="0"/>
</radialGradient>
<linearGradient id="paint22_linear_1428_2863" x1="18.9135" y1="8.03591" x2="18.5242" y2="7.36428" gradientUnits="userSpaceOnUse">
<stop stop-color="#F19B3A"/>
<stop offset="1" stop-color="#F19B3A" stop-opacity="0"/>
</linearGradient>
<radialGradient id="paint23_radial_1428_2863" cx="0" cy="0" r="1" gradientUnits="userSpaceOnUse" gradientTransform="translate(20.1116 5.97603) rotate(150.354) scale(6.29016 3.27717)">
<stop offset="0.619" stop-color="#FFA24E" stop-opacity="0"/>
<stop offset="0.922" stop-color="#FFB639"/>
</radialGradient>
<linearGradient id="paint24_linear_1428_2863" x1="19.7156" y1="3.16567" x2="12.4774" y2="7.85917" gradientUnits="userSpaceOnUse">
<stop stop-color="#FFBC32"/>
<stop offset="1" stop-color="#F0A42F"/>
</linearGradient>
<radialGradient id="paint25_radial_1428_2863" cx="0" cy="0" r="1" gradientUnits="userSpaceOnUse" gradientTransform="translate(20.2703 3.05767) rotate(150.866) scale(2.45516 2.69258)">
<stop stop-color="#FFF064"/>
<stop offset="1" stop-color="#FEBA32" stop-opacity="0"/>
</radialGradient>
<linearGradient id="paint26_linear_1428_2863" x1="16.9481" y1="2.77642" x2="18.4421" y2="4.1478" gradientUnits="userSpaceOnUse">
<stop stop-color="#C7A357"/>
<stop offset="0.851" stop-color="#FFC42D" stop-opacity="0"/>
</linearGradient>
<radialGradient id="paint27_radial_1428_2863" cx="0" cy="0" r="1" gradientUnits="userSpaceOnUse" gradientTransform="translate(14.6619 8.64711) rotate(-49.636) scale(5.07545 6.51994)">
<stop offset="0.302" stop-color="#FDA04C"/>
<stop offset="1" stop-color="#FDA04C" stop-opacity="0"/>
</radialGradient>
<linearGradient id="paint28_linear_1428_2863" x1="18.0022" y1="6.9243" x2="17.5984" y2="6.25717" gradientUnits="userSpaceOnUse">
<stop stop-color="#F19B3A"/>
<stop offset="1" stop-color="#F19B3A" stop-opacity="0"/>
</linearGradient>
<radialGradient id="paint29_radial_1428_2863" cx="0" cy="0" r="1" gradientUnits="userSpaceOnUse" gradientTransform="translate(19.1621 4.28842) rotate(148.147) scale(6.99476 4.20445)">
<stop offset="0.639" stop-color="#FFA24E" stop-opacity="0"/>
<stop offset="0.922" stop-color="#FFB639"/>
</radialGradient>
<radialGradient id="paint30_radial_1428_2863" cx="0" cy="0" r="1" gradientUnits="userSpaceOnUse" gradientTransform="translate(12.2501 8.40378) rotate(-11.3295) scale(5.11024 5.12813)">
<stop offset="0.142" stop-color="#FC9F4D"/>
<stop offset="1" stop-color="#FC9F4D" stop-opacity="0"/>
</radialGradient>
<linearGradient id="paint31_linear_1428_2863" x1="14.0299" y1="7.92678" x2="13.6609" y2="7.31141" gradientUnits="userSpaceOnUse">
<stop offset="0.189" stop-color="#F09A35"/>
<stop offset="1" stop-color="#F09A35" stop-opacity="0"/>
</linearGradient>
<radialGradient id="paint32_radial_1428_2863" cx="0" cy="0" r="1" gradientUnits="userSpaceOnUse" gradientTransform="translate(13.7734 4.65641) rotate(110.501) scale(4.40206 6.39618)">
<stop offset="0.842" stop-color="#FFB639" stop-opacity="0"/>
<stop offset="1" stop-color="#FFB639"/>
</radialGradient>
<radialGradient id="paint33_radial_1428_2863" cx="0" cy="0" r="1" gradientUnits="userSpaceOnUse" gradientTransform="translate(13.1704 5.92878) rotate(-13.7869) scale(0.977378 1.35553)">
<stop offset="0.334" stop-color="#FFA80F"/>
<stop offset="1" stop-color="#FFA80F" stop-opacity="0"/>
</radialGradient>
<linearGradient id="paint34_linear_1428_2863" x1="12.7811" y1="3.97128" x2="13.9241" y2="5.20203" gradientUnits="userSpaceOnUse">
<stop offset="0.048" stop-color="#C6A253"/>
<stop offset="1" stop-color="#FFBD38" stop-opacity="0"/>
</linearGradient>
<radialGradient id="paint35_radial_1428_2863" cx="0" cy="0" r="1" gradientUnits="userSpaceOnUse" gradientTransform="translate(16.7018 3.98928) rotate(150.945) scale(2.35272 2.83076)">
<stop stop-color="#FFF266"/>
<stop offset="1" stop-color="#FFC033" stop-opacity="0"/>
</radialGradient>
<linearGradient id="paint36_linear_1428_2863" x1="12.7114" y1="5.41231" x2="2.40075" y2="12.0926" gradientUnits="userSpaceOnUse">
<stop stop-color="#FFBC32"/>
<stop offset="1" stop-color="#F0A42F"/>
</linearGradient>
<radialGradient id="paint37_radial_1428_2863" cx="0" cy="0" r="1" gradientUnits="userSpaceOnUse" gradientTransform="translate(13.2739 5.13106) rotate(150.573) scale(3.1484 3.20022)">
<stop stop-color="#FFF166"/>
<stop offset="1" stop-color="#FFBB32" stop-opacity="0"/>
</radialGradient>
<radialGradient id="paint38_radial_1428_2863" cx="0" cy="0" r="1" gradientUnits="userSpaceOnUse" gradientTransform="translate(10.215 9.06856) rotate(-119.055) scale(1.44782 5.80496)">
<stop stop-color="#FEA24F"/>
<stop offset="1" stop-color="#FEA24F" stop-opacity="0"/>
</radialGradient>
<radialGradient id="paint39_radial_1428_2863" cx="0" cy="0" r="1" gradientUnits="userSpaceOnUse" gradientTransform="translate(11.4716 8.46219) rotate(-120.801) scale(0.532079 3.89533)">
<stop offset="0.185" stop-color="#F19B3D"/>
<stop offset="1" stop-color="#F19B3D" stop-opacity="0"/>
</radialGradient>
</defs>
</svg>
