<svg width="34" height="34" viewBox="0 0 34 34" fill="none" xmlns="http://www.w3.org/2000/svg">
<g filter="url(#filter0_iii_1428_2711)">
<path d="M30.2345 19.7596C29.7429 21.5438 30.2885 23.0986 32.2213 24.2247C34.6209 25.6242 34.1023 28.628 31.2279 28.9272C29.5584 28.9272 29.0476 29.2568 28.1083 30.086C26.288 31.6947 23.8006 31.1772 22.58 30.7025C21.3549 30.3447 20.5055 30.0871 19.6258 30.7463C17.1305 32.8388 15.6365 33.3563 12.8589 33.3563C8.81563 33.1628 7.39138 31.688 5.39675 29.7181C4.61488 28.9452 3.99725 28.8102 2.79575 28.7337C1.41538 28.646 0.579504 27.9237 0.352254 27.0721C0.0878791 26.3161 0.352254 24.9796 1.41538 24.4711C2.84188 23.7871 4.54175 22.6902 3.78913 20.8936C3.03538 19.097 2.76875 17.2823 2.76875 15.0053C2.8925 7.90321 7.18438 0.642456 16.937 0.642456C27.449 0.642456 33.5476 9.67846 30.2345 19.7596Z" fill="#FFB14D"/>
<path d="M30.2345 19.7596C29.7429 21.5438 30.2885 23.0986 32.2213 24.2247C34.6209 25.6242 34.1023 28.628 31.2279 28.9272C29.5584 28.9272 29.0476 29.2568 28.1083 30.086C26.288 31.6947 23.8006 31.1772 22.58 30.7025C21.3549 30.3447 20.5055 30.0871 19.6258 30.7463C17.1305 32.8388 15.6365 33.3563 12.8589 33.3563C8.81563 33.1628 7.39138 31.688 5.39675 29.7181C4.61488 28.9452 3.99725 28.8102 2.79575 28.7337C1.41538 28.646 0.579504 27.9237 0.352254 27.0721C0.0878791 26.3161 0.352254 24.9796 1.41538 24.4711C2.84188 23.7871 4.54175 22.6902 3.78913 20.8936C3.03538 19.097 2.76875 17.2823 2.76875 15.0053C2.8925 7.90321 7.18438 0.642456 16.937 0.642456C27.449 0.642456 33.5476 9.67846 30.2345 19.7596Z" fill="url(#paint0_radial_1428_2711)"/>
<path d="M30.2345 19.7596C29.7429 21.5438 30.2885 23.0986 32.2213 24.2247C34.6209 25.6242 34.1023 28.628 31.2279 28.9272C29.5584 28.9272 29.0476 29.2568 28.1083 30.086C26.288 31.6947 23.8006 31.1772 22.58 30.7025C21.3549 30.3447 20.5055 30.0871 19.6258 30.7463C17.1305 32.8388 15.6365 33.3563 12.8589 33.3563C8.81563 33.1628 7.39138 31.688 5.39675 29.7181C4.61488 28.9452 3.99725 28.8102 2.79575 28.7337C1.41538 28.646 0.579504 27.9237 0.352254 27.0721C0.0878791 26.3161 0.352254 24.9796 1.41538 24.4711C2.84188 23.7871 4.54175 22.6902 3.78913 20.8936C3.03538 19.097 2.76875 17.2823 2.76875 15.0053C2.8925 7.90321 7.18438 0.642456 16.937 0.642456C27.449 0.642456 33.5476 9.67846 30.2345 19.7596Z" fill="url(#paint1_radial_1428_2711)"/>
</g>
<path d="M30.2345 19.7596C29.7429 21.5438 30.2885 23.0986 32.2213 24.2247C34.6209 25.6242 34.1023 28.628 31.2279 28.9272C29.5584 28.9272 29.0476 29.2568 28.1083 30.086C26.288 31.6947 23.8006 31.1772 22.58 30.7025C21.3549 30.3447 20.5055 30.0871 19.6258 30.7463C17.1305 32.8388 15.6365 33.3563 12.8589 33.3563C8.81563 33.1628 7.39138 31.688 5.39675 29.7181C4.61488 28.9452 3.99725 28.8102 2.79575 28.7337C1.41538 28.646 0.579504 27.9237 0.352254 27.0721C0.0878791 26.3161 0.352254 24.9796 1.41538 24.4711C2.84188 23.7871 4.54175 22.6902 3.78913 20.8936C3.03538 19.097 2.76875 17.2823 2.76875 15.0053C2.8925 7.90321 7.18438 0.642456 16.937 0.642456C27.449 0.642456 33.5476 9.67846 30.2345 19.7596Z" fill="url(#paint2_radial_1428_2711)"/>
<path d="M30.2345 19.7596C29.7429 21.5438 30.2885 23.0986 32.2213 24.2247C34.6209 25.6242 34.1023 28.628 31.2279 28.9272C29.5584 28.9272 29.0476 29.2568 28.1083 30.086C26.288 31.6947 23.8006 31.1772 22.58 30.7025C21.3549 30.3447 20.5055 30.0871 19.6258 30.7463C17.1305 32.8388 15.6365 33.3563 12.8589 33.3563C8.81563 33.1628 7.39138 31.688 5.39675 29.7181C4.61488 28.9452 3.99725 28.8102 2.79575 28.7337C1.41538 28.646 0.579504 27.9237 0.352254 27.0721C0.0878791 26.3161 0.352254 24.9796 1.41538 24.4711C2.84188 23.7871 4.54175 22.6902 3.78913 20.8936C3.03538 19.097 2.76875 17.2823 2.76875 15.0053C2.8925 7.90321 7.18438 0.642456 16.937 0.642456C27.449 0.642456 33.5476 9.67846 30.2345 19.7596Z" fill="url(#paint3_radial_1428_2711)"/>
<path d="M30.2345 19.7596C29.7429 21.5438 30.2885 23.0986 32.2213 24.2247C34.6209 25.6242 34.1023 28.628 31.2279 28.9272C29.5584 28.9272 29.0476 29.2568 28.1083 30.086C26.288 31.6947 23.8006 31.1772 22.58 30.7025C21.3549 30.3447 20.5055 30.0871 19.6258 30.7463C17.1305 32.8388 15.6365 33.3563 12.8589 33.3563C8.81563 33.1628 7.39138 31.688 5.39675 29.7181C4.61488 28.9452 3.99725 28.8102 2.79575 28.7337C1.41538 28.646 0.579504 27.9237 0.352254 27.0721C0.0878791 26.3161 0.352254 24.9796 1.41538 24.4711C2.84188 23.7871 4.54175 22.6902 3.78913 20.8936C3.03538 19.097 2.76875 17.2823 2.76875 15.0053C2.8925 7.90321 7.18438 0.642456 16.937 0.642456C27.449 0.642456 33.5476 9.67846 30.2345 19.7596Z" fill="url(#paint4_radial_1428_2711)"/>
<path d="M30.2345 19.7596C29.7429 21.5438 30.2885 23.0986 32.2213 24.2247C34.6209 25.6242 34.1023 28.628 31.2279 28.9272C29.5584 28.9272 29.0476 29.2568 28.1083 30.086C26.288 31.6947 23.8006 31.1772 22.58 30.7025C21.3549 30.3447 20.5055 30.0871 19.6258 30.7463C17.1305 32.8388 15.6365 33.3563 12.8589 33.3563C8.81563 33.1628 7.39138 31.688 5.39675 29.7181C4.61488 28.9452 3.99725 28.8102 2.79575 28.7337C1.41538 28.646 0.579504 27.9237 0.352254 27.0721C0.0878791 26.3161 0.352254 24.9796 1.41538 24.4711C2.84188 23.7871 4.54175 22.6902 3.78913 20.8936C3.03538 19.097 2.76875 17.2823 2.76875 15.0053C2.8925 7.90321 7.18438 0.642456 16.937 0.642456C27.449 0.642456 33.5476 9.67846 30.2345 19.7596Z" fill="url(#paint5_radial_1428_2711)"/>
<path d="M30.2345 19.7596C29.7429 21.5438 30.2885 23.0986 32.2213 24.2247C34.6209 25.6242 34.1023 28.628 31.2279 28.9272C29.5584 28.9272 29.0476 29.2568 28.1083 30.086C26.288 31.6947 23.8006 31.1772 22.58 30.7025C21.3549 30.3447 20.5055 30.0871 19.6258 30.7463C17.1305 32.8388 15.6365 33.3563 12.8589 33.3563C8.81563 33.1628 7.39138 31.688 5.39675 29.7181C4.61488 28.9452 3.99725 28.8102 2.79575 28.7337C1.41538 28.646 0.579504 27.9237 0.352254 27.0721C0.0878791 26.3161 0.352254 24.9796 1.41538 24.4711C2.84188 23.7871 4.54175 22.6902 3.78913 20.8936C3.03538 19.097 2.76875 17.2823 2.76875 15.0053C2.8925 7.90321 7.18438 0.642456 16.937 0.642456C27.449 0.642456 33.5476 9.67846 30.2345 19.7596Z" fill="url(#paint6_radial_1428_2711)"/>
<path d="M30.2345 19.7596C29.7429 21.5438 30.2885 23.0986 32.2213 24.2247C34.6209 25.6242 34.1023 28.628 31.2279 28.9272C29.5584 28.9272 29.0476 29.2568 28.1083 30.086C26.288 31.6947 23.8006 31.1772 22.58 30.7025C21.3549 30.3447 20.5055 30.0871 19.6258 30.7463C17.1305 32.8388 15.6365 33.3563 12.8589 33.3563C8.81563 33.1628 7.39138 31.688 5.39675 29.7181C4.61488 28.9452 3.99725 28.8102 2.79575 28.7337C1.41538 28.646 0.579504 27.9237 0.352254 27.0721C0.0878791 26.3161 0.352254 24.9796 1.41538 24.4711C2.84188 23.7871 4.54175 22.6902 3.78913 20.8936C3.03538 19.097 2.76875 17.2823 2.76875 15.0053C2.8925 7.90321 7.18438 0.642456 16.937 0.642456C27.449 0.642456 33.5476 9.67846 30.2345 19.7596Z" fill="url(#paint7_radial_1428_2711)"/>
<path d="M30.2345 19.7596C29.7429 21.5438 30.2885 23.0986 32.2213 24.2247C34.6209 25.6242 34.1023 28.628 31.2279 28.9272C29.5584 28.9272 29.0476 29.2568 28.1083 30.086C26.288 31.6947 23.8006 31.1772 22.58 30.7025C21.3549 30.3447 20.5055 30.0871 19.6258 30.7463C17.1305 32.8388 15.6365 33.3563 12.8589 33.3563C8.81563 33.1628 7.39138 31.688 5.39675 29.7181C4.61488 28.9452 3.99725 28.8102 2.79575 28.7337C1.41538 28.646 0.579504 27.9237 0.352254 27.0721C0.0878791 26.3161 0.352254 24.9796 1.41538 24.4711C2.84188 23.7871 4.54175 22.6902 3.78913 20.8936C3.03538 19.097 2.76875 17.2823 2.76875 15.0053C2.8925 7.90321 7.18438 0.642456 16.937 0.642456C27.449 0.642456 33.5476 9.67846 30.2345 19.7596Z" fill="url(#paint8_radial_1428_2711)"/>
<path d="M27.4648 11.8643C27.4648 13.0001 27.0135 14.0895 26.2103 14.8927C25.4071 15.6959 24.3178 16.1471 23.1819 16.1471C22.046 16.1471 20.9566 15.6959 20.1534 14.8927C19.3502 14.0895 18.899 13.0001 18.899 11.8643C18.899 10.7284 19.3502 9.639 20.1534 8.83581C20.9566 8.03261 22.046 7.58138 23.1819 7.58138C24.3178 7.58138 25.4071 8.03261 26.2103 8.83581C27.0135 9.639 27.4648 10.7284 27.4648 11.8643ZM16.4319 9.84938C16.4319 10.9823 15.9818 12.0688 15.1807 12.8699C14.3797 13.671 13.2932 14.121 12.1603 14.121C11.0273 14.121 9.94084 13.671 9.13976 12.8699C8.33867 12.0688 7.88863 10.9823 7.88863 9.84938C7.88863 8.71648 8.33867 7.62997 9.13976 6.82889C9.94084 6.0278 11.0273 5.57776 12.1603 5.57776C13.2932 5.57776 14.3797 6.0278 15.1807 6.82889C15.9818 7.62997 16.4319 8.71648 16.4319 9.84938Z" fill="white"/>
<path d="M22.6115 14.7196C23.0289 14.7275 23.4437 14.6521 23.8316 14.4978C24.2196 14.3435 24.5729 14.1135 24.8709 13.8211C25.1688 13.5287 25.4055 13.1798 25.5671 12.7948C25.7287 12.4099 25.8119 11.9966 25.8119 11.5791C25.8119 11.1616 25.7287 10.7483 25.5671 10.3634C25.4055 9.97845 25.1688 9.62958 24.8709 9.33718C24.5729 9.04478 24.2196 8.81472 23.8316 8.66045C23.4437 8.50617 23.0289 8.43078 22.6115 8.43868C21.7889 8.45425 21.0052 8.79196 20.429 9.37921C19.8528 9.96647 19.5299 10.7564 19.5299 11.5791C19.5299 12.4019 19.8528 13.1918 20.429 13.779C21.0052 14.3663 21.7889 14.704 22.6115 14.7196ZM12.7306 12.9814C13.5614 12.9814 14.3582 12.6514 14.9457 12.0639C15.5332 11.4765 15.8632 10.6797 15.8632 9.84887C15.8632 9.01806 15.5332 8.22128 14.9457 7.63381C14.3582 7.04635 13.5614 6.71631 12.7306 6.71631C11.8997 6.71631 11.1027 7.0464 10.5152 7.63398C9.9276 8.22155 9.5975 9.01848 9.5975 9.84943C9.5975 10.6804 9.9276 11.4773 10.5152 12.0649C11.1027 12.6525 11.8997 12.9814 12.7306 12.9814Z" fill="#402931"/>
<path d="M11.735 16.8684C12.4021 17.8618 13.688 19.2545 15.5488 19.7248C18.1644 20.3852 20.1624 19.3029 21.1288 18.5469" stroke="#49312F" stroke-width="1.8" stroke-linecap="round"/>
<path d="M11.735 16.8684C12.4021 17.8618 13.688 19.2545 15.5488 19.7248C18.1644 20.3852 20.1624 19.3029 21.1288 18.5469" stroke="url(#paint9_radial_1428_2711)" stroke-width="1.8" stroke-linecap="round"/>
<path d="M11.735 16.8684C12.4021 17.8618 13.688 19.2545 15.5488 19.7248C18.1644 20.3852 20.1624 19.3029 21.1288 18.5469" stroke="url(#paint10_radial_1428_2711)" stroke-width="1.8" stroke-linecap="round"/>
<g filter="url(#filter1_f_1428_2711)">
<path d="M11.735 17.0134C12.4021 18.0068 13.688 19.3996 15.5488 19.8698C18.1644 20.5302 20.1624 19.4479 21.1288 18.6919" stroke="#4D2D4C" stroke-width="0.675" stroke-linecap="round"/>
</g>
<g filter="url(#filter2_f_1428_2711)">
<path d="M3.81613 25.7074C4.61938 25.569 6.59713 25.6894 8.07988 27.2835C9.93388 29.2759 10.9531 30.1106 12.8533 29.925C14.7523 29.7394 15.3091 28.8596 16.6524 27.2835C17.9968 25.7085 19.6179 26.4499 21.4719 27.2835C23.3248 28.1183 24.1595 27.2835 25.1326 26.496C26.1058 25.7085 27.7741 24.921 30.1839 25.7085" stroke="url(#paint11_linear_1428_2711)" stroke-width="2.25" stroke-linecap="round"/>
<path d="M3.81613 25.7074C4.61938 25.569 6.59713 25.6894 8.07988 27.2835C9.93388 29.2759 10.9531 30.1106 12.8533 29.925C14.7523 29.7394 15.3091 28.8596 16.6524 27.2835C17.9968 25.7085 19.6179 26.4499 21.4719 27.2835C23.3248 28.1183 24.1595 27.2835 25.1326 26.496C26.1058 25.7085 27.7741 24.921 30.1839 25.7085" stroke="url(#paint12_radial_1428_2711)" stroke-width="2.25" stroke-linecap="round"/>
<path d="M3.81613 25.7074C4.61938 25.569 6.59713 25.6894 8.07988 27.2835C9.93388 29.2759 10.9531 30.1106 12.8533 29.925C14.7523 29.7394 15.3091 28.8596 16.6524 27.2835C17.9968 25.7085 19.6179 26.4499 21.4719 27.2835C23.3248 28.1183 24.1595 27.2835 25.1326 26.496C26.1058 25.7085 27.7741 24.921 30.1839 25.7085" stroke="url(#paint13_radial_1428_2711)" stroke-width="2.25" stroke-linecap="round"/>
</g>
<g filter="url(#filter3_f_1428_2711)">
<path d="M32.1402 26.8773C31.418 26.6467 28.9171 26.7108 27.3759 28.1801C25.4499 30.015 23.795 28.5705 22.2009 28.1801C20.6045 27.7886 19.853 27.3971 17.9259 29.2938" stroke="url(#paint14_linear_1428_2711)" stroke-width="0.84375" stroke-linecap="round"/>
</g>
<g filter="url(#filter4_f_1428_2711)">
<path d="M25.1011 25.0956C24.9959 25.3239 24.8368 25.5232 24.6375 25.6765C24.4382 25.8297 24.2047 25.9323 23.957 25.9753C23.1223 26.107 21.7138 25.0956 20.5708 25.0956" stroke="url(#paint15_linear_1428_2711)" stroke-width="0.84375" stroke-linecap="round"/>
</g>
<g filter="url(#filter5_f_1428_2711)">
<path d="M14.1031 28.395C13.7217 28.7021 12.6339 29.0452 11.3322 27.9551C9.70437 26.5905 9.39725 25.7546 7.76825 25.4913" stroke="url(#paint16_linear_1428_2711)" stroke-width="0.84375" stroke-linecap="round"/>
</g>
<defs>
<filter id="filter0_iii_1428_2711" x="-0.0242767" y="-0.763794" width="34.0483" height="34.4014" filterUnits="userSpaceOnUse" color-interpolation-filters="sRGB">
<feFlood flood-opacity="0" result="BackgroundImageFix"/>
<feBlend mode="normal" in="SourceGraphic" in2="BackgroundImageFix" result="shape"/>
<feColorMatrix in="SourceAlpha" type="matrix" values="0 0 0 0 0 0 0 0 0 0 0 0 0 0 0 0 0 0 127 0" result="hardAlpha"/>
<feOffset dx="-0.28125" dy="-1.40625"/>
<feGaussianBlur stdDeviation="0.703125"/>
<feComposite in2="hardAlpha" operator="arithmetic" k2="-1" k3="1"/>
<feColorMatrix type="matrix" values="0 0 0 0 1 0 0 0 0 0.545098 0 0 0 0 0.380392 0 0 0 1 0"/>
<feBlend mode="normal" in2="shape" result="effect1_innerShadow_1428_2711"/>
<feColorMatrix in="SourceAlpha" type="matrix" values="0 0 0 0 0 0 0 0 0 0 0 0 0 0 0 0 0 0 127 0" result="hardAlpha"/>
<feOffset dx="-0.28125" dy="-0.5625"/>
<feGaussianBlur stdDeviation="0.421875"/>
<feComposite in2="hardAlpha" operator="arithmetic" k2="-1" k3="1"/>
<feColorMatrix type="matrix" values="0 0 0 0 0.956863 0 0 0 0 0.478431 0 0 0 0 0.701961 0 0 0 1 0"/>
<feBlend mode="normal" in2="effect1_innerShadow_1428_2711" result="effect2_innerShadow_1428_2711"/>
<feColorMatrix in="SourceAlpha" type="matrix" values="0 0 0 0 0 0 0 0 0 0 0 0 0 0 0 0 0 0 127 0" result="hardAlpha"/>
<feOffset dx="0.28125" dy="0.28125"/>
<feGaussianBlur stdDeviation="0.5625"/>
<feComposite in2="hardAlpha" operator="arithmetic" k2="-1" k3="1"/>
<feColorMatrix type="matrix" values="0 0 0 0 0.843137 0 0 0 0 0.54902 0 0 0 0 0.34902 0 0 0 1 0"/>
<feBlend mode="normal" in2="effect2_innerShadow_1428_2711" result="effect3_innerShadow_1428_2711"/>
</filter>
<filter id="filter1_f_1428_2711" x="10.7225" y="16.0009" width="11.4188" height="5.08657" filterUnits="userSpaceOnUse" color-interpolation-filters="sRGB">
<feFlood flood-opacity="0" result="BackgroundImageFix"/>
<feBlend mode="normal" in="SourceGraphic" in2="BackgroundImageFix" result="shape"/>
<feGaussianBlur stdDeviation="0.3375" result="effect1_foregroundBlur_1428_2711"/>
</filter>
<filter id="filter2_f_1428_2711" x="1.00345" y="22.5692" width="31.9932" height="10.1935" filterUnits="userSpaceOnUse" color-interpolation-filters="sRGB">
<feFlood flood-opacity="0" result="BackgroundImageFix"/>
<feBlend mode="normal" in="SourceGraphic" in2="BackgroundImageFix" result="shape"/>
<feGaussianBlur stdDeviation="0.84375" result="effect1_foregroundBlur_1428_2711"/>
</filter>
<filter id="filter3_f_1428_2711" x="16.379" y="25.2299" width="17.3082" height="5.61084" filterUnits="userSpaceOnUse" color-interpolation-filters="sRGB">
<feFlood flood-opacity="0" result="BackgroundImageFix"/>
<feBlend mode="normal" in="SourceGraphic" in2="BackgroundImageFix" result="shape"/>
<feGaussianBlur stdDeviation="0.5625" result="effect1_foregroundBlur_1428_2711"/>
</filter>
<filter id="filter4_f_1428_2711" x="18.4614" y="22.9861" width="8.74922" height="5.11035" filterUnits="userSpaceOnUse" color-interpolation-filters="sRGB">
<feFlood flood-opacity="0" result="BackgroundImageFix"/>
<feBlend mode="normal" in="SourceGraphic" in2="BackgroundImageFix" result="shape"/>
<feGaussianBlur stdDeviation="0.84375" result="effect1_foregroundBlur_1428_2711"/>
</filter>
<filter id="filter5_f_1428_2711" x="5.65881" y="23.3818" width="10.5537" height="7.42725" filterUnits="userSpaceOnUse" color-interpolation-filters="sRGB">
<feFlood flood-opacity="0" result="BackgroundImageFix"/>
<feBlend mode="normal" in="SourceGraphic" in2="BackgroundImageFix" result="shape"/>
<feGaussianBlur stdDeviation="0.84375" result="effect1_foregroundBlur_1428_2711"/>
</filter>
<radialGradient id="paint0_radial_1428_2711" cx="0" cy="0" r="1" gradientUnits="userSpaceOnUse" gradientTransform="translate(29.53 14.1945) rotate(154.568) scale(31.8103 35.7769)">
<stop offset="0.591" stop-color="#EC9229" stop-opacity="0"/>
<stop offset="1" stop-color="#EC9229"/>
</radialGradient>
<radialGradient id="paint1_radial_1428_2711" cx="0" cy="0" r="1" gradientUnits="userSpaceOnUse" gradientTransform="translate(5.64875 22.1603) rotate(3.50903) scale(12.7837 14.0361)">
<stop stop-color="#FA9848"/>
<stop offset="1" stop-color="#FA9848" stop-opacity="0"/>
</radialGradient>
<radialGradient id="paint2_radial_1428_2711" cx="0" cy="0" r="1" gradientUnits="userSpaceOnUse" gradientTransform="translate(32.552 17) rotate(-175.859) scale(6.87932 8.26626)">
<stop offset="0.173" stop-color="#FFC547"/>
<stop offset="1" stop-color="#FBC263" stop-opacity="0"/>
</radialGradient>
<radialGradient id="paint3_radial_1428_2711" cx="0" cy="0" r="1" gradientUnits="userSpaceOnUse" gradientTransform="translate(25.0104 8.36886) rotate(136.312) scale(9.30689 16.5139)">
<stop stop-color="#FFED5D"/>
<stop offset="1" stop-color="#FFED5D" stop-opacity="0"/>
</radialGradient>
<radialGradient id="paint4_radial_1428_2711" cx="0" cy="0" r="1" gradientUnits="userSpaceOnUse" gradientTransform="translate(30.7475 21.6192) rotate(-162.708) scale(6.68188 4.28206)">
<stop stop-color="#FFDC66"/>
<stop offset="1" stop-color="#FFDC66" stop-opacity="0"/>
</radialGradient>
<radialGradient id="paint5_radial_1428_2711" cx="0" cy="0" r="1" gradientUnits="userSpaceOnUse" gradientTransform="translate(35.6705 26.6525) rotate(-149.899) scale(4.87229 8.38789)">
<stop stop-color="#FEAF3D"/>
<stop offset="1" stop-color="#FEAF3D" stop-opacity="0"/>
</radialGradient>
<radialGradient id="paint6_radial_1428_2711" cx="0" cy="0" r="1" gradientUnits="userSpaceOnUse" gradientTransform="translate(5.06375 30.9914) rotate(-105.255) scale(6.26881 3.307)">
<stop stop-color="#DB7253"/>
<stop offset="1" stop-color="#DB7253" stop-opacity="0"/>
</radialGradient>
<radialGradient id="paint7_radial_1428_2711" cx="0" cy="0" r="1" gradientUnits="userSpaceOnUse" gradientTransform="translate(11.4887 9.86169) rotate(172.875) scale(5.23614 5.05014)">
<stop offset="0.433" stop-color="#C67826"/>
<stop offset="1" stop-color="#C67826" stop-opacity="0"/>
</radialGradient>
<radialGradient id="paint8_radial_1428_2711" cx="0" cy="0" r="1" gradientUnits="userSpaceOnUse" gradientTransform="translate(22.2697 12.3511) rotate(131.386) scale(4.73266 4.92581)">
<stop offset="0.54" stop-color="#EE9641"/>
<stop offset="1" stop-color="#EE9641" stop-opacity="0"/>
</radialGradient>
<radialGradient id="paint9_radial_1428_2711" cx="0" cy="0" r="1" gradientUnits="userSpaceOnUse" gradientTransform="translate(21.9119 17.9771) rotate(144.744) scale(1.24855 1.75328)">
<stop stop-color="#5D4D50"/>
<stop offset="1" stop-color="#5D4D50" stop-opacity="0"/>
</radialGradient>
<radialGradient id="paint10_radial_1428_2711" cx="0" cy="0" r="1" gradientUnits="userSpaceOnUse" gradientTransform="translate(13.6857 17.1849) rotate(134.502) scale(1.42946 4.73194)">
<stop offset="0.259" stop-color="#57464A"/>
<stop offset="1" stop-color="#57464A" stop-opacity="0"/>
</radialGradient>
<linearGradient id="paint11_linear_1428_2711" x1="4.65088" y1="27.1451" x2="31.5733" y2="25.3823" gradientUnits="userSpaceOnUse">
<stop stop-color="#FFB029"/>
<stop offset="1" stop-color="#FCAA1D"/>
</linearGradient>
<radialGradient id="paint12_radial_1428_2711" cx="0" cy="0" r="1" gradientUnits="userSpaceOnUse" gradientTransform="translate(15.1586 26.4346) rotate(135.764) scale(5.04029 3.77435)">
<stop offset="0.277" stop-color="#F19A18"/>
<stop offset="1" stop-color="#F19A18" stop-opacity="0"/>
</radialGradient>
<radialGradient id="paint13_radial_1428_2711" cx="0" cy="0" r="1" gradientUnits="userSpaceOnUse" gradientTransform="translate(26.6242 23.9364) rotate(141.711) scale(6.0195 5.74633)">
<stop offset="0.277" stop-color="#F19A18"/>
<stop offset="1" stop-color="#F19A18" stop-opacity="0"/>
</radialGradient>
<linearGradient id="paint14_linear_1428_2711" x1="30.248" y1="26.9032" x2="15.6365" y2="29.8113" gradientUnits="userSpaceOnUse">
<stop stop-color="#FFCE67"/>
<stop offset="1" stop-color="#FFB258"/>
</linearGradient>
<linearGradient id="paint15_linear_1428_2711" x1="24.4981" y1="25.1406" x2="19.8058" y2="25.981" gradientUnits="userSpaceOnUse">
<stop stop-color="#FFCE67"/>
<stop offset="1" stop-color="#FFB258"/>
</linearGradient>
<linearGradient id="paint16_linear_1428_2711" x1="13.2605" y1="25.6522" x2="6.52287" y2="26.1213" gradientUnits="userSpaceOnUse">
<stop stop-color="#FFCE67"/>
<stop offset="1" stop-color="#FFB258"/>
</linearGradient>
</defs>
</svg>
