<svg width="32" height="32" viewBox="0 0 32 32" fill="none" xmlns="http://www.w3.org/2000/svg">
<path d="M15.9989 31.7477C26.4996 31.7477 31.7477 24.6963 31.7477 15.9978C31.7477 7.3015 26.4996 0.25 15.9978 0.25C5.49813 0.25 0.25 7.3015 0.25 15.9989C0.25 24.6962 5.497 31.7477 15.9989 31.7477Z" fill="url(#paint0_radial_1428_2819)"/>
<path d="M15.9989 31.7477C26.4996 31.7477 31.7477 24.6963 31.7477 15.9978C31.7477 7.3015 26.4996 0.25 15.9978 0.25C5.49813 0.25 0.25 7.3015 0.25 15.9989C0.25 24.6962 5.497 31.7477 15.9989 31.7477Z" fill="url(#paint1_radial_1428_2819)"/>
<path d="M15.9989 31.7477C26.4996 31.7477 31.7477 24.6963 31.7477 15.9978C31.7477 7.3015 26.4996 0.25 15.9978 0.25C5.49813 0.25 0.25 7.3015 0.25 15.9989C0.25 24.6962 5.497 31.7477 15.9989 31.7477Z" fill="url(#paint2_radial_1428_2819)"/>
<path d="M15.9989 31.7477C26.4996 31.7477 31.7477 24.6963 31.7477 15.9978C31.7477 7.3015 26.4996 0.25 15.9978 0.25C5.49813 0.25 0.25 7.3015 0.25 15.9989C0.25 24.6962 5.497 31.7477 15.9989 31.7477Z" fill="url(#paint3_radial_1428_2819)" fill-opacity="0.6"/>
<path d="M15.9989 31.7477C26.4996 31.7477 31.7477 24.6963 31.7477 15.9978C31.7477 7.3015 26.4996 0.25 15.9978 0.25C5.49813 0.25 0.25 7.3015 0.25 15.9989C0.25 24.6962 5.497 31.7477 15.9989 31.7477Z" fill="url(#paint4_radial_1428_2819)"/>
<path d="M15.9989 31.7477C26.4996 31.7477 31.7477 24.6963 31.7477 15.9978C31.7477 7.3015 26.4996 0.25 15.9978 0.25C5.49813 0.25 0.25 7.3015 0.25 15.9989C0.25 24.6962 5.497 31.7477 15.9989 31.7477Z" fill="url(#paint5_radial_1428_2819)"/>
<path d="M15.9989 31.7477C26.4996 31.7477 31.7477 24.6963 31.7477 15.9978C31.7477 7.3015 26.4996 0.25 15.9978 0.25C5.49813 0.25 0.25 7.3015 0.25 15.9989C0.25 24.6962 5.497 31.7477 15.9989 31.7477Z" fill="url(#paint6_radial_1428_2819)"/>
<path d="M15.9989 31.7477C26.4996 31.7477 31.7477 24.6963 31.7477 15.9978C31.7477 7.3015 26.4996 0.25 15.9978 0.25C5.49813 0.25 0.25 7.3015 0.25 15.9989C0.25 24.6962 5.497 31.7477 15.9989 31.7477Z" fill="url(#paint7_radial_1428_2819)"/>
<path d="M8.14413 18.3558C11.0476 18.3558 13.4013 16.0021 13.4013 13.0987C13.4013 10.1952 11.0476 7.84155 8.14413 7.84155C5.2407 7.84155 2.887 10.1952 2.887 13.0987C2.887 16.0021 5.2407 18.3558 8.14413 18.3558Z" fill="url(#paint8_radial_1428_2819)"/>
<path d="M19.6495 18.4604C22.2864 18.4604 24.424 16.3228 24.424 13.6859C24.424 11.049 22.2864 8.91138 19.6495 8.91138C17.0126 8.91138 14.875 11.049 14.875 13.6859C14.875 16.3228 17.0126 18.4604 19.6495 18.4604Z" fill="url(#paint9_radial_1428_2819)"/>
<path d="M9.7225 16.2521C10.35 16.2618 10.9731 16.1465 11.5556 15.9131C12.138 15.6797 12.6683 15.3327 13.1154 14.8924C13.5626 14.4521 13.9176 13.9273 14.16 13.3485C14.4024 12.7697 14.5272 12.1484 14.5272 11.5209C14.5272 10.8934 14.4024 10.2721 14.16 9.69329C13.9176 9.11446 13.5626 8.58963 13.1154 8.14934C12.6683 7.70905 12.138 7.36209 11.5556 7.12867C10.9731 6.89525 10.35 6.78002 9.7225 6.7897C8.48035 6.80885 7.29556 7.31574 6.42391 8.20093C5.55227 9.08612 5.06371 10.2786 5.06371 11.5209C5.06371 12.7632 5.55227 13.9557 6.42391 14.8408C7.29556 15.726 8.48035 16.2329 9.7225 16.2521ZM22.264 16.3387C23.5304 16.3387 24.745 15.8356 25.6405 14.9401C26.536 14.0446 27.0391 12.8301 27.0391 11.5636C27.0391 10.2972 26.536 9.08266 25.6405 8.18716C24.745 7.29166 23.5304 6.78857 22.264 6.78857C20.9974 6.78857 19.7827 7.29172 18.8871 8.18732C17.9915 9.08293 17.4884 10.2976 17.4884 11.5642C17.4884 12.8308 17.9915 14.0455 18.8871 14.9411C19.7827 15.8367 20.9974 16.3387 22.264 16.3387Z" fill="white"/>
<path d="M10.375 14.875C11.2701 14.875 12.1286 14.5194 12.7615 13.8865C13.3944 13.2536 13.75 12.3951 13.75 11.5C13.75 10.6049 13.3944 9.74645 12.7615 9.11351C12.1286 8.48058 11.2701 8.125 10.375 8.125C9.47989 8.125 8.62145 8.48058 7.98851 9.11351C7.35558 9.74645 7 10.6049 7 11.5C7 12.3951 7.35558 13.2536 7.98851 13.8865C8.62145 14.5194 9.47989 14.875 10.375 14.875Z" fill="url(#paint10_linear_1428_2819)"/>
<path d="M21.625 14.875C22.5201 14.875 23.3786 14.5194 24.0115 13.8865C24.6444 13.2536 25 12.3951 25 11.5C25 10.6049 24.6444 9.74645 24.0115 9.11351C23.3786 8.48058 22.5201 8.125 21.625 8.125C20.7299 8.125 19.8714 8.48058 19.2385 9.11351C18.6056 9.74645 18.25 10.6049 18.25 11.5C18.25 12.3951 18.6056 13.2536 19.2385 13.8865C19.8714 14.5194 20.7299 14.875 21.625 14.875Z" fill="url(#paint11_linear_1428_2819)"/>
<path fill-rule="evenodd" clip-rule="evenodd" d="M9.25 20.5C9.25 20.2016 9.36853 19.9155 9.57951 19.7045C9.79048 19.4935 10.0766 19.375 10.375 19.375H21.625C21.9234 19.375 22.2095 19.4935 22.4205 19.7045C22.6315 19.9155 22.75 20.2016 22.75 20.5C22.75 20.7984 22.6315 21.0845 22.4205 21.2955C22.2095 21.5065 21.9234 21.625 21.625 21.625H10.375C10.0766 21.625 9.79048 21.5065 9.57951 21.2955C9.36853 21.0845 9.25 20.7984 9.25 20.5Z" fill="url(#paint12_linear_1428_2819)"/>
<defs>
<radialGradient id="paint0_radial_1428_2819" cx="0" cy="0" r="1" gradientUnits="userSpaceOnUse" gradientTransform="translate(26.6877 8.12453) rotate(132.839) scale(42.1912)">
<stop stop-color="#FFF478"/>
<stop offset="0.475" stop-color="#FFB02E"/>
<stop offset="1" stop-color="#F70A8D"/>
</radialGradient>
<radialGradient id="paint1_radial_1428_2819" cx="0" cy="0" r="1" gradientUnits="userSpaceOnUse" gradientTransform="translate(26.6862 8.12572) rotate(131.878) scale(43.8173)">
<stop stop-color="#FFF478"/>
<stop offset="0.475" stop-color="#FFB02E"/>
<stop offset="1" stop-color="#F70A8D"/>
</radialGradient>
<radialGradient id="paint2_radial_1428_2819" cx="0" cy="0" r="1" gradientUnits="userSpaceOnUse" gradientTransform="translate(15.9992 12.0622) rotate(101.31) scale(20.0774 25.7154)">
<stop offset="0.788" stop-color="#F59639" stop-opacity="0"/>
<stop offset="0.973" stop-color="#FF7DCE"/>
</radialGradient>
<radialGradient id="paint3_radial_1428_2819" cx="0" cy="0" r="1" gradientUnits="userSpaceOnUse" gradientTransform="translate(18.25 13.75) rotate(135) scale(46.1387)">
<stop offset="0.315" stop-opacity="0"/>
<stop offset="1"/>
</radialGradient>
<radialGradient id="paint4_radial_1428_2819" cx="0" cy="0" r="1" gradientUnits="userSpaceOnUse" gradientTransform="translate(15.9999 17.1259) rotate(77.692) scale(31.6653)">
<stop offset="0.508" stop-color="#7D6133" stop-opacity="0"/>
<stop offset="1" stop-color="#715B32"/>
</radialGradient>
<radialGradient id="paint5_radial_1428_2819" cx="0" cy="0" r="1" gradientUnits="userSpaceOnUse" gradientTransform="translate(16.5625 16.5625) rotate(55.713) scale(14.9777 10.8566)">
<stop stop-color="#FFB849"/>
<stop offset="1" stop-color="#FFB847" stop-opacity="0"/>
</radialGradient>
<radialGradient id="paint6_radial_1428_2819" cx="0" cy="0" r="1" gradientUnits="userSpaceOnUse" gradientTransform="translate(21.0625 18.25) rotate(9.86582) scale(13.1317)">
<stop stop-color="#FFA64B"/>
<stop offset="0.9" stop-color="#FFAE46" stop-opacity="0"/>
</radialGradient>
<radialGradient id="paint7_radial_1428_2819" cx="0" cy="0" r="1" gradientUnits="userSpaceOnUse" gradientTransform="translate(17.6876 14.8753) rotate(43.971) scale(66.4345)">
<stop offset="0.185" stop-opacity="0"/>
<stop offset="1" stop-opacity="0.4"/>
</radialGradient>
<radialGradient id="paint8_radial_1428_2819" cx="0" cy="0" r="1" gradientUnits="userSpaceOnUse" gradientTransform="translate(12.2347 9.0081) rotate(135) scale(10.244 5.30196)">
<stop stop-color="#392108"/>
<stop offset="1" stop-color="#C87928" stop-opacity="0"/>
</radialGradient>
<radialGradient id="paint9_radial_1428_2819" cx="0" cy="0" r="1" gradientUnits="userSpaceOnUse" gradientTransform="translate(23.364 9.9714) rotate(135) scale(8.62839 4.87087)">
<stop stop-color="#392108"/>
<stop offset="1" stop-color="#C87928" stop-opacity="0"/>
</radialGradient>
<linearGradient id="paint10_linear_1428_2819" x1="16.5625" y1="7" x2="15.4375" y2="14.875" gradientUnits="userSpaceOnUse">
<stop stop-color="#553B3E"/>
<stop offset="1" stop-color="#3D2432"/>
</linearGradient>
<linearGradient id="paint11_linear_1428_2819" x1="16.5625" y1="7" x2="15.4375" y2="14.875" gradientUnits="userSpaceOnUse">
<stop stop-color="#553B3E"/>
<stop offset="1" stop-color="#3D2432"/>
</linearGradient>
<linearGradient id="paint12_linear_1428_2819" x1="16" y1="19.9375" x2="16" y2="21.0625" gradientUnits="userSpaceOnUse">
<stop stop-color="#4F3C43"/>
<stop offset="1" stop-color="#512756"/>
</linearGradient>
</defs>
</svg>
