<svg width="32" height="34" viewBox="0 0 32 34" fill="none" xmlns="http://www.w3.org/2000/svg">
<path d="M15.9989 33.7477C26.4996 33.7477 31.7477 26.6963 31.7477 17.9978C31.7477 9.3015 26.4996 2.25 15.9978 2.25C5.49813 2.25 0.25 9.3015 0.25 17.9989C0.25 26.6962 5.497 33.7477 15.9989 33.7477Z" fill="url(#paint0_radial_1428_2983)"/>
<path d="M15.9989 33.7477C26.4996 33.7477 31.7477 26.6963 31.7477 17.9978C31.7477 9.3015 26.4996 2.25 15.9978 2.25C5.49813 2.25 0.25 9.3015 0.25 17.9989C0.25 26.6962 5.497 33.7477 15.9989 33.7477Z" fill="url(#paint1_radial_1428_2983)"/>
<path d="M15.9989 33.7477C26.4996 33.7477 31.7477 26.6963 31.7477 17.9978C31.7477 9.3015 26.4996 2.25 15.9978 2.25C5.49813 2.25 0.25 9.3015 0.25 17.9989C0.25 26.6962 5.497 33.7477 15.9989 33.7477Z" fill="url(#paint2_radial_1428_2983)"/>
<path d="M15.9989 33.7477C26.4996 33.7477 31.7477 26.6963 31.7477 17.9978C31.7477 9.3015 26.4996 2.25 15.9978 2.25C5.49813 2.25 0.25 9.3015 0.25 17.9989C0.25 26.6962 5.497 33.7477 15.9989 33.7477Z" fill="url(#paint3_radial_1428_2983)" fill-opacity="0.6"/>
<path d="M15.9989 33.7477C26.4996 33.7477 31.7477 26.6963 31.7477 17.9978C31.7477 9.3015 26.4996 2.25 15.9978 2.25C5.49813 2.25 0.25 9.3015 0.25 17.9989C0.25 26.6962 5.497 33.7477 15.9989 33.7477Z" fill="url(#paint4_radial_1428_2983)"/>
<path d="M15.9989 33.7477C26.4996 33.7477 31.7477 26.6963 31.7477 17.9978C31.7477 9.3015 26.4996 2.25 15.9978 2.25C5.49813 2.25 0.25 9.3015 0.25 17.9989C0.25 26.6962 5.497 33.7477 15.9989 33.7477Z" fill="url(#paint5_radial_1428_2983)"/>
<path d="M15.9989 33.7477C26.4996 33.7477 31.7477 26.6963 31.7477 17.9978C31.7477 9.3015 26.4996 2.25 15.9978 2.25C5.49813 2.25 0.25 9.3015 0.25 17.9989C0.25 26.6962 5.497 33.7477 15.9989 33.7477Z" fill="url(#paint6_radial_1428_2983)"/>
<path d="M15.9989 33.7477C26.4996 33.7477 31.7477 26.6963 31.7477 17.9978C31.7477 9.3015 26.4996 2.25 15.9978 2.25C5.49813 2.25 0.25 9.3015 0.25 17.9989C0.25 26.6962 5.497 33.7477 15.9989 33.7477Z" fill="url(#paint7_radial_1428_2983)"/>
<path d="M5.875 19.125C5.875 19.125 7 20.25 9.25 20.25C11.5 20.25 12.625 19.125 12.625 19.125" stroke="url(#paint8_linear_1428_2983)" stroke-width="2.25" stroke-linecap="round" stroke-linejoin="round"/>
<path d="M19.375 19.125C19.375 19.125 20.5 20.25 22.75 20.25C25 20.25 26.125 19.125 26.125 19.125" stroke="url(#paint9_linear_1428_2983)" stroke-width="2.25" stroke-linecap="round" stroke-linejoin="round"/>
<path d="M18.25 27C18.25 25.7574 17.2426 24.75 16 24.75C14.7574 24.75 13.75 25.7574 13.75 27C13.75 28.2426 14.7574 29.25 16 29.25C17.2426 29.25 18.25 28.2426 18.25 27Z" fill="url(#paint10_radial_1428_2983)"/>
<path d="M29.5 11.25C29.5 5.0368 24.4632 0 18.25 0C12.0368 0 7 5.0368 7 11.25C7 17.4632 12.0368 22.5 18.25 22.5C24.4632 22.5 29.5 17.4632 29.5 11.25Z" fill="url(#paint11_radial_1428_2983)"/>
<path fill-rule="evenodd" clip-rule="evenodd" d="M30.3775 2.67078C30.5121 2.83866 30.5957 3.0416 30.6184 3.25556C30.6411 3.46951 30.602 3.68549 30.5057 3.8779L28.2254 8.4409L30.3516 7.90878C30.4959 7.87007 30.6464 7.86048 30.7944 7.88057C30.9424 7.90065 31.0849 7.95 31.2137 8.02575C31.3424 8.10149 31.4547 8.20211 31.5442 8.32174C31.6336 8.44136 31.6983 8.5776 31.7346 8.7225C31.7708 8.8674 31.7778 9.01806 31.7552 9.1657C31.7326 9.31334 31.6808 9.45499 31.6028 9.5824C31.5249 9.70982 31.4224 9.82043 31.3012 9.9078C31.1801 9.99517 31.0428 10.0575 30.8973 10.0913L26.3973 11.2163C26.1886 11.2681 25.9696 11.2591 25.7659 11.1904C25.5623 11.1216 25.3826 10.9959 25.2481 10.8282C25.1137 10.6605 25.0301 10.4578 25.0072 10.244C24.9844 10.0303 25.0233 9.81448 25.1193 9.62215L27.3996 5.05915L25.2734 5.59128C25.1291 5.62998 24.9786 5.63957 24.8306 5.61949C24.6826 5.59941 24.5401 5.55005 24.4113 5.47431C24.2826 5.39856 24.1703 5.29794 24.0808 5.17832C23.9914 5.05869 23.9267 4.92246 23.8904 4.77756C23.8542 4.63266 23.8472 4.48199 23.8698 4.33436C23.8924 4.18672 23.9442 4.04506 24.0222 3.91765C24.1001 3.79024 24.2026 3.67962 24.3238 3.59225C24.4449 3.50488 24.5822 3.44251 24.7277 3.40878L29.2277 2.28378C29.4363 2.23168 29.6555 2.24044 29.8593 2.30902C30.063 2.37761 30.2429 2.50315 30.3775 2.67078Z" fill="url(#paint12_linear_1428_2983)"/>
<path fill-rule="evenodd" clip-rule="evenodd" d="M30.3775 2.67078C30.5121 2.83866 30.5957 3.0416 30.6184 3.25556C30.6411 3.46951 30.602 3.68549 30.5057 3.8779L28.2254 8.4409L30.3516 7.90878C30.4959 7.87007 30.6464 7.86048 30.7944 7.88057C30.9424 7.90065 31.0849 7.95 31.2137 8.02575C31.3424 8.10149 31.4547 8.20211 31.5442 8.32174C31.6336 8.44136 31.6983 8.5776 31.7346 8.7225C31.7708 8.8674 31.7778 9.01806 31.7552 9.1657C31.7326 9.31334 31.6808 9.45499 31.6028 9.5824C31.5249 9.70982 31.4224 9.82043 31.3012 9.9078C31.1801 9.99517 31.0428 10.0575 30.8973 10.0913L26.3973 11.2163C26.1886 11.2681 25.9696 11.2591 25.7659 11.1904C25.5623 11.1216 25.3826 10.9959 25.2481 10.8282C25.1137 10.6605 25.0301 10.4578 25.0072 10.244C24.9844 10.0303 25.0233 9.81448 25.1193 9.62215L27.3996 5.05915L25.2734 5.59128C25.1291 5.62998 24.9786 5.63957 24.8306 5.61949C24.6826 5.59941 24.5401 5.55005 24.4113 5.47431C24.2826 5.39856 24.1703 5.29794 24.0808 5.17832C23.9914 5.05869 23.9267 4.92246 23.8904 4.77756C23.8542 4.63266 23.8472 4.48199 23.8698 4.33436C23.8924 4.18672 23.9442 4.04506 24.0222 3.91765C24.1001 3.79024 24.2026 3.67962 24.3238 3.59225C24.4449 3.50488 24.5822 3.44251 24.7277 3.40878L29.2277 2.28378C29.4363 2.23168 29.6555 2.24044 29.8593 2.30902C30.063 2.37761 30.2429 2.50315 30.3775 2.67078Z" fill="url(#paint13_radial_1428_2983)"/>
<path fill-rule="evenodd" clip-rule="evenodd" d="M27.3366 2.75629L29.2266 2.28379C29.4353 2.23165 29.6546 2.24044 29.8584 2.3091C30.0622 2.37776 30.2421 2.50341 30.3767 2.67118C30.5114 2.83894 30.5951 3.04178 30.6179 3.25566C30.6408 3.46954 30.6019 3.68548 30.5058 3.87791L29.635 5.62166L29.5 5.62504C29.1517 5.62506 28.8081 5.54421 28.4964 5.38885C28.1846 5.23349 27.9132 5.00788 27.7034 4.72977C27.4937 4.45166 27.3514 4.12866 27.2878 3.7862C27.2241 3.44374 27.2408 3.09118 27.3366 2.75629Z" fill="url(#paint14_radial_1428_2983)"/>
<path fill-rule="evenodd" clip-rule="evenodd" d="M19.375 7.3125C19.375 7.16332 19.4343 7.02024 19.5398 6.91475C19.6452 6.80926 19.7883 6.75 19.9375 6.75H23.3125C23.417 6.75 23.5194 6.77909 23.6082 6.83401C23.6971 6.88893 23.7689 6.96751 23.8156 7.06094C23.8623 7.15438 23.8821 7.25897 23.8727 7.36302C23.8634 7.46706 23.8252 7.56643 23.7625 7.65L21.0625 11.25H23.3125C23.4617 11.25 23.6048 11.3093 23.7103 11.4148C23.8157 11.5202 23.875 11.6633 23.875 11.8125C23.875 11.9617 23.8157 12.1048 23.7103 12.2102C23.6048 12.3157 23.4617 12.375 23.3125 12.375H19.9375C19.833 12.375 19.7306 12.3459 19.6418 12.291C19.5529 12.2361 19.4811 12.1575 19.4344 12.0641C19.3877 11.9706 19.3679 11.866 19.3773 11.762C19.3867 11.6579 19.4248 11.5586 19.4875 11.475L22.1875 7.875H19.9375C19.7883 7.875 19.6452 7.81574 19.5398 7.71025C19.4343 7.60476 19.375 7.46168 19.375 7.3125ZM13.7793 9.38475C13.8265 9.24339 13.9279 9.12655 14.0612 9.0599C14.1945 8.99324 14.3488 8.98222 14.4903 9.02925L17.8653 10.1543C17.9681 10.1887 18.0589 10.2521 18.1265 10.3369C18.1942 10.4217 18.2359 10.5243 18.2466 10.6322C18.2573 10.7402 18.2365 10.8489 18.1868 10.9454C18.1372 11.0418 18.0606 11.1218 17.9665 11.1757L15.1225 12.8025L17.305 13.5304C17.377 13.5522 17.4439 13.5882 17.5017 13.6363C17.5595 13.6844 17.6071 13.7437 17.6416 13.8105C17.6761 13.8773 17.6969 13.9504 17.7027 14.0254C17.7085 14.1004 17.6992 14.1757 17.6753 14.2471C17.6515 14.3184 17.6135 14.3842 17.5638 14.4407C17.5141 14.4971 17.4535 14.5429 17.3858 14.5756C17.318 14.6082 17.2443 14.6269 17.1692 14.6305C17.0941 14.6342 17.019 14.6227 16.9484 14.5969L13.5734 13.4719C13.4705 13.4375 13.3798 13.374 13.3121 13.2892C13.2444 13.2044 13.2027 13.1019 13.192 12.9939C13.1813 12.8859 13.2021 12.7772 13.2518 12.6808C13.3015 12.5843 13.378 12.5043 13.4721 12.4504L16.315 10.8225L14.1325 10.0946C13.9913 10.0472 13.8748 9.94566 13.8083 9.81238C13.7419 9.67909 13.731 9.52491 13.7781 9.38362" fill="#00A6ED"/>
<defs>
<radialGradient id="paint0_radial_1428_2983" cx="0" cy="0" r="1" gradientUnits="userSpaceOnUse" gradientTransform="translate(26.6877 10.1245) rotate(132.839) scale(42.1912)">
<stop stop-color="#FFF478"/>
<stop offset="0.475" stop-color="#FFB02E"/>
<stop offset="1" stop-color="#F70A8D"/>
</radialGradient>
<radialGradient id="paint1_radial_1428_2983" cx="0" cy="0" r="1" gradientUnits="userSpaceOnUse" gradientTransform="translate(26.6862 10.1257) rotate(131.878) scale(43.8173)">
<stop stop-color="#FFF478"/>
<stop offset="0.475" stop-color="#FFB02E"/>
<stop offset="1" stop-color="#F70A8D"/>
</radialGradient>
<radialGradient id="paint2_radial_1428_2983" cx="0" cy="0" r="1" gradientUnits="userSpaceOnUse" gradientTransform="translate(15.9992 14.0622) rotate(101.31) scale(20.0774 25.7154)">
<stop offset="0.788" stop-color="#F59639" stop-opacity="0"/>
<stop offset="0.973" stop-color="#FF7DCE"/>
</radialGradient>
<radialGradient id="paint3_radial_1428_2983" cx="0" cy="0" r="1" gradientUnits="userSpaceOnUse" gradientTransform="translate(18.25 15.75) rotate(135) scale(46.1387)">
<stop offset="0.315" stop-opacity="0"/>
<stop offset="1"/>
</radialGradient>
<radialGradient id="paint4_radial_1428_2983" cx="0" cy="0" r="1" gradientUnits="userSpaceOnUse" gradientTransform="translate(15.9999 19.1259) rotate(77.692) scale(31.6653)">
<stop offset="0.508" stop-color="#7D6133" stop-opacity="0"/>
<stop offset="1" stop-color="#715B32"/>
</radialGradient>
<radialGradient id="paint5_radial_1428_2983" cx="0" cy="0" r="1" gradientUnits="userSpaceOnUse" gradientTransform="translate(16.5625 18.5625) rotate(55.713) scale(14.9777 10.8566)">
<stop stop-color="#FFB849"/>
<stop offset="1" stop-color="#FFB847" stop-opacity="0"/>
</radialGradient>
<radialGradient id="paint6_radial_1428_2983" cx="0" cy="0" r="1" gradientUnits="userSpaceOnUse" gradientTransform="translate(21.0625 20.25) rotate(9.86582) scale(13.1317)">
<stop stop-color="#FFA64B"/>
<stop offset="0.9" stop-color="#FFAE46" stop-opacity="0"/>
</radialGradient>
<radialGradient id="paint7_radial_1428_2983" cx="0" cy="0" r="1" gradientUnits="userSpaceOnUse" gradientTransform="translate(17.6876 16.8753) rotate(43.971) scale(66.4345)">
<stop offset="0.185" stop-opacity="0"/>
<stop offset="1" stop-opacity="0.4"/>
</radialGradient>
<linearGradient id="paint8_linear_1428_2983" x1="10.6" y1="18.8437" x2="10.3356" y2="20.4311" gradientUnits="userSpaceOnUse">
<stop stop-color="#52383E"/>
<stop offset="1" stop-color="#432A35"/>
</linearGradient>
<linearGradient id="paint9_linear_1428_2983" x1="24.1" y1="18.8437" x2="23.8356" y2="20.4311" gradientUnits="userSpaceOnUse">
<stop stop-color="#52383E"/>
<stop offset="1" stop-color="#432A35"/>
</linearGradient>
<radialGradient id="paint10_radial_1428_2983" cx="0" cy="0" r="1" gradientUnits="userSpaceOnUse" gradientTransform="translate(16 30.249) rotate(-90) scale(5.5)">
<stop stop-color="#F70A8D"/>
<stop offset="1" stop-color="#89029C"/>
</radialGradient>
<radialGradient id="paint11_radial_1428_2983" cx="0" cy="0" r="1" gradientUnits="userSpaceOnUse" gradientTransform="translate(16.5625 12.9375) rotate(-21.8014) scale(9.08747 6.48624)">
<stop stop-color="#EFA031"/>
<stop offset="1" stop-color="#F0A83E" stop-opacity="0"/>
</radialGradient>
<linearGradient id="paint12_linear_1428_2983" x1="25" y1="9.56253" x2="29.5" y2="7.31253" gradientUnits="userSpaceOnUse">
<stop stop-color="#2C80E2"/>
<stop offset="1" stop-color="#00A6ED"/>
</linearGradient>
<radialGradient id="paint13_radial_1428_2983" cx="0" cy="0" r="1" gradientUnits="userSpaceOnUse" gradientTransform="translate(30.625 8.43753) rotate(164.055) scale(4.09507 0.946098)">
<stop stop-color="#63BEFE"/>
<stop offset="1" stop-color="#63BEFE" stop-opacity="0"/>
</radialGradient>
<radialGradient id="paint14_radial_1428_2983" cx="0" cy="0" r="1" gradientUnits="userSpaceOnUse" gradientTransform="translate(29.5 2.81254) rotate(45) scale(1.59099)">
<stop stop-color="#63BEFE"/>
<stop offset="1" stop-color="#4FB5FC" stop-opacity="0"/>
</radialGradient>
</defs>
</svg>
