<svg width="35" height="33" viewBox="0 0 35 33" fill="none" xmlns="http://www.w3.org/2000/svg">
<path d="M17.4989 31.7477C27.9996 31.7477 33.2478 24.6963 33.2478 15.9978C33.2478 7.3015 27.9996 0.25 17.4978 0.25C6.99813 0.25 1.75001 7.3015 1.75001 15.9989C1.75001 24.6962 6.99701 31.7477 17.4989 31.7477Z" fill="url(#paint0_radial_1428_2741)"/>
<path d="M17.4989 31.7477C27.9996 31.7477 33.2478 24.6963 33.2478 15.9978C33.2478 7.3015 27.9996 0.25 17.4978 0.25C6.99813 0.25 1.75001 7.3015 1.75001 15.9989C1.75001 24.6962 6.99701 31.7477 17.4989 31.7477Z" fill="url(#paint1_radial_1428_2741)"/>
<path d="M17.4989 31.7477C27.9996 31.7477 33.2478 24.6963 33.2478 15.9978C33.2478 7.3015 27.9996 0.25 17.4978 0.25C6.99813 0.25 1.75001 7.3015 1.75001 15.9989C1.75001 24.6962 6.99701 31.7477 17.4989 31.7477Z" fill="url(#paint2_radial_1428_2741)"/>
<path d="M17.4989 31.7477C27.9996 31.7477 33.2478 24.6963 33.2478 15.9978C33.2478 7.3015 27.9996 0.25 17.4978 0.25C6.99813 0.25 1.75001 7.3015 1.75001 15.9989C1.75001 24.6962 6.99701 31.7477 17.4989 31.7477Z" fill="url(#paint3_radial_1428_2741)" fill-opacity="0.6"/>
<path d="M17.4989 31.7477C27.9996 31.7477 33.2478 24.6963 33.2478 15.9978C33.2478 7.3015 27.9996 0.25 17.4978 0.25C6.99813 0.25 1.75001 7.3015 1.75001 15.9989C1.75001 24.6962 6.99701 31.7477 17.4989 31.7477Z" fill="url(#paint4_radial_1428_2741)"/>
<path d="M17.4989 31.7477C27.9996 31.7477 33.2478 24.6963 33.2478 15.9978C33.2478 7.3015 27.9996 0.25 17.4978 0.25C6.99813 0.25 1.75001 7.3015 1.75001 15.9989C1.75001 24.6962 6.99701 31.7477 17.4989 31.7477Z" fill="url(#paint5_radial_1428_2741)"/>
<path d="M17.4989 31.7477C27.9996 31.7477 33.2478 24.6963 33.2478 15.9978C33.2478 7.3015 27.9996 0.25 17.4978 0.25C6.99813 0.25 1.75001 7.3015 1.75001 15.9989C1.75001 24.6962 6.99701 31.7477 17.4989 31.7477Z" fill="url(#paint6_radial_1428_2741)"/>
<path d="M17.4989 31.7477C27.9996 31.7477 33.2478 24.6963 33.2478 15.9978C33.2478 7.3015 27.9996 0.25 17.4978 0.25C6.99813 0.25 1.75001 7.3015 1.75001 15.9989C1.75001 24.6962 6.99701 31.7477 17.4989 31.7477Z" fill="url(#paint7_radial_1428_2741)"/>
<path d="M17.4989 31.7477C27.9996 31.7477 33.2478 24.6963 33.2478 15.9978C33.2478 7.3015 27.9996 0.25 17.4978 0.25C6.99813 0.25 1.75001 7.3015 1.75001 15.9989C1.75001 24.6962 6.99701 31.7477 17.4989 31.7477Z" fill="url(#paint8_radial_1428_2741)"/>
<path d="M28.7478 19.105C31.233 19.105 33.2478 17.0903 33.2478 14.605C33.2478 12.1197 31.233 10.105 28.7478 10.105C26.2625 10.105 24.2478 12.1197 24.2478 14.605C24.2478 17.0903 26.2625 19.105 28.7478 19.105Z" fill="url(#paint9_radial_1428_2741)"/>
<path d="M6.25001 19.105C8.73529 19.105 10.75 17.0903 10.75 14.605C10.75 12.1197 8.73529 10.105 6.25001 10.105C3.76473 10.105 1.75001 12.1197 1.75001 14.605C1.75001 17.0903 3.76473 19.105 6.25001 19.105Z" fill="url(#paint10_radial_1428_2741)"/>
<path d="M10.75 14.875C11.2326 15.775 13.1609 18.25 17.5 18.25C21.8391 18.25 23.7674 15.775 24.25 14.875" stroke="url(#paint11_radial_1428_2741)" stroke-width="2.25" stroke-linecap="round"/>
<g filter="url(#filter0_f_1428_2741)">
<path d="M20.8053 9.98804C20.8053 9.98804 21.4994 8.27579 23.2656 8.58179C25.555 8.97779 25.7271 11.2188 25.7271 11.2188" stroke="url(#paint12_radial_1428_2741)" stroke-width="2.25" stroke-linecap="round"/>
</g>
<g filter="url(#filter1_f_1428_2741)">
<path d="M8.85213 9.98804C8.85213 9.98804 9.54626 8.27579 11.3125 8.58179C13.6019 8.97779 13.774 11.2188 13.774 11.2188" stroke="url(#paint13_radial_1428_2741)" stroke-width="2.25" stroke-linecap="round"/>
</g>
<path d="M8.50001 10.375C8.50001 10.375 8.78126 8.125 11.3125 8.125C13.8438 8.125 14.125 10.375 14.125 10.375" stroke="url(#paint14_radial_1428_2741)" stroke-width="2.25" stroke-linecap="round"/>
<path d="M20.875 10.375C20.875 10.375 21.4375 8.125 23.6875 8.125C25.9375 8.125 26.5 10.375 26.5 10.375" stroke="url(#paint15_radial_1428_2741)" stroke-width="2.25" stroke-linecap="round"/>
<g filter="url(#filter2_i_1428_2741)">
<path d="M4.10464 19.7822C4.32047 19.5255 4.62938 19.3649 4.96351 19.3358C5.29764 19.3067 5.62965 19.4114 5.88664 19.627L9.23014 22.4316L8.94889 21.4224C8.89964 21.2547 8.88428 21.0789 8.90372 20.9052C8.92315 20.7315 8.97699 20.5634 9.06208 20.4108C9.14717 20.2581 9.26182 20.1239 9.39933 20.016C9.53684 19.9081 9.69447 19.8287 9.863 19.7824C10.0315 19.7361 10.2076 19.7238 10.3809 19.7462C10.5543 19.7687 10.7214 19.8255 10.8726 19.9132C11.0237 20.0009 11.1559 20.1179 11.2614 20.2573C11.3669 20.3966 11.4435 20.5556 11.4869 20.725L12.262 23.5813L13.2025 25.8448C13.2205 25.8868 13.2355 25.9288 13.2475 25.9708C13.5839 26.6177 13.7729 27.3557 13.7729 28.1387C13.7729 30.6992 11.7423 32.7737 9.23801 32.7737C8.13551 32.7737 7.12526 32.3732 6.34001 31.7049L1.29664 27.9958C1.09379 27.8468 0.938134 27.6426 0.848263 27.4075C0.758392 27.1724 0.73811 26.9164 0.789839 26.6701C0.841568 26.4238 0.96312 26.1976 1.13997 26.0186C1.31682 25.8395 1.54149 25.7151 1.78714 25.6603L1.30789 25.2587C1.11741 25.0987 0.975869 24.8882 0.899493 24.6514C0.823117 24.4146 0.814993 24.1611 0.876052 23.9199C0.93711 23.6788 1.06488 23.4597 1.24472 23.2878C1.42456 23.1158 1.6492 22.9981 1.89289 22.9479L1.74439 22.8242C1.60812 22.7134 1.49525 22.5766 1.41236 22.4218C1.32946 22.267 1.27819 22.0972 1.26153 21.9224C1.24487 21.7476 1.26316 21.5712 1.31532 21.4035C1.36749 21.2358 1.45249 21.0801 1.56538 20.9456C1.67827 20.8111 1.81679 20.7004 1.97288 20.6199C2.12897 20.5394 2.29951 20.4908 2.47458 20.4768C2.64964 20.4629 2.82573 20.4839 2.99259 20.5387C3.15945 20.5934 3.31375 20.6809 3.44651 20.7958L3.99326 21.2537C3.71876 20.8037 3.74576 20.2086 4.10464 19.7822Z" fill="url(#paint16_radial_1428_2741)"/>
<path d="M4.10464 19.7822C4.32047 19.5255 4.62938 19.3649 4.96351 19.3358C5.29764 19.3067 5.62965 19.4114 5.88664 19.627L9.23014 22.4316L8.94889 21.4224C8.89964 21.2547 8.88428 21.0789 8.90372 20.9052C8.92315 20.7315 8.97699 20.5634 9.06208 20.4108C9.14717 20.2581 9.26182 20.1239 9.39933 20.016C9.53684 19.9081 9.69447 19.8287 9.863 19.7824C10.0315 19.7361 10.2076 19.7238 10.3809 19.7462C10.5543 19.7687 10.7214 19.8255 10.8726 19.9132C11.0237 20.0009 11.1559 20.1179 11.2614 20.2573C11.3669 20.3966 11.4435 20.5556 11.4869 20.725L12.262 23.5813L13.2025 25.8448C13.2205 25.8868 13.2355 25.9288 13.2475 25.9708C13.5839 26.6177 13.7729 27.3557 13.7729 28.1387C13.7729 30.6992 11.7423 32.7737 9.23801 32.7737C8.13551 32.7737 7.12526 32.3732 6.34001 31.7049L1.29664 27.9958C1.09379 27.8468 0.938134 27.6426 0.848263 27.4075C0.758392 27.1724 0.73811 26.9164 0.789839 26.6701C0.841568 26.4238 0.96312 26.1976 1.13997 26.0186C1.31682 25.8395 1.54149 25.7151 1.78714 25.6603L1.30789 25.2587C1.11741 25.0987 0.975869 24.8882 0.899493 24.6514C0.823117 24.4146 0.814993 24.1611 0.876052 23.9199C0.93711 23.6788 1.06488 23.4597 1.24472 23.2878C1.42456 23.1158 1.6492 22.9981 1.89289 22.9479L1.74439 22.8242C1.60812 22.7134 1.49525 22.5766 1.41236 22.4218C1.32946 22.267 1.27819 22.0972 1.26153 21.9224C1.24487 21.7476 1.26316 21.5712 1.31532 21.4035C1.36749 21.2358 1.45249 21.0801 1.56538 20.9456C1.67827 20.8111 1.81679 20.7004 1.97288 20.6199C2.12897 20.5394 2.29951 20.4908 2.47458 20.4768C2.64964 20.4629 2.82573 20.4839 2.99259 20.5387C3.15945 20.5934 3.31375 20.6809 3.44651 20.7958L3.99326 21.2537C3.71876 20.8037 3.74576 20.2086 4.10464 19.7822Z" fill="url(#paint17_linear_1428_2741)"/>
<path d="M4.10464 19.7822C4.32047 19.5255 4.62938 19.3649 4.96351 19.3358C5.29764 19.3067 5.62965 19.4114 5.88664 19.627L9.23014 22.4316L8.94889 21.4224C8.89964 21.2547 8.88428 21.0789 8.90372 20.9052C8.92315 20.7315 8.97699 20.5634 9.06208 20.4108C9.14717 20.2581 9.26182 20.1239 9.39933 20.016C9.53684 19.9081 9.69447 19.8287 9.863 19.7824C10.0315 19.7361 10.2076 19.7238 10.3809 19.7462C10.5543 19.7687 10.7214 19.8255 10.8726 19.9132C11.0237 20.0009 11.1559 20.1179 11.2614 20.2573C11.3669 20.3966 11.4435 20.5556 11.4869 20.725L12.262 23.5813L13.2025 25.8448C13.2205 25.8868 13.2355 25.9288 13.2475 25.9708C13.5839 26.6177 13.7729 27.3557 13.7729 28.1387C13.7729 30.6992 11.7423 32.7737 9.23801 32.7737C8.13551 32.7737 7.12526 32.3732 6.34001 31.7049L1.29664 27.9958C1.09379 27.8468 0.938134 27.6426 0.848263 27.4075C0.758392 27.1724 0.73811 26.9164 0.789839 26.6701C0.841568 26.4238 0.96312 26.1976 1.13997 26.0186C1.31682 25.8395 1.54149 25.7151 1.78714 25.6603L1.30789 25.2587C1.11741 25.0987 0.975869 24.8882 0.899493 24.6514C0.823117 24.4146 0.814993 24.1611 0.876052 23.9199C0.93711 23.6788 1.06488 23.4597 1.24472 23.2878C1.42456 23.1158 1.6492 22.9981 1.89289 22.9479L1.74439 22.8242C1.60812 22.7134 1.49525 22.5766 1.41236 22.4218C1.32946 22.267 1.27819 22.0972 1.26153 21.9224C1.24487 21.7476 1.26316 21.5712 1.31532 21.4035C1.36749 21.2358 1.45249 21.0801 1.56538 20.9456C1.67827 20.8111 1.81679 20.7004 1.97288 20.6199C2.12897 20.5394 2.29951 20.4908 2.47458 20.4768C2.64964 20.4629 2.82573 20.4839 2.99259 20.5387C3.15945 20.5934 3.31375 20.6809 3.44651 20.7958L3.99326 21.2537C3.71876 20.8037 3.74576 20.2086 4.10464 19.7822Z" fill="url(#paint18_linear_1428_2741)"/>
<path d="M4.10464 19.7822C4.32047 19.5255 4.62938 19.3649 4.96351 19.3358C5.29764 19.3067 5.62965 19.4114 5.88664 19.627L9.23014 22.4316L8.94889 21.4224C8.89964 21.2547 8.88428 21.0789 8.90372 20.9052C8.92315 20.7315 8.97699 20.5634 9.06208 20.4108C9.14717 20.2581 9.26182 20.1239 9.39933 20.016C9.53684 19.9081 9.69447 19.8287 9.863 19.7824C10.0315 19.7361 10.2076 19.7238 10.3809 19.7462C10.5543 19.7687 10.7214 19.8255 10.8726 19.9132C11.0237 20.0009 11.1559 20.1179 11.2614 20.2573C11.3669 20.3966 11.4435 20.5556 11.4869 20.725L12.262 23.5813L13.2025 25.8448C13.2205 25.8868 13.2355 25.9288 13.2475 25.9708C13.5839 26.6177 13.7729 27.3557 13.7729 28.1387C13.7729 30.6992 11.7423 32.7737 9.23801 32.7737C8.13551 32.7737 7.12526 32.3732 6.34001 31.7049L1.29664 27.9958C1.09379 27.8468 0.938134 27.6426 0.848263 27.4075C0.758392 27.1724 0.73811 26.9164 0.789839 26.6701C0.841568 26.4238 0.96312 26.1976 1.13997 26.0186C1.31682 25.8395 1.54149 25.7151 1.78714 25.6603L1.30789 25.2587C1.11741 25.0987 0.975869 24.8882 0.899493 24.6514C0.823117 24.4146 0.814993 24.1611 0.876052 23.9199C0.93711 23.6788 1.06488 23.4597 1.24472 23.2878C1.42456 23.1158 1.6492 22.9981 1.89289 22.9479L1.74439 22.8242C1.60812 22.7134 1.49525 22.5766 1.41236 22.4218C1.32946 22.267 1.27819 22.0972 1.26153 21.9224C1.24487 21.7476 1.26316 21.5712 1.31532 21.4035C1.36749 21.2358 1.45249 21.0801 1.56538 20.9456C1.67827 20.8111 1.81679 20.7004 1.97288 20.6199C2.12897 20.5394 2.29951 20.4908 2.47458 20.4768C2.64964 20.4629 2.82573 20.4839 2.99259 20.5387C3.15945 20.5934 3.31375 20.6809 3.44651 20.7958L3.99326 21.2537C3.71876 20.8037 3.74576 20.2086 4.10464 19.7822Z" fill="url(#paint19_radial_1428_2741)"/>
</g>
<path d="M2.89975 25.8596C2.61496 25.6521 2.25939 25.5662 1.91128 25.6208C1.56316 25.6755 1.25101 25.8662 1.0435 26.1509C0.835983 26.4357 0.7501 26.7913 0.804743 27.1394C0.859387 27.4875 1.05008 27.7997 1.33487 28.0072L1.93787 28.4482C2.31378 28.7246 2.77243 28.8651 3.23866 28.8467C3.70489 28.8283 4.15104 28.6521 4.504 28.3469L5.341 27.6247L2.89975 25.8596Z" fill="url(#paint20_linear_1428_2741)"/>
<path d="M6.42551 26.3185C6.18026 26.4592 5.32526 26.7832 5.12501 27.0217C4.65476 27.5819 4.39376 27.7405 3.83238 27.2703L1.43613 25.2588C1.16703 25.0332 0.998541 24.71 0.967739 24.3602C0.936937 24.0104 1.04634 23.6627 1.27188 23.3935C1.75338 22.8198 2.38563 22.813 2.95038 23.3035L6.42551 26.3185Z" fill="url(#paint21_linear_1428_2741)"/>
<path d="M7.79689 24.7537C7.37501 24.9821 7.09376 25.2464 6.65389 25.6154C6.18476 26.1757 5.89563 26.4232 5.33538 25.9529L1.76688 22.8243C1.63062 22.7135 1.51775 22.5767 1.43486 22.4219C1.35196 22.2671 1.30069 22.0973 1.28403 21.9225C1.26737 21.7477 1.28566 21.5713 1.33782 21.4036C1.38999 21.2359 1.47499 21.0803 1.58788 20.9457C1.70077 20.8112 1.83929 20.7005 1.99538 20.62C2.15147 20.5395 2.32201 20.4909 2.49708 20.477C2.67214 20.463 2.84823 20.484 3.01509 20.5388C3.18195 20.5936 3.33625 20.681 3.46901 20.7959L4.01576 21.2538C4.08551 21.3693 4.17476 21.4728 4.28351 21.5643L7.79689 24.7537Z" fill="url(#paint22_linear_1428_2741)"/>
<path d="M5.84726 19.5743C5.7233 19.4701 5.57928 19.3924 5.4241 19.3462C5.26892 19.2999 5.1059 19.2859 4.94511 19.3051C4.78433 19.3244 4.6292 19.3764 4.48933 19.458C4.34946 19.5396 4.22783 19.6491 4.13196 19.7796C4.03608 19.9101 3.96801 20.0589 3.93196 20.2167C3.8959 20.3746 3.89262 20.5382 3.92233 20.6974C3.95204 20.8566 4.0141 21.008 4.10467 21.1422C4.19524 21.2764 4.31239 21.3907 4.44888 21.4778L9.87138 24.9473L9.25263 22.4307L5.84726 19.5743Z" fill="url(#paint23_radial_1428_2741)"/>
<g filter="url(#filter3_f_1428_2741)">
<path d="M5.34101 20.355L8.78689 23.343" stroke="url(#paint24_linear_1428_2741)" stroke-width="1.125" stroke-linecap="round"/>
</g>
<g filter="url(#filter4_f_1428_2741)">
<path d="M2.82325 21.48L6.268 24.468" stroke="url(#paint25_linear_1428_2741)" stroke-width="1.125" stroke-linecap="round"/>
</g>
<g filter="url(#filter5_f_1428_2741)">
<path d="M2.24276 23.7649L5.68863 26.7529" stroke="url(#paint26_linear_1428_2741)" stroke-width="1.125" stroke-linecap="round"/>
</g>
<g filter="url(#filter6_f_1428_2741)">
<path d="M2.24276 26.4062L4.80776 28.2873" stroke="url(#paint27_linear_1428_2741)" stroke-width="1.125" stroke-linecap="round"/>
</g>
<g filter="url(#filter7_i_1428_2741)">
<path d="M30.9134 19.7946C30.8066 19.6673 30.6757 19.5622 30.5283 19.4854C30.3809 19.4086 30.2198 19.3616 30.0542 19.3471C29.8886 19.3326 29.7218 19.3508 29.5633 19.4008C29.4047 19.4507 29.2576 19.5314 29.1303 19.6383L25.7868 22.444L26.068 21.4349C26.1173 21.2672 26.1326 21.0914 26.1132 20.9177C26.0937 20.744 26.0399 20.5759 25.9548 20.4232C25.8697 20.2705 25.7551 20.1363 25.6176 20.0284C25.4801 19.9206 25.3224 19.8411 25.1539 19.7948C24.9854 19.7485 24.8093 19.7362 24.636 19.7587C24.4626 19.7811 24.2955 19.8379 24.1443 19.9256C23.9932 20.0134 23.861 20.1303 23.7555 20.2697C23.65 20.4091 23.5734 20.5681 23.53 20.7374L22.756 23.5938L21.8144 25.8573C21.7969 25.8987 21.7818 25.9412 21.7694 25.9844C21.4239 26.6544 21.2438 27.3973 21.244 28.1511C21.244 30.7116 23.2746 32.7861 25.78 32.7861C26.8825 32.7861 27.8928 32.3856 28.678 31.7174L33.7214 28.0083C33.9242 27.8593 34.0799 27.655 34.1698 27.42C34.2596 27.1849 34.2799 26.9289 34.2282 26.6826C34.1765 26.4363 34.0549 26.2101 33.878 26.031C33.7012 25.8519 33.4765 25.7276 33.2309 25.6728L33.7101 25.2711C33.9006 25.1111 34.0422 24.9006 34.1185 24.6639C34.1949 24.4271 34.203 24.1736 34.142 23.9324C34.0809 23.6912 33.9531 23.4721 33.7733 23.3002C33.5935 23.1283 33.3688 23.0105 33.1251 22.9604L33.2725 22.8366C33.5353 22.6091 33.698 22.2873 33.7256 21.9408C33.7532 21.5943 33.6434 21.2508 33.42 20.9845C33.1965 20.7182 32.8773 20.5505 32.5313 20.5175C32.1852 20.4845 31.8401 20.589 31.5704 20.8083L31.0248 21.2661C31.2993 20.8161 31.2723 20.221 30.9134 19.7946Z" fill="url(#paint28_radial_1428_2741)"/>
<path d="M30.9134 19.7946C30.8066 19.6673 30.6757 19.5622 30.5283 19.4854C30.3809 19.4086 30.2198 19.3616 30.0542 19.3471C29.8886 19.3326 29.7218 19.3508 29.5633 19.4008C29.4047 19.4507 29.2576 19.5314 29.1303 19.6383L25.7868 22.444L26.068 21.4349C26.1173 21.2672 26.1326 21.0914 26.1132 20.9177C26.0937 20.744 26.0399 20.5759 25.9548 20.4232C25.8697 20.2705 25.7551 20.1363 25.6176 20.0284C25.4801 19.9206 25.3224 19.8411 25.1539 19.7948C24.9854 19.7485 24.8093 19.7362 24.636 19.7587C24.4626 19.7811 24.2955 19.8379 24.1443 19.9256C23.9932 20.0134 23.861 20.1303 23.7555 20.2697C23.65 20.4091 23.5734 20.5681 23.53 20.7374L22.756 23.5938L21.8144 25.8573C21.7969 25.8987 21.7818 25.9412 21.7694 25.9844C21.4239 26.6544 21.2438 27.3973 21.244 28.1511C21.244 30.7116 23.2746 32.7861 25.78 32.7861C26.8825 32.7861 27.8928 32.3856 28.678 31.7174L33.7214 28.0083C33.9242 27.8593 34.0799 27.655 34.1698 27.42C34.2596 27.1849 34.2799 26.9289 34.2282 26.6826C34.1765 26.4363 34.0549 26.2101 33.878 26.031C33.7012 25.8519 33.4765 25.7276 33.2309 25.6728L33.7101 25.2711C33.9006 25.1111 34.0422 24.9006 34.1185 24.6639C34.1949 24.4271 34.203 24.1736 34.142 23.9324C34.0809 23.6912 33.9531 23.4721 33.7733 23.3002C33.5935 23.1283 33.3688 23.0105 33.1251 22.9604L33.2725 22.8366C33.5353 22.6091 33.698 22.2873 33.7256 21.9408C33.7532 21.5943 33.6434 21.2508 33.42 20.9845C33.1965 20.7182 32.8773 20.5505 32.5313 20.5175C32.1852 20.4845 31.8401 20.589 31.5704 20.8083L31.0248 21.2661C31.2993 20.8161 31.2723 20.221 30.9134 19.7946Z" fill="url(#paint29_linear_1428_2741)"/>
<path d="M30.9134 19.7946C30.8066 19.6673 30.6757 19.5622 30.5283 19.4854C30.3809 19.4086 30.2198 19.3616 30.0542 19.3471C29.8886 19.3326 29.7218 19.3508 29.5633 19.4008C29.4047 19.4507 29.2576 19.5314 29.1303 19.6383L25.7868 22.444L26.068 21.4349C26.1173 21.2672 26.1326 21.0914 26.1132 20.9177C26.0937 20.744 26.0399 20.5759 25.9548 20.4232C25.8697 20.2705 25.7551 20.1363 25.6176 20.0284C25.4801 19.9206 25.3224 19.8411 25.1539 19.7948C24.9854 19.7485 24.8093 19.7362 24.636 19.7587C24.4626 19.7811 24.2955 19.8379 24.1443 19.9256C23.9932 20.0134 23.861 20.1303 23.7555 20.2697C23.65 20.4091 23.5734 20.5681 23.53 20.7374L22.756 23.5938L21.8144 25.8573C21.7969 25.8987 21.7818 25.9412 21.7694 25.9844C21.4239 26.6544 21.2438 27.3973 21.244 28.1511C21.244 30.7116 23.2746 32.7861 25.78 32.7861C26.8825 32.7861 27.8928 32.3856 28.678 31.7174L33.7214 28.0083C33.9242 27.8593 34.0799 27.655 34.1698 27.42C34.2596 27.1849 34.2799 26.9289 34.2282 26.6826C34.1765 26.4363 34.0549 26.2101 33.878 26.031C33.7012 25.8519 33.4765 25.7276 33.2309 25.6728L33.7101 25.2711C33.9006 25.1111 34.0422 24.9006 34.1185 24.6639C34.1949 24.4271 34.203 24.1736 34.142 23.9324C34.0809 23.6912 33.9531 23.4721 33.7733 23.3002C33.5935 23.1283 33.3688 23.0105 33.1251 22.9604L33.2725 22.8366C33.5353 22.6091 33.698 22.2873 33.7256 21.9408C33.7532 21.5943 33.6434 21.2508 33.42 20.9845C33.1965 20.7182 32.8773 20.5505 32.5313 20.5175C32.1852 20.4845 31.8401 20.589 31.5704 20.8083L31.0248 21.2661C31.2993 20.8161 31.2723 20.221 30.9134 19.7946Z" fill="url(#paint30_linear_1428_2741)"/>
<path d="M30.9134 19.7946C30.8066 19.6673 30.6757 19.5622 30.5283 19.4854C30.3809 19.4086 30.2198 19.3616 30.0542 19.3471C29.8886 19.3326 29.7218 19.3508 29.5633 19.4008C29.4047 19.4507 29.2576 19.5314 29.1303 19.6383L25.7868 22.444L26.068 21.4349C26.1173 21.2672 26.1326 21.0914 26.1132 20.9177C26.0937 20.744 26.0399 20.5759 25.9548 20.4232C25.8697 20.2705 25.7551 20.1363 25.6176 20.0284C25.4801 19.9206 25.3224 19.8411 25.1539 19.7948C24.9854 19.7485 24.8093 19.7362 24.636 19.7587C24.4626 19.7811 24.2955 19.8379 24.1443 19.9256C23.9932 20.0134 23.861 20.1303 23.7555 20.2697C23.65 20.4091 23.5734 20.5681 23.53 20.7374L22.756 23.5938L21.8144 25.8573C21.7969 25.8987 21.7818 25.9412 21.7694 25.9844C21.4239 26.6544 21.2438 27.3973 21.244 28.1511C21.244 30.7116 23.2746 32.7861 25.78 32.7861C26.8825 32.7861 27.8928 32.3856 28.678 31.7174L33.7214 28.0083C33.9242 27.8593 34.0799 27.655 34.1698 27.42C34.2596 27.1849 34.2799 26.9289 34.2282 26.6826C34.1765 26.4363 34.0549 26.2101 33.878 26.031C33.7012 25.8519 33.4765 25.7276 33.2309 25.6728L33.7101 25.2711C33.9006 25.1111 34.0422 24.9006 34.1185 24.6639C34.1949 24.4271 34.203 24.1736 34.142 23.9324C34.0809 23.6912 33.9531 23.4721 33.7733 23.3002C33.5935 23.1283 33.3688 23.0105 33.1251 22.9604L33.2725 22.8366C33.5353 22.6091 33.698 22.2873 33.7256 21.9408C33.7532 21.5943 33.6434 21.2508 33.42 20.9845C33.1965 20.7182 32.8773 20.5505 32.5313 20.5175C32.1852 20.4845 31.8401 20.589 31.5704 20.8083L31.0248 21.2661C31.2993 20.8161 31.2723 20.221 30.9134 19.7946Z" fill="url(#paint31_radial_1428_2741)"/>
</g>
<path d="M32.1194 25.8572C32.4039 25.6508 32.7587 25.5658 33.1059 25.6209C33.4531 25.6761 33.7641 25.8669 33.9706 26.1514C34.1771 26.4359 34.2621 26.7908 34.2069 27.1379C34.1517 27.4851 33.9609 27.7961 33.6764 28.0026L32.9676 28.519C32.7169 28.7013 32.4302 28.828 32.1266 28.8906C31.823 28.9533 31.5096 28.9504 31.2071 28.8823C30.9047 28.8141 30.6204 28.6822 30.373 28.4954C30.1256 28.3086 29.9209 28.0712 29.7726 27.799L29.677 27.6246L32.1194 25.8572Z" fill="url(#paint32_linear_1428_2741)"/>
<path d="M28.8513 26.1451C28.489 26.459 28.7905 27.0328 28.9896 27.2701C29.4599 27.8304 30.6243 27.7404 31.1845 27.2701L33.5819 25.2586C34.1421 24.7884 34.3109 23.9469 33.8406 23.3866C33.3366 22.7859 32.6178 22.8298 32.0283 23.3484L28.8513 26.1451Z" fill="url(#paint33_linear_1428_2741)"/>
<path d="M27.8163 24.1136C27.2515 24.5962 27.4394 25.3398 27.8163 25.7898C28.2865 26.3501 29.1213 26.4232 29.6815 25.9529L33.25 22.8243C33.3863 22.7135 33.4991 22.5767 33.582 22.4219C33.6649 22.2671 33.7162 22.0973 33.7329 21.9225C33.7495 21.7477 33.7312 21.5713 33.6791 21.4036C33.6269 21.2359 33.5419 21.0803 33.429 20.9457C33.3161 20.8112 33.1776 20.7005 33.0215 20.62C32.8654 20.5395 32.6949 20.4909 32.5198 20.477C32.3448 20.463 32.1687 20.484 32.0018 20.5388C31.8349 20.5936 31.6806 20.681 31.5479 20.7959L31.0023 21.2538C30.9309 21.3715 30.8404 21.4764 30.7345 21.5643L27.8163 24.1136Z" fill="url(#paint34_linear_1428_2741)"/>
<path d="M29.0988 19.6336C29.3571 19.4198 29.6891 19.3161 30.0232 19.3448C30.3573 19.3735 30.6667 19.5324 30.8847 19.7872C31.1027 20.0419 31.2119 20.3722 31.1886 20.7067C31.1654 21.0412 31.0116 21.3532 30.7604 21.5754L28.3 23.723C27.2583 24.632 25.6405 23.8074 25.7643 22.4293L29.0988 19.6336Z" fill="url(#paint35_linear_1428_2741)"/>
<g filter="url(#filter8_f_1428_2741)">
<path d="M24.7441 21.3628C25.1274 21.6212 25.6253 21.5529 25.8563 21.2103C26.0872 20.8677 25.9636 20.3805 25.5803 20.1221C25.197 19.8637 24.699 19.932 24.4681 20.2747C24.2372 20.6173 24.3607 21.1045 24.7441 21.3628Z" fill="url(#paint36_radial_1428_2741)"/>
</g>
<g filter="url(#filter9_f_1428_2741)">
<path d="M29.3996 20.8325C29.6097 21.2816 30.13 21.4819 30.5616 21.2799C30.9932 21.078 31.1728 20.5502 30.9627 20.1011C30.7525 19.652 30.2323 19.4517 29.8006 19.6537C29.369 19.8556 29.1894 20.3834 29.3996 20.8325Z" fill="url(#paint37_radial_1428_2741)"/>
</g>
<g filter="url(#filter10_f_1428_2741)">
<path d="M32.2793 22.0379C32.4894 22.487 32.9476 22.7163 33.3027 22.5502C33.6578 22.384 33.7754 21.8853 33.5652 21.4362C33.3551 20.9871 32.8969 20.7577 32.5418 20.9239C32.1867 21.0901 32.0692 21.5888 32.2793 22.0379Z" fill="url(#paint38_radial_1428_2741)"/>
</g>
<g filter="url(#filter11_f_1428_2741)">
<path d="M32.6948 24.483C32.9049 24.932 33.3632 25.1614 33.7183 24.9952C34.0734 24.8291 34.1909 24.3303 33.9807 23.8812C33.7706 23.4322 33.3124 23.2028 32.9573 23.369C32.6022 23.5351 32.4847 24.0339 32.6948 24.483Z" fill="url(#paint39_radial_1428_2741)"/>
</g>
<g filter="url(#filter12_f_1428_2741)">
<path d="M32.8174 27.2078C33.0276 27.6569 33.4858 27.8863 33.8409 27.7201C34.196 27.5539 34.3135 27.0552 34.1034 26.6061C33.8932 26.157 33.435 25.9277 33.0799 26.0938C32.7248 26.26 32.6073 26.7587 32.8174 27.2078Z" fill="url(#paint40_radial_1428_2741)"/>
</g>
<g filter="url(#filter13_f_1428_2741)">
<path d="M25.483 24.0156C27.4866 24.8594 29.1393 26.9339 29.1393 29.0084" stroke="#FFEA6E" stroke-opacity="0.6" stroke-width="1.125" stroke-linecap="round"/>
</g>
<defs>
<filter id="filter0_f_1428_2741" x="19.1175" y="6.85718" width="8.29723" height="6.04919" filterUnits="userSpaceOnUse" color-interpolation-filters="sRGB">
<feFlood flood-opacity="0" result="BackgroundImageFix"/>
<feBlend mode="normal" in="SourceGraphic" in2="BackgroundImageFix" result="shape"/>
<feGaussianBlur stdDeviation="0.28125" result="effect1_foregroundBlur_1428_2741"/>
</filter>
<filter id="filter1_f_1428_2741" x="7.16434" y="6.85718" width="8.29723" height="6.04919" filterUnits="userSpaceOnUse" color-interpolation-filters="sRGB">
<feFlood flood-opacity="0" result="BackgroundImageFix"/>
<feBlend mode="normal" in="SourceGraphic" in2="BackgroundImageFix" result="shape"/>
<feGaussianBlur stdDeviation="0.28125" result="effect1_foregroundBlur_1428_2741"/>
</filter>
<filter id="filter2_i_1428_2741" x="0.761856" y="17.0811" width="15.261" height="15.6926" filterUnits="userSpaceOnUse" color-interpolation-filters="sRGB">
<feFlood flood-opacity="0" result="BackgroundImageFix"/>
<feBlend mode="normal" in="SourceGraphic" in2="BackgroundImageFix" result="shape"/>
<feColorMatrix in="SourceAlpha" type="matrix" values="0 0 0 0 0 0 0 0 0 0 0 0 0 0 0 0 0 0 127 0" result="hardAlpha"/>
<feOffset dx="2.25" dy="-2.25"/>
<feGaussianBlur stdDeviation="2.25"/>
<feComposite in2="hardAlpha" operator="arithmetic" k2="-1" k3="1"/>
<feColorMatrix type="matrix" values="0 0 0 0 0 0 0 0 0 0 0 0 0 0 0 0 0 0 0.08 0"/>
<feBlend mode="normal" in2="shape" result="effect1_innerShadow_1428_2741"/>
</filter>
<filter id="filter3_f_1428_2741" x="3.6535" y="18.6675" width="6.82089" height="6.36304" filterUnits="userSpaceOnUse" color-interpolation-filters="sRGB">
<feFlood flood-opacity="0" result="BackgroundImageFix"/>
<feBlend mode="normal" in="SourceGraphic" in2="BackgroundImageFix" result="shape"/>
<feGaussianBlur stdDeviation="0.5625" result="effect1_foregroundBlur_1428_2741"/>
</filter>
<filter id="filter4_f_1428_2741" x="1.13574" y="19.7925" width="6.81976" height="6.36304" filterUnits="userSpaceOnUse" color-interpolation-filters="sRGB">
<feFlood flood-opacity="0" result="BackgroundImageFix"/>
<feBlend mode="normal" in="SourceGraphic" in2="BackgroundImageFix" result="shape"/>
<feGaussianBlur stdDeviation="0.5625" result="effect1_foregroundBlur_1428_2741"/>
</filter>
<filter id="filter5_f_1428_2741" x="0.555252" y="22.0774" width="6.82089" height="6.36304" filterUnits="userSpaceOnUse" color-interpolation-filters="sRGB">
<feFlood flood-opacity="0" result="BackgroundImageFix"/>
<feBlend mode="normal" in="SourceGraphic" in2="BackgroundImageFix" result="shape"/>
<feGaussianBlur stdDeviation="0.5625" result="effect1_foregroundBlur_1428_2741"/>
</filter>
<filter id="filter6_f_1428_2741" x="0.555222" y="24.7188" width="5.94008" height="5.25598" filterUnits="userSpaceOnUse" color-interpolation-filters="sRGB">
<feFlood flood-opacity="0" result="BackgroundImageFix"/>
<feBlend mode="normal" in="SourceGraphic" in2="BackgroundImageFix" result="shape"/>
<feGaussianBlur stdDeviation="0.5625" result="effect1_foregroundBlur_1428_2741"/>
</filter>
<filter id="filter7_i_1428_2741" x="21.244" y="17.0923" width="15.2622" height="15.6938" filterUnits="userSpaceOnUse" color-interpolation-filters="sRGB">
<feFlood flood-opacity="0" result="BackgroundImageFix"/>
<feBlend mode="normal" in="SourceGraphic" in2="BackgroundImageFix" result="shape"/>
<feColorMatrix in="SourceAlpha" type="matrix" values="0 0 0 0 0 0 0 0 0 0 0 0 0 0 0 0 0 0 127 0" result="hardAlpha"/>
<feOffset dx="2.25" dy="-2.25"/>
<feGaussianBlur stdDeviation="2.25"/>
<feComposite in2="hardAlpha" operator="arithmetic" k2="-1" k3="1"/>
<feColorMatrix type="matrix" values="0 0 0 0 0 0 0 0 0 0 0 0 0 0 0 0 0 0 0.08 0"/>
<feBlend mode="normal" in2="shape" result="effect1_innerShadow_1428_2741"/>
</filter>
<filter id="filter8_f_1428_2741" x="23.7893" y="19.403" width="2.74581" height="2.67908" filterUnits="userSpaceOnUse" color-interpolation-filters="sRGB">
<feFlood flood-opacity="0" result="BackgroundImageFix"/>
<feBlend mode="normal" in="SourceGraphic" in2="BackgroundImageFix" result="shape"/>
<feGaussianBlur stdDeviation="0.28125" result="effect1_foregroundBlur_1428_2741"/>
</filter>
<filter id="filter9_f_1428_2741" x="28.7492" y="19.0125" width="2.86388" height="2.90869" filterUnits="userSpaceOnUse" color-interpolation-filters="sRGB">
<feFlood flood-opacity="0" result="BackgroundImageFix"/>
<feBlend mode="normal" in="SourceGraphic" in2="BackgroundImageFix" result="shape"/>
<feGaussianBlur stdDeviation="0.28125" result="effect1_foregroundBlur_1428_2741"/>
</filter>
<filter id="filter10_f_1428_2741" x="31.6125" y="20.3073" width="2.61946" height="2.8595" filterUnits="userSpaceOnUse" color-interpolation-filters="sRGB">
<feFlood flood-opacity="0" result="BackgroundImageFix"/>
<feBlend mode="normal" in="SourceGraphic" in2="BackgroundImageFix" result="shape"/>
<feGaussianBlur stdDeviation="0.28125" result="effect1_foregroundBlur_1428_2741"/>
</filter>
<filter id="filter11_f_1428_2741" x="32.028" y="22.7523" width="2.61945" height="2.8595" filterUnits="userSpaceOnUse" color-interpolation-filters="sRGB">
<feFlood flood-opacity="0" result="BackgroundImageFix"/>
<feBlend mode="normal" in="SourceGraphic" in2="BackgroundImageFix" result="shape"/>
<feGaussianBlur stdDeviation="0.28125" result="effect1_foregroundBlur_1428_2741"/>
</filter>
<filter id="filter12_f_1428_2741" x="32.1507" y="25.4772" width="2.61946" height="2.8595" filterUnits="userSpaceOnUse" color-interpolation-filters="sRGB">
<feFlood flood-opacity="0" result="BackgroundImageFix"/>
<feBlend mode="normal" in="SourceGraphic" in2="BackgroundImageFix" result="shape"/>
<feGaussianBlur stdDeviation="0.28125" result="effect1_foregroundBlur_1428_2741"/>
</filter>
<filter id="filter13_f_1428_2741" x="23.2329" y="21.7655" width="8.15639" height="9.49292" filterUnits="userSpaceOnUse" color-interpolation-filters="sRGB">
<feFlood flood-opacity="0" result="BackgroundImageFix"/>
<feBlend mode="normal" in="SourceGraphic" in2="BackgroundImageFix" result="shape"/>
<feGaussianBlur stdDeviation="0.84375" result="effect1_foregroundBlur_1428_2741"/>
</filter>
<radialGradient id="paint0_radial_1428_2741" cx="0" cy="0" r="1" gradientUnits="userSpaceOnUse" gradientTransform="translate(28.1877 8.12453) rotate(132.839) scale(42.1912)">
<stop stop-color="#FFF478"/>
<stop offset="0.475" stop-color="#FFB02E"/>
<stop offset="1" stop-color="#F70A8D"/>
</radialGradient>
<radialGradient id="paint1_radial_1428_2741" cx="0" cy="0" r="1" gradientUnits="userSpaceOnUse" gradientTransform="translate(28.1862 8.12572) rotate(131.878) scale(43.8173)">
<stop stop-color="#FFF478"/>
<stop offset="0.475" stop-color="#FFB02E"/>
<stop offset="1" stop-color="#F70A8D"/>
</radialGradient>
<radialGradient id="paint2_radial_1428_2741" cx="0" cy="0" r="1" gradientUnits="userSpaceOnUse" gradientTransform="translate(17.4992 12.0622) rotate(101.31) scale(20.0774 25.7154)">
<stop offset="0.788" stop-color="#F59639" stop-opacity="0"/>
<stop offset="0.973" stop-color="#FF7DCE"/>
</radialGradient>
<radialGradient id="paint3_radial_1428_2741" cx="0" cy="0" r="1" gradientUnits="userSpaceOnUse" gradientTransform="translate(19.75 13.75) rotate(135) scale(46.1387)">
<stop offset="0.315" stop-opacity="0"/>
<stop offset="1"/>
</radialGradient>
<radialGradient id="paint4_radial_1428_2741" cx="0" cy="0" r="1" gradientUnits="userSpaceOnUse" gradientTransform="translate(17.5 17.1259) rotate(77.692) scale(31.6653)">
<stop offset="0.508" stop-color="#7D6133" stop-opacity="0"/>
<stop offset="1" stop-color="#715B32"/>
</radialGradient>
<radialGradient id="paint5_radial_1428_2741" cx="0" cy="0" r="1" gradientUnits="userSpaceOnUse" gradientTransform="translate(18.0625 16.5625) rotate(55.713) scale(14.9777 10.8566)">
<stop stop-color="#FFB849"/>
<stop offset="1" stop-color="#FFB847" stop-opacity="0"/>
</radialGradient>
<radialGradient id="paint6_radial_1428_2741" cx="0" cy="0" r="1" gradientUnits="userSpaceOnUse" gradientTransform="translate(22.5625 18.25) rotate(9.86582) scale(13.1317)">
<stop stop-color="#FFA64B"/>
<stop offset="0.9" stop-color="#FFAE46" stop-opacity="0"/>
</radialGradient>
<radialGradient id="paint7_radial_1428_2741" cx="0" cy="0" r="1" gradientUnits="userSpaceOnUse" gradientTransform="translate(19.1876 14.8753) rotate(43.971) scale(66.4345)">
<stop offset="0.185" stop-opacity="0"/>
<stop offset="1" stop-opacity="0.4"/>
</radialGradient>
<radialGradient id="paint8_radial_1428_2741" cx="0" cy="0" r="1" gradientUnits="userSpaceOnUse" gradientTransform="translate(21.1562 -7.13364) rotate(96.176) scale(37.9075)">
<stop offset="0.641" stop-color="#F59639" stop-opacity="0"/>
<stop offset="1" stop-color="#F68354"/>
</radialGradient>
<radialGradient id="paint9_radial_1428_2741" cx="0" cy="0" r="1" gradientUnits="userSpaceOnUse" gradientTransform="translate(28.7483 14.8178) rotate(89.995) scale(4.41233)">
<stop stop-color="#FF63C4" stop-opacity="0.5"/>
<stop offset="1" stop-color="#F59639" stop-opacity="0"/>
</radialGradient>
<radialGradient id="paint10_radial_1428_2741" cx="0" cy="0" r="1" gradientUnits="userSpaceOnUse" gradientTransform="translate(6.25045 14.8177) rotate(89.995) scale(4.41233)">
<stop stop-color="#E840A8" stop-opacity="0.5"/>
<stop offset="1" stop-color="#F59639" stop-opacity="0"/>
</radialGradient>
<radialGradient id="paint11_radial_1428_2741" cx="0" cy="0" r="1" gradientUnits="userSpaceOnUse" gradientTransform="translate(17.5 12.175) rotate(90) scale(8.1 8.85588)">
<stop offset="0.518" stop-color="#4E2553"/>
<stop offset="0.703" stop-color="#5B4852"/>
<stop offset="1" stop-color="#4E2553"/>
</radialGradient>
<radialGradient id="paint12_radial_1428_2741" cx="0" cy="0" r="1" gradientUnits="userSpaceOnUse" gradientTransform="translate(24.8125 9.32091) rotate(124.912) scale(4.11569 7.38851)">
<stop stop-color="#CA7A1B"/>
<stop offset="0.634" stop-color="#CA7A1B" stop-opacity="0"/>
</radialGradient>
<radialGradient id="paint13_radial_1428_2741" cx="0" cy="0" r="1" gradientUnits="userSpaceOnUse" gradientTransform="translate(12.8586 9.32095) rotate(124.912) scale(4.11569 7.38851)">
<stop stop-color="#CA7A1B"/>
<stop offset="0.634" stop-color="#CA7A1B" stop-opacity="0"/>
</radialGradient>
<radialGradient id="paint14_radial_1428_2741" cx="0" cy="0" r="1" gradientUnits="userSpaceOnUse" gradientTransform="translate(11.3125 10.5865) rotate(-91.3479) scale(8.96732 11.0561)">
<stop offset="0.167" stop-color="#482641"/>
<stop offset="0.276" stop-color="#503A4A"/>
<stop offset="0.401" stop-color="#483637"/>
</radialGradient>
<radialGradient id="paint15_radial_1428_2741" cx="0" cy="0" r="1" gradientUnits="userSpaceOnUse" gradientTransform="translate(23.6875 10.5865) rotate(-91.3479) scale(8.96732 11.0561)">
<stop offset="0.167" stop-color="#482641"/>
<stop offset="0.276" stop-color="#503A4A"/>
<stop offset="0.401" stop-color="#483637"/>
</radialGradient>
<radialGradient id="paint16_radial_1428_2741" cx="0" cy="0" r="1" gradientUnits="userSpaceOnUse" gradientTransform="translate(-1.31449 18.6471) rotate(42.3946) scale(31.3088 31.2149)">
<stop offset="0.25" stop-color="#F9AF20"/>
<stop offset="0.641" stop-color="#FFC83C"/>
</radialGradient>
<linearGradient id="paint17_linear_1428_2741" x1="17.149" y1="24.2271" x2="9.02201" y2="27.6718" gradientUnits="userSpaceOnUse">
<stop offset="0.328" stop-color="#FFF478"/>
<stop offset="0.724" stop-color="#FFF478" stop-opacity="0"/>
</linearGradient>
<linearGradient id="paint18_linear_1428_2741" x1="18.4203" y1="10.1049" x2="2.85813" y2="33.3249" gradientUnits="userSpaceOnUse">
<stop offset="0.844" stop-color="#FF63C4" stop-opacity="0"/>
<stop offset="0.941" stop-color="#FF63C4"/>
</linearGradient>
<radialGradient id="paint19_radial_1428_2741" cx="0" cy="0" r="1" gradientUnits="userSpaceOnUse" gradientTransform="translate(5.28026 17.4771) rotate(67.2716) scale(18.5625 14.407)">
<stop offset="0.776" stop-color="#FD61C2" stop-opacity="0"/>
<stop offset="0.941" stop-color="#FF63C4"/>
</radialGradient>
<linearGradient id="paint20_linear_1428_2741" x1="3.0685" y1="25.1756" x2="2.4475" y2="26.1228" gradientUnits="userSpaceOnUse">
<stop offset="0.386" stop-color="#83480A"/>
<stop offset="0.545" stop-color="#CD7313"/>
<stop offset="1" stop-color="#FA9428" stop-opacity="0"/>
</linearGradient>
<linearGradient id="paint21_linear_1428_2741" x1="4.91463" y1="23.857" x2="4.03038" y2="24.9505" gradientUnits="userSpaceOnUse">
<stop offset="0.386" stop-color="#83480A"/>
<stop offset="0.545" stop-color="#CD7313"/>
<stop offset="1" stop-color="#FA9428" stop-opacity="0"/>
</linearGradient>
<linearGradient id="paint22_linear_1428_2741" x1="6.32088" y1="21.9412" x2="5.27351" y2="23.1022" gradientUnits="userSpaceOnUse">
<stop offset="0.386" stop-color="#83480A"/>
<stop offset="0.545" stop-color="#CD7313"/>
<stop offset="1" stop-color="#FA9428" stop-opacity="0"/>
</linearGradient>
<radialGradient id="paint23_radial_1428_2741" cx="0" cy="0" r="1" gradientUnits="userSpaceOnUse" gradientTransform="translate(10.222 20.4657) rotate(152.835) scale(3.00313 7.46024)">
<stop offset="0.386" stop-color="#83480A"/>
<stop offset="0.545" stop-color="#CD7313"/>
<stop offset="1" stop-color="#FA9428" stop-opacity="0"/>
</radialGradient>
<linearGradient id="paint24_linear_1428_2741" x1="3.89989" y1="20.355" x2="7.58539" y2="26.1577" gradientUnits="userSpaceOnUse">
<stop offset="0.328" stop-color="#FFF478" stop-opacity="0.5"/>
<stop offset="0.724" stop-color="#FFF478" stop-opacity="0"/>
</linearGradient>
<linearGradient id="paint25_linear_1428_2741" x1="1.38212" y1="21.48" x2="5.06763" y2="27.2827" gradientUnits="userSpaceOnUse">
<stop offset="0.328" stop-color="#FFF478" stop-opacity="0.5"/>
<stop offset="0.724" stop-color="#FFF478" stop-opacity="0"/>
</linearGradient>
<linearGradient id="paint26_linear_1428_2741" x1="0.801635" y1="23.7649" x2="4.48713" y2="29.5688" gradientUnits="userSpaceOnUse">
<stop offset="0.328" stop-color="#FFF478" stop-opacity="0.5"/>
<stop offset="0.724" stop-color="#FFF478" stop-opacity="0"/>
</linearGradient>
<linearGradient id="paint27_linear_1428_2741" x1="0.801635" y1="26.4063" x2="4.48714" y2="32.2101" gradientUnits="userSpaceOnUse">
<stop offset="0.328" stop-color="#FFF478" stop-opacity="0.5"/>
<stop offset="0.724" stop-color="#FFF478" stop-opacity="0"/>
</linearGradient>
<radialGradient id="paint28_radial_1428_2741" cx="0" cy="0" r="1" gradientUnits="userSpaceOnUse" gradientTransform="translate(36.332 18.6582) rotate(137.605) scale(31.3088 31.2149)">
<stop offset="0.23" stop-color="#F9AF20"/>
<stop offset="0.538" stop-color="#FFD362"/>
<stop offset="0.824" stop-color="#F9AF20"/>
</radialGradient>
<linearGradient id="paint29_linear_1428_2741" x1="18.9771" y1="25.3521" x2="25.5156" y2="26.0654" gradientUnits="userSpaceOnUse">
<stop offset="0.214" stop-color="#CC6C07"/>
<stop offset="0.328" stop-color="#EE891E"/>
<stop offset="0.865" stop-color="#FA9428" stop-opacity="0"/>
</linearGradient>
<linearGradient id="paint30_linear_1428_2741" x1="16.5966" y1="10.1174" x2="32.1588" y2="33.3374" gradientUnits="userSpaceOnUse">
<stop offset="0.844" stop-color="#FF63C4" stop-opacity="0"/>
<stop offset="0.941" stop-color="#FF63C4"/>
</linearGradient>
<radialGradient id="paint31_radial_1428_2741" cx="0" cy="0" r="1" gradientUnits="userSpaceOnUse" gradientTransform="translate(29.7375 17.4896) rotate(112.728) scale(18.5625 14.407)">
<stop offset="0.776" stop-color="#FD61C2" stop-opacity="0"/>
<stop offset="0.941" stop-color="#FF63C4"/>
</radialGradient>
<linearGradient id="paint32_linear_1428_2741" x1="32.0609" y1="25.0056" x2="32.6684" y2="25.9382" gradientUnits="userSpaceOnUse">
<stop offset="0.386" stop-color="#83480A"/>
<stop offset="0.545" stop-color="#CD7313"/>
<stop offset="1" stop-color="#FA9428" stop-opacity="0"/>
</linearGradient>
<linearGradient id="paint33_linear_1428_2741" x1="29.8953" y1="23.6285" x2="30.9663" y2="24.821" gradientUnits="userSpaceOnUse">
<stop offset="0.386" stop-color="#83480A"/>
<stop offset="0.545" stop-color="#CD7313"/>
<stop offset="1" stop-color="#FA9428" stop-opacity="0"/>
</linearGradient>
<linearGradient id="paint34_linear_1428_2741" x1="28.7399" y1="21.6194" x2="29.8491" y2="22.9526" gradientUnits="userSpaceOnUse">
<stop offset="0.386" stop-color="#83480A"/>
<stop offset="0.545" stop-color="#CD7313"/>
<stop offset="1" stop-color="#FA9428" stop-opacity="0"/>
</linearGradient>
<linearGradient id="paint35_linear_1428_2741" x1="28.885" y1="18.9058" x2="29.8311" y2="20.0566" gradientUnits="userSpaceOnUse">
<stop offset="0.328" stop-color="#EE891E"/>
<stop offset="0.865" stop-color="#FA9428" stop-opacity="0"/>
</linearGradient>
<radialGradient id="paint36_radial_1428_2741" cx="0" cy="0" r="1" gradientUnits="userSpaceOnUse" gradientTransform="translate(25.1607 20.743) rotate(152.661) scale(0.933053 1.02578)">
<stop offset="0.328" stop-color="#FAF194" stop-opacity="0.2"/>
<stop offset="0.724" stop-color="#FFF478" stop-opacity="0"/>
</radialGradient>
<radialGradient id="paint37_radial_1428_2741" cx="0" cy="0" r="1" gradientUnits="userSpaceOnUse" gradientTransform="translate(30.1819 20.4679) rotate(-178.093) scale(1.0587 1.11774)">
<stop offset="0.328" stop-color="#FAF194" stop-opacity="0.4"/>
<stop offset="0.724" stop-color="#FFF478" stop-opacity="0"/>
</radialGradient>
<radialGradient id="paint38_radial_1428_2741" cx="0" cy="0" r="1" gradientUnits="userSpaceOnUse" gradientTransform="translate(32.9238 21.7376) rotate(-173.32) scale(0.912733 1.06652)">
<stop offset="0.391" stop-color="#FAF194" stop-opacity="0.3"/>
<stop offset="0.813" stop-color="#FFF478" stop-opacity="0"/>
</radialGradient>
<radialGradient id="paint39_radial_1428_2741" cx="0" cy="0" r="1" gradientUnits="userSpaceOnUse" gradientTransform="translate(33.3378 24.1821) rotate(-173.32) scale(0.912731 1.06652)">
<stop offset="0.328" stop-color="#FAF194" stop-opacity="0.3"/>
<stop offset="0.724" stop-color="#FFF478" stop-opacity="0"/>
</radialGradient>
<radialGradient id="paint40_radial_1428_2741" cx="0" cy="0" r="1" gradientUnits="userSpaceOnUse" gradientTransform="translate(33.4604 26.907) rotate(-173.32) scale(0.912733 1.06652)">
<stop offset="0.328" stop-color="#FAF194" stop-opacity="0.3"/>
<stop offset="0.724" stop-color="#FFF478" stop-opacity="0"/>
</radialGradient>
</defs>
</svg>
