<svg width="32" height="32" viewBox="0 0 32 32" fill="none" xmlns="http://www.w3.org/2000/svg">
<g filter="url(#filter0_i_1428_3016)">
<path d="M13.2471 1.50327C14.9684 -0.435103 17.3117 -0.126853 18.8102 1.50327L19.7237 2.56077C19.8797 2.73106 20.0727 2.86324 20.2879 2.94711C20.503 3.03099 20.7345 3.06431 20.9646 3.04452L22.5891 2.56077C24.8042 2.08715 26.8169 3.73977 26.8169 6.3059V7.2734C26.8641 7.7999 27.3254 8.15765 27.8012 8.39052L29.2694 9.00365C31.3922 10.0409 31.9232 12.5024 30.3764 14.5679L29.9376 15.1473C29.5427 15.6805 29.6237 16.3803 30.0164 16.9135L30.4551 17.5289C32.0549 19.4976 31.1526 22.1988 28.8936 23.1426L27.6302 23.6714C27.1532 23.8694 26.9665 24.2114 26.8787 24.7188L26.7899 26.3714C26.4827 28.6383 24.469 29.6631 22.8524 29.4348L20.9286 28.9195C20.4662 28.8543 19.8914 29.0084 19.5831 29.491L18.889 30.4405C17.1666 32.3834 14.8412 32.0605 13.669 30.9243L12.3865 29.3718C12.0524 29.0478 11.6294 28.771 11.1231 28.9611L9.18586 29.491C7.58611 29.7183 5.70286 28.4886 5.40136 26.9013L5.17861 24.604C5.13411 24.3684 5.03404 24.1468 4.88671 23.9576C4.73938 23.7684 4.54903 23.617 4.33148 23.5161L2.97248 23.0493C0.928358 22.0964 0.244358 19.7913 1.41773 17.8664L2.18273 16.8066C2.33397 16.5597 2.41089 16.2745 2.40431 15.985C2.39773 15.6955 2.30791 15.4141 2.14561 15.1743L1.57411 14.3643C-0.0425166 12.0625 1.07573 9.48852 3.47198 8.71677L4.00073 8.54802C4.58348 8.35902 5.14823 7.87415 5.19548 7.26327L5.31361 5.78052C5.50486 3.37302 7.70086 1.99265 10.0116 2.69465L10.7597 2.9219C11.4797 3.20315 12.0445 2.96352 12.4382 2.5349L13.2471 1.50327Z" fill="url(#paint0_linear_1428_3016)"/>
<path d="M13.2471 1.50327C14.9684 -0.435103 17.3117 -0.126853 18.8102 1.50327L19.7237 2.56077C19.8797 2.73106 20.0727 2.86324 20.2879 2.94711C20.503 3.03099 20.7345 3.06431 20.9646 3.04452L22.5891 2.56077C24.8042 2.08715 26.8169 3.73977 26.8169 6.3059V7.2734C26.8641 7.7999 27.3254 8.15765 27.8012 8.39052L29.2694 9.00365C31.3922 10.0409 31.9232 12.5024 30.3764 14.5679L29.9376 15.1473C29.5427 15.6805 29.6237 16.3803 30.0164 16.9135L30.4551 17.5289C32.0549 19.4976 31.1526 22.1988 28.8936 23.1426L27.6302 23.6714C27.1532 23.8694 26.9665 24.2114 26.8787 24.7188L26.7899 26.3714C26.4827 28.6383 24.469 29.6631 22.8524 29.4348L20.9286 28.9195C20.4662 28.8543 19.8914 29.0084 19.5831 29.491L18.889 30.4405C17.1666 32.3834 14.8412 32.0605 13.669 30.9243L12.3865 29.3718C12.0524 29.0478 11.6294 28.771 11.1231 28.9611L9.18586 29.491C7.58611 29.7183 5.70286 28.4886 5.40136 26.9013L5.17861 24.604C5.13411 24.3684 5.03404 24.1468 4.88671 23.9576C4.73938 23.7684 4.54903 23.617 4.33148 23.5161L2.97248 23.0493C0.928358 22.0964 0.244358 19.7913 1.41773 17.8664L2.18273 16.8066C2.33397 16.5597 2.41089 16.2745 2.40431 15.985C2.39773 15.6955 2.30791 15.4141 2.14561 15.1743L1.57411 14.3643C-0.0425166 12.0625 1.07573 9.48852 3.47198 8.71677L4.00073 8.54802C4.58348 8.35902 5.14823 7.87415 5.19548 7.26327L5.31361 5.78052C5.50486 3.37302 7.70086 1.99265 10.0116 2.69465L10.7597 2.9219C11.4797 3.20315 12.0445 2.96352 12.4382 2.5349L13.2471 1.50327Z" fill="url(#paint1_radial_1428_3016)"/>
<path d="M13.2471 1.50327C14.9684 -0.435103 17.3117 -0.126853 18.8102 1.50327L19.7237 2.56077C19.8797 2.73106 20.0727 2.86324 20.2879 2.94711C20.503 3.03099 20.7345 3.06431 20.9646 3.04452L22.5891 2.56077C24.8042 2.08715 26.8169 3.73977 26.8169 6.3059V7.2734C26.8641 7.7999 27.3254 8.15765 27.8012 8.39052L29.2694 9.00365C31.3922 10.0409 31.9232 12.5024 30.3764 14.5679L29.9376 15.1473C29.5427 15.6805 29.6237 16.3803 30.0164 16.9135L30.4551 17.5289C32.0549 19.4976 31.1526 22.1988 28.8936 23.1426L27.6302 23.6714C27.1532 23.8694 26.9665 24.2114 26.8787 24.7188L26.7899 26.3714C26.4827 28.6383 24.469 29.6631 22.8524 29.4348L20.9286 28.9195C20.4662 28.8543 19.8914 29.0084 19.5831 29.491L18.889 30.4405C17.1666 32.3834 14.8412 32.0605 13.669 30.9243L12.3865 29.3718C12.0524 29.0478 11.6294 28.771 11.1231 28.9611L9.18586 29.491C7.58611 29.7183 5.70286 28.4886 5.40136 26.9013L5.17861 24.604C5.13411 24.3684 5.03404 24.1468 4.88671 23.9576C4.73938 23.7684 4.54903 23.617 4.33148 23.5161L2.97248 23.0493C0.928358 22.0964 0.244358 19.7913 1.41773 17.8664L2.18273 16.8066C2.33397 16.5597 2.41089 16.2745 2.40431 15.985C2.39773 15.6955 2.30791 15.4141 2.14561 15.1743L1.57411 14.3643C-0.0425166 12.0625 1.07573 9.48852 3.47198 8.71677L4.00073 8.54802C4.58348 8.35902 5.14823 7.87415 5.19548 7.26327L5.31361 5.78052C5.50486 3.37302 7.70086 1.99265 10.0116 2.69465L10.7597 2.9219C11.4797 3.20315 12.0445 2.96352 12.4382 2.5349L13.2471 1.50327Z" fill="url(#paint2_radial_1428_3016)"/>
<path d="M13.2471 1.50327C14.9684 -0.435103 17.3117 -0.126853 18.8102 1.50327L19.7237 2.56077C19.8797 2.73106 20.0727 2.86324 20.2879 2.94711C20.503 3.03099 20.7345 3.06431 20.9646 3.04452L22.5891 2.56077C24.8042 2.08715 26.8169 3.73977 26.8169 6.3059V7.2734C26.8641 7.7999 27.3254 8.15765 27.8012 8.39052L29.2694 9.00365C31.3922 10.0409 31.9232 12.5024 30.3764 14.5679L29.9376 15.1473C29.5427 15.6805 29.6237 16.3803 30.0164 16.9135L30.4551 17.5289C32.0549 19.4976 31.1526 22.1988 28.8936 23.1426L27.6302 23.6714C27.1532 23.8694 26.9665 24.2114 26.8787 24.7188L26.7899 26.3714C26.4827 28.6383 24.469 29.6631 22.8524 29.4348L20.9286 28.9195C20.4662 28.8543 19.8914 29.0084 19.5831 29.491L18.889 30.4405C17.1666 32.3834 14.8412 32.0605 13.669 30.9243L12.3865 29.3718C12.0524 29.0478 11.6294 28.771 11.1231 28.9611L9.18586 29.491C7.58611 29.7183 5.70286 28.4886 5.40136 26.9013L5.17861 24.604C5.13411 24.3684 5.03404 24.1468 4.88671 23.9576C4.73938 23.7684 4.54903 23.617 4.33148 23.5161L2.97248 23.0493C0.928358 22.0964 0.244358 19.7913 1.41773 17.8664L2.18273 16.8066C2.33397 16.5597 2.41089 16.2745 2.40431 15.985C2.39773 15.6955 2.30791 15.4141 2.14561 15.1743L1.57411 14.3643C-0.0425166 12.0625 1.07573 9.48852 3.47198 8.71677L4.00073 8.54802C4.58348 8.35902 5.14823 7.87415 5.19548 7.26327L5.31361 5.78052C5.50486 3.37302 7.70086 1.99265 10.0116 2.69465L10.7597 2.9219C11.4797 3.20315 12.0445 2.96352 12.4382 2.5349L13.2471 1.50327Z" fill="url(#paint3_radial_1428_3016)"/>
<path d="M13.2471 1.50327C14.9684 -0.435103 17.3117 -0.126853 18.8102 1.50327L19.7237 2.56077C19.8797 2.73106 20.0727 2.86324 20.2879 2.94711C20.503 3.03099 20.7345 3.06431 20.9646 3.04452L22.5891 2.56077C24.8042 2.08715 26.8169 3.73977 26.8169 6.3059V7.2734C26.8641 7.7999 27.3254 8.15765 27.8012 8.39052L29.2694 9.00365C31.3922 10.0409 31.9232 12.5024 30.3764 14.5679L29.9376 15.1473C29.5427 15.6805 29.6237 16.3803 30.0164 16.9135L30.4551 17.5289C32.0549 19.4976 31.1526 22.1988 28.8936 23.1426L27.6302 23.6714C27.1532 23.8694 26.9665 24.2114 26.8787 24.7188L26.7899 26.3714C26.4827 28.6383 24.469 29.6631 22.8524 29.4348L20.9286 28.9195C20.4662 28.8543 19.8914 29.0084 19.5831 29.491L18.889 30.4405C17.1666 32.3834 14.8412 32.0605 13.669 30.9243L12.3865 29.3718C12.0524 29.0478 11.6294 28.771 11.1231 28.9611L9.18586 29.491C7.58611 29.7183 5.70286 28.4886 5.40136 26.9013L5.17861 24.604C5.13411 24.3684 5.03404 24.1468 4.88671 23.9576C4.73938 23.7684 4.54903 23.617 4.33148 23.5161L2.97248 23.0493C0.928358 22.0964 0.244358 19.7913 1.41773 17.8664L2.18273 16.8066C2.33397 16.5597 2.41089 16.2745 2.40431 15.985C2.39773 15.6955 2.30791 15.4141 2.14561 15.1743L1.57411 14.3643C-0.0425166 12.0625 1.07573 9.48852 3.47198 8.71677L4.00073 8.54802C4.58348 8.35902 5.14823 7.87415 5.19548 7.26327L5.31361 5.78052C5.50486 3.37302 7.70086 1.99265 10.0116 2.69465L10.7597 2.9219C11.4797 3.20315 12.0445 2.96352 12.4382 2.5349L13.2471 1.50327Z" fill="url(#paint4_radial_1428_3016)"/>
<path d="M13.2471 1.50327C14.9684 -0.435103 17.3117 -0.126853 18.8102 1.50327L19.7237 2.56077C19.8797 2.73106 20.0727 2.86324 20.2879 2.94711C20.503 3.03099 20.7345 3.06431 20.9646 3.04452L22.5891 2.56077C24.8042 2.08715 26.8169 3.73977 26.8169 6.3059V7.2734C26.8641 7.7999 27.3254 8.15765 27.8012 8.39052L29.2694 9.00365C31.3922 10.0409 31.9232 12.5024 30.3764 14.5679L29.9376 15.1473C29.5427 15.6805 29.6237 16.3803 30.0164 16.9135L30.4551 17.5289C32.0549 19.4976 31.1526 22.1988 28.8936 23.1426L27.6302 23.6714C27.1532 23.8694 26.9665 24.2114 26.8787 24.7188L26.7899 26.3714C26.4827 28.6383 24.469 29.6631 22.8524 29.4348L20.9286 28.9195C20.4662 28.8543 19.8914 29.0084 19.5831 29.491L18.889 30.4405C17.1666 32.3834 14.8412 32.0605 13.669 30.9243L12.3865 29.3718C12.0524 29.0478 11.6294 28.771 11.1231 28.9611L9.18586 29.491C7.58611 29.7183 5.70286 28.4886 5.40136 26.9013L5.17861 24.604C5.13411 24.3684 5.03404 24.1468 4.88671 23.9576C4.73938 23.7684 4.54903 23.617 4.33148 23.5161L2.97248 23.0493C0.928358 22.0964 0.244358 19.7913 1.41773 17.8664L2.18273 16.8066C2.33397 16.5597 2.41089 16.2745 2.40431 15.985C2.39773 15.6955 2.30791 15.4141 2.14561 15.1743L1.57411 14.3643C-0.0425166 12.0625 1.07573 9.48852 3.47198 8.71677L4.00073 8.54802C4.58348 8.35902 5.14823 7.87415 5.19548 7.26327L5.31361 5.78052C5.50486 3.37302 7.70086 1.99265 10.0116 2.69465L10.7597 2.9219C11.4797 3.20315 12.0445 2.96352 12.4382 2.5349L13.2471 1.50327Z" fill="url(#paint5_radial_1428_3016)"/>
<path d="M13.2471 1.50327C14.9684 -0.435103 17.3117 -0.126853 18.8102 1.50327L19.7237 2.56077C19.8797 2.73106 20.0727 2.86324 20.2879 2.94711C20.503 3.03099 20.7345 3.06431 20.9646 3.04452L22.5891 2.56077C24.8042 2.08715 26.8169 3.73977 26.8169 6.3059V7.2734C26.8641 7.7999 27.3254 8.15765 27.8012 8.39052L29.2694 9.00365C31.3922 10.0409 31.9232 12.5024 30.3764 14.5679L29.9376 15.1473C29.5427 15.6805 29.6237 16.3803 30.0164 16.9135L30.4551 17.5289C32.0549 19.4976 31.1526 22.1988 28.8936 23.1426L27.6302 23.6714C27.1532 23.8694 26.9665 24.2114 26.8787 24.7188L26.7899 26.3714C26.4827 28.6383 24.469 29.6631 22.8524 29.4348L20.9286 28.9195C20.4662 28.8543 19.8914 29.0084 19.5831 29.491L18.889 30.4405C17.1666 32.3834 14.8412 32.0605 13.669 30.9243L12.3865 29.3718C12.0524 29.0478 11.6294 28.771 11.1231 28.9611L9.18586 29.491C7.58611 29.7183 5.70286 28.4886 5.40136 26.9013L5.17861 24.604C5.13411 24.3684 5.03404 24.1468 4.88671 23.9576C4.73938 23.7684 4.54903 23.617 4.33148 23.5161L2.97248 23.0493C0.928358 22.0964 0.244358 19.7913 1.41773 17.8664L2.18273 16.8066C2.33397 16.5597 2.41089 16.2745 2.40431 15.985C2.39773 15.6955 2.30791 15.4141 2.14561 15.1743L1.57411 14.3643C-0.0425166 12.0625 1.07573 9.48852 3.47198 8.71677L4.00073 8.54802C4.58348 8.35902 5.14823 7.87415 5.19548 7.26327L5.31361 5.78052C5.50486 3.37302 7.70086 1.99265 10.0116 2.69465L10.7597 2.9219C11.4797 3.20315 12.0445 2.96352 12.4382 2.5349L13.2471 1.50327Z" fill="url(#paint6_radial_1428_3016)"/>
<path d="M13.2471 1.50327C14.9684 -0.435103 17.3117 -0.126853 18.8102 1.50327L19.7237 2.56077C19.8797 2.73106 20.0727 2.86324 20.2879 2.94711C20.503 3.03099 20.7345 3.06431 20.9646 3.04452L22.5891 2.56077C24.8042 2.08715 26.8169 3.73977 26.8169 6.3059V7.2734C26.8641 7.7999 27.3254 8.15765 27.8012 8.39052L29.2694 9.00365C31.3922 10.0409 31.9232 12.5024 30.3764 14.5679L29.9376 15.1473C29.5427 15.6805 29.6237 16.3803 30.0164 16.9135L30.4551 17.5289C32.0549 19.4976 31.1526 22.1988 28.8936 23.1426L27.6302 23.6714C27.1532 23.8694 26.9665 24.2114 26.8787 24.7188L26.7899 26.3714C26.4827 28.6383 24.469 29.6631 22.8524 29.4348L20.9286 28.9195C20.4662 28.8543 19.8914 29.0084 19.5831 29.491L18.889 30.4405C17.1666 32.3834 14.8412 32.0605 13.669 30.9243L12.3865 29.3718C12.0524 29.0478 11.6294 28.771 11.1231 28.9611L9.18586 29.491C7.58611 29.7183 5.70286 28.4886 5.40136 26.9013L5.17861 24.604C5.13411 24.3684 5.03404 24.1468 4.88671 23.9576C4.73938 23.7684 4.54903 23.617 4.33148 23.5161L2.97248 23.0493C0.928358 22.0964 0.244358 19.7913 1.41773 17.8664L2.18273 16.8066C2.33397 16.5597 2.41089 16.2745 2.40431 15.985C2.39773 15.6955 2.30791 15.4141 2.14561 15.1743L1.57411 14.3643C-0.0425166 12.0625 1.07573 9.48852 3.47198 8.71677L4.00073 8.54802C4.58348 8.35902 5.14823 7.87415 5.19548 7.26327L5.31361 5.78052C5.50486 3.37302 7.70086 1.99265 10.0116 2.69465L10.7597 2.9219C11.4797 3.20315 12.0445 2.96352 12.4382 2.5349L13.2471 1.50327Z" fill="url(#paint7_radial_1428_3016)"/>
<path d="M13.2471 1.50327C14.9684 -0.435103 17.3117 -0.126853 18.8102 1.50327L19.7237 2.56077C19.8797 2.73106 20.0727 2.86324 20.2879 2.94711C20.503 3.03099 20.7345 3.06431 20.9646 3.04452L22.5891 2.56077C24.8042 2.08715 26.8169 3.73977 26.8169 6.3059V7.2734C26.8641 7.7999 27.3254 8.15765 27.8012 8.39052L29.2694 9.00365C31.3922 10.0409 31.9232 12.5024 30.3764 14.5679L29.9376 15.1473C29.5427 15.6805 29.6237 16.3803 30.0164 16.9135L30.4551 17.5289C32.0549 19.4976 31.1526 22.1988 28.8936 23.1426L27.6302 23.6714C27.1532 23.8694 26.9665 24.2114 26.8787 24.7188L26.7899 26.3714C26.4827 28.6383 24.469 29.6631 22.8524 29.4348L20.9286 28.9195C20.4662 28.8543 19.8914 29.0084 19.5831 29.491L18.889 30.4405C17.1666 32.3834 14.8412 32.0605 13.669 30.9243L12.3865 29.3718C12.0524 29.0478 11.6294 28.771 11.1231 28.9611L9.18586 29.491C7.58611 29.7183 5.70286 28.4886 5.40136 26.9013L5.17861 24.604C5.13411 24.3684 5.03404 24.1468 4.88671 23.9576C4.73938 23.7684 4.54903 23.617 4.33148 23.5161L2.97248 23.0493C0.928358 22.0964 0.244358 19.7913 1.41773 17.8664L2.18273 16.8066C2.33397 16.5597 2.41089 16.2745 2.40431 15.985C2.39773 15.6955 2.30791 15.4141 2.14561 15.1743L1.57411 14.3643C-0.0425166 12.0625 1.07573 9.48852 3.47198 8.71677L4.00073 8.54802C4.58348 8.35902 5.14823 7.87415 5.19548 7.26327L5.31361 5.78052C5.50486 3.37302 7.70086 1.99265 10.0116 2.69465L10.7597 2.9219C11.4797 3.20315 12.0445 2.96352 12.4382 2.5349L13.2471 1.50327Z" fill="url(#paint8_radial_1428_3016)"/>
<path d="M13.2471 1.50327C14.9684 -0.435103 17.3117 -0.126853 18.8102 1.50327L19.7237 2.56077C19.8797 2.73106 20.0727 2.86324 20.2879 2.94711C20.503 3.03099 20.7345 3.06431 20.9646 3.04452L22.5891 2.56077C24.8042 2.08715 26.8169 3.73977 26.8169 6.3059V7.2734C26.8641 7.7999 27.3254 8.15765 27.8012 8.39052L29.2694 9.00365C31.3922 10.0409 31.9232 12.5024 30.3764 14.5679L29.9376 15.1473C29.5427 15.6805 29.6237 16.3803 30.0164 16.9135L30.4551 17.5289C32.0549 19.4976 31.1526 22.1988 28.8936 23.1426L27.6302 23.6714C27.1532 23.8694 26.9665 24.2114 26.8787 24.7188L26.7899 26.3714C26.4827 28.6383 24.469 29.6631 22.8524 29.4348L20.9286 28.9195C20.4662 28.8543 19.8914 29.0084 19.5831 29.491L18.889 30.4405C17.1666 32.3834 14.8412 32.0605 13.669 30.9243L12.3865 29.3718C12.0524 29.0478 11.6294 28.771 11.1231 28.9611L9.18586 29.491C7.58611 29.7183 5.70286 28.4886 5.40136 26.9013L5.17861 24.604C5.13411 24.3684 5.03404 24.1468 4.88671 23.9576C4.73938 23.7684 4.54903 23.617 4.33148 23.5161L2.97248 23.0493C0.928358 22.0964 0.244358 19.7913 1.41773 17.8664L2.18273 16.8066C2.33397 16.5597 2.41089 16.2745 2.40431 15.985C2.39773 15.6955 2.30791 15.4141 2.14561 15.1743L1.57411 14.3643C-0.0425166 12.0625 1.07573 9.48852 3.47198 8.71677L4.00073 8.54802C4.58348 8.35902 5.14823 7.87415 5.19548 7.26327L5.31361 5.78052C5.50486 3.37302 7.70086 1.99265 10.0116 2.69465L10.7597 2.9219C11.4797 3.20315 12.0445 2.96352 12.4382 2.5349L13.2471 1.50327Z" fill="url(#paint9_radial_1428_3016)"/>
</g>
<g filter="url(#filter1_d_1428_3016)">
<path d="M16.0405 28.0565C22.7151 28.0565 28.1264 22.6453 28.1264 15.9706C28.1264 9.29602 22.7162 3.88477 16.0405 3.88477C9.36474 3.88477 3.95462 9.29602 3.95462 15.9706C3.95462 22.6453 9.36587 28.0565 16.0405 28.0565Z" fill="url(#paint10_radial_1428_3016)"/>
</g>
<g opacity="0.44" filter="url(#filter2_f_1428_3016)">
<path d="M8.60426 19.9826C9.48743 19.9826 10.3344 19.6318 10.9589 19.0073C11.5834 18.3828 11.9343 17.5358 11.9343 16.6526C11.9343 15.7695 11.5834 14.9225 10.9589 14.298C10.3344 13.6735 9.48743 13.3226 8.60426 13.3226C7.72109 13.3226 6.87409 13.6735 6.2496 14.298C5.6251 14.9225 5.27426 15.7695 5.27426 16.6526C5.27426 17.5358 5.6251 18.3828 6.2496 19.0073C6.87409 19.6318 7.72109 19.9826 8.60426 19.9826Z" fill="url(#paint11_radial_1428_3016)"/>
</g>
<g opacity="0.44" filter="url(#filter3_f_1428_3016)">
<path d="M23.4768 19.9826C24.3599 19.9826 25.2069 19.6318 25.8314 19.0073C26.4559 18.3828 26.8068 17.5358 26.8068 16.6526C26.8068 15.7695 26.4559 14.9225 25.8314 14.298C25.2069 13.6735 24.3599 13.3226 23.4768 13.3226C22.5936 13.3226 21.7466 13.6735 21.1221 14.298C20.4976 14.9225 20.1468 15.7695 20.1468 16.6526C20.1468 17.5358 20.4976 18.3828 21.1221 19.0073C21.7466 19.6318 22.5936 19.9826 23.4768 19.9826Z" fill="url(#paint12_radial_1428_3016)"/>
</g>
<g filter="url(#filter4_f_1428_3016)">
<path fill-rule="evenodd" clip-rule="evenodd" d="M10.4549 18.3513C10.6131 18.1933 10.8275 18.1045 11.0511 18.1045C11.2747 18.1045 11.4892 18.1933 11.6474 18.3513C12.2241 18.9285 12.9089 19.3865 13.6627 19.6989C14.4165 20.0113 15.2245 20.1722 16.0405 20.1722C16.8565 20.1722 17.6645 20.0113 18.4183 19.6989C19.1721 19.3865 19.8569 18.9285 20.4336 18.3513C20.5115 18.2707 20.6046 18.2065 20.7076 18.1623C20.8106 18.1182 20.9213 18.0949 21.0333 18.094C21.1453 18.0931 21.2564 18.1145 21.3601 18.157C21.4638 18.1995 21.558 18.2621 21.6371 18.3414C21.7163 18.4207 21.7789 18.5149 21.8213 18.6186C21.8637 18.7223 21.885 18.8334 21.884 18.9455C21.8829 19.0575 21.8596 19.1682 21.8153 19.2711C21.7711 19.374 21.7067 19.4671 21.6261 19.5449C20.8927 20.2786 20.022 20.8607 19.0636 21.2578C18.1052 21.6549 17.0779 21.8593 16.0405 21.8593C15.0031 21.8593 13.9758 21.6549 13.0174 21.2578C12.059 20.8607 11.1883 20.2786 10.4549 19.5449C10.2969 19.3867 10.2081 19.1723 10.2081 18.9487C10.2081 18.7251 10.2969 18.5095 10.4549 18.3513Z" fill="#D6961E"/>
</g>
<g filter="url(#filter5_i_1428_3016)">
<path fill-rule="evenodd" clip-rule="evenodd" d="M10.7418 17.9351C10.9 17.7771 11.1144 17.6884 11.338 17.6884C11.5616 17.6884 11.776 17.7771 11.9343 17.9351C12.511 18.5124 13.1958 18.9703 13.9496 19.2827C14.7034 19.5952 15.5114 19.756 16.3274 19.756C17.1434 19.756 17.9513 19.5952 18.7051 19.2827C19.4589 18.9703 20.1438 18.5124 20.7205 17.9351C20.8804 17.7861 21.092 17.7049 21.3106 17.7088C21.5292 17.7126 21.7377 17.8012 21.8923 17.9558C22.0469 18.1104 22.1355 18.3189 22.1393 18.5375C22.1432 18.7561 22.062 18.9677 21.913 19.1276C21.1796 19.8613 20.3088 20.4434 19.3504 20.8405C18.392 21.2376 17.3648 21.442 16.3274 21.442C15.29 21.442 14.2627 21.2376 13.3043 20.8405C12.3459 20.4434 11.4751 19.8613 10.7418 19.1276C10.5837 18.9694 10.495 18.755 10.495 18.5314C10.495 18.3078 10.5837 18.0933 10.7418 17.9351Z" fill="url(#paint13_linear_1428_3016)"/>
<path fill-rule="evenodd" clip-rule="evenodd" d="M10.7418 17.9351C10.9 17.7771 11.1144 17.6884 11.338 17.6884C11.5616 17.6884 11.776 17.7771 11.9343 17.9351C12.511 18.5124 13.1958 18.9703 13.9496 19.2827C14.7034 19.5952 15.5114 19.756 16.3274 19.756C17.1434 19.756 17.9513 19.5952 18.7051 19.2827C19.4589 18.9703 20.1438 18.5124 20.7205 17.9351C20.8804 17.7861 21.092 17.7049 21.3106 17.7088C21.5292 17.7126 21.7377 17.8012 21.8923 17.9558C22.0469 18.1104 22.1355 18.3189 22.1393 18.5375C22.1432 18.7561 22.062 18.9677 21.913 19.1276C21.1796 19.8613 20.3088 20.4434 19.3504 20.8405C18.392 21.2376 17.3648 21.442 16.3274 21.442C15.29 21.442 14.2627 21.2376 13.3043 20.8405C12.3459 20.4434 11.4751 19.8613 10.7418 19.1276C10.5837 18.9694 10.495 18.755 10.495 18.5314C10.495 18.3078 10.5837 18.0933 10.7418 17.9351Z" fill="url(#paint14_linear_1428_3016)"/>
</g>
<g filter="url(#filter6_i_1428_3016)">
<path fill-rule="evenodd" clip-rule="evenodd" d="M10.4717 8.32764C9.73178 8.32764 9.02213 8.62158 8.4989 9.14481C7.97568 9.66803 7.68173 10.3777 7.68173 11.1176C7.68173 11.2668 7.62247 11.4099 7.51698 11.5154C7.41149 11.6209 7.26842 11.6801 7.11923 11.6801C6.97005 11.6801 6.82697 11.6209 6.72148 11.5154C6.616 11.4099 6.55673 11.2668 6.55673 11.1176C6.55673 10.0793 6.9692 9.08352 7.70341 8.34931C8.43761 7.61511 9.43341 7.20264 10.4717 7.20264C10.6209 7.20264 10.764 7.2619 10.8695 7.36739C10.975 7.47288 11.0342 7.61595 11.0342 7.76514C11.0342 7.91432 10.975 8.05739 10.8695 8.16288C10.764 8.26837 10.6209 8.32764 10.4717 8.32764Z" fill="#43304A"/>
<path fill-rule="evenodd" clip-rule="evenodd" d="M10.4717 8.32764C9.73178 8.32764 9.02213 8.62158 8.4989 9.14481C7.97568 9.66803 7.68173 10.3777 7.68173 11.1176C7.68173 11.2668 7.62247 11.4099 7.51698 11.5154C7.41149 11.6209 7.26842 11.6801 7.11923 11.6801C6.97005 11.6801 6.82697 11.6209 6.72148 11.5154C6.616 11.4099 6.55673 11.2668 6.55673 11.1176C6.55673 10.0793 6.9692 9.08352 7.70341 8.34931C8.43761 7.61511 9.43341 7.20264 10.4717 7.20264C10.6209 7.20264 10.764 7.2619 10.8695 7.36739C10.975 7.47288 11.0342 7.61595 11.0342 7.76514C11.0342 7.91432 10.975 8.05739 10.8695 8.16288C10.764 8.26837 10.6209 8.32764 10.4717 8.32764Z" fill="url(#paint15_radial_1428_3016)"/>
</g>
<g filter="url(#filter7_f_1428_3016)">
<path fill-rule="evenodd" clip-rule="evenodd" d="M21.4484 8.03068C21.4484 7.73031 21.6914 7.4873 21.9917 7.4873C24.0719 7.4873 25.7717 9.17481 25.7717 11.2673C25.7751 11.3407 25.7635 11.4139 25.7377 11.4827C25.712 11.5515 25.6725 11.6143 25.6218 11.6674C25.5711 11.7205 25.5101 11.7628 25.4426 11.7916C25.375 11.8205 25.3024 11.8354 25.2289 11.8354C25.1555 11.8354 25.0828 11.8205 25.0153 11.7916C24.9478 11.7628 24.8868 11.7205 24.8361 11.6674C24.7853 11.6143 24.7459 11.5515 24.7201 11.4827C24.6943 11.4139 24.6828 11.3407 24.6861 11.2673C24.6852 10.5532 24.401 9.86862 23.8958 9.36388C23.3907 8.85914 22.7059 8.57548 21.9917 8.57518C21.8476 8.57518 21.7094 8.51793 21.6075 8.41603C21.5056 8.31413 21.4484 8.17479 21.4484 8.03068Z" fill="#C28D03"/>
</g>
<g filter="url(#filter8_i_1428_3016)">
<path fill-rule="evenodd" clip-rule="evenodd" d="M21.5868 7.76514C21.5868 7.61595 21.646 7.47288 21.7515 7.36739C21.857 7.2619 22.0001 7.20264 22.1493 7.20264C23.1876 7.20264 24.1834 7.61511 24.9176 8.34931C25.6518 9.08352 26.0643 10.0793 26.0643 11.1176C26.0643 11.2668 26.005 11.4099 25.8995 11.5154C25.794 11.6209 25.6509 11.6801 25.5018 11.6801C25.3526 11.6801 25.2095 11.6209 25.104 11.5154C24.9985 11.4099 24.9393 11.2668 24.9393 11.1176C24.9393 10.3777 24.6453 9.66803 24.1221 9.14481C23.5989 8.62158 22.8892 8.32764 22.1493 8.32764C22.0001 8.32764 21.857 8.26837 21.7515 8.16288C21.646 8.05739 21.5868 7.91432 21.5868 7.76514Z" fill="#43304A"/>
</g>
<g filter="url(#filter9_f_1428_3016)">
<path fill-rule="evenodd" clip-rule="evenodd" d="M11.3571 12.445C10.7496 12.445 10.2355 12.814 10.0296 13.3393C9.9924 13.4343 9.93684 13.5209 9.86612 13.5944C9.7954 13.6678 9.7109 13.7266 9.61746 13.7674C9.52401 13.8082 9.42345 13.8302 9.32151 13.8321C9.21956 13.8341 9.11824 13.8159 9.02332 13.7787C8.9284 13.7414 8.84174 13.6859 8.76829 13.6152C8.69484 13.5444 8.63604 13.4599 8.59525 13.3665C8.55445 13.273 8.53246 13.1725 8.53053 13.0705C8.52861 12.9686 8.54678 12.8673 8.584 12.7723C8.80339 12.2163 9.18544 11.7395 9.6802 11.4041C10.175 11.0687 10.7594 10.8904 11.3571 10.8925C12.6734 10.8925 13.7939 11.7475 14.1854 12.9366C14.2173 13.0334 14.2298 13.1356 14.2222 13.2373C14.2147 13.339 14.1871 13.4382 14.1412 13.5292C14.0953 13.6203 14.0319 13.7014 13.9546 13.7679C13.8774 13.8345 13.7878 13.8851 13.6909 13.917C13.5941 13.9489 13.4919 13.9615 13.3902 13.9539C13.2886 13.9463 13.1894 13.9188 13.0983 13.8729C13.0073 13.827 12.9262 13.7636 12.8596 13.6863C12.7931 13.609 12.7424 13.5194 12.7105 13.4226C12.6161 13.1381 12.4346 12.8905 12.1917 12.7149C11.9488 12.5392 11.6569 12.4444 11.3571 12.4438" fill="#C68D0F"/>
</g>
<path fill-rule="evenodd" clip-rule="evenodd" d="M11.5067 12.2427C10.8464 12.2427 10.2895 12.6443 10.0656 13.2147C9.98387 13.4231 9.82267 13.5905 9.6175 13.6801C9.41232 13.7696 9.17997 13.774 8.97156 13.6923C8.76315 13.6105 8.59575 13.4493 8.50619 13.2441C8.41663 13.039 8.41224 12.8066 8.494 12.5982C8.73248 11.9942 9.14755 11.4761 9.68502 11.1117C10.2225 10.7472 10.8574 10.5533 11.5067 10.5552C12.9389 10.5552 14.155 11.4844 14.5814 12.7771C14.6161 12.8823 14.6297 12.9934 14.6215 13.1039C14.6133 13.2145 14.5834 13.3223 14.5335 13.4213C14.4837 13.5203 14.4148 13.6085 14.3308 13.6808C14.2468 13.7532 14.1494 13.8083 14.0442 13.843C13.9389 13.8777 13.8279 13.8914 13.7173 13.8832C13.6068 13.875 13.4989 13.8451 13.4 13.7952C13.301 13.7453 13.2128 13.6764 13.1404 13.5924C13.0681 13.5085 13.013 13.4111 12.9782 13.3058C12.8755 12.9966 12.6782 12.7276 12.4141 12.5368C12.15 12.346 11.8326 12.2431 11.5067 12.2427Z" fill="url(#paint16_linear_1428_3016)"/>
<g filter="url(#filter10_f_1428_3016)">
<path fill-rule="evenodd" clip-rule="evenodd" d="M21.0985 12.445C20.491 12.445 19.978 12.814 19.771 13.3393C19.6916 13.5249 19.5431 13.6723 19.3569 13.7502C19.1707 13.8281 18.9615 13.8304 18.7737 13.7567C18.5858 13.6829 18.434 13.5389 18.3505 13.3551C18.2671 13.1714 18.2584 12.9624 18.3265 12.7723C18.5458 12.2165 18.9277 11.7398 19.4222 11.4044C19.9168 11.069 20.501 10.8906 21.0985 10.8925C22.4147 10.8925 23.5352 11.7475 23.9267 12.9366C23.9843 13.1301 23.9641 13.3384 23.8706 13.5173C23.777 13.6963 23.6175 13.8317 23.4258 13.8949C23.234 13.9582 23.0252 13.9442 22.8436 13.856C22.662 13.7678 22.5219 13.6124 22.453 13.4226C22.3585 13.1379 22.1769 12.8902 21.9338 12.7145C21.6907 12.5389 21.3984 12.4442 21.0985 12.4438" fill="#C68D0F"/>
</g>
<g filter="url(#filter11_i_1428_3016)">
<path fill-rule="evenodd" clip-rule="evenodd" d="M21.2042 12.2427C20.8939 12.2407 20.5902 12.3324 20.3329 12.5058C20.0756 12.6792 19.8766 12.9263 19.762 13.2147C19.6772 13.4187 19.5158 13.5813 19.3125 13.6676C19.1092 13.7539 18.8801 13.757 18.6745 13.6763C18.4689 13.5956 18.3031 13.4375 18.2128 13.2359C18.1225 13.0343 18.1148 12.8054 18.1915 12.5982C18.43 11.9942 18.845 11.4761 19.3825 11.1117C19.92 10.7472 20.5548 10.5533 21.2042 10.5552C22.6363 10.5552 23.8525 11.4844 24.2788 12.7771C24.349 12.9897 24.3318 13.2214 24.231 13.4213C24.1303 13.6212 23.9542 13.7729 23.7417 13.843C23.5291 13.9131 23.2973 13.8959 23.0974 13.7952C22.8975 13.6944 22.7458 13.5184 22.6757 13.3058C22.573 12.9966 22.3756 12.7276 22.1116 12.5368C21.8475 12.346 21.53 12.2431 21.2042 12.2427Z" fill="#422E51"/>
</g>
<g filter="url(#filter12_f_1428_3016)">
<path d="M11.3774 18.5574C12.9974 20.075 17.2386 22.199 21.2391 18.5574" stroke="url(#paint17_linear_1428_3016)" stroke-width="0.675" stroke-linecap="round"/>
<path d="M11.3774 18.5574C12.9974 20.075 17.2386 22.199 21.2391 18.5574" stroke="url(#paint18_linear_1428_3016)" stroke-width="0.675" stroke-linecap="round"/>
</g>
<g filter="url(#filter13_f_1428_3016)">
<path d="M22.2347 7.62097C23.2315 7.63222 25.3645 8.39835 25.576 11.0848" stroke="url(#paint19_linear_1428_3016)" stroke-width="0.45" stroke-linecap="round"/>
<path d="M22.2347 7.62097C23.2315 7.63222 25.3645 8.39835 25.576 11.0848" stroke="url(#paint20_linear_1428_3016)" stroke-width="0.45" stroke-linecap="round"/>
</g>
<g filter="url(#filter14_f_1428_3016)">
<path d="M7.17097 11.032C7.21147 10.2524 7.66597 8.76064 9.08685 8.11377" stroke="url(#paint21_linear_1428_3016)" stroke-width="0.45" stroke-linecap="round"/>
</g>
<g filter="url(#filter15_f_1428_3016)">
<path d="M13.9334 13.1706C13.8074 12.4191 13.0221 10.9814 10.8812 11.248" stroke="url(#paint22_linear_1428_3016)" stroke-width="0.5625" stroke-linecap="round"/>
</g>
<g opacity="0.5" filter="url(#filter16_f_1428_3016)">
<path d="M19.096 12.7521C19.303 12.2627 20.0185 11.2963 21.2267 11.3458C22.435 11.3953 23.3912 12.2278 23.6455 12.7521" stroke="url(#paint23_linear_1428_3016)" stroke-width="0.5625" stroke-linecap="round"/>
</g>
<defs>
<filter id="filter0_i_1428_3016" x="0.814484" y="-0.118652" width="30.7337" height="31.9565" filterUnits="userSpaceOnUse" color-interpolation-filters="sRGB">
<feFlood flood-opacity="0" result="BackgroundImageFix"/>
<feBlend mode="normal" in="SourceGraphic" in2="BackgroundImageFix" result="shape"/>
<feColorMatrix in="SourceAlpha" type="matrix" values="0 0 0 0 0 0 0 0 0 0 0 0 0 0 0 0 0 0 127 0" result="hardAlpha"/>
<feOffset dx="0.28125" dy="-0.28125"/>
<feGaussianBlur stdDeviation="0.28125"/>
<feComposite in2="hardAlpha" operator="arithmetic" k2="-1" k3="1"/>
<feColorMatrix type="matrix" values="0 0 0 0 0.85098 0 0 0 0 0.447059 0 0 0 0 0.196078 0 0 0 1 0"/>
<feBlend mode="normal" in2="shape" result="effect1_innerShadow_1428_3016"/>
</filter>
<filter id="filter1_d_1428_3016" x="3.27962" y="3.88477" width="24.8468" height="24.8468" filterUnits="userSpaceOnUse" color-interpolation-filters="sRGB">
<feFlood flood-opacity="0" result="BackgroundImageFix"/>
<feColorMatrix in="SourceAlpha" type="matrix" values="0 0 0 0 0 0 0 0 0 0 0 0 0 0 0 0 0 0 127 0" result="hardAlpha"/>
<feOffset dx="-0.3375" dy="0.3375"/>
<feGaussianBlur stdDeviation="0.16875"/>
<feComposite in2="hardAlpha" operator="out"/>
<feColorMatrix type="matrix" values="0 0 0 0 0.921569 0 0 0 0 0.47451 0 0 0 0 0.133333 0 0 0 1 0"/>
<feBlend mode="normal" in2="BackgroundImageFix" result="effect1_dropShadow_1428_3016"/>
<feBlend mode="normal" in="SourceGraphic" in2="effect1_dropShadow_1428_3016" result="shape"/>
</filter>
<filter id="filter2_f_1428_3016" x="4.71176" y="12.7601" width="7.785" height="7.78503" filterUnits="userSpaceOnUse" color-interpolation-filters="sRGB">
<feFlood flood-opacity="0" result="BackgroundImageFix"/>
<feBlend mode="normal" in="SourceGraphic" in2="BackgroundImageFix" result="shape"/>
<feGaussianBlur stdDeviation="0.28125" result="effect1_foregroundBlur_1428_3016"/>
</filter>
<filter id="filter3_f_1428_3016" x="19.5843" y="12.7601" width="7.785" height="7.78503" filterUnits="userSpaceOnUse" color-interpolation-filters="sRGB">
<feFlood flood-opacity="0" result="BackgroundImageFix"/>
<feBlend mode="normal" in="SourceGraphic" in2="BackgroundImageFix" result="shape"/>
<feGaussianBlur stdDeviation="0.28125" result="effect1_foregroundBlur_1428_3016"/>
</filter>
<filter id="filter4_f_1428_3016" x="9.64561" y="17.5315" width="12.8009" height="4.89026" filterUnits="userSpaceOnUse" color-interpolation-filters="sRGB">
<feFlood flood-opacity="0" result="BackgroundImageFix"/>
<feBlend mode="normal" in="SourceGraphic" in2="BackgroundImageFix" result="shape"/>
<feGaussianBlur stdDeviation="0.28125" result="effect1_foregroundBlur_1428_3016"/>
</filter>
<filter id="filter5_i_1428_3016" x="10.495" y="17.4071" width="11.9257" height="4.03491" filterUnits="userSpaceOnUse" color-interpolation-filters="sRGB">
<feFlood flood-opacity="0" result="BackgroundImageFix"/>
<feBlend mode="normal" in="SourceGraphic" in2="BackgroundImageFix" result="shape"/>
<feColorMatrix in="SourceAlpha" type="matrix" values="0 0 0 0 0 0 0 0 0 0 0 0 0 0 0 0 0 0 127 0" result="hardAlpha"/>
<feOffset dx="0.28125" dy="-0.28125"/>
<feGaussianBlur stdDeviation="0.5625"/>
<feComposite in2="hardAlpha" operator="arithmetic" k2="-1" k3="1"/>
<feColorMatrix type="matrix" values="0 0 0 0 0.203922 0 0 0 0 0.168627 0 0 0 0 0.180392 0 0 0 1 0"/>
<feBlend mode="normal" in2="shape" result="effect1_innerShadow_1428_3016"/>
</filter>
<filter id="filter6_i_1428_3016" x="6.55673" y="6.92139" width="4.75874" height="4.75879" filterUnits="userSpaceOnUse" color-interpolation-filters="sRGB">
<feFlood flood-opacity="0" result="BackgroundImageFix"/>
<feBlend mode="normal" in="SourceGraphic" in2="BackgroundImageFix" result="shape"/>
<feColorMatrix in="SourceAlpha" type="matrix" values="0 0 0 0 0 0 0 0 0 0 0 0 0 0 0 0 0 0 127 0" result="hardAlpha"/>
<feOffset dx="0.28125" dy="-0.28125"/>
<feGaussianBlur stdDeviation="0.28125"/>
<feComposite in2="hardAlpha" operator="arithmetic" k2="-1" k3="1"/>
<feColorMatrix type="matrix" values="0 0 0 0 0.239216 0 0 0 0 0.156863 0 0 0 0 0.172549 0 0 0 1 0"/>
<feBlend mode="normal" in2="shape" result="effect1_innerShadow_1428_3016"/>
</filter>
<filter id="filter7_f_1428_3016" x="20.8859" y="6.9248" width="5.44894" height="5.47314" filterUnits="userSpaceOnUse" color-interpolation-filters="sRGB">
<feFlood flood-opacity="0" result="BackgroundImageFix"/>
<feBlend mode="normal" in="SourceGraphic" in2="BackgroundImageFix" result="shape"/>
<feGaussianBlur stdDeviation="0.28125" result="effect1_foregroundBlur_1428_3016"/>
</filter>
<filter id="filter8_i_1428_3016" x="21.5868" y="7.03389" width="4.64626" height="4.64629" filterUnits="userSpaceOnUse" color-interpolation-filters="sRGB">
<feFlood flood-opacity="0" result="BackgroundImageFix"/>
<feBlend mode="normal" in="SourceGraphic" in2="BackgroundImageFix" result="shape"/>
<feColorMatrix in="SourceAlpha" type="matrix" values="0 0 0 0 0 0 0 0 0 0 0 0 0 0 0 0 0 0 127 0" result="hardAlpha"/>
<feOffset dx="0.16875" dy="-0.16875"/>
<feGaussianBlur stdDeviation="0.28125"/>
<feComposite in2="hardAlpha" operator="arithmetic" k2="-1" k3="1"/>
<feColorMatrix type="matrix" values="0 0 0 0 0.270588 0 0 0 0 0.196078 0 0 0 0 0.192157 0 0 0 1 0"/>
<feBlend mode="normal" in2="shape" result="effect1_innerShadow_1428_3016"/>
</filter>
<filter id="filter9_f_1428_3016" x="8.0804" y="10.4425" width="6.59399" height="3.9636" filterUnits="userSpaceOnUse" color-interpolation-filters="sRGB">
<feFlood flood-opacity="0" result="BackgroundImageFix"/>
<feBlend mode="normal" in="SourceGraphic" in2="BackgroundImageFix" result="shape"/>
<feGaussianBlur stdDeviation="0.225" result="effect1_foregroundBlur_1428_3016"/>
</filter>
<filter id="filter10_f_1428_3016" x="17.831" y="10.4425" width="6.57786" height="3.9415" filterUnits="userSpaceOnUse" color-interpolation-filters="sRGB">
<feFlood flood-opacity="0" result="BackgroundImageFix"/>
<feBlend mode="normal" in="SourceGraphic" in2="BackgroundImageFix" result="shape"/>
<feGaussianBlur stdDeviation="0.225" result="effect1_foregroundBlur_1428_3016"/>
</filter>
<filter id="filter11_i_1428_3016" x="18.1391" y="10.3864" width="6.63225" height="3.49907" filterUnits="userSpaceOnUse" color-interpolation-filters="sRGB">
<feFlood flood-opacity="0" result="BackgroundImageFix"/>
<feBlend mode="normal" in="SourceGraphic" in2="BackgroundImageFix" result="shape"/>
<feColorMatrix in="SourceAlpha" type="matrix" values="0 0 0 0 0 0 0 0 0 0 0 0 0 0 0 0 0 0 127 0" result="hardAlpha"/>
<feOffset dx="0.45" dy="-0.16875"/>
<feGaussianBlur stdDeviation="0.28125"/>
<feComposite in2="hardAlpha" operator="arithmetic" k2="-1" k3="1"/>
<feColorMatrix type="matrix" values="0 0 0 0 0.298039 0 0 0 0 0.196078 0 0 0 0 0.235294 0 0 0 1 0"/>
<feBlend mode="normal" in2="shape" result="effect1_innerShadow_1428_3016"/>
</filter>
<filter id="filter12_f_1428_3016" x="10.3649" y="17.5448" width="11.8868" height="4.03579" filterUnits="userSpaceOnUse" color-interpolation-filters="sRGB">
<feFlood flood-opacity="0" result="BackgroundImageFix"/>
<feBlend mode="normal" in="SourceGraphic" in2="BackgroundImageFix" result="shape"/>
<feGaussianBlur stdDeviation="0.3375" result="effect1_foregroundBlur_1428_3016"/>
</filter>
<filter id="filter13_f_1428_3016" x="21.5597" y="6.946" width="4.69126" height="4.81382" filterUnits="userSpaceOnUse" color-interpolation-filters="sRGB">
<feFlood flood-opacity="0" result="BackgroundImageFix"/>
<feBlend mode="normal" in="SourceGraphic" in2="BackgroundImageFix" result="shape"/>
<feGaussianBlur stdDeviation="0.225" result="effect1_foregroundBlur_1428_3016"/>
</filter>
<filter id="filter14_f_1428_3016" x="6.49597" y="7.43867" width="3.26594" height="4.26841" filterUnits="userSpaceOnUse" color-interpolation-filters="sRGB">
<feFlood flood-opacity="0" result="BackgroundImageFix"/>
<feBlend mode="normal" in="SourceGraphic" in2="BackgroundImageFix" result="shape"/>
<feGaussianBlur stdDeviation="0.225" result="effect1_foregroundBlur_1428_3016"/>
</filter>
<filter id="filter15_f_1428_3016" x="10.0374" y="10.3717" width="4.7397" height="3.6427" filterUnits="userSpaceOnUse" color-interpolation-filters="sRGB">
<feFlood flood-opacity="0" result="BackgroundImageFix"/>
<feBlend mode="normal" in="SourceGraphic" in2="BackgroundImageFix" result="shape"/>
<feGaussianBlur stdDeviation="0.28125" result="effect1_foregroundBlur_1428_3016"/>
</filter>
<filter id="filter16_f_1428_3016" x="18.2522" y="10.5002" width="6.23714" height="3.0957" filterUnits="userSpaceOnUse" color-interpolation-filters="sRGB">
<feFlood flood-opacity="0" result="BackgroundImageFix"/>
<feBlend mode="normal" in="SourceGraphic" in2="BackgroundImageFix" result="shape"/>
<feGaussianBlur stdDeviation="0.28125" result="effect1_foregroundBlur_1428_3016"/>
</filter>
<linearGradient id="paint0_linear_1428_3016" x1="25.4275" y1="5.48127" x2="8.15873" y2="27.5144" gradientUnits="userSpaceOnUse">
<stop stop-color="#FC8B23"/>
<stop offset="1" stop-color="#E67639"/>
</linearGradient>
<radialGradient id="paint1_radial_1428_3016" cx="0" cy="0" r="1" gradientUnits="userSpaceOnUse" gradientTransform="translate(18.949 1.62344) rotate(138.155) scale(4.25097 3.75067)">
<stop offset="0.3" stop-color="#FFA13A"/>
<stop offset="1" stop-color="#FFA13A" stop-opacity="0"/>
</radialGradient>
<radialGradient id="paint2_radial_1428_3016" cx="0" cy="0" r="1" gradientUnits="userSpaceOnUse" gradientTransform="translate(7.88873 0.281522) rotate(67.8105) scale(6.75805 5.96269)">
<stop offset="0.3" stop-color="#FF942A"/>
<stop offset="1" stop-color="#FF942A" stop-opacity="0"/>
</radialGradient>
<radialGradient id="paint3_radial_1428_3016" cx="0" cy="0" r="1" gradientUnits="userSpaceOnUse" gradientTransform="translate(26.0372 6.58544) rotate(-164.745) scale(2.69452 3.73092)">
<stop offset="0.3" stop-color="#FFA13D"/>
<stop offset="1" stop-color="#FFA13D" stop-opacity="0"/>
</radialGradient>
<radialGradient id="paint4_radial_1428_3016" cx="0" cy="0" r="1" gradientUnits="userSpaceOnUse" gradientTransform="translate(31.4732 10.51) rotate(154.195) scale(4.77751 3.52855)">
<stop offset="0.3" stop-color="#FFA13D"/>
<stop offset="1" stop-color="#FFA13D" stop-opacity="0"/>
</radialGradient>
<radialGradient id="paint5_radial_1428_3016" cx="0" cy="0" r="1" gradientUnits="userSpaceOnUse" gradientTransform="translate(32.5127 18.5909) rotate(-173.379) scale(5.32923 3.00322)">
<stop offset="0.3" stop-color="#FFA13D"/>
<stop offset="1" stop-color="#FFA13D" stop-opacity="0"/>
</radialGradient>
<radialGradient id="paint6_radial_1428_3016" cx="0" cy="0" r="1" gradientUnits="userSpaceOnUse" gradientTransform="translate(27.7391 24.7836) rotate(-43.964) scale(4.83405 4.65704)">
<stop stop-color="#E0762A"/>
<stop offset="1" stop-color="#E0762A" stop-opacity="0"/>
</radialGradient>
<radialGradient id="paint7_radial_1428_3016" cx="0" cy="0" r="1" gradientUnits="userSpaceOnUse" gradientTransform="translate(5.33498 23.6489) rotate(-127.747) scale(3.70602 3.5703)">
<stop stop-color="#E0762A"/>
<stop offset="1" stop-color="#E0762A" stop-opacity="0"/>
</radialGradient>
<radialGradient id="paint8_radial_1428_3016" cx="0" cy="0" r="1" gradientUnits="userSpaceOnUse" gradientTransform="translate(0.278108 11.1231) rotate(25.2776) scale(3.76344 4.54866)">
<stop stop-color="#F0851D"/>
<stop offset="1" stop-color="#F0851D" stop-opacity="0"/>
</radialGradient>
<radialGradient id="paint9_radial_1428_3016" cx="0" cy="0" r="1" gradientUnits="userSpaceOnUse" gradientTransform="translate(22.7445 30.1515) rotate(-142.487) scale(4.38778 4.13948)">
<stop offset="0.337" stop-color="#E3745B"/>
<stop offset="1" stop-color="#E3745B" stop-opacity="0"/>
</radialGradient>
<radialGradient id="paint10_radial_1428_3016" cx="0" cy="0" r="1" gradientUnits="userSpaceOnUse" gradientTransform="translate(22.9003 8.96917) rotate(130.262) scale(19.6788 20.053)">
<stop offset="0.172" stop-color="#FFD13D"/>
<stop offset="1" stop-color="#DCA21C"/>
</radialGradient>
<radialGradient id="paint11_radial_1428_3016" cx="0" cy="0" r="1" gradientUnits="userSpaceOnUse" gradientTransform="translate(8.59864 16.647) scale(3.61219 3.6122)">
<stop offset="0.25" stop-color="#ED501F"/>
<stop offset="0.895" stop-color="#F18A42" stop-opacity="0"/>
</radialGradient>
<radialGradient id="paint12_radial_1428_3016" cx="0" cy="0" r="1" gradientUnits="userSpaceOnUse" gradientTransform="translate(23.4723 16.647) scale(3.61219)">
<stop offset="0.13" stop-color="#FB6738"/>
<stop offset="0.895" stop-color="#F18A42" stop-opacity="0"/>
</radialGradient>
<linearGradient id="paint13_linear_1428_3016" x1="10.4954" y1="19.5596" x2="22.1594" y2="19.5596" gradientUnits="userSpaceOnUse">
<stop stop-color="#31243C"/>
<stop offset="1" stop-color="#3F2950"/>
</linearGradient>
<linearGradient id="paint14_linear_1428_3016" x1="22.1605" y1="18.1511" x2="21.4788" y2="18.7834" gradientUnits="userSpaceOnUse">
<stop stop-color="#665C6D"/>
<stop offset="1" stop-color="#665C6D" stop-opacity="0"/>
</linearGradient>
<radialGradient id="paint15_radial_1428_3016" cx="0" cy="0" r="1" gradientUnits="userSpaceOnUse" gradientTransform="translate(11.0336 7.62125) rotate(127.543) scale(1.26367)">
<stop stop-color="#59525C"/>
<stop offset="1" stop-color="#59525C" stop-opacity="0"/>
</radialGradient>
<linearGradient id="paint16_linear_1428_3016" x1="8.431" y1="12.2191" x2="14.6241" y2="12.2191" gradientUnits="userSpaceOnUse">
<stop stop-color="#2E2931"/>
<stop offset="1" stop-color="#362A3F"/>
</linearGradient>
<linearGradient id="paint17_linear_1428_3016" x1="11.1017" y1="17.9375" x2="16.3082" y2="20.5689" gradientUnits="userSpaceOnUse">
<stop stop-color="#4E4753"/>
<stop offset="1" stop-color="#4E4753" stop-opacity="0"/>
</linearGradient>
<linearGradient id="paint18_linear_1428_3016" x1="21.9287" y1="17.7654" x2="15.5151" y2="20.9367" gradientUnits="userSpaceOnUse">
<stop offset="0.09" stop-color="#5E5468"/>
<stop offset="1" stop-color="#5E5468" stop-opacity="0"/>
</linearGradient>
<linearGradient id="paint19_linear_1428_3016" x1="21.8489" y1="7.48035" x2="24.3801" y2="9.0981" gradientUnits="userSpaceOnUse">
<stop stop-color="#60556A"/>
<stop offset="1" stop-color="#60556A" stop-opacity="0"/>
</linearGradient>
<linearGradient id="paint20_linear_1428_3016" x1="25.7684" y1="10.627" x2="23.5881" y2="6.97072" gradientUnits="userSpaceOnUse">
<stop stop-color="#5D4F69"/>
<stop offset="1" stop-color="#5D4F69" stop-opacity="0"/>
</linearGradient>
<linearGradient id="paint21_linear_1428_3016" x1="7.43422" y1="11.419" x2="7.54672" y2="8.06539" gradientUnits="userSpaceOnUse">
<stop stop-color="#524D53"/>
<stop offset="1" stop-color="#524D53" stop-opacity="0"/>
</linearGradient>
<linearGradient id="paint22_linear_1428_3016" x1="13.1391" y1="13.1706" x2="10.4312" y2="12.7544" gradientUnits="userSpaceOnUse">
<stop stop-color="#524D53"/>
<stop offset="1" stop-color="#5C5463" stop-opacity="0"/>
</linearGradient>
<linearGradient id="paint23_linear_1428_3016" x1="22.3551" y1="12.9793" x2="18.3636" y2="12.4045" gradientUnits="userSpaceOnUse">
<stop stop-color="#61556C"/>
<stop offset="1" stop-color="#554A5F"/>
</linearGradient>
</defs>
</svg>
