<svg width="32" height="33" viewBox="0 0 32 33" fill="none" xmlns="http://www.w3.org/2000/svg">
<path d="M15.9989 31.7477C26.4996 31.7477 31.7477 24.6963 31.7477 15.9978C31.7477 7.3015 26.4996 0.25 15.9978 0.25C5.49813 0.25 0.25 7.3015 0.25 15.9989C0.25 24.6962 5.497 31.7477 15.9989 31.7477Z" fill="url(#paint0_radial_1428_2957)"/>
<path d="M15.9989 31.7477C26.4996 31.7477 31.7477 24.6963 31.7477 15.9978C31.7477 7.3015 26.4996 0.25 15.9978 0.25C5.49813 0.25 0.25 7.3015 0.25 15.9989C0.25 24.6962 5.497 31.7477 15.9989 31.7477Z" fill="url(#paint1_radial_1428_2957)"/>
<path d="M15.9989 31.7477C26.4996 31.7477 31.7477 24.6963 31.7477 15.9978C31.7477 7.3015 26.4996 0.25 15.9978 0.25C5.49813 0.25 0.25 7.3015 0.25 15.9989C0.25 24.6962 5.497 31.7477 15.9989 31.7477Z" fill="url(#paint2_radial_1428_2957)"/>
<path d="M15.9989 31.7477C26.4996 31.7477 31.7477 24.6963 31.7477 15.9978C31.7477 7.3015 26.4996 0.25 15.9978 0.25C5.49813 0.25 0.25 7.3015 0.25 15.9989C0.25 24.6962 5.497 31.7477 15.9989 31.7477Z" fill="url(#paint3_radial_1428_2957)" fill-opacity="0.6"/>
<path d="M15.9989 31.7477C26.4996 31.7477 31.7477 24.6963 31.7477 15.9978C31.7477 7.3015 26.4996 0.25 15.9978 0.25C5.49813 0.25 0.25 7.3015 0.25 15.9989C0.25 24.6962 5.497 31.7477 15.9989 31.7477Z" fill="url(#paint4_radial_1428_2957)"/>
<path d="M15.9989 31.7477C26.4996 31.7477 31.7477 24.6963 31.7477 15.9978C31.7477 7.3015 26.4996 0.25 15.9978 0.25C5.49813 0.25 0.25 7.3015 0.25 15.9989C0.25 24.6962 5.497 31.7477 15.9989 31.7477Z" fill="url(#paint5_radial_1428_2957)"/>
<path d="M15.9989 31.7477C26.4996 31.7477 31.7477 24.6963 31.7477 15.9978C31.7477 7.3015 26.4996 0.25 15.9978 0.25C5.49813 0.25 0.25 7.3015 0.25 15.9989C0.25 24.6962 5.497 31.7477 15.9989 31.7477Z" fill="url(#paint6_radial_1428_2957)"/>
<path d="M15.9989 31.7477C26.4996 31.7477 31.7477 24.6963 31.7477 15.9978C31.7477 7.3015 26.4996 0.25 15.9978 0.25C5.49813 0.25 0.25 7.3015 0.25 15.9989C0.25 24.6962 5.497 31.7477 15.9989 31.7477Z" fill="url(#paint7_radial_1428_2957)"/>
<path d="M9.25 22.1875V18.745C9.25 18.3153 9.07932 17.9033 8.77551 17.5995C8.4717 17.2957 8.05965 17.125 7.63 17.125C6.685 17.125 5.93687 17.9327 5.92337 18.8789C5.90087 20.41 5.68937 22.4373 4.75 22.75C1.375 23.875 0.249998 28.9375 3.0625 31.1875C5.3125 32.9875 7.5625 32.875 9.25 32.875H12.3595C12.673 32.8753 12.9773 32.7697 13.2232 32.5753C13.4691 32.3809 13.6421 32.1091 13.7142 31.804C13.7862 31.499 13.753 31.1785 13.6201 30.8946C13.4871 30.6108 13.2621 30.3802 12.9816 30.2403L12.625 30.0625H13.435C13.6859 30.0624 13.9297 29.9785 14.1274 29.8239C14.3251 29.6694 14.4655 29.4532 14.5262 29.2098L14.6016 28.9037C14.6341 28.7743 14.6367 28.6391 14.6091 28.5085C14.5815 28.3779 14.5244 28.2554 14.4423 28.1501C14.3602 28.0449 14.2552 27.9598 14.1352 27.9013C14.0152 27.8428 13.8835 27.8124 13.75 27.8125L14.1212 27.6269C14.3476 27.5133 14.5379 27.3389 14.6709 27.1234C14.8039 26.9078 14.8743 26.6595 14.8743 26.4062C14.8743 26.153 14.8039 25.9047 14.6709 25.6891C14.5379 25.4736 14.3476 25.2992 14.1212 25.1856L13.75 25H15.7187C16.0917 25 16.4494 24.8518 16.7131 24.5881C16.9768 24.3244 17.125 23.9667 17.125 23.5938C17.125 23.2208 16.9768 22.8631 16.7131 22.5994C16.4494 22.3357 16.0917 22.1875 15.7187 22.1875H9.25Z" fill="url(#paint8_radial_1428_2957)"/>
<path d="M12.625 19.375C12.625 19.375 13.8895 17.9091 16.2812 18.25C18.673 18.5909 19.375 20.5 19.375 20.5" stroke="#402A32" stroke-width="2.25" stroke-linecap="round" stroke-linejoin="round"/>
<path d="M8.14413 18.3558C11.0476 18.3558 13.4013 16.0021 13.4013 13.0987C13.4013 10.1952 11.0476 7.84155 8.14413 7.84155C5.2407 7.84155 2.887 10.1952 2.887 13.0987C2.887 16.0021 5.2407 18.3558 8.14413 18.3558Z" fill="url(#paint9_radial_1428_2957)"/>
<path d="M19.6495 18.4604C22.2864 18.4604 24.424 16.3228 24.424 13.6859C24.424 11.049 22.2864 8.91138 19.6495 8.91138C17.0126 8.91138 14.875 11.049 14.875 13.6859C14.875 16.3228 17.0126 18.4604 19.6495 18.4604Z" fill="url(#paint10_radial_1428_2957)"/>
<path d="M9.7225 16.2521C10.3499 16.2618 10.973 16.1465 11.5555 15.9131C12.138 15.6797 12.6683 15.3327 13.1154 14.8924C13.5625 14.4521 13.9176 13.9273 14.16 13.3485C14.4024 12.7697 14.5272 12.1484 14.5272 11.5209C14.5272 10.8934 14.4024 10.2721 14.16 9.69329C13.9176 9.11446 13.5625 8.58963 13.1154 8.14934C12.6683 7.70905 12.138 7.36209 11.5555 7.12867C10.973 6.89525 10.3499 6.78002 9.7225 6.7897C8.48034 6.80885 7.29555 7.31574 6.42391 8.20093C5.55227 9.08612 5.06371 10.2786 5.06371 11.5209C5.06371 12.7632 5.55227 13.9557 6.42391 14.8408C7.29555 15.726 8.48034 16.2329 9.7225 16.2521ZM22.264 16.3387C23.5304 16.3387 24.745 15.8356 25.6405 14.9401C26.536 14.0446 27.0391 12.8301 27.0391 11.5636C27.0391 10.2972 26.536 9.08266 25.6405 8.18716C24.745 7.29166 23.5304 6.78857 22.264 6.78857C20.9974 6.78857 19.7827 7.29172 18.8871 8.18732C17.9915 9.08293 17.4884 10.2976 17.4884 11.5642C17.4884 12.8308 17.9915 14.0455 18.8871 14.9411C19.7827 15.8367 20.9974 16.3387 22.264 16.3387Z" fill="white"/>
<path fill-rule="evenodd" clip-rule="evenodd" d="M12.625 10.9375C12.625 11.8326 12.2694 12.6911 11.6365 13.324C11.0036 13.9569 10.1451 14.3125 9.25 14.3125C8.35489 14.3125 7.49645 13.9569 6.86351 13.324C6.23058 12.6911 5.875 11.8326 5.875 10.9375C5.875 10.0424 6.23058 9.18395 6.86351 8.55101C7.49645 7.91808 8.35489 7.5625 9.25 7.5625C10.1451 7.5625 11.0036 7.91808 11.6365 8.55101C12.2694 9.18395 12.625 10.0424 12.625 10.9375ZM25 10.9375C25 11.8326 24.6444 12.6911 24.0115 13.324C23.3786 13.9569 22.5201 14.3125 21.625 14.3125C20.7299 14.3125 19.8714 13.9569 19.2385 13.324C18.6056 12.6911 18.25 11.8326 18.25 10.9375C18.25 10.0424 18.6056 9.18395 19.2385 8.55101C19.8714 7.91808 20.7299 7.5625 21.625 7.5625C22.5201 7.5625 23.3786 7.91808 24.0115 8.55101C24.6444 9.18395 25 10.0424 25 10.9375Z" fill="url(#paint11_linear_1428_2957)"/>
<g filter="url(#filter0_f_1428_2957)">
<path fill-rule="evenodd" clip-rule="evenodd" d="M12.2909 30.274L12.3527 30.0287C12.3853 29.8992 12.3878 29.7639 12.3602 29.6333C12.3325 29.5026 12.2754 29.3799 12.1931 29.2747C12.1109 29.1694 12.0057 29.0844 11.8856 29.0259C11.7654 28.9675 11.6336 28.9372 11.5 28.9375L11.8712 28.7519C12.0976 28.6383 12.2879 28.4639 12.4209 28.2484C12.5539 28.0328 12.6243 27.7845 12.6243 27.5312C12.6243 27.278 12.5539 27.0297 12.4209 26.8141C12.2879 26.5986 12.0976 26.4242 11.8712 26.3106L11.5 26.125H13.4687C13.8417 26.125 14.1994 25.9768 14.4631 25.7131C14.7268 25.4494 14.875 25.0917 14.875 24.7188C14.875 24.3458 14.7268 23.9881 14.4631 23.7244C14.1994 23.4607 13.8417 23.3125 13.4687 23.3125H7V19.87C7 19.4403 6.82932 19.0283 6.52551 18.7245C6.2217 18.4207 5.80965 18.25 5.38 18.25C4.435 18.25 3.68687 19.0577 3.67337 20.0039C3.6565 21.1941 3.52487 22.6825 3.0265 23.4351C4.75562 26.8562 7.84375 29.3819 12.2909 30.274Z" fill="#E4694E"/>
</g>
<path d="M9.25 22.1875V18.745C9.25 18.3153 9.07932 17.9033 8.77551 17.5995C8.4717 17.2957 8.05965 17.125 7.63 17.125C6.685 17.125 5.93687 17.9327 5.92337 18.8789C5.90087 20.41 5.68937 22.4373 4.75 22.75C1.375 23.875 0.249998 28.9375 3.0625 31.1875C5.3125 32.9875 7.5625 32.875 9.25 32.875H12.3595C12.673 32.8753 12.9773 32.7697 13.2232 32.5753C13.4691 32.3809 13.6421 32.1091 13.7142 31.804C13.7862 31.499 13.753 31.1785 13.6201 30.8946C13.4871 30.6108 13.2621 30.3802 12.9816 30.2403L12.625 30.0625H13.435C13.6859 30.0624 13.9297 29.9785 14.1274 29.8239C14.3251 29.6694 14.4655 29.4532 14.5262 29.2098L14.6016 28.9037C14.6341 28.7743 14.6367 28.6391 14.6091 28.5085C14.5815 28.3779 14.5244 28.2554 14.4423 28.1501C14.3602 28.0449 14.2552 27.9598 14.1352 27.9013C14.0152 27.8428 13.8835 27.8124 13.75 27.8125L14.1212 27.6269C14.3476 27.5133 14.5379 27.3389 14.6709 27.1234C14.8039 26.9078 14.8743 26.6595 14.8743 26.4062C14.8743 26.153 14.8039 25.9047 14.6709 25.6891C14.5379 25.4736 14.3476 25.2992 14.1212 25.1856L13.75 25H15.7187C16.0917 25 16.4494 24.8518 16.7131 24.5881C16.9768 24.3244 17.125 23.9667 17.125 23.5938C17.125 23.2208 16.9768 22.8631 16.7131 22.5994C16.4494 22.3357 16.0917 22.1875 15.7187 22.1875H9.25Z" fill="url(#paint12_radial_1428_2957)"/>
<path d="M9.25 22.1875V18.745C9.25 18.3153 9.07932 17.9033 8.77551 17.5995C8.4717 17.2957 8.05965 17.125 7.63 17.125C6.685 17.125 5.93687 17.9327 5.92337 18.8789C5.90087 20.41 5.68937 22.4373 4.75 22.75C1.375 23.875 0.249998 28.9375 3.0625 31.1875C5.3125 32.9875 7.5625 32.875 9.25 32.875H12.3595C12.673 32.8753 12.9773 32.7697 13.2232 32.5753C13.4691 32.3809 13.6421 32.1091 13.7142 31.804C13.7862 31.499 13.753 31.1785 13.6201 30.8946C13.4871 30.6108 13.2621 30.3802 12.9816 30.2403L12.625 30.0625H13.435C13.6859 30.0624 13.9297 29.9785 14.1274 29.8239C14.3251 29.6694 14.4655 29.4532 14.5262 29.2098L14.6016 28.9037C14.6341 28.7743 14.6367 28.6391 14.6091 28.5085C14.5815 28.3779 14.5244 28.2554 14.4423 28.1501C14.3602 28.0449 14.2552 27.9598 14.1352 27.9013C14.0152 27.8428 13.8835 27.8124 13.75 27.8125L14.1212 27.6269C14.3476 27.5133 14.5379 27.3389 14.6709 27.1234C14.8039 26.9078 14.8743 26.6595 14.8743 26.4062C14.8743 26.153 14.8039 25.9047 14.6709 25.6891C14.5379 25.4736 14.3476 25.2992 14.1212 25.1856L13.75 25H15.7187C16.0917 25 16.4494 24.8518 16.7131 24.5881C16.9768 24.3244 17.125 23.9667 17.125 23.5938C17.125 23.2208 16.9768 22.8631 16.7131 22.5994C16.4494 22.3357 16.0917 22.1875 15.7187 22.1875H9.25Z" fill="url(#paint13_radial_1428_2957)"/>
<path d="M12.0625 3.0625C11.6879 2.68787 10.6 1.9375 9.25 1.9375C7.9 1.9375 6.81213 2.68787 6.4375 3.0625M18.8125 7.5625C18.8125 7.5625 19.9375 6.4375 22.1875 6.4375C24.4375 6.4375 25.5625 7.5625 25.5625 7.5625" stroke="#402A32" stroke-width="1.125" stroke-linecap="round" stroke-linejoin="round"/>
<g opacity="0.8" filter="url(#filter1_f_1428_2957)">
<path d="M9.25 23.875H17.125V25H9.25V23.875Z" fill="#FFA048"/>
</g>
<path d="M10.375 25H13.75C14.0484 25 14.3345 25.1185 14.5455 25.3295C14.7565 25.5405 14.875 25.8266 14.875 26.125L10.375 25Z" fill="url(#paint14_linear_1428_2957)"/>
<path d="M10.375 30.0625H12.625C12.9234 30.0625 13.2095 30.181 13.4205 30.392C13.6315 30.603 13.75 30.8891 13.75 31.1875L10.375 30.0625Z" fill="url(#paint15_linear_1428_2957)"/>
<path d="M10.375 27.8125H13.75C14.0484 27.8125 14.3345 27.931 14.5455 28.142C14.7565 28.353 14.875 28.6391 14.875 28.9375L10.375 27.8125Z" fill="url(#paint16_linear_1428_2957)"/>
<defs>
<filter id="filter0_f_1428_2957" x="0.776497" y="16" width="16.3485" height="16.524" filterUnits="userSpaceOnUse" color-interpolation-filters="sRGB">
<feFlood flood-opacity="0" result="BackgroundImageFix"/>
<feBlend mode="normal" in="SourceGraphic" in2="BackgroundImageFix" result="shape"/>
<feGaussianBlur stdDeviation="1.125" result="effect1_foregroundBlur_1428_2957"/>
</filter>
<filter id="filter1_f_1428_2957" x="7.5625" y="22.1875" width="11.25" height="4.5" filterUnits="userSpaceOnUse" color-interpolation-filters="sRGB">
<feFlood flood-opacity="0" result="BackgroundImageFix"/>
<feBlend mode="normal" in="SourceGraphic" in2="BackgroundImageFix" result="shape"/>
<feGaussianBlur stdDeviation="0.84375" result="effect1_foregroundBlur_1428_2957"/>
</filter>
<radialGradient id="paint0_radial_1428_2957" cx="0" cy="0" r="1" gradientUnits="userSpaceOnUse" gradientTransform="translate(26.6877 8.12453) rotate(132.839) scale(42.1912)">
<stop stop-color="#FFF478"/>
<stop offset="0.475" stop-color="#FFB02E"/>
<stop offset="1" stop-color="#F70A8D"/>
</radialGradient>
<radialGradient id="paint1_radial_1428_2957" cx="0" cy="0" r="1" gradientUnits="userSpaceOnUse" gradientTransform="translate(26.6862 8.12572) rotate(131.878) scale(43.8173)">
<stop stop-color="#FFF478"/>
<stop offset="0.475" stop-color="#FFB02E"/>
<stop offset="1" stop-color="#F70A8D"/>
</radialGradient>
<radialGradient id="paint2_radial_1428_2957" cx="0" cy="0" r="1" gradientUnits="userSpaceOnUse" gradientTransform="translate(15.9992 12.0622) rotate(101.31) scale(20.0774 25.7154)">
<stop offset="0.788" stop-color="#F59639" stop-opacity="0"/>
<stop offset="0.973" stop-color="#FF7DCE"/>
</radialGradient>
<radialGradient id="paint3_radial_1428_2957" cx="0" cy="0" r="1" gradientUnits="userSpaceOnUse" gradientTransform="translate(18.25 13.75) rotate(135) scale(46.1387)">
<stop offset="0.315" stop-opacity="0"/>
<stop offset="1"/>
</radialGradient>
<radialGradient id="paint4_radial_1428_2957" cx="0" cy="0" r="1" gradientUnits="userSpaceOnUse" gradientTransform="translate(15.9999 17.1259) rotate(77.692) scale(31.6653)">
<stop offset="0.508" stop-color="#7D6133" stop-opacity="0"/>
<stop offset="1" stop-color="#715B32"/>
</radialGradient>
<radialGradient id="paint5_radial_1428_2957" cx="0" cy="0" r="1" gradientUnits="userSpaceOnUse" gradientTransform="translate(16.5625 16.5625) rotate(55.713) scale(14.9777 10.8566)">
<stop stop-color="#FFB849"/>
<stop offset="1" stop-color="#FFB847" stop-opacity="0"/>
</radialGradient>
<radialGradient id="paint6_radial_1428_2957" cx="0" cy="0" r="1" gradientUnits="userSpaceOnUse" gradientTransform="translate(21.0625 18.25) rotate(9.86582) scale(13.1317)">
<stop stop-color="#FFA64B"/>
<stop offset="0.9" stop-color="#FFAE46" stop-opacity="0"/>
</radialGradient>
<radialGradient id="paint7_radial_1428_2957" cx="0" cy="0" r="1" gradientUnits="userSpaceOnUse" gradientTransform="translate(17.6876 14.8753) rotate(43.971) scale(66.4345)">
<stop offset="0.185" stop-opacity="0"/>
<stop offset="1" stop-opacity="0.4"/>
</radialGradient>
<radialGradient id="paint8_radial_1428_2957" cx="0" cy="0" r="1" gradientUnits="userSpaceOnUse" gradientTransform="translate(15.4375 22.75) rotate(-178.264) scale(18.571 17.3179)">
<stop offset="0.066" stop-color="#FFEA67"/>
<stop offset="0.593" stop-color="#FFC13F"/>
<stop offset="0.904" stop-color="#DF9030"/>
</radialGradient>
<radialGradient id="paint9_radial_1428_2957" cx="0" cy="0" r="1" gradientUnits="userSpaceOnUse" gradientTransform="translate(12.2347 9.0081) rotate(135) scale(11.4779 5.94057)">
<stop stop-color="#392108"/>
<stop offset="1" stop-color="#C87928" stop-opacity="0"/>
</radialGradient>
<radialGradient id="paint10_radial_1428_2957" cx="0" cy="0" r="1" gradientUnits="userSpaceOnUse" gradientTransform="translate(23.3642 9.97189) rotate(133.664) scale(10.6652 6.0207)">
<stop stop-color="#392108"/>
<stop offset="1" stop-color="#C87928" stop-opacity="0"/>
</radialGradient>
<linearGradient id="paint11_linear_1428_2957" x1="16.5625" y1="5.875" x2="15.4375" y2="13.75" gradientUnits="userSpaceOnUse">
<stop stop-color="#553B3E"/>
<stop offset="1" stop-color="#3D2432"/>
</linearGradient>
<radialGradient id="paint12_radial_1428_2957" cx="0" cy="0" r="1" gradientUnits="userSpaceOnUse" gradientTransform="translate(15.4375 22.75) rotate(-178.264) scale(18.571 17.3179)">
<stop offset="0.066" stop-color="#FFEA67"/>
<stop offset="0.593" stop-color="#FFC13F"/>
<stop offset="0.904" stop-color="#DF9030"/>
</radialGradient>
<radialGradient id="paint13_radial_1428_2957" cx="0" cy="0" r="1" gradientUnits="userSpaceOnUse" gradientTransform="translate(9.8125 23.3125) rotate(172.235) scale(12.4895 12.8066)">
<stop offset="0.5" stop-color="#FFEA67" stop-opacity="0"/>
<stop offset="0.851" stop-color="#F9708E"/>
</radialGradient>
<linearGradient id="paint14_linear_1428_2957" x1="12.0625" y1="25" x2="13.75" y2="26.6875" gradientUnits="userSpaceOnUse">
<stop stop-color="#FA9428"/>
<stop offset="1" stop-color="#FA9428" stop-opacity="0"/>
</linearGradient>
<linearGradient id="paint15_linear_1428_2957" x1="10.9375" y1="30.0625" x2="12.625" y2="31.75" gradientUnits="userSpaceOnUse">
<stop stop-color="#FA9428"/>
<stop offset="1" stop-color="#FA9428" stop-opacity="0"/>
</linearGradient>
<linearGradient id="paint16_linear_1428_2957" x1="10.9375" y1="27.8125" x2="12.625" y2="29.5" gradientUnits="userSpaceOnUse">
<stop stop-color="#FA9428"/>
<stop offset="1" stop-color="#FA9428" stop-opacity="0"/>
</linearGradient>
</defs>
</svg>
