<svg width="24" height="24" viewBox="0 0 24 24" fill="none" xmlns="http://www.w3.org/2000/svg">
<path d="M4.26 19.9309H19.4737C21.3109 19.9309 22.2337 19.017 22.2337 17.2065V6.47437C22.2337 4.66387 21.3109 3.75 19.4737 3.75H4.26C2.43187 3.75038 1.5 4.65562 1.5 6.47437V17.2069C1.5 19.026 2.43187 19.9309 4.26 19.9309ZM16.0987 11.8189C15.7031 11.4675 15.255 11.2826 14.7806 11.2826C14.2882 11.2826 13.8574 11.4499 13.4531 11.8102L9.48075 15.3611L7.85475 13.8844C7.48537 13.5593 7.08975 13.3834 6.66825 13.3834C6.28125 13.3834 5.90325 13.5506 5.54325 13.8757L2.91525 16.2394V6.54562C2.91525 5.63137 3.40725 5.16562 4.28625 5.16562H19.4475C20.3175 5.16562 20.8185 5.63137 20.8185 6.54562V16.2488L16.0987 11.8189ZM8.04787 11.9156C9.18187 11.9156 10.1134 10.9841 10.1134 9.8415C10.1134 8.70787 9.18187 7.76737 8.04787 7.76737C6.90562 7.76737 5.97412 8.70787 5.97412 9.8415C5.97502 10.3913 6.19378 10.9182 6.58247 11.307C6.97117 11.6958 7.49812 11.9146 8.04787 11.9156Z" fill="white"/>
</svg>
