<svg width="32" height="32" viewBox="0 0 32 32" fill="none" xmlns="http://www.w3.org/2000/svg">
<path d="M16.2489 31.4977C26.7496 31.4977 31.9977 24.4463 31.9977 15.7478C31.9977 7.0515 26.7496 0 16.2478 0C5.74813 0 0.5 7.0515 0.5 15.7489C0.5 24.4462 5.747 31.4977 16.2489 31.4977Z" fill="url(#paint0_radial_1428_2799)"/>
<path d="M16.2489 31.4977C26.7496 31.4977 31.9977 24.4463 31.9977 15.7478C31.9977 7.0515 26.7496 0 16.2478 0C5.74813 0 0.5 7.0515 0.5 15.7489C0.5 24.4462 5.747 31.4977 16.2489 31.4977Z" fill="url(#paint1_radial_1428_2799)"/>
<path d="M16.2489 31.4977C26.7496 31.4977 31.9977 24.4463 31.9977 15.7478C31.9977 7.0515 26.7496 0 16.2478 0C5.74813 0 0.5 7.0515 0.5 15.7489C0.5 24.4462 5.747 31.4977 16.2489 31.4977Z" fill="url(#paint2_radial_1428_2799)"/>
<path d="M16.2489 31.4977C26.7496 31.4977 31.9977 24.4463 31.9977 15.7478C31.9977 7.0515 26.7496 0 16.2478 0C5.74813 0 0.5 7.0515 0.5 15.7489C0.5 24.4462 5.747 31.4977 16.2489 31.4977Z" fill="url(#paint3_radial_1428_2799)" fill-opacity="0.6"/>
<path d="M16.2489 31.4977C26.7496 31.4977 31.9977 24.4463 31.9977 15.7478C31.9977 7.0515 26.7496 0 16.2478 0C5.74813 0 0.5 7.0515 0.5 15.7489C0.5 24.4462 5.747 31.4977 16.2489 31.4977Z" fill="url(#paint4_radial_1428_2799)"/>
<path d="M16.2489 31.4977C26.7496 31.4977 31.9977 24.4463 31.9977 15.7478C31.9977 7.0515 26.7496 0 16.2478 0C5.74813 0 0.5 7.0515 0.5 15.7489C0.5 24.4462 5.747 31.4977 16.2489 31.4977Z" fill="url(#paint5_radial_1428_2799)"/>
<path d="M16.2489 31.4977C26.7496 31.4977 31.9977 24.4463 31.9977 15.7478C31.9977 7.0515 26.7496 0 16.2478 0C5.74813 0 0.5 7.0515 0.5 15.7489C0.5 24.4462 5.747 31.4977 16.2489 31.4977Z" fill="url(#paint6_radial_1428_2799)"/>
<path d="M16.2489 31.4977C26.7496 31.4977 31.9977 24.4463 31.9977 15.7478C31.9977 7.0515 26.7496 0 16.2478 0C5.74813 0 0.5 7.0515 0.5 15.7489C0.5 24.4462 5.747 31.4977 16.2489 31.4977Z" fill="url(#paint7_radial_1428_2799)"/>
<path d="M8.39413 18.1058C11.2976 18.1058 13.6513 15.7521 13.6513 12.8487C13.6513 9.94525 11.2976 7.59155 8.39413 7.59155C5.4907 7.59155 3.137 9.94525 3.137 12.8487C3.137 15.7521 5.4907 18.1058 8.39413 18.1058Z" fill="url(#paint8_radial_1428_2799)"/>
<path d="M19.8995 18.2104C22.5364 18.2104 24.674 16.0728 24.674 13.4359C24.674 10.799 22.5364 8.66138 19.8995 8.66138C17.2626 8.66138 15.125 10.799 15.125 13.4359C15.125 16.0728 17.2626 18.2104 19.8995 18.2104Z" fill="url(#paint9_radial_1428_2799)"/>
<path d="M9.9725 16.0021C10.6 16.0118 11.2231 15.8965 11.8055 15.6631C12.388 15.4297 12.9183 15.0827 13.3654 14.6424C13.8126 14.2021 14.1676 13.6773 14.41 13.0985C14.6524 12.5197 14.7772 11.8984 14.7772 11.2709C14.7772 10.6434 14.6524 10.0221 14.41 9.44329C14.1676 8.86446 13.8126 8.33963 13.3654 7.89934C12.9183 7.45905 12.388 7.11209 11.8055 6.87867C11.2231 6.64525 10.6 6.53002 9.9725 6.5397C8.73035 6.55885 7.54555 7.06574 6.67391 7.95093C5.80227 8.83612 5.31371 10.0286 5.31371 11.2709C5.31371 12.5132 5.80227 13.7057 6.67391 14.5908C7.54555 15.476 8.73035 15.9829 9.9725 16.0021ZM22.514 16.0887C23.7804 16.0887 24.995 15.5856 25.8905 14.6901C26.786 13.7946 27.2891 12.5801 27.2891 11.3136C27.2891 10.0472 26.786 8.83266 25.8905 7.93716C24.995 7.04166 23.7804 6.53857 22.514 6.53857C21.2474 6.53857 20.0327 7.04172 19.1371 7.93732C18.2415 8.83293 17.7384 10.0476 17.7384 11.3142C17.7384 12.5808 18.2415 13.7955 19.1371 14.6911C20.0327 15.5867 21.2474 16.0887 22.514 16.0887Z" fill="white"/>
<path d="M10.625 14.625C11.5201 14.625 12.3786 14.2694 13.0115 13.6365C13.6444 13.0036 14 12.1451 14 11.25C14 10.3549 13.6444 9.49645 13.0115 8.86351C12.3786 8.23058 11.5201 7.875 10.625 7.875C9.72989 7.875 8.87145 8.23058 8.23851 8.86351C7.60558 9.49645 7.25 10.3549 7.25 11.25C7.25 12.1451 7.60558 13.0036 8.23851 13.6365C8.87145 14.2694 9.72989 14.625 10.625 14.625Z" fill="url(#paint10_linear_1428_2799)"/>
<path d="M21.875 14.625C22.7701 14.625 23.6286 14.2694 24.2615 13.6365C24.8944 13.0036 25.25 12.1451 25.25 11.25C25.25 10.3549 24.8944 9.49645 24.2615 8.86351C23.6286 8.23058 22.7701 7.875 21.875 7.875C20.9799 7.875 20.1214 8.23058 19.4885 8.86351C18.8556 9.49645 18.5 10.3549 18.5 11.25C18.5 12.1451 18.8556 13.0036 19.4885 13.6365C20.1214 14.2694 20.9799 14.625 21.875 14.625Z" fill="url(#paint11_linear_1428_2799)"/>
<path fill-rule="evenodd" clip-rule="evenodd" d="M18.1287 16.7849C17.8304 16.7849 17.5442 16.9034 17.3333 17.1144C17.1223 17.3254 17.0037 17.6115 17.0037 17.9099C17.0037 18.2083 17.1223 18.4944 17.3333 18.7054C17.5442 18.9164 17.8304 19.0349 18.1287 19.0349C18.2056 19.0349 18.2816 19.05 18.3526 19.0794C18.4236 19.1088 18.4881 19.1519 18.5424 19.2063C18.5967 19.2606 18.6398 19.3251 18.6692 19.396C18.6986 19.467 18.7137 19.5431 18.7137 19.6199C18.7137 19.6967 18.6986 19.7728 18.6692 19.8438C18.6398 19.9148 18.5967 19.9792 18.5424 20.0336C18.4881 20.0879 18.4236 20.131 18.3526 20.1604C18.2816 20.1898 18.2056 20.2049 18.1287 20.2049C17.8304 20.2049 17.5442 20.3234 17.3333 20.5344C17.1223 20.7454 17.0037 21.0315 17.0037 21.3299C17.0037 21.6283 17.1223 21.9144 17.3333 22.1254C17.5442 22.3364 17.8304 22.4549 18.1287 22.4549C18.2839 22.4549 18.4327 22.5165 18.5424 22.6263C18.6521 22.736 18.7137 22.8848 18.7137 23.0399C18.7137 23.1951 18.6521 23.3439 18.5424 23.4536C18.4327 23.5633 18.2839 23.6249 18.1287 23.6249C17.8304 23.6249 17.5442 23.7434 17.3333 23.9544C17.1223 24.1654 17.0037 24.4515 17.0037 24.7499C17.0037 25.0483 17.1223 25.3344 17.3333 25.5454C17.5442 25.7564 17.8304 25.8749 18.1287 25.8749C18.6562 25.8749 19.1732 25.7278 19.6216 25.45C20.07 25.1723 20.432 24.775 20.667 24.3027C20.9019 23.8305 21.0005 23.3021 20.9515 22.7769C20.9026 22.2517 20.7081 21.7506 20.39 21.3299C20.7081 20.9092 20.9026 20.4081 20.9515 19.8829C21.0005 19.3577 20.9019 18.8293 20.667 18.3571C20.432 17.8849 20.07 17.4875 19.6216 17.2098C19.1732 16.932 18.6562 16.7849 18.1287 16.7849Z" fill="url(#paint12_radial_1428_2799)"/>
<mask id="mask0_1428_2799" style="mask-type:luminance" maskUnits="userSpaceOnUse" x="17" y="16" width="4" height="10">
<path fill-rule="evenodd" clip-rule="evenodd" d="M18.1287 16.7849C17.8304 16.7849 17.5442 16.9034 17.3333 17.1144C17.1223 17.3254 17.0037 17.6115 17.0037 17.9099C17.0037 18.2083 17.1223 18.4944 17.3333 18.7054C17.5442 18.9164 17.8304 19.0349 18.1287 19.0349C18.2056 19.0349 18.2816 19.05 18.3526 19.0794C18.4236 19.1088 18.4881 19.1519 18.5424 19.2063C18.5967 19.2606 18.6398 19.3251 18.6692 19.396C18.6986 19.467 18.7137 19.5431 18.7137 19.6199C18.7137 19.6967 18.6986 19.7728 18.6692 19.8438C18.6398 19.9148 18.5967 19.9792 18.5424 20.0336C18.4881 20.0879 18.4236 20.131 18.3526 20.1604C18.2816 20.1898 18.2056 20.2049 18.1287 20.2049C17.8304 20.2049 17.5442 20.3234 17.3333 20.5344C17.1223 20.7454 17.0037 21.0315 17.0037 21.3299C17.0037 21.6283 17.1223 21.9144 17.3333 22.1254C17.5442 22.3364 17.8304 22.4549 18.1287 22.4549C18.2839 22.4549 18.4327 22.5165 18.5424 22.6263C18.6521 22.736 18.7137 22.8848 18.7137 23.0399C18.7137 23.1951 18.6521 23.3439 18.5424 23.4536C18.4327 23.5633 18.2839 23.6249 18.1287 23.6249C17.8304 23.6249 17.5442 23.7434 17.3333 23.9544C17.1223 24.1654 17.0037 24.4515 17.0037 24.7499C17.0037 25.0483 17.1223 25.3344 17.3333 25.5454C17.5442 25.7564 17.8304 25.8749 18.1287 25.8749C18.6562 25.8749 19.1732 25.7278 19.6216 25.45C20.07 25.1723 20.432 24.775 20.667 24.3027C20.9019 23.8305 21.0005 23.3021 20.9515 22.7769C20.9026 22.2517 20.7081 21.7506 20.39 21.3299C20.7081 20.9092 20.9026 20.4081 20.9515 19.8829C21.0005 19.3577 20.9019 18.8293 20.667 18.3571C20.432 17.8849 20.07 17.4875 19.6216 17.2098C19.1732 16.932 18.6562 16.7849 18.1287 16.7849Z" fill="white"/>
</mask>
<g mask="url(#mask0_1428_2799)">
<path d="M20.39 21.3299L19.9422 20.9902L19.6846 21.3299L19.9422 21.6697L20.39 21.3299ZM17.5662 17.9099C17.5662 17.7607 17.6255 17.6177 17.731 17.5122C17.8365 17.4067 17.9796 17.3474 18.1287 17.3474V16.2224C17.6812 16.2224 17.252 16.4002 16.9355 16.7167C16.619 17.0331 16.4412 17.4624 16.4412 17.9099H17.5662ZM18.1287 18.4724C17.9796 18.4724 17.8365 18.4131 17.731 18.3077C17.6255 18.2022 17.5662 18.0591 17.5662 17.9099H16.4412C16.4412 18.3575 16.619 18.7867 16.9355 19.1032C17.252 19.4196 17.6812 19.5974 18.1287 19.5974V18.4724ZM19.2763 19.6199C19.2763 19.3156 19.1554 19.0237 18.9402 18.8085C18.725 18.5933 18.4331 18.4724 18.1287 18.4724V19.5974C18.1347 19.5974 18.1404 19.5998 18.1447 19.604C18.1489 19.6082 18.1513 19.6139 18.1513 19.6199H19.2763ZM18.1287 20.7674C18.4331 20.7674 18.725 20.6465 18.9402 20.4313C19.1554 20.2161 19.2763 19.9242 19.2763 19.6199H18.1513C18.1513 19.6259 18.1489 19.6316 18.1447 19.6358C18.1404 19.64 18.1347 19.6424 18.1287 19.6424V20.7674ZM17.5662 21.3299C17.5662 21.1807 17.6255 21.0377 17.731 20.9322C17.8365 20.8267 17.9796 20.7674 18.1287 20.7674V19.6424C17.6812 19.6424 17.252 19.8202 16.9355 20.1367C16.619 20.4531 16.4412 20.8824 16.4412 21.3299H17.5662ZM18.1287 21.8924C17.9796 21.8924 17.8365 21.8331 17.731 21.7277C17.6255 21.6222 17.5662 21.4791 17.5662 21.3299H16.4412C16.4412 21.7775 16.619 22.2067 16.9355 22.5232C17.252 22.8396 17.6812 23.0174 18.1287 23.0174V21.8924ZM19.2763 23.0399C19.2763 22.7356 19.1554 22.4437 18.9402 22.2285C18.725 22.0133 18.4331 21.8924 18.1287 21.8924V23.0174C18.1347 23.0174 18.1404 23.0198 18.1447 23.024C18.1489 23.0282 18.1513 23.0339 18.1513 23.0399H19.2763ZM18.1287 24.1874C18.4331 24.1874 18.725 24.0665 18.9402 23.8513C19.1554 23.6361 19.2763 23.3442 19.2763 23.0399H18.1513C18.1513 23.0459 18.1489 23.0516 18.1447 23.0558C18.1404 23.06 18.1347 23.0624 18.1287 23.0624V24.1874ZM17.5662 24.7499C17.5662 24.6007 17.6255 24.4577 17.731 24.3522C17.8365 24.2467 17.9796 24.1874 18.1287 24.1874V23.0624C17.6812 23.0624 17.252 23.2402 16.9355 23.5567C16.619 23.8731 16.4412 24.3024 16.4412 24.7499H17.5662ZM18.1287 25.3124C17.9796 25.3124 17.8365 25.2531 17.731 25.1477C17.6255 25.0422 17.5662 24.8991 17.5662 24.7499H16.4412C16.4412 25.1975 16.619 25.6267 16.9355 25.9432C17.252 26.2596 17.6812 26.4374 18.1287 26.4374V25.3124ZM20.4013 23.0399C20.4013 23.6426 20.1618 24.2206 19.7357 24.6468C19.3095 25.073 18.7315 25.3124 18.1287 25.3124V26.4374C19.0298 26.4374 19.894 26.0795 20.5311 25.4423C21.1683 24.8052 21.5263 23.941 21.5263 23.0399H20.4013ZM19.9422 21.6697C20.2302 22.0499 20.4013 22.5247 20.4013 23.0399H21.5263C21.5281 22.2998 21.2866 21.5796 20.8389 20.9902L19.9422 21.6697ZM20.4013 19.6199C20.4013 20.1352 20.2302 20.6099 19.9422 20.9902L20.8389 21.6697C21.2862 21.0801 21.5273 20.3599 21.5251 19.6199H20.4013ZM18.1287 17.3474C18.7315 17.3474 19.3095 17.5868 19.7357 18.013C20.1618 18.4392 20.4013 19.0172 20.4013 19.6199H21.5263C21.5263 18.7188 21.1683 17.8547 20.5311 17.2175C19.894 16.5804 19.0298 16.2224 18.1287 16.2224V17.3474Z" fill="url(#paint13_linear_1428_2799)"/>
</g>
<defs>
<radialGradient id="paint0_radial_1428_2799" cx="0" cy="0" r="1" gradientUnits="userSpaceOnUse" gradientTransform="translate(26.9377 7.87453) rotate(132.839) scale(42.1912)">
<stop stop-color="#FFF478"/>
<stop offset="0.475" stop-color="#FFB02E"/>
<stop offset="1" stop-color="#F70A8D"/>
</radialGradient>
<radialGradient id="paint1_radial_1428_2799" cx="0" cy="0" r="1" gradientUnits="userSpaceOnUse" gradientTransform="translate(26.9362 7.87572) rotate(131.878) scale(43.8173)">
<stop stop-color="#FFF478"/>
<stop offset="0.475" stop-color="#FFB02E"/>
<stop offset="1" stop-color="#F70A8D"/>
</radialGradient>
<radialGradient id="paint2_radial_1428_2799" cx="0" cy="0" r="1" gradientUnits="userSpaceOnUse" gradientTransform="translate(16.2492 11.8122) rotate(101.31) scale(20.0774 25.7154)">
<stop offset="0.788" stop-color="#F59639" stop-opacity="0"/>
<stop offset="0.973" stop-color="#FF7DCE"/>
</radialGradient>
<radialGradient id="paint3_radial_1428_2799" cx="0" cy="0" r="1" gradientUnits="userSpaceOnUse" gradientTransform="translate(18.5 13.5) rotate(135) scale(46.1387)">
<stop offset="0.315" stop-opacity="0"/>
<stop offset="1"/>
</radialGradient>
<radialGradient id="paint4_radial_1428_2799" cx="0" cy="0" r="1" gradientUnits="userSpaceOnUse" gradientTransform="translate(16.2499 16.8759) rotate(77.692) scale(31.6653)">
<stop offset="0.508" stop-color="#7D6133" stop-opacity="0"/>
<stop offset="1" stop-color="#715B32"/>
</radialGradient>
<radialGradient id="paint5_radial_1428_2799" cx="0" cy="0" r="1" gradientUnits="userSpaceOnUse" gradientTransform="translate(16.8125 16.3125) rotate(55.713) scale(14.9777 10.8566)">
<stop stop-color="#FFB849"/>
<stop offset="1" stop-color="#FFB847" stop-opacity="0"/>
</radialGradient>
<radialGradient id="paint6_radial_1428_2799" cx="0" cy="0" r="1" gradientUnits="userSpaceOnUse" gradientTransform="translate(21.3125 18) rotate(9.86582) scale(13.1317)">
<stop stop-color="#FFA64B"/>
<stop offset="0.9" stop-color="#FFAE46" stop-opacity="0"/>
</radialGradient>
<radialGradient id="paint7_radial_1428_2799" cx="0" cy="0" r="1" gradientUnits="userSpaceOnUse" gradientTransform="translate(17.9376 14.6253) rotate(43.971) scale(66.4345)">
<stop offset="0.185" stop-opacity="0"/>
<stop offset="1" stop-opacity="0.4"/>
</radialGradient>
<radialGradient id="paint8_radial_1428_2799" cx="0" cy="0" r="1" gradientUnits="userSpaceOnUse" gradientTransform="translate(12.4847 8.7581) rotate(135) scale(10.244 5.30196)">
<stop stop-color="#392108"/>
<stop offset="1" stop-color="#C87928" stop-opacity="0"/>
</radialGradient>
<radialGradient id="paint9_radial_1428_2799" cx="0" cy="0" r="1" gradientUnits="userSpaceOnUse" gradientTransform="translate(23.614 9.7214) rotate(135) scale(8.62839 4.87087)">
<stop stop-color="#392108"/>
<stop offset="1" stop-color="#C87928" stop-opacity="0"/>
</radialGradient>
<linearGradient id="paint10_linear_1428_2799" x1="16.8125" y1="6.75" x2="15.6875" y2="14.625" gradientUnits="userSpaceOnUse">
<stop stop-color="#553B3E"/>
<stop offset="1" stop-color="#3D2432"/>
</linearGradient>
<linearGradient id="paint11_linear_1428_2799" x1="16.8125" y1="6.75" x2="15.6875" y2="14.625" gradientUnits="userSpaceOnUse">
<stop stop-color="#553B3E"/>
<stop offset="1" stop-color="#3D2432"/>
</linearGradient>
<radialGradient id="paint12_radial_1428_2799" cx="0" cy="0" r="1" gradientUnits="userSpaceOnUse" gradientTransform="translate(17.0037 21.3299) scale(7.12134 8.1734)">
<stop stop-color="#3E3537"/>
<stop offset="0.313" stop-color="#523A4F"/>
<stop offset="0.676" stop-color="#6A5763"/>
</radialGradient>
<linearGradient id="paint13_linear_1428_2799" x1="19.625" y1="21.3749" x2="21.3125" y2="20.8124" gradientUnits="userSpaceOnUse">
<stop stop-color="#664F62" stop-opacity="0"/>
<stop offset="1" stop-color="#765D72"/>
</linearGradient>
</defs>
</svg>
