<svg width="21" height="21" viewBox="0 0 21 21" fill="none" xmlns="http://www.w3.org/2000/svg">
<path d="M16.0518 0C17.5335 0 18.8164 0.441117 19.7197 1.4082C20.6127 2.36442 20.9999 3.69112 21 5.19336V12.208L20.9951 12.4873C20.9494 13.8744 20.5576 15.0985 19.7207 15.9961C18.8174 16.9649 17.5335 17.4054 16.0498 17.4004V17.4014L10.6357 17.3926L7.80762 20.1328L7.80664 20.1318C7.4186 20.5178 6.91345 20.9999 6.12109 21C5.59451 21 5.10717 20.7823 4.77441 20.3652C4.46264 19.9743 4.35352 19.4952 4.35352 19.0566V17.3672C3.12833 17.2657 2.06608 16.8292 1.28516 15.9971C0.389745 15.0428 5.28625e-05 13.7152 0 12.208V5.19336L0.00488281 4.91309C0.0509518 3.52138 0.44522 2.29869 1.28418 1.40332C2.18876 0.437922 3.47169 0 4.94824 0H16.0518Z" fill="white" stroke="#FB5607" stroke-width="2"/>
<circle cx="6" cy="8.5" r="1.5" fill="black" fill-opacity="0.23"/>
<circle cx="11" cy="8.5" r="1.5" fill="black" fill-opacity="0.23"/>
<circle cx="16" cy="8.5" r="1.5" fill="black" fill-opacity="0.23"/>
</svg>
